<?xml version="1.0" encoding="UTF-8"?>
<svg width="100px" height="100px" viewBox="0 0 100 100" version="1.1" xmlns="http://www.w3.org/2000/svg" xmlns:xlink="http://www.w3.org/1999/xlink">
    <title>medi-05</title>
    <defs>
        <path d="M0,49.9998195 C0,77.6145319 22.3858696,100 50,100 L50,100 C77.6141304,100 100,77.6145319 100,49.9998195 L100,49.9998195 C100,22.3858291 77.6141304,0 50,0 L50,0 C22.3858696,0 0,22.3858291 0,49.9998195 L0,49.9998195 Z" id="path-1"></path>
        <polygon id="path-3" points="0 0 68.7739068 0 68.7739068 103.884266 0 103.884266"></polygon>
    </defs>
    <g id="Page-1" stroke="none" stroke-width="1" fill="none" fill-rule="evenodd">
        <g id="Group-59">
            <mask id="mask-2" fill="white">
                <use xlink:href="#path-1"></use>
            </mask>
            <g id="Clip-2"></g>
            <polygon id="Fill-1" fill="#F69767" mask="url(#mask-2)" points="-43.4782609 142.028886 157.971014 142.028886 157.971014 -9.41993148 -43.4782609 -9.41993148"></polygon>
            <g id="Group-324" mask="url(#mask-2)">
                <g transform="translate(16.000000, 19.000000)">
                    <g id="Group-3" stroke-width="1" fill="none">
                        <mask id="mask-4" fill="white">
                            <use xlink:href="#path-3"></use>
                        </mask>
                        <g id="Clip-2"></g>
                        <path d="M25.78,68.6335664 C23.94,67.4745664 21.896,66.9355664 19.912,66.2615664 C18.991,65.9485664 18.184,65.4655664 17.424,64.8955664 C17.113,64.6615664 16.731,64.6915664 16.432,64.5075664 C15.039,63.6475664 13.62,62.8155664 12.587,61.4965664 C12.46,61.3345664 12.321,61.0965664 12.137,61.1515664 C11.374,61.3795664 11.064,60.7815664 10.65,60.3865664 C8.377,58.2205664 6.548,55.7025664 4.892,53.0535664 C4.41,52.2815664 4.01,51.4545664 3.613,50.6335664 C2.522,48.3735664 1.557,46.0585664 0.979,43.6105664 C0.316,40.8025664 0.012,37.9495664 -0.000342460431,35.0605664 C-0.01,32.5325664 0.198,30.0145664 0.756,27.5635664 C1.473,24.4135664 2.502,21.3585664 4.091,18.5045664 C5.736,15.5475664 7.681,12.8195664 10.06,10.4285664 C11.369,9.1145664 12.834,7.9655664 14.35,6.8615664 C16.664,5.1765664 19.127,3.8405664 21.763,2.7895664 C23.245,2.1985664 24.752,1.6735664 26.321,1.3505664 C26.832,1.2445664 27.333,1.1295664 27.758,0.789566398 C28.013,0.585566398 28.33,0.540566398 28.658,0.504566398 C31.119,0.228566398 33.563,-0.124433602 36.066,0.043566398 C38.502,0.206566398 40.888,0.558566398 43.253,1.1485664 C44.959,1.5735664 46.641,2.0995664 48.192,2.8935664 C50.411,4.0295664 52.674,5.0975664 54.633,6.7165664 C55.551,7.4755664 56.525,8.1715664 57.377,9.0105664 C58.933,10.5445664 60.452,12.0915664 61.769,13.8665664 C62.991,15.5135664 64.051,17.2245664 64.989,19.0315664 C66.207,21.3775664 67.042,23.8585664 67.724,26.4095664 C68.707,30.0865664 68.936,33.8295664 68.673,37.5855664 C68.512,39.8835664 68.086,42.1645664 67.462,44.4145664 C66.807,46.7755664 65.942,49.0445664 64.798,51.1815664 C63.383,53.8225664 61.807,56.3825664 59.692,58.5565664 C58.104,60.1895664 56.494,61.7965664 54.628,63.1235664 C54.345,63.3235664 54.152,63.6525664 53.921,63.9235664 C52.841,65.1895664 51.294,65.6725664 49.755,66.4155664 C50.736,67.4235664 51.277,68.6405664 51.443,70.0175664 C51.609,71.4015664 51.709,72.7935664 51.519,74.1765664 C51.398,75.0575664 51.358,75.9295664 51.379,76.8135664 C51.419,78.5405664 51.277,80.2505664 50.848,81.9305664 C50.789,82.1625664 50.673,82.4035664 50.694,82.6305664 C50.805,83.8125664 50.122,84.8665664 50.17,86.0355664 C50.182,86.3295664 50.076,86.6415664 49.829,86.7725664 C48.47,87.4885664 48.837,88.7705664 49.146,89.7015664 C49.67,91.2795664 50.101,92.9145664 50.975,94.3805664 C51.404,95.0995664 51.219,96.0285664 51.341,96.8575664 C51.546,98.2425664 51.696,99.6355664 51.867,101.025566 C51.922,101.481566 51.985,101.889566 52.597,101.941566 C52.951,101.971566 53.026,102.312566 52.878,102.585566 C52.709,102.898566 52.473,103.372566 52.078,103.229566 C50.933,102.811566 49.92,103.184566 48.832,103.481566 C47.122,103.947566 45.332,103.960566 43.583,103.765566 C42.54,103.648566 42.614,103.738566 42.697,102.622566 C42.827,100.867566 42.687,99.1235664 42.678,97.3735664 C42.67,95.7965664 42.212,94.2905664 41.967,92.7505664 C41.901,92.3375664 41.698,92.2245664 41.314,92.2575664 C40.325,92.3425664 39.346,92.5805664 38.339,92.3635664 C37.932,92.2765664 37.929,92.6485664 37.906,92.9225664 C37.809,94.1195664 37.624,95.3195664 37.652,96.5145664 C37.693,98.3015664 37.481,100.102566 38.041,101.876566 C38.386,102.968566 37.904,103.569566 36.709,103.601566 C34.436,103.660566 32.14,103.922566 29.912,103.178566 C29.473,103.032566 29.038,103.222566 28.601,103.235566 C28.282,103.245566 27.919,103.266566 27.814,102.865566 C27.728,102.537566 27.971,102.281566 28.233,102.221566 C29.173,102.008566 29.111,101.366566 29.136,100.603566 C29.193,98.8465664 29.001,97.0705664 29.473,95.3355664 C29.682,94.5685664 29.921,93.8105664 29.952,92.9925664 C29.978,92.3265664 30.402,91.6165664 30.258,91.0215664 C30.113,90.4185664 29.513,89.9095664 29.064,89.4025664 C28.492,88.7575664 28.273,87.7395664 27.16,87.6435664 C26.867,87.6175664 26.859,87.2145664 26.753,86.9575664 C25.606,84.1835664 25.214,81.2715664 25.052,78.2965664 C24.946,76.3745664 24.864,74.4495664 24.681,72.5285664 C24.549,71.1385664 24.643,69.7055664 25.78,68.6335664" id="Fill-1" fill="#000000" mask="url(#mask-4)"></path>
                    </g>
                    <path d="M41.2635,67.2030664 C40.6165,67.6100664 39.8595,67.4460664 39.1605,67.5890664 C37.2685,67.9760664 35.3395,67.9860664 33.4125,67.9870664 C32.9865,67.9870664 32.6365,67.7970664 32.2705,67.6720664 C30.7485,67.1520664 29.1105,67.2550664 27.5895,66.7320664 C25.7145,66.0890664 23.8315,65.4870664 22.0785,64.5310664 C21.2085,64.0560664 20.2155,63.8560664 19.3365,63.3600664 C17.5735,62.3630664 15.7425,61.4860664 13.9905,60.4720664 C12.8485,59.8100664 11.9255,58.8420664 10.9985,57.9060664 C9.3915,56.2820664 8.0245,54.4470664 6.8265,52.5270664 C6.1465,51.4370664 5.4245,50.3200664 5.0015,49.0540664 C4.6255,47.9270664 4.0265,46.8790664 3.6645,45.7360664 C2.8455,43.1470664 2.1585,40.5450664 1.9685,37.8070664 C1.7485,34.6290664 2.0365,31.4950664 2.4905,28.3700664 C2.6605,27.1980664 3.0275,26.0430664 3.4095,24.9150664 C4.8995,20.5300664 7.0505,16.5200664 10.1025,12.9930664 C12.8565,9.8110664 16.0965,7.2490664 19.7575,5.2410664 C22.0265,3.9970664 24.4675,3.0990664 26.9825,2.4430664 C27.0605,2.4230664 27.1435,2.3600664 27.2105,2.3760664 C28.5825,2.6870664 29.8725,2.1290664 31.2015,1.9960664 C32.5585,1.8600664 33.9205,1.8300664 35.2755,1.8660664 C38.9685,1.9630664 42.5395,2.6510664 46.0315,3.9210664 C48.6835,4.8860664 51.1085,6.2390664 53.4055,7.8060664 C56.3955,9.8460664 58.9125,12.4180664 61.0225,15.3700664 C61.8795,16.5690664 62.7485,17.7660664 63.2485,19.1760664 C63.8825,21.9550664 64.4335,24.7460664 64.4925,27.6100664 C64.5255,29.2120664 64.4275,30.8130664 64.6925,32.4140664 C64.9085,33.7140664 64.3955,34.9560664 64.1075,36.1980664 C61.9805,45.3670664 57.7595,53.4820664 51.7025,60.6620664 C51.0185,61.4740664 50.0945,61.9910664 49.2435,62.5840664 C47.1335,64.0560664 44.9035,65.3290664 42.5685,66.4100664 C42.0725,66.5720664 41.5885,66.7560664 41.2635,67.2030664" id="Fill-4" fill="#FFFFFF"></path>
                    <path d="M32.3484,85.7898664 C30.9964,86.7678664 29.4784,86.8208664 27.7964,86.6358664 C28.0424,86.0258664 27.8624,85.5118664 27.7054,84.9818664 C27.3864,83.9098664 27.2684,82.7978664 27.0944,81.6958664 C26.9704,80.9118664 26.8984,80.1028664 26.6404,79.3618664 C26.2654,78.2858664 26.1354,77.1788664 26.0804,76.0718664 C26.0144,74.7558664 26.0604,73.4298664 26.1344,72.1118664 C26.1884,71.1458664 26.7124,70.4048664 27.5244,69.8748664 C28.2144,69.6838664 28.8874,69.6418664 29.5014,70.1038664 C29.9274,70.6658664 30.5604,70.7998664 31.2004,70.9158664 C32.1384,71.3578664 33.1524,71.5538664 34.1404,71.8378664 C37.0144,72.2998664 39.6764,71.6388664 42.2174,70.3248664 C43.1404,69.3648664 44.0394,68.3798664 44.9984,67.4568664 C45.3404,67.1278664 45.7894,66.7488664 46.3384,67.2048664 C46.3874,67.2448664 46.4954,67.2328664 46.5704,67.2168664 C47.7964,66.9638664 48.4644,67.6898664 49.0254,68.6078664 C49.3664,70.1378664 48.9054,71.6428664 48.8084,73.1488664 C48.5914,76.5098664 48.4514,79.8768664 48.1364,83.2318664 C48.0834,83.7918664 47.9734,84.3438664 47.8654,84.8948664 C47.7434,85.5218664 47.4304,85.8288664 46.7664,85.5798664 C45.6884,85.6108664 44.7704,85.0488664 43.7774,84.7648664 C43.4324,84.6658664 43.3184,84.4288664 43.3744,84.0268664 C43.5344,82.8798664 43.6464,81.7248664 43.7424,80.5708664 C43.9594,77.9858664 44.2094,75.4028664 44.2054,72.8058664 C44.2054,72.4678664 44.2734,72.0958664 43.8244,71.6708664 C43.6744,72.6008664 43.5104,73.3808664 43.4274,74.1698664 C43.0654,77.5818664 42.5104,80.9658664 42.0284,84.3608664 C41.9414,84.9738664 41.7254,85.6588664 42.4694,86.0758664 C42.6204,86.1378664 42.8124,86.2158664 42.8294,86.3688664 C43.0404,88.3118664 44.6804,88.5598664 46.0624,89.0998664 C46.5034,89.2718664 47.0284,89.2878664 47.1654,89.8758664 C47.1804,90.1068664 47.0394,90.2738664 46.9274,90.4518664 C46.8574,90.5818664 46.7814,90.7098664 46.6954,90.8298664 C46.6444,90.9038664 46.5154,90.9118664 46.4944,90.9798664 C46.4484,91.1318664 46.4404,90.9468664 46.5884,91.0118664 C46.6594,91.0778664 46.7124,91.1558664 46.7484,91.2448664 C46.8194,91.4738664 46.8514,91.7128664 46.9354,91.9388664 C46.9714,92.0328664 46.9984,92.1278664 47.0214,92.2248664 C47.0764,92.5298664 47.1544,92.8268664 47.2554,93.1208664 C47.2884,93.2288664 47.3094,93.3368664 47.3254,93.4488664 C47.3534,93.8628664 47.4324,94.2658664 47.5484,94.6638664 C47.8184,96.1028664 48.0544,97.5478664 48.4354,98.9628664 C48.5724,99.4698664 48.6334,99.9728664 48.4164,100.474866 C47.2174,101.720866 45.6214,101.415866 44.1494,101.505866 C43.6294,101.537866 43.8334,100.991866 43.8704,100.656866 C44.0834,98.8948664 43.7354,97.1478664 43.6614,95.3968664 C43.6034,94.0268664 43.0614,92.6848664 42.5834,91.3738664 C42.4684,91.0598664 42.2464,90.9028664 41.8344,90.9578664 C40.4164,91.1498664 38.9924,91.2248664 37.5744,90.9248664 C36.7954,90.7608664 37.0264,91.5458664 36.7314,91.8378664 C34.6314,92.8998664 34.3974,94.8848664 34.2514,96.8978664 C34.1564,98.2078664 33.9774,99.5188664 34.1154,100.836866 C34.1524,101.186866 34.0444,101.460866 33.7904,101.689866 C32.7214,101.767866 31.6504,101.821866 30.5844,101.933866 C30.1184,101.982866 29.9894,101.751866 30.0284,101.395866 C30.2704,99.1508664 30.5504,96.9148664 31.1784,94.7328664 C31.4494,93.7888664 31.8954,92.8838664 31.8954,91.8638664 C31.8944,91.4238664 32.3734,91.1228664 32.3214,90.6468664 C32.2784,89.9938664 32.8794,90.1568664 33.1924,89.9538664 C33.5244,89.8558664 33.8574,89.7598664 34.1914,89.6688664 C35.3484,89.4348664 36.1404,88.7378664 36.6664,87.7078664 C36.7074,87.6038664 36.7584,87.5058664 36.8164,87.4108664 C36.8794,87.3188664 36.9524,87.2358664 37.0314,87.1568664 C37.1094,87.0788664 37.1934,87.0068664 37.2794,86.9378664 C38.1034,86.0008664 37.6074,85.0058664 37.3914,84.0338664 C37.3164,83.6928664 37.0864,83.3968664 36.9504,83.0688664 C36.2754,81.3488664 35.4924,79.6698664 35.0004,77.8818664 C34.9334,77.3298664 34.8154,76.7888664 34.6964,76.2438664 C34.4934,75.3168664 34.0334,74.7508664 33.0434,74.7128664 C32.6544,74.0718664 32.6944,73.1368664 31.6584,72.8238664 C31.4764,74.1938664 31.7244,75.4878664 32.0954,76.7658664 C32.1944,77.1088664 32.3454,77.4358664 32.3704,77.7988664 C32.6794,79.4748664 32.8634,81.1808664 33.3144,82.8218664 C33.6634,84.0928664 33.5484,85.0848664 32.3484,85.7898664" id="Fill-6" fill="#FFFFFF"></path>
                    <path d="M42.2329,66.2587664 C44.9229,64.9137664 47.5119,63.4097664 49.9929,61.6957664 C51.3619,60.7497664 52.2219,59.4217664 53.2369,58.2017664 C56.3639,54.4397664 58.6089,50.1427664 60.6739,45.7487664 C61.7479,43.4617664 62.4689,41.0357664 63.1439,38.6047664 C63.5499,37.1417664 63.8389,35.6477664 64.2299,34.1807664 C64.4539,33.3437664 64.4879,32.5237664 64.2689,31.6937664 C64.1219,31.1387664 64.1659,30.5737664 64.1909,30.0177664 C64.3339,26.8767664 63.8959,23.7967664 63.2709,20.7337664 C63.1659,20.2197664 63.1799,19.6967664 63.2489,19.1757664 C63.7049,19.4957664 63.8479,20.0317664 64.0489,20.4887664 C65.0139,22.6807664 65.7929,24.9317664 66.3829,27.2667664 C67.3379,31.0407664 67.2739,34.8477664 66.9929,38.6607664 C66.8679,40.3617664 66.4519,42.0427664 65.9929,43.6997664 C65.3619,45.9737664 64.4869,48.1667664 63.4299,50.2577664 C62.5139,52.0667664 61.3299,53.7467664 60.0969,55.3727664 C58.4429,57.5537664 56.4569,59.4167664 54.3549,61.1387664 C52.8769,62.3487664 51.1989,63.3017664 49.5429,64.2647664 C49.0599,64.5457664 48.5489,64.7587664 48.1969,65.2397664 C47.9099,65.6337664 47.4649,65.6347664 46.9979,65.5847664 C45.5019,65.4237664 44.1429,65.7917664 42.9509,66.7288689 C42.6159,66.7177664 42.2119,66.8127664 42.2329,66.2587664" id="Fill-8" fill="#D0D0D0"></path>
                    <path d="M46.766,85.5794664 C47.143,85.4994664 47.503,85.5194664 47.57,84.9254664 C47.796,82.9434664 48.029,80.9684664 48.045,78.9644664 C48.055,77.6114664 48.282,76.2604664 48.365,74.9054664 C48.494,72.7954664 48.595,70.6854664 49.025,68.6074664 C49.416,69.8074664 49.67,70.9844664 49.569,72.3024664 C49.395,74.5774664 49.554,76.8754664 49.464,79.1594664 C49.387,81.1184664 49.203,83.0744664 49.25,85.0364664 C49.266,85.6764664 49.005,85.9294664 48.396,85.8314664 C47.853,85.7444664 47.268,85.9274664 46.766,85.5794664" id="Fill-12" fill="#C6C6C6"></path>
                    <path d="M29.4443,70.3651664 C28.9143,69.7711664 28.1933,69.9241664 27.5243,69.8741664 C29.1143,69.3631664 30.6173,69.3861664 31.9743,70.5301664 C32.3263,70.8261664 32.6543,71.1981664 33.2103,71.1681664 C34.0213,71.1251664 34.2713,70.8581664 34.1263,70.0521664 C34.0923,69.8571664 33.9963,69.6751664 34.1183,69.4211664 C36.5213,69.1571664 39.0383,69.6861664 41.4103,68.6141664 C41.6223,69.1801664 41.3333,69.6661664 41.5173,70.1131664 C41.3013,70.6891664 40.7913,70.8081664 40.2743,70.8891664 C38.5853,71.1551664 36.8903,71.3821664 35.2973,72.0671664 C34.8993,72.2381664 34.4473,72.2481664 34.0263,72.0511664 C33.0253,71.8471664 31.9873,71.7521664 31.1373,71.0921664 C30.6183,70.7441664 29.9373,70.7751664 29.4443,70.3651664" id="Fill-14" fill="#C5C5C5"></path>
                    <path d="M35.2329,77.8311664 C35.8679,79.3511664 36.3199,80.9421664 37.0369,82.4311664 C37.1359,82.6351664 37.1369,82.8871664 37.1829,83.1171664 C37.6879,84.4951664 37.8079,85.8721664 37.1839,87.2501664 L37.1819,87.2451664 C37.0839,87.3091664 37.0049,87.3921664 36.9349,87.4851664 L36.9379,87.4871664 C35.8569,87.5461664 35.3899,86.7821664 34.9379,85.9971664 C36.0249,85.4791664 35.9269,84.5931664 35.6469,83.6661664 C34.8209,80.9311664 34.3209,78.1041664 33.3179,75.4191664 C34.0879,75.1131664 34.3849,75.7011664 34.6579,76.1941664 C34.9369,76.6981664 35.0969,77.2651664 35.2329,77.8311664" id="Fill-16" fill="#C6C6C6"></path>
                    <path d="M34.0266,72.0507664 C34.6316,72.0667664 35.1356,71.9357664 35.6826,71.5647664 C36.5046,71.0067664 37.5886,71.1067664 38.5346,70.8287664 C39.5186,70.5397664 40.6236,70.7657664 41.5166,70.1137664 C41.7506,70.1837664 41.9836,70.2547664 42.2176,70.3247664 C41.8436,71.1537664 41.0586,71.3627664 40.2886,71.5307664 C39.9396,71.6077664 39.5836,71.6677664 39.2616,71.8107664 C37.7006,72.5017664 36.0596,72.2837664 34.4366,72.2587664 C34.2986,72.2567664 34.1636,72.1227664 34.0266,72.0507664" id="Fill-26" fill="#D0D0D0"></path>
                    <path d="M32.3484,85.7898664 C32.3704,85.6738664 32.3514,85.4958664 32.4204,85.4518664 C33.4284,84.7938664 33.2114,83.9078664 32.9914,82.9448664 C32.6064,81.2558664 32.2264,79.5558664 32.3704,77.7988664 C32.8354,78.6928664 32.9884,79.6888664 33.2824,80.6378664 C33.6614,81.8608664 33.9964,83.0978664 34.4034,84.3108664 C34.5354,84.7058664 34.4704,84.9098664 34.1174,85.0758664 C33.5414,85.3478664 32.9984,85.7008664 32.3484,85.7898664" id="Fill-30" fill="#C2C2C2"></path>
                    <path d="M35.2329,77.8311664 C34.9919,77.3791664 34.7339,76.9361664 34.5159,76.4741664 C34.2649,75.9421664 33.9419,75.5161664 33.3179,75.4191664 C33.1079,75.2301664 33.0439,74.9841664 33.0439,74.7131664 C34.1769,74.3161664 34.4689,74.4501664 34.7659,75.5211664 C34.9769,76.2801664 35.3469,77.0071664 35.2329,77.8311664" id="Fill-34" fill="#D1D1D1"></path>
                    <path d="M42.2329,66.2587664 C42.3709,66.5697664 42.8029,66.4317664 42.9509,66.7287664 C42.8109,67.0757664 42.6009,67.3057664 42.1779,67.2537664 C41.8759,67.2167664 41.5689,67.2187664 41.2639,67.2027664 C41.1489,66.4397664 41.7809,66.4407664 42.2329,66.2587664" id="Fill-36" fill="#E0E0E0"></path>
                    <path d="M39.4184,10.6647664 C38.8164,10.8357664 38.5904,11.3357664 38.2734,11.7347664 C36.6104,13.8217664 34.7834,15.7597664 32.8704,17.6137664 C31.7604,18.6897664 30.1934,18.6817664 28.9904,17.6807664 C27.0404,16.0567664 25.6144,14.0347664 24.4984,11.7737664 C24.3874,11.5487664 24.3464,11.3227664 24.3444,11.0807664 C24.3424,10.8097664 24.2304,10.4677664 24.5544,10.3367664 C24.9004,10.1967664 25.2274,10.2517664 25.5024,10.6017664 C26.2554,11.5567664 26.9794,12.5487664 27.8414,13.3997664 C28.5964,14.1457664 29.1504,15.0877664 30.1484,15.6217664 C30.7244,15.9297664 31.0484,15.9247664 31.4634,15.4427664 C33.0354,13.6167664 34.8054,12.0077664 36.7744,10.6127664 C37.6804,9.9707664 38.5494,9.2767664 39.4204,8.5887664 C39.7854,8.3007664 40.1934,8.1297664 40.6384,8.1557664 C41.1334,8.1837664 41.5554,8.7037664 41.5244,9.2587664 C41.3764,11.8587664 41.5004,14.4567664 41.5164,17.0557664 C41.5174,17.1747664 41.4934,17.2947664 41.4874,17.4147664 C41.4264,18.5737664 41.0754,19.1307664 40.4044,19.1307664 C39.8584,19.1307664 39.3394,18.0617664 39.4294,17.1597664 C39.6414,15.0507664 39.5484,12.9347664 39.5544,10.8217664 C39.5544,10.7937664 39.5084,10.7657664 39.4184,10.6647664" id="Fill-42" fill="#010101"></path>
                    <path d="M51.8777,30.8468664 C52.2957,30.8458664 52.7707,30.6268664 53.0607,31.1508664 C53.0677,31.1628664 53.2437,31.0818664 53.3407,31.0448664 L53.3147,31.0688664 C54.3187,31.0518664 55.3237,31.0038664 56.3267,31.0268664 C57.0577,31.0438664 57.0967,31.1958664 56.6777,31.9778664 C56.2917,32.3278664 55.8537,32.5628664 55.3197,32.5818664 C52.9517,32.6858664 50.5807,32.6608664 48.2137,32.6188664 C44.5577,32.5538664 40.9137,32.8078664 37.2667,32.8918664 C36.7347,33.0498664 36.1607,33.0668664 35.6637,33.3508664 C35.4657,33.4538664 35.2677,33.5588664 35.1047,33.7148664 C34.0977,34.9678664 34.8427,36.1418664 35.2687,37.3268664 C35.5857,37.6608664 35.8997,37.9968664 36.0407,38.4508664 C36.3707,39.8418664 37.4037,40.9028664 37.8257,42.2508664 C37.7957,43.1678664 38.0557,44.0768664 37.9107,44.9978664 C37.6267,46.2908664 37.0697,47.4958664 36.7437,48.7828664 C36.3517,50.3338664 35.2157,50.4598664 33.9677,49.1838664 C33.6947,48.6948664 33.7487,48.1548664 33.8277,47.6538664 C34.2997,44.6348664 33.7577,41.6618664 33.3827,38.6948664 C33.2567,37.6998664 32.5547,36.7898664 32.7397,35.6978664 C32.7397,35.2988664 32.7487,34.8988664 32.7377,34.4988664 C32.7447,33.9038664 32.7297,33.3048664 33.0247,32.7578664 C33.1467,32.5268664 33.2697,32.2968664 33.4247,32.0848664 C33.8887,31.4808664 34.5387,32.0338664 35.0677,31.8228664 C37.2427,31.6078664 39.4157,31.3698664 41.5947,31.1848664 C43.7957,30.9988664 46.0037,30.9698664 48.2127,31.0348664 C48.3937,30.9328664 48.6047,30.8988664 48.7857,30.9518664 C49.0047,31.0148664 49.5477,30.6768664 49.3507,31.3448664 C49.4837,31.3488664 49.6947,31.5838664 49.7117,31.2358664 C49.7257,30.9548664 49.9227,30.9608664 50.1187,30.9428664 C50.7037,30.8888664 51.3007,31.0478664 51.8777,30.8468664" id="Fill-44" fill="#010101"></path>
                    <path d="M20.2845,57.8195664 C21.3215,56.7125664 22.3565,55.6035664 23.3955,54.4985664 C23.5625,54.3215664 23.7515,54.1265664 24.0105,54.3165664 C24.2335,54.4795664 24.2025,54.7405664 24.1715,54.9825664 C24.1175,55.4105664 23.6875,55.6145664 23.5595,55.9985664 C23.5885,56.0245664 23.6145,56.0595664 23.6485,56.0745664 C24.4155,56.4095664 25.2075,57.0475664 25.9435,56.9885664 C26.6855,56.9285664 27.3785,56.1865664 28.0805,55.7235664 C29.0165,55.1075664 29.9545,54.4935664 30.8605,53.8355664 C31.2225,53.5725664 31.5505,53.4725664 31.9705,53.6245664 C32.6105,53.8545664 33.2985,53.9875664 33.8925,54.3015664 C34.6275,54.6895664 35.2535,54.6475664 35.8905,54.1645664 C37.0125,53.3145664 38.4365,53.2335664 39.6755,52.6795664 C39.8755,52.5905664 40.0705,52.6105664 40.2515,52.7115664 C41.9435,53.6495664 43.8875,53.9285664 45.6175,54.7615664 C46.3345,55.1055664 46.9955,55.5705664 47.7955,55.7265664 C47.9905,55.7645664 48.1805,55.8335664 48.3765,55.8505664 C48.6715,55.8755664 48.9665,55.7635664 49.1325,55.5495664 C49.3445,55.2755664 49.0905,55.0145664 48.9225,54.8145664 C48.4055,54.1945664 48.3025,53.3325664 47.6935,52.7685664 C47.5865,52.6695664 47.4825,52.4935664 47.6225,52.3495664 C47.8025,52.1665664 47.9945,52.2695664 48.1495,52.4075664 C48.2985,52.5395664 48.4355,52.6885664 48.5645,52.8415664 C49.6755,54.1565664 50.6275,55.6095664 51.9445,56.7465664 C52.1055,56.8845664 52.2345,57.0745664 52.1065,57.2615664 C51.9685,57.4645664 51.7475,57.3715664 51.5735,57.2635664 C51.1655,57.0105664 50.7805,56.7155664 50.3555,56.4965664 C49.9215,56.2735664 49.3965,56.2625664 49.2645,56.8095664 C49.0935,57.5175664 48.7365,57.3755664 48.3005,57.1815664 C46.6915,56.4635664 45.0035,55.9305664 43.4425,55.0995664 C42.2905,54.4855664 40.9605,54.4915664 39.7585,54.0475664 C39.5315,53.9645664 39.3725,54.0885664 39.2815,54.2895664 C38.9885,54.9355664 38.3795,55.1635664 37.7975,55.4345664 C37.3975,55.6195664 36.9645,55.7725664 36.6225,56.0375664 C35.5825,56.8475664 34.5075,56.6775664 33.4635,56.1505664 C32.0515,55.4395664 30.7675,55.5915664 29.5095,56.4905664 C28.6675,57.0925664 27.6075,57.3475664 26.8735,58.1285664 C26.5845,58.4355664 26.2915,58.2295664 25.9915,58.1205664 C25.2005,57.8335664 24.4115,57.5345664 23.6045,57.2995664 C22.9185,57.0995664 22.2195,56.9385664 21.5975,57.5485664 C21.4135,57.7295664 21.0895,57.7685664 20.8295,57.8725664 C20.6405,57.9365664 20.4545,57.9605664 20.2845,57.8195664" id="Fill-46" fill="#010101"></path>
                    <path d="M23.8921,26.9633664 C23.6611,26.7063664 23.4311,26.4493664 23.2001,26.1923664 C23.1671,25.9743664 23.3051,25.9013664 23.4801,25.8583664 C23.9101,25.8663664 24.3331,25.9303664 24.7301,26.0393664 C24.8731,26.1523664 24.8691,25.8613664 24.8241,26.0153664 C24.8141,26.0483664 24.7831,26.0273664 24.7131,25.9853664 C24.4001,25.8003664 24.1431,25.5733664 24.0731,25.1933664 C24.1281,25.0053664 24.2161,24.8813664 24.4341,24.9983664 C24.7381,25.1743664 25.0431,25.3513664 25.3481,25.5283664 C26.8721,26.4733664 28.3961,27.4133664 30.1781,27.8283664 C31.2851,28.0863664 31.5821,29.3213664 32.4951,29.8273664 C33.4091,30.3043664 33.7291,31.0083664 33.3181,31.9903664 C33.2921,32.1043664 33.2521,32.2133664 33.2021,32.3183664 C33.1241,32.4763664 33.0301,32.6253664 32.9371,32.7753664 C32.7621,33.1693664 32.6091,33.5713664 32.4291,33.9643664 C32.0971,34.6863664 31.6261,35.0093664 30.8441,34.6273664 C29.3061,34.3553664 27.8131,34.6683664 26.3221,34.9743664 C22.4741,35.7663664 18.5981,36.3853664 14.7101,36.9253664 C14.2191,36.9323664 13.7461,37.0643664 13.2671,37.1443664 C12.4331,37.3553664 11.6091,37.8653664 10.7421,37.2543664 C10.6491,37.2733664 10.5561,37.2953664 10.4681,37.3293664 C10.2561,37.4373664 10.0941,37.6353664 9.8481,37.6823664 C9.7001,37.6803664 9.5521,37.6813664 9.4591,37.5343664 C9.3461,37.0333664 9.4491,36.6683664 10.0271,36.5593664 C10.3791,36.4923664 10.7191,36.3693664 11.0691,36.2983664 C11.6081,36.1883664 12.1031,36.0903664 12.5591,35.6743664 C13.0261,35.2483664 13.7461,35.2563664 14.3741,35.1753664 C16.3131,34.9223664 18.2581,34.7083664 20.1971,34.4513664 C22.1751,34.1893664 24.1391,33.8353664 26.1231,33.6063664 C27.2691,33.4733664 28.4321,33.5213664 29.5671,33.2373664 C30.4091,33.0263664 30.4211,33.0793664 30.4011,32.1803664 C30.3961,31.9803664 30.3961,31.7813664 30.3941,31.5813664 C30.2871,31.2783664 29.9641,31.0083664 30.0051,30.7153664 C30.2251,29.1743664 28.8251,29.0253664 28.0971,29.0073664 C26.3501,28.9623664 25.2731,27.8483664 23.9841,27.0403664 C23.8491,26.9553664 24.0151,27.0663664 23.8921,26.9633664" id="Fill-48" fill="#010101"></path>
                    <path d="M32.5994,39.0096664 C31.3964,40.1666664 30.1894,41.3206664 28.9914,42.4836664 C28.0764,43.3716664 27.2804,44.3676664 26.5204,45.3866664 C26.0764,45.9836664 25.4554,46.3466664 24.8914,46.7776664 C24.4524,47.1136664 23.7424,46.6926664 23.6614,46.1396664 C23.5304,45.2356664 24.0394,44.6376664 24.6254,44.0726664 C24.7234,43.6746664 24.9244,43.3046664 24.9334,42.8836664 C24.9284,42.7786664 24.9374,42.6746664 24.9544,42.5706664 C25.0534,42.1886664 25.3274,41.9506664 25.6364,41.7416664 C25.7194,41.6796664 25.8064,41.6226664 25.8934,41.5656664 C25.9354,41.5356664 25.9804,41.5076664 26.0224,41.4776664 C26.1084,41.4156664 26.1994,41.3646664 26.2934,41.3176664 C26.3414,41.2966664 26.3904,41.2786664 26.4394,41.2576664 C27.1724,40.9816664 27.5844,40.3866664 27.9434,39.7396664 C27.9674,39.6926664 27.9944,39.6476664 28.0184,39.6006664 C28.0454,39.5546664 28.0744,39.5116664 28.1014,39.4656664 C28.1604,39.3776664 28.2264,39.2966664 28.2964,39.2166664 C28.3314,39.1776664 28.3684,39.1396664 28.4024,39.0996664 C28.4714,39.0186664 28.5454,38.9426664 28.6204,38.8676664 C28.6564,38.8276664 28.6944,38.7906664 28.7314,38.7516664 C28.8044,38.6696664 28.8824,38.5946664 28.9624,38.5206664 C29.9994,37.7756664 30.6954,36.6906664 31.6304,35.8466664 C31.9664,35.5426664 32.2084,35.0676664 32.7754,35.1156664 C33.0154,35.3046664 32.9274,35.5726664 32.9464,35.8156664 C32.5854,36.8546664 33.2744,38.0066664 32.5994,39.0096664" id="Fill-50" fill="#D0D0D0"></path>
                    <path d="M55.539,32.2904664 C55.919,32.1864664 56.298,32.0824664 56.678,31.9784664 C56.492,32.3014664 56.539,32.7304664 56.223,32.9954664 C56.034,33.2564664 55.947,33.5694664 55.787,33.8434664 C55.75,33.9374664 55.703,34.0264664 55.651,34.1134664 C55.62,34.1514664 55.587,34.1884664 55.555,34.2264664 C55.473,34.2774664 55.383,34.3124664 55.291,34.3354664 C55.163,34.3864664 55.056,34.4684664 54.968,34.5744664 C54.827,34.7034664 54.805,34.8664664 54.838,35.0464664 C54.726,35.3574664 54.455,35.4424664 54.18,35.5204664 C54.046,35.5624664 53.958,35.6524664 53.911,35.7864664 C53.814,36.0214664 53.65,36.1774664 53.399,36.2334664 C53.217,36.2564664 53.034,36.2764664 52.873,36.3794664 C52.799,36.4344664 52.722,36.4854664 52.647,36.5394664 C52.536,36.6264664 52.421,36.7054664 52.304,36.7824664 C52.11,36.9074664 51.925,37.0454664 51.723,37.1554664 C51.645,37.1904664 51.561,37.2124664 51.478,37.2264664 C51.361,37.2494664 51.252,37.2924664 51.168,37.3854664 C51.124,37.4534664 51.078,37.5174664 51.034,37.5854664 C50.966,37.6894664 50.887,37.7844664 50.802,37.8744664 C50.746,37.9374664 50.684,37.9934664 50.62,38.0474664 C50.556,38.1014664 50.486,38.1464664 50.413,38.1864664 C50.306,38.2444664 50.198,38.3014664 50.097,38.3724664 C50.036,38.4284664 49.973,38.4814664 49.911,38.5364664 C49.82,38.6264664 49.726,38.7134664 49.628,38.7964664 C49.56,38.8534664 49.486,38.9024664 49.409,38.9474664 C49.253,39.0384664 49.106,39.1414664 48.974,39.2664664 C48.771,39.4614664 48.576,39.6634664 48.376,39.8604664 C48.314,39.9264664 48.245,39.9884664 48.176,40.0474664 C48.111,40.1084664 48.039,40.1614664 47.966,40.2114664 C47.927,40.2294664 47.887,40.2464664 47.847,40.2634664 C47.767,40.2644664 47.736,40.2784664 47.755,40.3064664 C47.779,40.3414664 47.801,40.3594664 47.825,40.3584664 C47.89,40.3974664 47.913,40.4394664 47.894,40.4844664 C47.876,40.5294664 47.857,40.5514664 47.837,40.5514664 C47.3,40.8984664 46.761,41.2424664 46.225,41.5914664 C44.88,42.4694664 43.809,42.4094664 42.534,41.3484664 C42.18,41.0544664 41.906,40.8414664 41.601,41.4024664 C41.475,41.6344664 41.208,41.6484664 40.963,41.5114664 C40.199,41.0844664 39.363,40.7584664 38.857,39.9784664 C38.952,39.2204664 38.395,38.7434664 38.058,38.1794664 C37.788,37.7274664 37.577,37.3324664 38.155,36.9704664 C38.972,36.8634664 39.464,37.4754664 40.036,37.8634664 C41.121,38.6004664 42.117,39.4664664 43.283,40.0874664 C43.741,40.3324664 44.205,40.5594664 44.715,40.6694664 C45.241,40.7834664 45.714,40.7164664 45.793,40.0774664 C45.887,39.3184664 46.458,39.0454664 47.016,38.7364664 C47.107,38.6714664 47.203,38.6144664 47.299,38.5584664 C48.406,37.9114664 49.408,37.1314664 50.31,36.2214664 C51.195,35.5884664 52.037,34.8944664 52.936,34.2794664 C53.292,34.0494664 53.647,33.8174664 53.989,33.5664664 C54.619,33.2784664 54.844,32.4984664 55.539,32.2904664" id="Fill-52" fill="#CFCFCF"></path>
                    <path d="M39.0527,24.0518664 C39.3137,23.9048664 39.4827,23.6118664 39.8127,23.5738664 C40.2777,23.4178664 40.7507,23.1788664 41.1537,23.6988664 C41.4397,24.3148664 40.9347,24.7378664 40.7767,25.2468664 C40.5197,26.0808664 39.7837,26.5478664 39.2657,27.1758664 C38.2937,28.3538664 37.2327,29.4598664 36.2087,30.5948664 C36.0297,30.7158664 35.8267,30.6878664 35.6287,30.6918664 C35.0987,30.7028664 34.4867,31.0658664 34.0987,30.4168664 C33.7517,29.8368664 33.8707,29.1728664 34.2147,28.7008664 C35.5477,26.8708664 36.8487,24.9838664 39.0527,24.0518664" id="Fill-54" fill="#010101"></path>
                    <path d="M39.0527,24.0518664 C37.5497,25.2328664 36.2867,26.6598664 34.9367,27.9998664 C34.3627,28.5698664 34.2307,29.2348664 34.1717,29.9508664 C34.1327,30.4218664 34.3857,30.6988664 34.8967,30.6678664 C35.3337,30.6418664 35.7707,30.6188664 36.2087,30.5948664 C35.9067,31.0528664 35.2957,30.7348664 34.9517,31.1028664 C34.6687,31.4058664 34.5037,31.6668664 35.0677,31.8228664 C34.6347,32.2928664 33.9817,31.8178664 33.5247,32.1828664 C33.4117,32.4288664 33.2397,32.3748664 33.0587,32.2728664 C33.0627,32.1578664 33.0337,32.0288664 33.0757,31.9298664 C33.4377,31.0758664 33.1947,30.4668664 32.3547,30.0878664 C32.5417,29.2568664 32.4137,28.4568664 32.1257,27.6708664 C32.7107,27.7338664 33.2497,27.1688664 33.9377,27.6458664 C33.3877,26.8738664 33.5917,26.2798664 34.1347,25.7978664 C34.6177,25.3678664 34.8377,24.7368664 35.3877,24.3528664 C36.5657,23.5308664 37.7587,23.2728664 39.0527,24.0518664" id="Fill-56" fill="#CFCFCF"></path>
                    <path d="M34.279,49.1456664 C34.762,49.2486664 34.839,49.7966664 35.271,50.0456664 C35.726,49.9096664 35.797,49.2616664 36.316,49.1586664 C36.422,49.1376664 36.565,48.9076664 36.559,48.7806664 C36.499,47.4066664 37.306,46.2936664 37.658,45.0466664 C37.926,44.5906664 38.05,44.0466664 38.487,43.6956664 C38.953,43.3406664 39.118,42.7336664 39.585,42.3796664 C39.704,42.3916664 39.822,42.4016664 39.941,42.4146664 C41.2,42.5506664 41.53,43.2896664 40.806,44.3646664 C40.388,44.9856664 39.861,45.5346664 39.579,46.2436664 C39.437,47.0806664 38.725,47.5516664 38.318,48.2196664 C38.149,48.4356664 37.907,48.5496664 37.672,48.6726664 C37.11,49.2846664 36.516,49.8706664 35.993,50.5146664 C35.377,51.2736664 34.527,51.5096664 33.603,51.8046664 C33.484,50.5366664 33.578,49.3536664 33.582,48.1726664 C34.227,48.5046664 33.753,49.1236664 33.946,49.5176664 C33.964,49.3586664 34.107,49.2406664 34.279,49.1456664" id="Fill-58" fill="#5C5C5C"></path>
                    <path d="M39.1276,59.4861664 C38.7206,60.0001664 38.3186,60.5161664 37.6606,60.7441664 C37.4536,60.8161664 37.4326,61.0391664 37.3856,61.2261664 C37.0256,61.2001664 36.8966,61.5341664 36.6546,61.6921664 C36.0676,61.2471664 35.2496,61.4031664 35.0156,62.0251664 C34.9386,62.2321664 35.0086,62.4911664 34.8016,62.6591664 C34.3376,62.3291664 34.5266,61.7991664 34.4236,61.4081664 C34.1616,62.2611664 34.6876,63.2701664 34.0026,64.1021664 C33.6666,63.7261664 33.8016,63.2651664 33.8156,62.8461664 C33.8346,62.2401664 33.7086,61.9441664 32.9966,61.8601664 C31.9036,61.7301664 31.7656,61.3781664 32.0776,60.2201664 C33.3336,58.5791664 35.0536,58.0581664 37.0196,58.2681664 C37.8606,58.3581664 38.8036,58.4301664 39.1276,59.4861664" id="Fill-60" fill="#B5B5B5"></path>
                    <path d="M34.279,49.1456664 C34.169,49.3816664 34.058,49.6176664 33.927,49.8976664 C33.579,49.3356664 34.091,48.6486664 33.582,48.1726664 C33.375,47.0336664 33.244,45.8866664 33.169,44.7296664 C33.044,42.8166664 32.933,40.9016664 32.599,39.0096664 C32.565,37.8786664 32.44,36.7416664 32.831,35.6396664 L32.904,35.5516664 C32.904,35.5516664 33.015,35.5796664 33.015,35.5796664 C33.031,35.9786664 33.042,36.3796664 33.065,36.7786664 C33.076,36.9766664 33.036,37.2716664 33.146,37.3556664 C34.098,38.0776664 33.863,39.1996664 33.953,40.1146664 C34.076,41.3796664 34.347,42.6526664 34.253,43.9296664 C34.191,44.7686664 34.548,45.5616664 34.382,46.4166664 C34.307,46.7986664 34.256,47.1766664 34.138,47.5586664 C33.975,48.0846664 33.848,48.6526664 34.279,49.1456664" id="Fill-62" fill="#2E2E2E"></path>
                    <path d="M48.6729,21.2777664 C48.5609,21.1737664 48.4849,21.0737664 48.3849,21.0137664 C47.2859,20.3607664 47.2639,20.3487664 48.0109,19.2577664 C48.2889,18.8537664 48.2319,18.6127664 47.8429,18.3957664 C47.0669,17.9617664 46.7729,17.4477664 47.2579,16.5477664 C47.5169,16.0687664 47.3249,15.4517664 47.0649,14.9297664 C46.9649,14.7297664 46.6979,14.5857664 46.8389,14.2697664 C47.0399,14.0837664 47.1999,14.2637664 47.2899,14.4097664 C47.7549,15.1647664 48.1769,15.9447664 47.8489,16.8747664 C47.7459,17.1647664 47.7219,17.3537664 47.9839,17.6057664 C49.1629,18.7377664 49.1509,18.7507664 48.3699,20.0537664 C48.4409,20.1337664 48.5049,20.2327664 48.5939,20.2997664 C49.6219,21.0717664 49.6929,21.4157664 48.8269,22.4077664 C48.2349,23.0857664 48.0979,23.8197664 48.3019,24.6367664 C48.5139,25.4877664 48.9899,25.6197664 49.6389,25.0507664 C50.5289,24.2707664 50.5439,24.2317664 50.0139,23.0547664 C49.8919,22.7847664 49.9209,22.5877664 50.1629,22.4477664 C50.3769,22.3247664 50.5319,22.4567664 50.6649,22.6257664 C51.1189,23.2017664 51.2949,23.8167664 50.9739,24.5207664 C50.7709,24.9677664 50.4199,25.2837664 50.0959,25.6387664 C49.0159,26.8257664 47.9209,25.9777664 47.6359,24.9717664 C47.3269,23.8827664 47.3709,22.8247664 48.2529,21.9597664 C48.4259,21.7907664 48.5889,21.6147664 48.6729,21.2777664" id="Fill-64" fill="#090909"></path>
                    <path d="M20.9173,12.2361664 C20.7133,11.6371664 21.0303,11.1011664 20.9823,10.5401664 C20.9493,10.1611664 21.0343,9.7921664 21.5253,9.7731664 C22.0633,9.7521664 22.0513,10.2021664 22.0713,10.5331664 C22.1543,11.9241664 22.1963,13.3171664 22.2603,14.7091664 C22.3173,15.9451664 22.3923,17.1801664 22.6073,18.4011664 C22.6213,18.4791664 22.6613,18.5581664 22.6573,18.6351664 C22.6363,19.0951664 22.7983,19.7591664 22.2373,19.8681664 C21.5903,19.9941664 21.6013,19.2571664 21.4853,18.8451664 C21.0263,17.2191664 20.9793,15.5341664 20.9303,13.8611664 C20.9133,13.3111664 20.6583,12.7561664 20.9173,12.2361664" id="Fill-66" fill="#040404"></path>
                    <path d="M25.097,42.5769664 C25.103,42.6679664 25.108,42.7589664 25.114,42.8499664 C25.09,43.3399664 24.785,43.6159664 24.379,43.8159664 C23.616,44.4509664 22.668,44.5689664 21.745,44.7479664 C21.553,44.7849664 21.334,44.8209664 21.156,44.7659664 C20.147,44.4549664 19.12,44.1709664 18.343,43.3849664 C18.35,43.3369664 18.357,43.2889664 18.364,43.2409664 C18.535,43.0279664 18.75,43.0069664 18.985,43.0979664 C19.037,43.1029664 19.087,43.1249664 19.118,43.1589664 C19.104,43.1539664 19.109,43.0919664 19.109,43.0919664 C19.109,43.0919664 19.047,43.0829664 19.034,43.0789664 C18.818,42.9449664 18.584,42.9089664 18.355,42.8559664 C17.543,42.3749664 16.601,42.0619664 16.121,41.1459664 C16.146,40.9499664 16.267,40.8399664 16.447,40.7829664 C17.773,41.0229664 18.797,41.9509664 20.045,42.3669664 C20.403,42.5649664 20.756,42.7909664 21.188,42.5569664 C22.063,42.3179664 22.859,41.7989664 23.805,41.8169664 C23.893,41.8779664 23.957,41.9589664 23.992,42.0619664 C24.009,42.2129664 24.001,42.3669664 24.025,42.5139664 C24.356,43.0219664 24.761,42.2429664 25.097,42.5769664" id="Fill-68" fill="#CFCFCF"></path>
                    <path d="M32.126,27.6705664 C32.948,28.5165664 33.072,29.1885664 32.354,30.0885664 C31.92,29.8635664 31.55,29.5155664 31.328,29.1205664 C30.913,28.3845664 30.296,28.0995664 29.523,27.9205664 C27.9,27.5445664 26.53,26.6905664 25.348,25.5275664 C26.386,25.9155664 27.417,26.3235664 28.465,26.6835664 C29.18,26.9285664 29.921,27.0985664 30.677,27.1615664 C31.21,27.2065664 31.673,27.4165664 32.126,27.6705664" id="Fill-70" fill="#5D5D5D"></path>
                    <path d="M23.8921,26.9633664 C24.7691,27.2533664 25.4951,27.8293664 26.3081,28.2343664 C26.7921,28.4753664 27.1781,28.8093664 27.9141,28.6643664 C28.5791,28.5343664 29.3871,29.1253664 30.1291,29.4083664 C30.2411,29.4513664 30.3011,29.5663664 30.2511,29.6983664 C30.0031,30.3493664 30.4881,30.9433664 30.3941,31.5813664 C28.0421,30.6133664 26.1981,28.8723664 24.1351,27.4643664 C23.9621,27.3473664 23.8451,27.1923664 23.8921,26.9633664" id="Fill-72" fill="#2F2F2F"></path>
                    <path d="M35.7631,38.4615664 C35.5981,38.0985664 35.3231,37.8205664 35.0511,37.5415664 C34.6721,36.5705664 34.8581,35.6555664 35.3201,34.7665664 C36.5381,34.5835664 36.9371,35.6095664 37.5691,36.2925664 C37.6431,37.0765664 37.6391,37.8485664 37.1681,38.5365664 C36.7811,38.7785664 37.0111,39.1725664 36.9311,39.4905664 C36.1421,39.6025664 36.2331,38.7125664 35.7631,38.4615664" id="Fill-74" fill="#CACACA"></path>
                    <path d="M49.9344,40.4376664 C49.8074,40.7316664 49.4934,40.8096664 49.2794,41.0026664 C49.2364,40.9926664 49.1934,40.9826664 49.1494,40.9716664 C49.0704,40.9276664 49.0084,40.8656664 48.9624,40.7876664 C48.9534,40.7446664 48.9434,40.7006664 48.9344,40.6566664 C48.5994,40.3006664 48.1744,40.8756664 47.8364,40.5516664 C47.8174,40.5166664 47.7954,40.4826664 47.7714,40.4506664 C47.7154,40.3666664 47.7164,40.2876664 47.7854,40.2116664 L47.7684,40.2296664 C47.8574,40.1446664 47.9454,40.0566664 48.0304,39.9666664 L48.0094,39.9866664 C48.3334,39.7866664 48.6094,39.5296664 48.8694,39.2536664 C49.0594,39.0746664 49.2674,38.9176664 49.4774,38.7626664 L49.4564,38.7816664 C49.6664,38.6586664 49.8344,38.4926664 49.9564,38.2796664 L49.9344,38.2966664 C50.0774,38.1566664 50.3064,38.1916664 50.4434,38.0416664 L50.4234,38.0596664 C50.5844,37.9366664 50.7874,37.8736664 50.9214,37.7106664 C51.1384,37.4006664 51.3994,37.1666664 51.8094,37.1826664 C52.1744,37.3266664 52.6444,37.0716664 52.9424,37.4766664 C52.9694,37.5796664 52.9614,37.6806664 52.9184,37.7786664 C52.8284,38.0536664 52.5394,38.1186664 52.3644,38.3046664 L52.3724,38.2966664 C51.9514,38.5026664 51.6784,38.9256664 51.2244,39.0856664 C50.9224,39.2906664 50.7154,39.6056664 50.4064,39.8026664 C50.1674,39.9536664 49.8024,40.0106664 49.9344,40.4376664" id="Fill-76" fill="#CFCFCF"></path>
                    <path d="M52.8517,37.6268664 C52.7687,37.4738664 52.6457,37.4498664 52.4887,37.5018664 C52.2137,37.5938664 51.9857,37.5338664 51.8277,37.2768664 C51.7847,37.1848664 51.7927,37.0978664 51.8517,37.0158664 C51.9437,36.9128664 52.0487,36.8278664 52.1707,36.7628664 C52.2927,36.7248664 52.4047,36.6688664 52.4787,36.5568664 C52.5157,36.4828664 52.5607,36.4148664 52.6157,36.3518664 L52.6037,36.3748664 C52.8027,36.2228664 52.9947,36.0578664 53.2717,36.0898664 C53.5177,36.0438664 53.6987,35.9068664 53.8217,35.6908664 C53.8267,35.5158664 53.9217,35.4268664 54.0907,35.4098664 C54.3207,35.2528664 54.5497,35.0958664 54.7797,34.9388664 C54.7707,34.7778664 54.9497,34.6138664 54.7727,34.4558664 C54.8737,34.2528664 54.9097,33.9268664 55.2617,34.1978664 C55.3437,34.2758664 55.4237,34.2698664 55.5027,34.1928664 L55.4977,34.2018664 C55.5307,34.1538664 55.5647,34.1078664 55.6007,34.0628664 C55.6007,34.0628664 55.6457,33.9888664 55.6457,33.9888664 C55.6447,33.9888664 55.5617,34.0158664 55.5617,34.0158664 L55.4937,33.9618664 C55.5177,33.4748664 55.8237,33.1988664 56.2227,32.9948664 C56.2217,33.0738664 56.2207,33.1528664 56.2187,33.2318664 C56.3447,33.3688664 56.5547,33.3298664 56.6867,33.4538664 C56.3237,33.9108664 56.2827,34.5748664 55.7447,34.9198664 C55.5257,35.0078664 55.3167,35.0998664 55.4897,35.3968664 C55.5737,35.3978664 55.6577,35.3988664 55.7417,35.4008664 C55.8867,35.6228664 55.7037,35.7438664 55.5927,35.8878664 C55.4887,35.9858664 55.3477,36.0308664 55.2447,36.1298664 L55.2617,36.1188664 C55.0507,36.2648664 54.8207,36.3848664 54.6477,36.5808664 C54.5437,36.6948664 54.3917,36.7468664 54.2837,36.8568664 L54.3037,36.8358664 C54.2097,36.9178664 54.1207,37.0058664 54.0387,37.0998664 L54.0627,37.0778664 C53.8937,37.1958664 53.6907,37.2608664 53.5517,37.4228664 C53.3517,37.6068664 53.1457,37.7668664 52.8517,37.6268664" id="Fill-78" fill="#EFEFEF"></path>
                    <path d="M39.1276,59.4861664 C37.0096,57.9521664 34.2716,58.2501664 32.5806,60.2031664 C32.4076,60.4031664 32.2576,60.5821664 32.0776,60.2201664 C32.6066,58.5281664 34.0616,58.1581664 35.5246,57.9101664 C36.7616,57.7011664 37.9916,57.8571664 39.0716,58.5971664 C39.2986,58.7521664 39.5076,58.9441664 39.6886,59.1511664 C39.8266,59.3071664 39.8646,59.5721664 39.7146,59.7011664 C39.4556,59.9231664 39.3186,59.5821664 39.1276,59.4861664" id="Fill-80" fill="#0E0E0E"></path>
                    <path d="M55.4957,37.8092664 C53.7477,39.7032664 51.8907,41.4742664 49.7167,42.8842664 C49.6247,42.9782664 49.5387,42.9742664 49.4567,42.8712664 C49.6567,42.0172664 50.3827,41.5692664 50.9647,41.0572664 C52.4347,39.7652664 53.9797,38.5582664 55.4947,37.3172664 C55.6487,37.4812664 55.6277,37.6452664 55.4957,37.8092664" id="Fill-82" fill="#D5D5D5"></path>
                    <path d="M35.7631,38.4615664 C36.3471,38.5835664 36.4541,39.2475664 36.9311,39.4905664 C37.6771,40.5815664 38.5781,41.5295664 39.5851,42.3795664 C39.4841,43.0125664 39.1861,43.5135664 38.6151,43.8325664 C38.4291,43.1885664 38.0711,42.6475664 37.6221,42.1595664 C36.9111,40.9725664 36.0581,39.8575664 35.7631,38.4615664" id="Fill-84" fill="#303030"></path>
                    <path d="M16.5129,40.9001664 C16.4069,40.9891664 16.3019,41.0771664 16.1959,41.1661664 C15.9889,41.3181664 15.7929,41.2161664 15.5949,41.1421664 C15.3989,41.0521664 15.2199,40.9341664 15.0409,40.8141664 C14.4579,40.4151664 13.9039,39.9731664 13.2839,39.6281664 C12.9239,39.3041664 12.4889,39.1011664 12.0639,38.8811664 C11.6779,38.6371664 11.2349,38.5091664 10.8389,38.2901664 C10.8279,38.1721664 10.8019,38.1751664 10.7669,38.2861664 C10.7649,38.3811664 10.7269,38.4581664 10.6609,38.5221664 C9.9849,38.5291664 9.8179,37.9141664 9.4589,37.5351664 C9.6139,37.5431664 9.7699,37.5521664 9.9249,37.5611664 C10.6999,37.0401664 11.5869,37.2911664 12.2079,37.6311664 C13.6019,38.3941664 14.9709,39.2401664 16.1909,40.2851664 C16.3769,40.4451664 16.5189,40.6361664 16.5129,40.9001664" id="Fill-86" fill="#C1C1C1"></path>
                    <path d="M37.1681,38.5361664 C37.1471,37.7901664 37.2961,37.0631664 37.4211,36.3341664 C37.6491,36.2681664 37.7921,36.3851664 37.9061,36.5591664 C37.9281,36.6441664 37.9741,36.7171664 38.0491,36.7701664 C38.1171,36.8331664 38.1521,36.9121664 38.1561,37.0041664 C38.0801,37.2861664 37.8681,37.5121664 38.1641,37.8561664 C38.5681,38.3261664 38.8581,38.8981664 39.1781,39.4361664 C39.3861,39.7851664 39.2071,39.9421664 38.8561,39.9791664 C38.8561,39.9791664 38.8571,39.9791664 38.8571,39.9791664 C38.7331,39.7731664 38.5831,39.5981664 38.3491,39.5131664 C37.9571,39.1851664 37.4531,38.9921664 37.1681,38.5361664" id="Fill-88" fill="#C2C2C2"></path>
                    <path d="M15.4884,41.8894664 C14.8034,41.4314664 14.1324,40.9514664 13.4284,40.5244664 C13.0954,40.3214664 13.0174,40.0704664 13.0634,39.7284664 C13.1424,39.6474664 13.2384,39.6164664 13.3494,39.6274664 C13.9964,39.8954664 14.4784,40.4044664 15.0474,40.7864664 C15.2104,40.9244664 15.3974,41.0244664 15.5834,41.1254664 C16.5294,41.6154664 17.3374,42.3324664 18.3124,42.7714664 C18.4514,42.8504664 18.4254,43.0244664 18.5154,43.1324664 C18.4584,43.2164664 18.4004,43.3004664 18.3424,43.3844664 C17.2114,43.2274664 16.4034,42.4544664 15.4874,41.8884664 L15.4884,41.8894664 Z" id="Fill-90" fill="#C8C8C8"></path>
                    <path d="M37.6721,48.6728664 C37.7471,48.4388664 37.8841,48.2518664 38.0951,48.1228664 C38.6601,47.8968664 38.9701,47.3758664 39.3981,46.9918664 C39.8561,46.5818664 40.3121,46.3568664 40.7771,46.9808664 C40.2261,48.6718664 39.2421,49.2078664 37.6721,48.6728664" id="Fill-92" fill="#D3D3D3"></path>
                    <path d="M24.1902,25.2548664 C24.6112,25.5878664 25.0332,25.9198664 25.4542,26.2528664 C24.7482,26.2128664 24.0442,26.3778664 23.4302,25.9868664 C23.1122,25.8978664 22.8192,25.7618664 22.5712,25.5378664 C22.2922,25.0468664 21.3362,25.0958664 21.5252,24.2308664 C21.8992,24.1968664 22.2252,24.3718664 22.4882,24.5748664 C22.8972,24.8898664 22.9812,24.4828664 23.1902,24.3408664 C23.4992,24.6708664 23.9182,24.8828664 24.1902,25.2548664" id="Fill-94" fill="#4E4E4E"></path>
                    <path d="M34.0031,64.1022664 C34.0021,63.2712664 33.9761,62.4392664 34.0091,61.6102664 C34.0271,61.1512664 34.1451,60.3772664 34.4781,60.4112664 C35.0891,60.4732664 34.7281,61.1712664 34.7841,61.5952664 C34.8301,61.9442664 34.7991,62.3042664 34.8021,62.6592664 C34.6491,63.1782664 34.8151,63.7442664 34.5581,64.2522664 C34.4691,64.4262664 34.4151,64.6492664 34.1751,64.4992664 C34.0741,64.4372664 34.0581,64.2392664 34.0031,64.1022664" id="Fill-96" fill="#0B0B0B"></path>
                    <path d="M36.6551,61.6917664 C36.6681,61.5777664 36.6791,61.4627664 36.6941,61.3487664 C36.7241,61.1217664 36.7491,60.8437664 37.0271,60.8457557 C37.1471,60.8457557 37.2661,61.0917664 37.3851,61.2267664 C37.5561,61.8787664 37.7311,62.5307664 37.8961,63.1847664 C37.9341,63.3397664 37.9321,63.5277664 37.7631,63.5947664 C37.5481,63.6797664 37.3611,63.5647664 37.2801,63.3627664 C37.0601,62.8107664 36.8621,62.2497664 36.6551,61.6917664" id="Fill-98" fill="#111111"></path>
                    <path d="M41.0584,23.7632664 C40.6884,23.4002664 40.2274,23.6422664 39.8124,23.5742664 C40.4564,22.9832664 41.0424,22.2982664 41.9824,22.1722664 C42.1684,22.1482664 42.4034,22.1102664 42.4774,22.3712664 C42.5394,22.5872664 42.4444,22.7552664 42.2454,22.8602664 C41.8274,23.1322664 41.7234,23.8162664 41.0584,23.7632664" id="Fill-100" fill="#626262"></path>
                    <path d="M41.0584,23.7632664 C41.4534,23.4612664 41.6164,22.8542664 42.2454,22.8602664 C42.2854,23.5802664 42.1254,24.1762664 41.4114,24.5502664 C41.1504,24.6872664 40.9854,25.0092664 40.7764,25.2472664 C40.8704,24.7522664 40.9644,24.2582664 41.0584,23.7632664" id="Fill-102" fill="#1A1A1A"></path>
                    <path d="M40.7773,46.9808664 C40.3273,46.6958664 39.9653,46.6348664 39.5853,47.1638664 C39.2343,47.6518664 38.8173,48.1568664 38.0953,48.1228664 C38.4613,47.3948664 39.0193,46.8188664 39.5793,46.2438664 C39.7523,46.5068664 40.0283,46.4818664 40.2883,46.4908664 C40.6093,46.5018664 40.7683,46.6638664 40.7773,46.9808664" id="Fill-104" fill="#F0F0F0"></path>
                    <path d="M51.8777,30.8468664 C51.3117,31.3428664 50.5817,30.8718664 49.9747,31.1598664 C50.1397,31.4238664 50.5217,31.1778664 50.7557,31.5398664 C50.3917,31.5398664 50.1197,31.5418664 49.8477,31.5398664 C49.5687,31.5368664 49.2677,31.5928664 49.0157,31.5068664 C48.7377,31.4118664 49.5187,31.2448664 49.0447,31.0968664 C48.7857,31.0168664 48.4907,31.0518664 48.2127,31.0348664 C49.4207,30.7138664 50.6527,30.8358664 51.8777,30.8468664" id="Fill-106" fill="#1A1A1A"></path>
                    <path d="M21.5256,24.2303664 C21.6716,24.8823664 22.5036,24.8923664 22.7056,25.4913664 C22.8206,25.6043664 22.8126,25.7083664 22.6816,25.8023664 C22.6076,25.7623664 22.5336,25.7233664 22.4606,25.6843664 C22.3656,25.6413664 22.2786,25.5873664 22.1986,25.5213664 C21.5496,25.0433664 20.9016,24.5653664 20.2526,24.0883664 C20.2856,23.9443664 20.4296,23.9293664 20.5236,23.8573664 C20.9286,23.7913664 21.2856,23.8533664 21.5256,24.2303664" id="Fill-108" fill="#393939"></path>
                    <path d="M55.4957,37.8092664 C55.4957,37.6452664 55.4957,37.4812664 55.4947,37.3172664 C56.0407,36.6002664 56.6497,35.9512664 57.6297,35.2932664 C57.0537,36.4952664 56.3117,37.1842664 55.4957,37.8092664" id="Fill-110" fill="#E8E8E8"></path>
                    <path d="M13.3008,39.7252664 L13.1818,39.7122664 L13.0638,39.7282664 C12.6828,39.4522664 12.1868,39.3702664 11.8538,39.0132664 C11.8168,38.7822664 11.8598,38.6382664 12.1398,38.7462664 C12.5388,38.9592664 12.9368,39.1722664 13.3358,39.3862664 C13.4478,39.5122664 13.4358,39.6252664 13.3008,39.7252664" id="Fill-112" fill="#313131"></path>
                    <path d="M12.1396,38.7463664 C12.0446,38.8353664 11.9486,38.9243664 11.8536,39.0133664 C11.4376,38.8953664 11.1166,38.5453664 10.6606,38.5223664 C10.6566,38.3643664 10.6526,38.2063664 10.6476,38.0493664 C11.1526,38.2653664 11.7156,38.3583664 12.1396,38.7463664" id="Fill-114" fill="#414141"></path>
                    <path d="M24.1902,25.2548664 C23.7532,25.0628664 23.2272,24.9688664 23.1902,24.3408664 C23.7672,24.2508664 24.0362,24.7468664 24.4342,24.9978664 C24.3522,25.0838664 24.2712,25.1688664 24.1902,25.2548664" id="Fill-116" fill="#3D3D3D"></path>
                    <path d="M24.3788,43.8156664 C24.6238,43.4936664 24.8688,43.1726664 25.1138,42.8506664 C25.3138,42.9816664 25.3558,43.1536664 25.2128,43.3446664 C25.0258,43.5936664 24.8218,43.8306664 24.6258,44.0726664 C24.5438,43.9866664 24.4608,43.9016664 24.3788,43.8156664" id="Fill-118" fill="#EAEAEA"></path>
                    <path d="M48.7362,41.4151664 C48.5702,41.7901664 48.3002,42.0621664 47.8162,42.3001664 C47.9062,41.7721664 48.0922,41.4151664 48.4502,41.1411664 C48.4952,41.1531664 48.5412,41.1661664 48.5862,41.1771664 C48.6242,41.2651664 48.6732,41.3441664 48.7362,41.4151664" id="Fill-120" fill="#D4D4D4"></path>
                    <path d="M55.4946,35.8390664 C55.5766,35.6930664 55.6596,35.5470664 55.7416,35.4000664 C55.9806,35.2290664 56.2186,35.0580664 56.4566,34.8870664 C56.4996,34.8620664 56.5426,34.8370664 56.5856,34.8120664 C56.6236,34.8430664 56.6616,34.8760664 56.6996,34.9080664 C56.4326,35.4490664 55.9696,35.7870664 55.4736,36.0890664 C55.4146,36.0000664 55.4216,35.9170664 55.4946,35.8390664" id="Fill-122" fill="#BBBBBB"></path>
                    <path d="M51.1554,39.0278664 C51.5284,38.7288664 51.8044,38.2688664 52.3724,38.2968664 C52.2254,38.8038664 51.7994,39.0068664 51.3734,39.2098664 C51.3164,39.1718664 51.2554,39.1428664 51.1894,39.1238664 C51.1894,39.1238664 51.1554,39.0278664 51.1554,39.0278664" id="Fill-124" fill="#868686"></path>
                    <path d="M49.9344,40.4376664 C49.7404,40.4346664 49.5184,40.4336664 49.6834,40.1466664 C49.8454,39.8646664 50.1194,39.7456664 50.4424,39.7396664 C50.4634,39.7826664 50.4854,39.8256664 50.5064,39.8686664 C50.4674,39.8956664 50.4284,39.9226664 50.3884,39.9506664 C50.2374,40.1126664 50.0854,40.2756664 49.9344,40.4376664" id="Fill-126" fill="#575757"></path>
                    <path d="M56.7096,34.6858664 C56.8786,34.3908664 57.1436,34.2788664 57.5506,34.2698664 C57.4256,34.6188664 57.2106,34.7928664 56.9176,34.8978664 C56.8316,34.8438664 56.7616,34.7728664 56.7096,34.6858664" id="Fill-128" fill="#D9D9D9"></path>
                    <path d="M50.4426,39.7398664 C50.4756,39.2978664 50.8676,39.2148664 51.1556,39.0278664 C51.1556,39.0278664 51.1626,39.1248664 51.1626,39.1248664 C51.2206,39.1628664 51.2416,39.2018664 51.2256,39.2438664 C51.2086,39.2858664 51.1906,39.3078664 51.1726,39.3078664 C51.0816,39.5418664 50.8906,39.6748664 50.6856,39.7948664 C50.5816,39.8318664 50.4926,39.8118664 50.4216,39.7258664 L50.4426,39.7398664 Z" id="Fill-130" fill="#636363"></path>
                    <path d="M22.6815,25.8019664 C22.6895,25.6989664 22.6975,25.5959664 22.7055,25.4919664 C22.9715,25.6219664 23.2545,25.7249664 23.4295,25.9869664 C23.3535,26.0549664 23.2765,26.1239664 23.2005,26.1919664 C22.9355,26.1829664 22.8075,25.9949664 22.6815,25.8019664" id="Fill-132" fill="#282828"></path>
                    <path d="M55.4901,35.3967664 C55.3561,35.3697664 55.1141,35.3947664 55.1891,35.1927664 C55.2651,34.9907664 55.3791,34.6347664 55.7441,34.9197664 C55.6601,35.0787664 55.5751,35.2377664 55.4901,35.3967664" id="Fill-134" fill="#E0E0E0"></path>
                    <path d="M49.4568,42.8708664 C49.5428,42.8748664 49.6298,42.8788664 49.7168,42.8838664 C49.6468,42.9768664 49.5888,43.0838664 49.5048,43.1598664 C49.3878,43.2658664 49.1918,43.3788664 49.1178,43.1868664 C49.0128,42.9178664 49.2708,42.9028664 49.4568,42.8708664" id="Fill-136" fill="#E7E7E7"></path>
                    <path d="M49.2794,41.0027664 C49.1564,41.1347664 49.0094,41.2097664 48.8244,41.1847664 C48.7254,41.2677664 48.6234,41.2757664 48.5194,41.1957664 C48.5194,41.1957664 48.4504,41.1417664 48.4504,41.1417664 C48.6114,40.9797664 48.7734,40.8187664 48.9344,40.6567664 C48.9344,40.6567664 49.0124,40.7287664 49.0124,40.7287664 C49.0754,40.7977664 49.1414,40.8627664 49.2094,40.9257664 L49.2794,41.0027664 Z" id="Fill-138" fill="#CFCFCF"></path>
                    <path d="M52.3646,38.3042664 C52.3786,38.0142664 52.6046,37.9002664 52.8106,37.7712664 C52.8506,37.7832664 52.8906,37.7942664 52.9306,37.8052664 C52.9606,37.8822664 52.9996,37.9552664 53.0476,38.0232664 C52.8966,38.3032664 52.6546,38.3622664 52.3646,38.3042664" id="Fill-140" fill="#8B8B8B"></path>
                    <path d="M52.8517,37.6268664 C53.0757,37.5248664 53.2997,37.4228664 53.5237,37.3208664 C53.5677,37.3298664 53.6107,37.3388664 53.6547,37.3478664 C53.6517,37.4388664 53.6237,37.5218664 53.5667,37.5938664 C53.4847,37.7988664 53.3287,37.8518664 53.1257,37.8088664 C53.0547,37.8838664 52.9737,37.8978664 52.8817,37.8498664 C52.8817,37.8498664 52.8107,37.7718664 52.8107,37.7718664 C52.8437,37.7288664 52.8567,37.6808664 52.8517,37.6268664" id="Fill-142" fill="#8F8F8F"></path>
                    <path d="M54.5048,36.5684664 C54.6798,36.2884664 54.9248,36.1274664 55.2618,36.1184664 C55.2008,36.3724664 55.0618,36.5514664 54.7928,36.6034664 C54.6808,36.7194664 54.5848,36.7074664 54.5048,36.5684664" id="Fill-144" fill="#ABABAB"></path>
                    <path d="M38.3487,39.5130664 C38.6767,39.4950664 38.8487,39.6480664 38.8567,39.9790664 C38.6267,39.8900664 38.4617,39.7300664 38.3487,39.5130664" id="Fill-146" fill="#CFCFCF"></path>
                    <path d="M20.2844,57.8195664 C20.4664,57.8375664 20.6484,57.8545664 20.8294,57.8725664 C20.6994,58.1235664 20.4804,58.0995664 20.2724,58.0225664 C20.1674,57.9845664 20.1324,57.8795664 20.2844,57.8195664" id="Fill-148" fill="#555555"></path>
                    <path d="M53.5236,37.3206664 C53.6886,37.2076664 53.8196,37.0186664 54.0626,37.0776664 C54.0716,37.2196664 54.0226,37.3186664 53.8686,37.3396664 C53.8286,37.3396664 53.7876,37.3406664 53.7476,37.3416664 C53.6736,37.3226664 53.5996,37.3156664 53.5236,37.3206664" id="Fill-150" fill="#555555"></path>
                    <path d="M54.5048,36.5684664 C54.6008,36.5804664 54.6968,36.5914664 54.7928,36.6034664 C54.7058,36.8534664 54.5158,36.8974664 54.2838,36.8574664 C54.2358,36.6674664 54.3748,36.6214664 54.5048,36.5684664" id="Fill-152" fill="#666666"></path>
                    <path d="M56.6868,33.4536664 C56.4918,33.4616664 56.3188,33.4236664 56.2188,33.2316664 C56.4118,33.2286664 56.5938,33.2476664 56.6868,33.4536664" id="Fill-154" fill="#D3D3D3"></path>
                    <path d="M20.5235,23.8571664 C20.4335,23.9341664 20.3435,24.0111664 20.2535,24.0881664 C20.1305,24.0521664 20.0435,23.9521664 20.1155,23.8531664 C20.2285,23.6961664 20.3865,23.7911664 20.5235,23.8571664" id="Fill-156" fill="#151515"></path>
                    <path d="M22.1981,25.5213664 C22.3191,25.5213664 22.4111,25.5683664 22.4601,25.6843664 C22.3301,25.6983664 22.2561,25.6223664 22.1981,25.5213664" id="Fill-158" fill="#4E4E4E"></path>
                    <path d="M55.4946,35.8390664 C55.4876,35.9220664 55.4806,36.0060664 55.4736,36.0890664 C55.4736,36.0890664 55.3636,36.1380664 55.3636,36.1380664 C55.3636,36.1380664 55.2446,36.1300664 55.2446,36.1300664 C55.2666,35.9800664 55.3556,35.8890664 55.4946,35.8390664" id="Fill-160" fill="#888888"></path>
                    <path d="M56.7096,34.6858664 C56.8276,34.7088664 56.9016,34.7748664 56.9176,34.8978664 C56.9176,34.8978664 56.8096,34.9168664 56.8096,34.9168664 C56.8096,34.9168664 56.6996,34.9078664 56.6996,34.9078664 C56.6996,34.9078664 56.7136,34.9178664 56.7136,34.9178664 C56.6526,34.8678664 56.6296,34.8138664 56.6436,34.7578664 C56.6576,34.6998664 56.6736,34.6708664 56.6916,34.6708664 L56.7096,34.6858664 Z" id="Fill-162" fill="#9E9E9E"></path>
                    <path d="M56.6921,34.6704664 C56.6991,34.7524664 56.7061,34.8354664 56.7131,34.9174664 C56.6281,34.9074664 56.5421,34.8974664 56.4571,34.8874664 C56.5351,34.8154664 56.6141,34.7424664 56.6921,34.6704664" id="Fill-164" fill="#EFEFEF"></path>
                    <path d="M50.4213,39.7262664 C50.5093,39.7492664 50.5973,39.7722664 50.6853,39.7952664 C50.6203,39.9112664 50.5253,39.9702664 50.3883,39.9502664 C50.3963,39.8752664 50.4073,39.8002664 50.4213,39.7262664" id="Fill-166" fill="#CFCFCF"></path>
                    <path d="M51.1722,39.3075664 C51.1702,39.2465664 51.1662,39.1845664 51.1622,39.1245664 C51.2692,39.0625664 51.3252,39.1255664 51.3732,39.2095664 C51.3202,39.2705664 51.2532,39.3035664 51.1722,39.3075664" id="Fill-168" fill="#5E5E5E"></path>
                    <path d="M48.5194,41.1953664 C48.6204,41.1923664 48.7214,41.1883664 48.8234,41.1853664 C48.7944,41.2613664 48.7654,41.3383664 48.7364,41.4153664 C48.6154,41.3893664 48.5324,41.3273664 48.5194,41.1953664" id="Fill-170" fill="#9A9A9A"></path>
                    <path d="M54.0389,37.0996664 C54.0269,36.9106664 54.1089,36.8166664 54.3039,36.8356664 C54.3129,37.0216664 54.2079,37.0926664 54.0389,37.0996664" id="Fill-172" fill="#565656"></path>
                    <path d="M52.8815,37.8496664 C52.9625,37.8356664 53.0445,37.8226664 53.1255,37.8086664 C53.1325,37.8916664 53.1055,37.9636664 53.0475,38.0236664 C52.9615,37.9946664 52.8625,37.9786664 52.8815,37.8496664" id="Fill-174" fill="#383838"></path>
                    <path d="M53.7474,37.3411664 C53.7884,37.3601664 53.8284,37.3601664 53.8684,37.3391664 C53.8354,37.5041664 53.7204,37.5711664 53.5674,37.5941664 C53.6274,37.5091664 53.6874,37.4251664 53.7474,37.3411664" id="Fill-176" fill="#3E3E3E"></path>
                    <path d="M29.4443,70.3651664 C30.0743,70.4561664 30.7533,70.4291664 31.1373,71.0921664 C30.4583,71.1171664 29.7933,71.1091664 29.4443,70.3651664" id="Fill-182" fill="#D5D5D5"></path>
                    <path d="M55.539,32.2904664 C55.142,32.8524664 54.774,33.4434664 54.119,33.7554664 C53.431,33.8484664 52.769,34.0204664 52.166,34.3794664 C50.537,35.3504664 49.229,36.7254664 47.753,37.8884664 C47.343,38.2124664 46.965,38.5694664 46.457,38.7384664 C46.243,38.8154664 46.027,38.8884664 45.809,38.9544664 C45.639,39.0014664 45.466,39.0184664 45.291,39.0074664 C43.815,38.3134664 42.515,37.3704664 41.367,36.2134664 C41.041,35.6654664 40.459,35.4934664 39.944,35.2034664 C38.803,34.5624664 37.556,34.0324664 36.93,32.7514664 C37.391,32.2844664 38.028,32.4424664 38.525,32.4714664 C39.85,32.5504664 41.144,32.3264664 42.452,32.2804664 C43.811,32.2314664 45.173,32.2724664 46.534,32.2744664 C49.536,32.2794664 52.537,32.2854664 55.539,32.2904664" id="Fill-196" fill="#2D2D2D"></path>
                    <path d="M32.5866,35.1519664 C31.4086,36.3749664 30.4186,37.7829664 29.0176,38.7859664 C28.9026,38.8429664 28.8076,38.9229664 28.7386,39.0329664 L28.7506,39.0219664 C28.6466,39.0849664 28.5616,39.1699664 28.4986,39.2739664 L28.5096,39.2629664 C28.4046,39.3269664 28.3196,39.4109664 28.2586,39.5169664 L28.2716,39.5099664 C28.1426,39.6079664 28.0226,39.7199664 27.8826,39.8039664 C27.7796,39.8449664 27.6726,39.8669664 27.5626,39.8739664 C27.1016,39.8299664 26.7696,40.0819664 26.4226,40.3349664 C26.1546,40.5309664 25.8526,40.7869664 25.5316,40.3869664 C25.5286,40.2229664 25.5496,40.0459664 25.6676,39.9429664 C27.3726,38.4549664 28.4126,36.3989664 30.0326,34.8419664 C30.3356,34.5499664 30.6186,34.1569664 31.1376,34.4399664 C31.4666,34.6369664 31.7576,34.7559664 31.9736,34.2699664 C32.2386,33.6749664 32.5496,33.1009664 32.8416,32.5179664 C32.9796,32.5419664 33.0816,32.4149664 33.2176,32.4299664 C33.3416,32.5049664 33.4486,32.5849664 33.3196,32.7419664 C32.9356,33.2639664 33.1866,33.8829664 33.0586,34.4449664 C32.8896,34.6729664 32.9416,35.0479664 32.5866,35.1519664" id="Fill-198" fill="#575757"></path>
                    <path d="M36.9303,32.7517664 C38.1053,33.6847664 39.2153,34.7087664 40.6723,35.2247664 C41.0743,35.3677664 41.4993,35.5717664 41.5213,36.1167664 C40.0053,35.8617664 38.6783,35.1747664 37.4913,34.2357664 C36.9393,33.7987664 36.3553,33.5237664 35.6753,33.4137664 C35.5663,33.3597664 35.4843,33.2797664 35.4313,33.1707664 C35.8593,32.7757664 36.3773,32.6997664 36.9303,32.7517664" id="Fill-200" fill="#515151"></path>
                    <path d="M35.4989,34.6996664 C35.3739,35.2676664 35.2779,35.8446664 35.1139,36.4016664 C35.0009,36.7866664 34.9359,37.1536664 35.0509,37.5416664 C34.5109,36.6496664 34.3039,35.6596664 34.3018968,34.6396664 C34.3009,34.1606664 34.5369,33.7216664 34.9859,33.4536664 C35.3049,33.6936664 35.4099,34.0676664 35.5809,34.4016664 C35.6019,34.5136664 35.5739,34.6136664 35.4989,34.6996664" id="Fill-202" fill="#2C2C2C"></path>
                    <path d="M37.6225,42.1594664 C37.7845,42.2604664 37.9345,42.3914664 38.1095,42.4574664 C38.8175,42.7254664 38.8835,43.2134664 38.6155,43.8324664 C38.3045,44.2434664 38.1435,44.7734664 37.6575,45.0464664 C37.6155,44.4254664 37.7545,43.7924664 37.4715,43.1864664 C37.3075,42.8354664 37.6715,42.5184664 37.6225,42.1594664" id="Fill-204" fill="#282828"></path>
                    <path d="M47.3127,31.8082664 C46.4907,32.2112664 45.6537,32.0112664 44.6307,31.9212664 C45.1607,31.3662664 45.6677,31.5652664 46.1277,31.5622664 C46.4847,31.8262664 46.9697,31.4762664 47.3127,31.8082664" id="Fill-206" fill="#2C2C2C"></path>
                    <path d="M35.4649,34.4575664 C35.0569,34.2415664 34.9789,33.8675664 34.9859,33.4535664 C35.0909,33.2915664 35.2489,33.2115664 35.4309,33.1705664 C35.4309,33.1705664 35.4969,33.2415664 35.4969,33.2415664 C35.8019,33.6555664 35.8409,34.0615664 35.4649,34.4575664" id="Fill-208" fill="#515151"></path>
                    <path d="M47.3127,31.8082664 C46.9227,31.7012664 46.4597,31.9462664 46.1277,31.5622664 C46.6517,31.5622664 47.1757,31.5622664 47.7157,31.5622664 C47.7117,31.8382664 47.4497,31.7312664 47.3127,31.8082664" id="Fill-210" fill="#6F6F6F"></path>
                    <path d="M35.7142,43.7862664 C35.6812,43.9492664 35.7502,44.2102664 35.4422,44.1932664 C35.3182,44.1862664 35.2762,44.0422664 35.2762,43.9202664 C35.2772,43.7482664 35.3492,43.5992664 35.5192,43.5542664 C35.6782,43.5112664 35.7012,43.6482664 35.7142,43.7862664" id="Fill-212" fill="#111111"></path>
                    <path d="M32.5866,35.1519664 C32.6936,34.8829664 32.7986,34.6119664 33.0586,34.4449664 C33.0436,34.8229664 33.0296,35.2009664 33.0156,35.5789664 C32.9536,35.5989664 32.8926,35.6189664 32.8306,35.6389664 C32.7866,35.4589664 32.8246,35.2359664 32.5866,35.1519664" id="Fill-214" fill="#8E8E8E"></path>
                    <path d="M33.6281,34.1331664 C33.6951,34.2121664 33.7661,34.2571664 33.7711,34.3081664 C33.7851,34.4501664 33.8351,34.6141664 33.6541,34.7021664 C33.6221,34.6331664 33.5661,34.5641664 33.5651,34.4951664 C33.5651,34.3851664 33.6011,34.2741664 33.6281,34.1331664" id="Fill-216" fill="#1B1B1B"></path>
                    <path d="M33.3198,32.7420664 C33.2408,32.6590664 33.1608,32.5750664 33.0818,32.4920664 C33.0158,32.4390664 32.9928,32.3850664 33.0148,32.3310664 C33.0368,32.2770664 33.0578,32.2500664 33.0798,32.2500664 C33.0798,32.2500664 33.0588,32.2730664 33.0588,32.2730664 C33.2138,32.2430664 33.3688,32.2130664 33.5248,32.1830664 C33.5448,32.4020664 33.5338,32.6090664 33.3198,32.7420664" id="Fill-218" fill="#010101"></path>
                    <path d="M53.3151,31.0689664 C53.4651,31.1259664 53.3421,30.9059664 53.3951,31.0579664 C53.4211,31.1339664 53.3961,31.1569664 53.3231,31.1229664 C53.1771,31.0559664 53.3841,31.1989664 53.3401,31.0439664 C53.3411,31.0439664 53.3151,31.0689664 53.3151,31.0689664" id="Fill-220" fill="#FFFFFF"></path>
                    <path d="M31.1371,34.4398664 C30.5681,34.4498664 30.3551,34.9118664 30.0591,35.2768664 C29.4621,36.0098664 28.4361,36.4278664 28.4011,37.5828664 C28.3961,37.7198664 28.1241,37.8418664 27.9861,37.9808664 C27.1741,38.7918664 26.2831,39.5278664 25.5971,40.4598664 C25.2891,41.2908664 24.6581,41.6858664 23.8081,41.7858664 C23.3741,41.8208664 22.9491,41.8858664 22.5111,41.7288664 C19.9071,40.7958664 17.4331,39.6078664 15.1961,37.9678664 C14.7751,37.6588664 14.2081,37.3488664 14.4671,36.6318664 C16.8241,36.2568664 19.1781,35.8608664 21.5381,35.5118664 C23.8231,35.1748664 26.0641,34.5988664 28.3431,34.2518664 C29.2501,34.1148664 30.2371,33.9448664 31.1371,34.4398664" id="Fill-222" fill="#2D2D2D"></path>
                    <path d="M14.4676,36.6317664 C14.7736,37.6607664 15.7166,38.0757664 16.5066,38.5327664 C18.2866,39.5617664 20.1046,40.5377664 22.0386,41.2727664 C22.6446,41.5027664 23.2376,41.6907664 23.8906,41.6167664 C24.1056,41.5597664 24.3676,41.4717664 24.3916,41.8057664 C24.4106,42.0697664 24.1966,42.1777664 23.9396,42.1667664 C23.8486,42.0987664 23.7306,41.9557664 23.6716,41.9767664 C22.8586,42.2647664 22.0546,42.5757664 21.2486,42.8807664 C20.9386,42.9747664 20.7156,42.7327664 20.4466,42.6707664 C17.9276,41.4377664 15.6216,39.8557664 13.3006,38.2997664 C12.3536,37.6637664 12.3386,37.5507664 13.0986,36.8607664 C13.5616,36.8247664 13.9896,36.5777664 14.4676,36.6317664" id="Fill-224" fill="#959595"></path>
                    <path d="M13.0984,36.8611664 C12.9374,37.0301664 12.7754,37.2001664 12.5394,37.4481664 C13.9044,38.3621664 15.2494,39.2341664 16.5634,40.1511664 C17.8674,41.0601664 19.3784,41.6181664 20.6314,42.6061664 C20.4384,42.7781664 20.2334,42.7711664 20.0204,42.6471664 C18.7704,42.2271664 17.6824,41.4821664 16.5124,40.9001664 C15.7724,40.2211664 14.9224,39.6931664 14.0874,39.1451664 C13.7184,38.9031664 13.2594,38.7571664 12.9674,38.4481664 C12.1104,37.5411664 11.0614,37.4351664 9.9244,37.5611664 C10.0214,37.3411664 10.1584,37.1611664 10.3964,37.0791664 L10.4024,37.0761664 C10.5324,36.9101664 10.7434,36.7671664 10.8944,36.9151664 C11.5354,37.5391664 12.1344,37.3541664 12.7584,36.9061664 C12.8404,36.8471664 12.9834,36.8741664 13.0984,36.8611664" id="Fill-226" fill="#0E0E0E"></path>
                    <path d="M31.8459,32.0018664 C31.8389,32.2338664 31.6479,32.4158664 31.5039,32.3098664 C31.2889,32.1518664 31.3669,31.9108664 31.6289,31.7848664 C31.6989,31.8598664 31.7709,31.9318664 31.8459,32.0018664" id="Fill-228" fill="#494949"></path>
                    <path d="M33.0802,32.2503664 C33.0802,32.3313664 33.0812,32.4113664 33.0812,32.4923664 C33.0142,32.6233664 32.9432,32.7103664 32.8412,32.5183664 C32.9212,32.4283664 33.0002,32.3393664 33.0802,32.2503664" id="Fill-230" fill="#868686"></path>
                    <path d="M31.8459,32.0018664 C31.6969,32.0058664 31.6499,31.9078664 31.6289,31.7848664 C31.8009,31.7578664 31.8409,31.8618664 31.8459,32.0018664" id="Fill-232" fill="#989898"></path>
                    <path d="M23.9392,42.1663664 C24.2782,41.9523664 24.4522,41.7523664 23.8912,41.6163664 C24.5962,41.4323664 25.0232,40.8393664 25.5962,40.4603664 C26.0442,40.4683664 26.2972,40.1453664 26.5502,39.8613664 C26.9462,39.4163664 27.3522,39.4743664 27.7902,39.7643664 C27.6522,40.6363664 26.9962,41.0383664 26.3002,41.4023664 L26.3082,41.4013664 C26.2422,41.5053664 26.1592,41.5903664 26.0522,41.6513664 L26.0652,41.6383664 C26.0032,41.7493664 25.9082,41.8273664 25.8062,41.8963664 C25.5692,42.1233664 25.3332,42.3503664 25.0972,42.5773664 C24.8032,42.6243664 24.6712,42.8843664 24.4652,43.0483664 C24.2852,43.1913664 24.0572,43.3023664 23.8302,43.1553664 C23.5322,42.9623664 23.6612,42.6863664 23.7352,42.4303664 C23.7612,42.3153664 23.8252,42.2293664 23.9302,42.1743664 L23.9392,42.1663664 Z" id="Fill-234" fill="#5C5C5C"></path>
                    <path d="M26.2998,41.4021664 C26.6218,40.6971664 27.4348,40.4391664 27.7898,39.7641664 C27.7908,39.7641664 27.7768,39.7661664 27.7768,39.7661664 C27.9118,39.5981664 28.0678,39.6051664 28.2368,39.7091664 C28.0248,40.4381664 27.4448,40.8861664 26.9478,41.3991664 C26.7198,41.6331664 26.5158,41.4961664 26.2998,41.4021664" id="Fill-236" fill="#C6C6C6"></path>
                    <path d="M28.2367,39.7086664 C28.0837,39.7276664 27.9297,39.7466664 27.7767,39.7656664 C27.8657,39.5336664 28.0577,39.5006664 28.2717,39.5106664 C28.2617,39.5766664 28.2497,39.6426664 28.2367,39.7086664" id="Fill-238" fill="#5C5C5C"></path>
                    <path d="M28.2583,39.5172664 C28.3423,39.4322664 28.4253,39.3472664 28.5093,39.2622664 C28.4783,39.3992664 28.3963,39.4852664 28.2583,39.5172664" id="Fill-240" fill="#5C5C5C"></path>
                    <path d="M28.4984,39.2741664 C28.5824,39.1901664 28.6664,39.1061664 28.7504,39.0221664 C28.6664,39.1061664 28.5824,39.1901664 28.4984,39.2741664" id="Fill-242" fill="#5C5C5C"></path>
                    <path d="M25.8059,41.8962664 C25.8399,41.7582664 25.9269,41.6732664 26.0649,41.6392664 C26.0289,41.7752664 25.9419,41.8602664 25.8059,41.8962664" id="Fill-244" fill="#C6C6C6"></path>
                    <path d="M26.0519,41.6515664 C26.0859,41.5155664 26.1739,41.4345664 26.3079,41.4015664 C26.2709,41.5335664 26.1859,41.6175664 26.0519,41.6515664" id="Fill-246" fill="#C6C6C6"></path>
                    <path d="M28.739,39.0327664 C28.786,38.8997664 28.879,38.8167664 29.017,38.7867664 C28.967,38.9157664 28.877,39.0017664 28.739,39.0327664" id="Fill-248" fill="#5C5C5C"></path>
                    <path d="M35.4649,34.4575664 C35.4749,34.0525664 35.4859,33.6465664 35.4969,33.2415664 C36.2669,33.1705664 36.9049,33.2935664 37.5349,33.8915664 C38.2639,34.5835664 39.1439,35.1645664 40.1759,35.3915664 C40.6979,35.5055664 41.0719,35.8765664 41.5209,36.1165664 C42.6649,36.9675664 43.8059,37.8215664 44.9559,38.6635664 C45.0769,38.7515664 45.2549,38.7615664 45.4059,38.8085664 C45.5569,38.8425664 45.7449,39.0615664 45.8209,38.7255664 C45.9589,38.5775664 46.1319,38.5265664 46.3289,38.5395664 C46.6269,38.7525664 47.0729,38.3925664 47.3219,38.7965664 C47.2019,39.0235664 46.9879,39.1525664 46.7659,39.2255664 C46.2889,39.3815664 46.0819,39.6455664 46.0619,40.1835664 C46.0329,40.9445664 45.6579,41.1915664 44.8709,41.0315664 C43.8399,40.8225664 42.9309,40.3245664 42.0879,39.7085664 C40.8029,38.7705664 39.5579,37.7735664 38.1559,37.0045664 C38.1239,36.8875664 38.0489,36.8235664 37.9289,36.8125664 L37.9229,36.8075664 C37.8019,36.6015664 37.6459,36.4305664 37.4209,36.3345664 C36.7389,35.8375664 36.2719,35.0885664 35.4989,34.6995664 C35.4879,34.6185664 35.4759,34.5385664 35.4649,34.4575664" id="Fill-250" fill="#5C5C5C"></path>
                    <path d="M47.3215,38.7961664 C47.1015,38.8111664 46.8775,38.8031664 46.6635,38.8471664 C46.3825,38.9061664 46.3665,38.7211664 46.3285,38.5401664 C47.3665,38.0641664 48.0765,37.1641664 48.9635,36.4931664 C49.8525,35.8211664 50.6355,35.0161664 51.5685,34.3951664 C51.7415,34.2801664 51.9175,34.2071664 52.1205,34.1931664 C52.5235,33.9791664 52.8745,33.9701664 53.1025,34.4421664 C52.2825,35.1601664 51.4175,35.8181664 50.4865,36.3881664 C49.4025,37.1561664 48.2625,37.8511664 47.3145,38.7981664 L47.3215,38.7961664 Z" id="Fill-252" fill="#4D4D4D"></path>
                    <path d="M47.3144,38.7984664 C47.3304,38.6804664 47.3014,38.5114664 47.3684,38.4534664 C48.3234,37.6394664 49.2304,36.7484664 50.4864,36.3884664 C49.5524,37.3534664 48.5524,38.2324664 47.3144,38.7984664" id="Fill-254" fill="#5C5C5C"></path>
                    <path d="M53.1026,34.4424664 C52.7976,34.2734664 52.4786,34.1554664 52.1206,34.1934664 C52.7126,33.7084664 53.3316,33.3464664 54.1186,33.7554664 C53.8896,34.1464664 53.4726,34.2604664 53.1026,34.4424664" id="Fill-256" fill="#424242"></path>
                    <path d="M48.9776,39.2255664 C48.7486,39.5995664 48.5326,39.9875664 48.0096,39.9865664 C48.1826,39.5095664 48.5796,39.2615664 48.9886,39.0265664 C49.0586,39.0745664 49.0806,39.1195664 49.0546,39.1635664 C49.0286,39.2045664 49.0026,39.2255664 48.9776,39.2255664" id="Fill-258" fill="#4A4A4A"></path>
                    <path d="M51.8713,37.0794664 C51.8653,37.1474664 51.8513,37.2134664 51.8273,37.2764664 C51.5223,37.4534664 51.2173,37.6314664 50.9123,37.8084664 C50.8793,37.7724664 50.8463,37.7364664 50.8123,37.7004664 C50.8443,37.6634664 50.8773,37.6274664 50.9103,37.5904664 C50.9093,37.5124664 50.9123,37.4344664 50.9173,37.3564664 C51.0323,37.2004664 51.0953,36.9624664 51.3753,37.0584664 C51.4693,37.0664664 51.5643,37.0744664 51.6583,37.0824664 C51.7273,36.9804664 51.7983,36.9844664 51.8713,37.0794664" id="Fill-260" fill="#989898"></path>
                    <path d="M51.8713,37.0794664 L51.7643,37.0694664 C51.7643,37.0694664 51.6583,37.0824664 51.6583,37.0824664 C51.7343,36.6804664 52.0893,36.6974664 52.3723,36.6084664 C52.3853,36.6544664 52.3973,36.7004664 52.4093,36.7474664 C52.3643,36.7634664 52.3193,36.7794664 52.2733,36.7944664 C52.1393,36.8894664 52.0053,36.9844664 51.8713,37.0794664" id="Fill-262" fill="#525252"></path>
                    <path d="M53.2719,36.0898664 C53.0529,36.1938664 52.9069,36.4668664 52.6039,36.3748664 C52.7579,36.1188664 52.8349,35.6818664 53.2719,36.0898664" id="Fill-264" fill="#707070"></path>
                    <path d="M51.3751,37.0588664 C51.2221,37.1578664 51.0691,37.2568664 50.9171,37.3558664 C50.9471,37.0678664 50.9581,36.7508664 51.3751,37.0588664" id="Fill-266" fill="#EAEAEA"></path>
                    <path d="M54.7723,34.4560664 C55.1673,34.6110664 54.9593,34.7750664 54.7793,34.9380664 C54.4433,34.7830664 54.7753,34.6170664 54.7723,34.4560664" id="Fill-268" fill="#858585"></path>
                    <path d="M54.0908,35.4095664 C54.0008,35.5035664 53.9108,35.5965664 53.8208,35.6905664 C53.6148,35.6205664 53.6298,35.5115664 53.7608,35.3745664 C53.8888,35.2415664 53.9998,35.2145664 54.0908,35.4095664" id="Fill-270" fill="#797979"></path>
                    <path d="M49.9562,38.2796664 C50.0202,38.6776664 49.8302,38.8206664 49.4562,38.7816664 C49.4652,38.4576664 49.6822,38.3406664 49.9562,38.2796664" id="Fill-272" fill="#444444"></path>
                    <path d="M48.9776,39.2255664 C48.9896,39.1595664 48.9936,39.0925664 48.9886,39.0265664 C49.0666,38.7805664 49.2466,38.7235664 49.4776,38.7625664 C49.4436,39.0605664 49.2996,39.2395664 48.9776,39.2255664" id="Fill-274" fill="#3B3B3B"></path>
                    <path d="M50.9122,37.8080664 C50.7852,37.9610664 50.6202,38.0420664 50.4232,38.0600664 C50.3682,37.9040664 50.4512,37.8270664 50.5832,37.7760664 L50.6862,37.7330664 L50.7592,37.8190664 C50.8112,37.8350664 50.8622,37.8320664 50.9122,37.8080664" id="Fill-276" fill="#4E4E4E"></path>
                    <path d="M50.4437,38.0412664 C50.3847,38.3462664 50.1447,38.2912664 49.9347,38.2962664 C50.0727,38.1472664 50.1987,37.9762664 50.4437,38.0412664" id="Fill-278" fill="#3D3D3D"></path>
                    <path d="M55.5027,34.1929664 C55.4247,34.3499664 55.3457,34.4099664 55.2617,34.1969664 C55.3417,34.1959664 55.4227,34.1939664 55.5027,34.1929664" id="Fill-280" fill="#B9B9B9"></path>
                    <path d="M55.7263,33.9534664 C55.6503,34.0364664 55.5743,34.1184664 55.4983,34.2014664 C55.4973,34.1214664 55.4953,34.0414664 55.4933,33.9614664 C55.5733,33.9524664 55.6523,33.9524664 55.7323,33.9594664 L55.7263,33.9534664 Z" id="Fill-282" fill="#BFBFBF"></path>
                    <path d="M52.6153,36.3522664 C52.6093,36.4332664 52.6043,36.5152664 52.5983,36.5962664 C52.5173,36.6752664 52.4383,36.6762664 52.3633,36.5892664 C52.3633,36.5892664 52.3733,36.6082664 52.3733,36.6082664 C52.3683,36.4422664 52.4523,36.3592664 52.6153,36.3522664" id="Fill-284" fill="#2E2E2E"></path>
                    <path d="M48.0305,39.9670664 C48.0395,40.1510664 47.9435,40.2300664 47.7685,40.2300664 C47.7615,40.0480664 47.8505,39.9620664 48.0305,39.9670664" id="Fill-286" fill="#3F3F3F"></path>
                    <path d="M47.7851,40.2112664 C47.7801,40.2912664 47.7761,40.3702664 47.7711,40.4502664 C47.6711,40.4322664 47.5841,40.3902664 47.6251,40.2732664 C47.6381,40.2382664 47.7301,40.2312664 47.7851,40.2112664" id="Fill-288" fill="#606060"></path>
                    <path d="M50.759,37.8188664 C50.702,37.7998664 50.643,37.7858664 50.583,37.7758664 C50.648,37.6358664 50.762,37.5828664 50.911,37.5908664 C50.86,37.6668664 50.81,37.7428664 50.759,37.8188664" id="Fill-290" fill="#4C4C4C"></path>
                    <path d="M18.3246,42.9024664 C17.2406,42.5454664 16.3066,41.9364664 15.4516,41.1924664 C15.4716,41.0454664 15.6066,41.0264664 15.7046,40.9654664 C15.8686,41.0324664 16.0326,41.0994664 16.1956,41.1654664 C16.9446,41.7424664 17.7556,42.2204664 18.5766,42.6834664 C18.6136,42.8954664 18.5476,42.9894664 18.3246,42.9024664" id="Fill-292" fill="#272727"></path>
                    <path d="M18.3246,42.9024664 C18.4086,42.8294664 18.4926,42.7564664 18.5766,42.6834664 C18.8736,42.7564664 19.1436,42.8804664 19.3586,43.1064664 C19.3586,43.1064664 19.3166,43.2104664 19.3176,43.2104664 C19.2466,43.2344664 19.1766,43.2594664 19.1066,43.2854664 C18.9096,43.2354664 18.7126,43.1844664 18.5156,43.1334664 C18.4526,43.0564664 18.3886,42.9794664 18.3246,42.9024664" id="Fill-294" fill="#515151"></path>
                    <path d="M20.0205,42.6472664 C20.2235,42.6332664 20.4275,42.6202664 20.6315,42.6062664 C20.8905,42.5782664 21.0405,42.7942664 21.2485,42.8802664 C21.2405,43.0652664 21.1575,43.1962664 20.9635,43.1132664 C20.6415,42.9752664 20.3345,42.8042664 20.0205,42.6472664" id="Fill-296" fill="#2E2E2E"></path>
                    <path d="M19.3589,43.1063664 C19.5489,43.1683664 19.6209,43.2973664 19.5009,43.4613664 C19.4529,43.5263664 19.3539,43.4663664 19.3269,43.3693664 C19.2669,43.3073664 19.2349,43.2323664 19.2279,43.1473664 C19.2679,43.1203664 19.3109,43.1073664 19.3589,43.1063664" id="Fill-298" fill="#777777"></path>
                    <path d="M19.2281,43.1471664 C19.2611,43.2211664 19.2941,43.2951664 19.3271,43.3691664 C19.2421,43.3721664 19.1681,43.3451664 19.1071,43.2861664 C19.1341,43.2281664 19.1751,43.1821664 19.2281,43.1471664" id="Fill-300" fill="#3A3A3A"></path>
                    <path d="M23.9302,42.1742664 C23.8652,42.2592664 23.7992,42.3452664 23.7342,42.4302664 C23.7262,42.2892664 23.7992,42.2092664 23.9302,42.1742664" id="Fill-302" fill="#959595"></path>
                    <path d="M49.2094,40.9261664 C49.0824,40.9221664 49.0144,40.8581664 49.0124,40.7291664 C49.1434,40.7301664 49.2124,40.7911664 49.2094,40.9261664" id="Fill-304" fill="#7D7D7D"></path>
                    <path d="M55.7324,33.9593664 C55.7494,33.9253664 55.7714,33.8593664 55.7834,33.8613664 C55.8614,33.8733664 55.8414,33.9103664 55.7264,33.9533664 C55.7264,33.9533664 55.7324,33.9593664 55.7324,33.9593664" id="Fill-306" fill="#CFCFCF"></path>
                    <path d="M52.3629,36.5890664 C52.4409,36.6160664 52.5189,36.6190664 52.5979,36.5960664 C52.5389,36.7420664 52.4319,36.8110664 52.2739,36.7950664 C52.2819,36.7170664 52.3119,36.6480664 52.3629,36.5890664" id="Fill-308" fill="#CFCFCF"></path>
                    <path d="M13.3008,39.7252664 C13.3128,39.6122664 13.3238,39.4992664 13.3358,39.3862664 C14.0518,39.7062664 14.6628,40.1822664 15.2538,40.6872664 C15.2228,40.8272664 15.1338,40.9062664 14.9938,40.9292664 C14.3978,40.5722664 13.8208,40.1882664 13.3008,39.7252664" id="Fill-310" fill="#2D2D2D"></path>
                    <path d="M14.9936,40.9295664 C15.0806,40.8485664 15.1676,40.7685664 15.2536,40.6875664 C15.4046,40.7805664 15.5546,40.8725664 15.7046,40.9655664 C15.6206,41.0415664 15.5366,41.1175664 15.4516,41.1925664 C15.2706,41.1545664 15.1046,41.0895664 14.9936,40.9295664" id="Fill-312" fill="#131313"></path>
                    <path d="M10.3767,37.9188664 C10.4207,37.9068664 10.4677,37.8798664 10.4837,37.8918664 C10.5447,37.9368664 10.6497,38.0248664 10.6387,38.0448664 C10.5647,38.1858664 10.6947,38.0378664 10.5367,38.0088664 C10.4827,37.9998664 10.4347,37.9528664 10.3767,37.9188664" id="Fill-314" fill="#FFFFFF"></path>
                    <path d="M37.9287,36.8130664 C37.8907,36.8490664 37.8537,36.8860664 37.8157,36.9220664 C37.8517,36.8840664 37.8877,36.8460664 37.9227,36.8080664 C37.9227,36.8080664 37.9287,36.8130664 37.9287,36.8130664" id="Fill-316" fill="#CFCFCF"></path>
                    <path d="M15.4884,41.8894664 C15.5214,41.8534664 15.5544,41.8164664 15.5884,41.7804664 C15.5824,41.8014664 15.5844,41.8314664 15.5714,41.8444664 C15.5484,41.8644664 15.5154,41.8744664 15.4874,41.8884664 C15.4874,41.8884664 15.4884,41.8894664 15.4884,41.8894664" id="Fill-318" fill="#888888"></path>
                    <path d="M45.8212,38.7251664 C45.8912,38.8001664 45.9922,38.9001664 45.8542,38.9691664 C45.6722,39.0601664 45.5112,38.9851664 45.4062,38.8081664 C45.5442,38.7801664 45.6832,38.7531664 45.8212,38.7251664" id="Fill-320" fill="#808080"></path>
                    <path d="M10.4027,37.0763664 C10.4777,37.1253664 10.5517,37.1743664 10.6267,37.2233664 C10.5997,37.2453664 10.5707,37.2873664 10.5467,37.2843664 C10.4307,37.2693664 10.3917,37.1883664 10.3967,37.0793664 C10.3967,37.0793664 10.4027,37.0763664 10.4027,37.0763664" id="Fill-322" fill="#9F9F9F"></path>
                </g>
            </g>
        </g>
    </g>
</svg>