<?xml version="1.0" encoding="utf-8"?>
<!-- Generator: Adobe Illustrator 25.3.1, SVG Export Plug-In . SVG Version: 6.00 Build 0)  -->
<svg version="1.1" id="레이어_1" xmlns="http://www.w3.org/2000/svg" xmlns:xlink="http://www.w3.org/1999/xlink" x="0px"
	 y="0px" viewBox="0 0 100 100" style="enable-background:new 0 0 100 100;" xml:space="preserve">
<style type="text/css">
	.st0{clip-path:url(#SVGID_2_);fill:#00ACDB;}
	.st1{clip-path:url(#SVGID_2_);}
	.st2{fill:#070707;}
	.st3{fill:#FFFFFF;}
	.st4{fill:#D0D0D0;}
	.st5{fill:#CBCBCB;}
	.st6{fill:#C0C0C0;}
	.st7{fill:#BABABA;}
	.st8{fill:#B7B7B7;}
	.st9{fill:#161616;}
	.st10{fill:#181818;}
	.st11{fill:#B4B4B4;}
	.st12{fill:#A6A6A6;}
	.st13{fill:#B3B3B3;}
	.st14{fill:#BFBFBF;}
	.st15{fill:#1E1E1E;}
	.st16{fill:#9E9E9E;}
	.st17{fill:#212121;}
	.st18{fill:#3C3C3C;}
	.st19{fill:#7E7E7E;}
	.st20{fill:#929292;}
	.st21{fill:#606060;}
	.st22{fill:#2B2B2B;}
	.st23{fill:#A2A2A2;}
	.st24{fill:#B2B2B2;}
	.st25{fill:#010101;}
	.st26{fill:#050505;}
	.st27{fill:#333333;}
	.st28{fill:#2C2C2C;}
	.st29{fill:#6F6F6F;}
	.st30{fill:#2F2F2F;}
	.st31{fill:#030303;}
	.st32{fill:#060401;}
	.st33{fill:#F9F9F8;}
	.st34{fill:#F3F3F2;}
	.st35{fill:#252321;}
	.st36{fill:#FDFDFD;}
</style>
<g>
	<defs>
		<circle id="SVGID_1_" cx="50" cy="50" r="50"/>
	</defs>
	<clipPath id="SVGID_2_">
		<use xlink:href="#SVGID_1_"  style="overflow:visible;"/>
	</clipPath>
	<rect x="-43.48" y="-9.42" class="st0" width="201.45" height="151.45"/>
	<g class="st1">
		<path d="M60.01,99.45c0.51,1.62,0.97,3.26,1.27,4.93c0.12,0.66,0.09,1.35,0.11,2.02c0.02,0.82-0.06,0.88-0.85,1.02
			c-0.2,0.04-0.36-0.02-0.54-0.03c-0.93-0.08-0.92-0.04-0.79,0.9c0.33,2.55,1.16,5.01,1.29,7.59c0.05,1.09,0.15,2.19,0.23,3.28
			c0.03,0.43-0.02,0.83-0.24,1.2c-0.1,0.17-0.23,0.36-0.42,0.33c-1.05-0.15-1.9,0.57-2.91,0.61c-0.98,0.04-1.95,0.15-2.93,0.21
			c-0.46,0.03-0.9,0.01-1.34,0.4c-0.38,0.34-0.98,0.06-1.45-0.22c-0.2-0.12-0.55,0.01-0.66-0.32c-0.11-0.33-0.07-0.67-0.03-1.01
			c0.03-0.27,0.26-0.37,0.46-0.46c0.42-0.2,0.48-0.55,0.46-0.94c-0.14-2.35-0.06-4.68,0.2-7.02c0.1-0.83,0.3-1.63,0.46-2.44
			c0.13-0.69,0.03-0.86-0.65-0.8c-0.67,0.06-1.54-0.3-1.95,0.16c-0.33,0.36-0.12,1.21-0.15,1.84c-0.09,2.5,0.3,4.97,0.39,7.45
			c0.03,0.75,0.03,1.49-0.08,2.25c-0.09,0.66-0.37,0.83-0.94,0.85c-1.85,0.06-3.69,0.14-5.54,0.2c-0.83,0.03-1.66,0-2.5,0.04
			c-0.4,0.02-0.65-0.1-0.77-0.49c-0.13-0.44,0.02-0.81,0.43-0.9c0.62-0.13,0.62-0.52,0.62-1c-0.01-2.15,0.2-4.29,0.66-6.39
			c0.25-1.13,0.34-2.32,0.87-3.39c0.09-0.18,0.13-0.43,0.01-0.65c-0.26-0.23-0.5,0.03-0.75,0.03c-0.66,0-1.28-0.02-1.6-0.77
			c-0.19-0.44-0.65-0.68-0.87-1.16c-0.31-0.68-0.43-1.34-0.4-2.08c0.1-2.18,0.12-4.37,0.22-6.55c0.04-0.96,0.18-1.92,0.27-2.88
			c-1.18-0.27-2.04-0.88-2.39-2.1c-0.09-0.3-0.18-0.61-0.07-0.89c0.52-1.36,0.92-2.78,2.1-3.8c0.92-0.79,1.53-1.86,2.34-2.78
			c-0.7-0.32-1.37-0.5-2.06-0.65c-1.4-0.31-2.7-0.95-4-1.53c-2.67-1.18-5.05-2.83-7.34-4.63c-1.46-1.15-2.72-2.49-3.88-3.93
			c-2.04-2.53-3.7-5.26-5.02-8.25c-1.15-2.61-1.93-5.3-2.34-8.07c-0.39-2.64-0.42-5.32-0.2-8.02c0.26-3.12,0.97-6.11,2.04-9
			c0.9-2.43,2.15-4.7,3.69-6.82c1.05-1.44,2.11-2.85,3.37-4.12c1.32-1.33,2.75-2.51,4.27-3.61c1.63-1.17,3.3-2.19,5.11-3.05
			c2.02-0.96,4.11-1.68,6.28-2.19c0.18-0.04,0.38-0.07,0.55-0.14c2.67-1.15,5.47-1.13,8.3-1.06c3.19,0.08,6.26,0.72,9.26,1.72
			c1.32,0.44,2.55,1.04,3.79,1.68c1.34,0.68,2.66,1.39,3.88,2.26c1.74,1.25,3.36,2.63,4.85,4.2c1.8,1.89,3.41,3.89,4.71,6.14
			c1.56,2.67,2.78,5.48,3.52,8.51c0.37,1.51,0.69,3.01,0.85,4.55c0.28,2.78,0.31,5.56-0.08,8.34c-0.28,1.98-0.69,3.94-1.32,5.83
			c-0.68,2.07-1.54,4.07-2.68,5.95c-0.6,1-1.2,2-1.85,2.98c-1.13,1.71-2.54,3.16-4,4.59c-2.61,2.57-5.59,4.58-8.89,6.14
			c-0.91,0.43-1.89,0.74-2.84,1.1c-0.21,0.08-0.45,0.11-0.65,0.41c1.22,0.91,2.24,2.04,3.21,3.21c1.89,2.29,2.5,4.97,2.23,7.85
			c-0.11,1.17-0.84,2.05-1.98,2.54c-0.39,0.17-0.78,0.26-1.18,0.39c-0.26,0.18-0.54,0.15-0.84,0.11
			C60.11,99.07,59.88,99.12,60.01,99.45z"/>
		<path d="M84.9,38.16c0.61-3.18,1.85-6.08,3.39-8.9c0.46-0.84,0.79-1.59,1.94-1.56c0.7,0.02,1.13,0.4,1.33,1.04s0.07,1.3-0.11,1.91
			c-0.68,2.39-1.82,4.64-3.11,6.75c-0.4,0.67-0.95,2.18-1.88,2.27C85.6,39.76,84.75,38.95,84.9,38.16z"/>
		<path class="st2" d="M83.99,43.76c-0.82-0.16-1.41-1.02-1.25-1.8c0.17-0.81,1.27-1.47,2.12-1.27c0.62,0.14,0.98,1.07,0.79,2.1
			C85.54,43.49,84.8,43.92,83.99,43.76z"/>
		<path class="st3" d="M54.11,84.16c-3.22,0.7-6.45,0.67-9.69,0.18c-2.43-0.37-4.78-1.04-7.05-1.97c-1.28-0.52-2.47-1.24-3.7-1.87
			c-1.32-0.67-2.46-1.58-3.61-2.48c-1.92-1.51-3.6-3.26-5.13-5.18c-1.32-1.66-2.49-3.42-3.39-5.32c-1.17-2.47-2.09-5.06-2.64-7.76
			c-0.77-3.78-0.67-7.56-0.15-11.35c0.41-3.01,1.37-5.88,2.69-8.56c1.38-2.79,3.09-5.4,5.26-7.71c2.43-2.58,5.15-4.73,8.22-6.45
			c2.24-1.25,4.62-2.18,7.1-2.79c0.76-0.19,1.6-0.06,2.41-0.19c4.96-0.82,9.84-0.35,14.59,1.21c2.24,0.74,4.35,1.8,6.38,3.03
			c2.67,1.63,4.98,3.66,7.03,5.98c1.4,1.58,2.6,3.33,3.6,5.2c0.09,0.16,0.1,0.36,0.15,0.54c0.79,1.68,0.89,3.52,1.11,5.31
			c0.2,1.68,0.24,3.39,0.33,5.09c0.18,3.57-0.81,6.9-1.88,10.21C73.7,65.6,70.47,71.3,66.31,76.5c-1.04,1.3-2.33,2.25-3.69,3.16
			C59.95,81.46,57.1,82.94,54.11,84.16z"/>
		<path class="st3" d="M57.07,119.87c-1.13-0.02-2.24,0.26-3.38,0.22c-0.45-0.02-0.7-0.11-0.71-0.62c-0.04-2.33-0.41-4.65-0.32-7
			c0.02-0.62,0.08-1.25,0.09-1.88c0.01-0.23-0.02-0.43,0.2-0.61c0.63-0.5,0.35-1.07,0.1-1.63c-0.24-0.56-0.71-0.56-1.23-0.54
			c-0.83,0.04-1.66,0.01-2.49,0.01c-0.8,0.25-1.48-0.13-2.18-0.42c-0.59-0.25-1.18-0.52-1.8-0.71c-0.29-0.09-0.62-0.17-0.86,0.09
			c-0.26,0.28-0.04,0.57,0.09,0.84c0.06,0.14-0.04-0.01,0.06,0.1c2.24,2.38,1.82,5.27,1.58,8.13c-0.08,0.91-0.28,1.8-0.36,2.7
			c-0.09,0.92-0.46,1.39-1.45,1.23c-0.25-0.04-0.53-0.06-0.78,0.08c-0.93-0.01-0.91-0.01-0.95-0.76c-0.13-2.88,0.28-5.71,0.63-8.56
			c0.08-0.63,0.25-1.25,0.38-1.88c0.06-0.3-0.02-0.58-0.35-0.57c-0.49,0.01-0.62-0.35-0.81-0.67c-0.07-0.13-0.12-0.3-0.23-0.38
			c-1.14-0.93-1.34-2.19-1.34-3.55c0-1.81-0.09-3.62-0.05-5.43c0.04-1.54,0.24-3.07,0.69-4.56c0.14-0.31,0.24-0.64,0.33-0.96
			c0.17-0.65,0.48-0.91,1.14-0.64c0.59,0.24,1.21,0.17,1.78-0.06c1.9-0.76,3.95-0.96,5.86-1.71c1.35-0.53,2.62-1.1,3.75-2.03
			c1.74-1.44,2.78-1.25,3.93,0.72c0.94,1.6,1.33,3.37,1.18,5.23c-0.05,0.58-0.11,1.25-0.95,1.28c-0.42-0.64-0.65-1.35-0.88-2.07
			c-0.12-0.39-0.2-0.8-0.45-1.13c-0.67,0.04-0.28,0.48-0.29,0.77c-0.01,1.5,0.65,2.85,0.97,4.29c0.52,2.39,1.13,4.75,1.55,7.16
			c0.06,0.37,0.02,0.75,0.06,1.13c0.05,0.49-0.05,0.8-0.64,0.75c-0.51-0.05-0.61,0.51-0.95,0.71c-0.11,0.21-0.27,0.38-0.49,0.45
			c-0.9,0.29-1.18,0.99-1.24,1.84c-0.18,2.3-0.32,4.59-0.26,6.9c0.02,0.89,0.24,1.71,0.68,2.49C56.92,119,57.24,119.36,57.07,119.87
			z"/>
		<path class="st4" d="M54.11,84.16c0.47-0.45,1.06-0.71,1.63-1c1.89-0.96,3.77-1.92,5.6-2.99c2.49-1.46,4.48-3.39,6.19-5.7
			c2.77-3.77,5.04-7.81,6.82-12.12c1.31-3.18,2.22-6.49,2.91-9.86c0.2-0.98,0.03-2.04,0.05-3.06c0.07-3.48-0.39-6.91-1.1-10.31
			c-0.03-0.14,0-0.3,0-0.45c0.85,1.04,1.27,2.3,1.72,3.52c0.62,1.69,1.08,3.45,1.55,5.2c0.19,0.72,0.24,1.48,0.29,2.23
			c0.16,2.14,0.21,4.28,0.06,6.41c-0.17,2.42-0.71,4.76-1.43,7.07c-0.53,1.69-1.21,3.33-2.02,4.88c-0.88,1.7-1.98,3.29-3.14,4.82
			c-1.56,2.06-3.43,3.81-5.42,5.43c-1.28,1.04-2.72,1.88-4.16,2.69c-2.64,1.5-5.49,2.43-8.42,3.15
			C54.88,84.16,54.49,84.13,54.11,84.16z"/>
		<path class="st4" d="M58.66,95.33c0.54-0.28,0.66-0.78,0.69-1.33c0.08-1.65-0.3-3.21-0.96-4.72c-0.32-0.72-0.93-1.18-1.46-1.71
			c-0.4-0.39-0.86-0.22-1.25,0.05c-0.68,0.47-1.37,0.95-1.99,1.49c-0.5,0.44-1.06,0.7-1.68,0.9c-0.93,0.3-1.88,0.56-2.75,1.03
			c-0.1,0.05-0.21,0.13-0.31,0.13c-1.55-0.03-2.9,0.76-4.36,1.09c-0.9,0.2-1.2,0.18-2.07-0.27c-0.41,0.43-0.4,1.12-0.87,1.51
			c0.06-1.32,0.19-1.84,0.7-2.77c0.38,0.03,0.59,0.42,0.94,0.51c0.21,0.05,0.36,0.02,0.38-0.24c-0.13-0.18-0.13-0.36,0-0.54
			c0.33,0.05,0.61,0.29,1.08,0.26c-0.48-0.72-1.01-1.28-1.64-1.78c-0.38-0.31-0.31-0.44,0.27-0.64c1.04,0.42,1.69,1.46,2.78,1.8
			c1.81-0.05,3.41-0.76,4.97-1.57c0.49-0.26,1-0.52,1.4-0.92c0.78-0.79,1.66-1.41,2.79-1.57c0.08,0,0.13-0.03,0.15-0.1
			c0.09-0.04,0.17-0.09,0.25-0.16c0.14-0.06,0.27-0.13,0.41-0.17c0.47-0.11,0.95-0.28,1.43-0.3c0.65-0.04,0.65,0.66,0.93,1.01
			c1.41,1.76,2.71,3.6,3.69,5.65c0.43,0.91,0.59,1.86,0.73,2.82c0.13,0.87-0.62,1.85-1.52,2.14c-0.32,0.1-0.67,0.1-0.99,0.21
			c-0.31,0.11-0.55,0.38-0.94,0.38C59.03,96.86,58.92,96.07,58.66,95.33z"/>
		<path class="st4" d="M43.66,119.85c0.1-0.06,0.18-0.14,0.29-0.16c0.47-0.12,1.06,0.17,1.4-0.22c0.32-0.36,0.19-0.94,0.29-1.41
			c0.24-1.22,0.39-2.45,0.49-3.69c0.12-1.47-0.31-2.92-0.22-4.4c0.02-0.32-0.28-0.52-0.5-0.73c-0.56-0.52-0.93-1.19-1.33-1.82
			c-0.43-0.68-0.12-1.16,0.7-1.18c0.27-0.01,0.52,0.05,0.77,0.15c1.25,0.53,2.48,1.1,3.8,1.44c-0.55,1.03-0.53,2.2-0.67,3.3
			c-0.3,2.28-0.28,4.59-0.11,6.89c0.05,0.61-0.13,1.18-0.12,1.83C46.8,119.85,45.23,119.85,43.66,119.85z"/>
		<path class="st4" d="M57.07,119.87c-0.19-0.32-0.39-0.64-0.58-0.97c-0.49-0.86-0.83-1.75-0.78-2.78c0.05-1.2,0-2.41,0.02-3.62
			c0.02-1.2,0.23-2.39,0.25-3.59c0.02-1.27,0.87-1.82,2.04-1.97c0.32,0.52,0.41,1.09,0.46,1.7c0.15,1.87,0.45,3.73,0.59,5.6
			c0.13,1.68,0.13,3.37,0.17,5.06c0.01,0.44-0.2,0.68-0.71,0.62C58.05,119.86,57.56,119.88,57.07,119.87z"/>
		<path class="st5" d="M42.62,86.7c-0.08,0.42-0.35,0.75-0.54,1.11c-0.9,1.74-1.56,3.57-1.93,5.5c-0.08,0-0.17,0.03-0.22,0
			c-1.05-0.67-1.02-0.67-0.73-1.86c0.17-0.67,0.45-1.26,0.87-1.81c0.68-0.9,1.34-1.81,2.01-2.72C42.22,86.74,42.33,86.5,42.62,86.7z
			"/>
		<path class="st6" d="M48.67,88.76c-0.1,0.17-0.28,0.19-0.44,0.24c-0.51,0.22-0.71-0.23-1.01-0.45c-0.11-0.1-0.21-0.2-0.3-0.31
			c-0.06-0.07-0.12-0.14-0.18-0.21c-0.04-0.03-0.07-0.06-0.1-0.09c-0.08-0.05-0.16-0.11-0.24-0.16c-0.31-0.17-0.62-0.33-0.89-0.57
			c-0.19-0.18-0.39-0.35-0.46-0.6c-0.13-0.41,0.02-0.56,0.43-0.39c0.28,0.02,0.57,0.04,0.85,0.06c0.12,0.03,0.24,0.07,0.35,0.14
			c0.06,0.06,0.12,0.12,0.18,0.18c0.12,0.13,0.26,0.23,0.37,0.37c0.2,0.26,0.4,0.52,0.66,0.72c0.31,0.25,0.69,0.42,0.87,0.81
			C48.77,88.59,48.74,88.68,48.67,88.76z"/>
		<path class="st7" d="M47.51,89.17c-0.27,0.08-0.49,0.26-0.8-0.04c-0.59-0.56-1.25-1.04-1.89-1.55c-0.09-0.06-0.17-0.13-0.26-0.19
			l0,0c-0.36-0.16-0.74-0.29-0.89-0.71c-0.03-0.32-0.09-0.66,0.41-0.65c0.64,0.11,0.94,0.69,1.41,1.02c0.28,0.35,0.66,0.57,1,0.84
			c0.32,0.22,0.53,0.56,0.88,0.75C47.5,88.8,47.63,88.95,47.51,89.17z"/>
		<path class="st8" d="M48.67,88.76c-0.01-0.06-0.02-0.13-0.02-0.19c-0.08-0.45-0.49-0.6-0.77-0.87c-0.37-0.29-0.61-0.7-0.91-1.05
			c-0.04-0.16-0.03-0.31,0.14-0.4c1.18,0.3,1.74,1.32,2.51,2.09C49.32,88.66,49.05,88.85,48.67,88.76z"/>
		<path class="st9" d="M55.33,86.05c-0.92,0.55-1.76,1.22-2.79,1.57c0.01-0.43-0.26-0.33-0.51-0.27c-0.2-0.46,0.16-0.57,0.45-0.69
			c0.33-0.14,0.71-0.16,1-0.4c-0.02-0.14,0.47,0.06,0.18-0.27C54.23,85.66,54.78,85.83,55.33,86.05z"/>
		<path class="st10" d="M46.16,90.11c-0.42,0.22-0.73-0.04-1.04-0.24c-0.65-0.44-1.21-0.98-1.75-1.56c0.1-0.09,0.19-0.17,0.29-0.26
			c0.58-0.23,0.81,0.34,1.2,0.54c0.38,0.46,1.08,0.58,1.28,1.22C46.14,89.92,46.15,90.01,46.16,90.11z"/>
		<path class="st11" d="M51.11,87.8c-0.78,0.39-0.77,0.39-1.35-0.24c-0.18-0.19-0.39-0.35-0.57-0.54c-0.15-0.16-0.39-0.24-0.42-0.51
			c0.75-0.23,1.14,0.43,1.7,0.68C50.88,87.19,51.24,87.24,51.11,87.8z"/>
		<path class="st12" d="M53.75,86.27c-0.4,0.34-0.83,0.63-1.37,0.7c-0.23,0.03-0.29,0.2-0.35,0.38c0,0-0.1,0.01-0.1,0.01l-0.1-0.01
			c-0.21-0.15-0.32-0.35-0.22-0.62c0.4-0.43,0.88-0.65,1.48-0.53C53.32,86.13,53.54,86.09,53.75,86.27z"/>
		<path class="st13" d="M51.61,86.73c0.1,0.2,0.25,0.37,0.22,0.62l0.02,0.06c-0.67,0.2-1-0.3-1.39-0.68
			c-0.19-0.2-0.06-0.35,0.12-0.4C51.01,86.22,51.38,86.32,51.61,86.73z"/>
		<path class="st14" d="M44.78,88.75c-0.37-0.23-0.75-0.46-1.12-0.69c-0.32-0.24-0.32-0.57-0.23-0.92c0.57-0.17,0.63,0.41,0.95,0.63
			l0.03,0.03c0.02,0.1,0.08,0.18,0.18,0.23c0.15,0.16,0.3,0.32,0.45,0.47C45.09,88.72,45.01,88.81,44.78,88.75z"/>
		<path class="st15" d="M45.43,87.17c-0.59-0.22-0.85-0.83-1.36-1.14c0.47,0.03,0.98-0.2,1.4,0.18c-0.16,0.08-0.7-0.07-0.26,0.38
			c0.18,0.18,0.45,0.27,0.56,0.53C45.68,87.24,45.56,87.26,45.43,87.17z"/>
		<path class="st16" d="M44.78,88.75c0.08-0.08,0.17-0.17,0.25-0.25c0.36,0.25,0.72,0.49,1.07,0.75c0.23,0.17,0.16,0.38,0.04,0.58
			C45.63,89.53,45.16,89.2,44.78,88.75z"/>
		<path class="st17" d="M50.47,86.74c0.53,0.09,0.83,0.65,1.39,0.68c-0.19,0.24-0.48,0.3-0.75,0.39c-0.1-0.32-0.44-0.38-0.63-0.61
			C50.47,87.04,50.47,86.89,50.47,86.74z"/>
		<path class="st18" d="M44.37,87.77c-0.42-0.06-0.54-0.55-0.95-0.63c0.08-0.15,0.16-0.31,0.24-0.46c0.33,0.19,0.69,0.34,0.89,0.71
			C44.39,87.46,44.39,87.62,44.37,87.77z"/>
		<path class="st19" d="M43.66,90.47c0,0.18,0,0.36,0,0.54c-0.31-0.36-0.61-0.72-0.92-1.08c-0.06-0.09-0.06-0.18,0-0.27
			C43.17,89.79,43.39,90.16,43.66,90.47z"/>
		<path class="st20" d="M42.62,86.7c-0.18,0.07-0.36,0.15-0.55,0.22c0.06-0.46,0.45-0.7,0.71-1.13
			C43.05,86.23,42.85,86.46,42.62,86.7z"/>
		<path class="st21" d="M47.51,89.17c-0.07-0.13-0.14-0.26-0.22-0.39c-0.13-0.16-0.14-0.32-0.01-0.48c0.4,0.12,0.43,0.74,0.94,0.69
			C48.03,89.22,47.78,89.24,47.51,89.17z"/>
		<path class="st22" d="M57.03,92.9c-0.21-0.25-0.18-0.56-0.21-0.85c-0.02-0.19,0.06-0.41,0.29-0.37c0.22,0.03,0.21,0.27,0.21,0.45
			C57.01,92.3,57.16,92.65,57.03,92.9z"/>
		<path class="st17" d="M47.11,86.26c-0.08,0.15-0.1,0.3-0.06,0.47c0.1,0.11,0.1,0.21-0.02,0.3c-0.15-0.09-0.32-0.15-0.36-0.36
			c0.02-0.1-0.03-0.16-0.12-0.19c-0.13-0.01-0.2-0.09-0.23-0.21C46.59,86.27,46.85,86.26,47.11,86.26z"/>
		<path class="st23" d="M53.75,86.27c-0.22-0.02-0.44-0.04-0.66-0.07c0.19-0.07,0.38-0.15,0.57-0.22c0.13,0.03,0.37,0.05,0.37,0.09
			C54.04,86.24,53.88,86.25,53.75,86.27z"/>
		<path class="st18" d="M44.59,88.02c-0.11-0.04-0.18-0.11-0.18-0.23C44.53,87.82,44.59,87.9,44.59,88.02z"/>
		<path class="st24" d="M42.74,89.66c0,0.09,0,0.18,0,0.27c-0.09-0.04-0.21-0.08-0.17-0.21C42.58,89.69,42.68,89.68,42.74,89.66z"/>
		<path class="st18" d="M44.56,87.39c0.14-0.01,0.23,0.06,0.26,0.19C44.7,87.57,44.61,87.5,44.56,87.39z"/>
		<path class="st9" d="M55.73,85.79c-0.05,0.1-0.13,0.16-0.25,0.16C55.52,85.83,55.61,85.78,55.73,85.79z"/>
		<path class="st25" d="M52.73,33.35c-1.23,0.31-2.01,1.1-2.87,1.74c-1.25,0.92-2.33,2.02-3.36,3.18c-1.13,1.27-2.43,1.19-3.49-0.18
			c-0.92-1.18-1.63-2.52-2.74-3.56c-0.38-0.36-0.39-0.83-0.06-1.22c0.35-0.4,0.78-0.17,1.13,0.03c0.26,0.15,0.48,0.37,0.67,0.6
			c0.79,0.96,1.71,1.81,2.39,2.86c0.24,0.38,0.44,0.47,0.88,0.13c0.86-0.67,1.53-1.54,2.47-2.13c1.39-0.88,2.65-1.99,4.24-2.54
			c0.14-0.05,0.27-0.12,0.41-0.18c1.08-0.4,1.25-0.3,1.23,0.89c-0.04,2.38,0.3,4.73,0.63,7.08c0.05,0.37,0.07,0.75,0.07,1.13
			c0,0.24-0.13,0.44-0.39,0.49c-0.29,0.06-0.54-0.04-0.65-0.32c-0.08-0.21-0.11-0.44-0.14-0.66c-0.14-1.2-0.32-2.4-0.4-3.6
			C52.66,35.89,52.57,34.68,52.73,33.35z"/>
		<path class="st26" d="M37.49,36.02c-0.07,1.61,0.22,3.38,0.68,5.14c0.08,0.29,0.1,0.6,0.14,0.9c0.04,0.28,0.01,0.57-0.31,0.63
			c-0.32,0.06-0.59-0.07-0.71-0.41c-0.35-0.98-0.72-1.96-0.81-3.02c-0.17-1.84-0.25-3.66,0.11-5.49c0.05-0.27,0.08-0.56,0.44-0.53
			c0.38,0.03,0.52,0.33,0.46,0.65C37.35,34.54,37.49,35.17,37.49,36.02z"/>
		<path class="st27" d="M47.03,87.02c0.01-0.1,0.01-0.2,0.02-0.3c0.38,0.22,0.68,0.52,0.95,0.86c0.04,0.22-0.02,0.33-0.26,0.26
			C47.43,87.63,47.08,87.45,47.03,87.02z"/>
		<path class="st28" d="M45.43,87.17c0.12-0.01,0.23-0.03,0.35-0.04c0.24,0.17,0.49,0.34,0.73,0.51c0.14,0.02,0.2,0.1,0.2,0.24
			c-0.06,0.19-0.15,0.32-0.38,0.2C45.94,87.87,45.7,87.51,45.43,87.17z"/>
		<path class="st29" d="M47.74,87.84c0.13-0.04,0.22-0.13,0.26-0.26c0.23,0.21,0.47,0.42,0.7,0.64c0.12,0.12,0.09,0.25-0.05,0.35
			C48.35,88.33,48.04,88.09,47.74,87.84z"/>
		<path class="st30" d="M46.34,88.08c0.09-0.08,0.18-0.16,0.28-0.24c0.08-0.08,0.16-0.07,0.21,0.03l-0.02-0.02
			c0.11,0.05,0.18,0.14,0.25,0.24c0.08,0.07,0.15,0.15,0.23,0.22c0,0.16,0,0.32,0.01,0.48C46.9,88.65,46.66,88.31,46.34,88.08z"/>
		<path class="st7" d="M47.06,88.08c-0.14-0.03-0.21-0.11-0.25-0.24C46.94,87.88,47.02,87.96,47.06,88.08z"/>
		<path class="st7" d="M46.83,87.86c-0.07-0.01-0.14-0.02-0.21-0.03c-0.04-0.07-0.07-0.13-0.1-0.2
			C46.66,87.64,46.77,87.72,46.83,87.86z"/>
		<path d="M46.56,86.47c0.09,0.03,0.2,0.05,0.12,0.19C46.64,86.6,46.6,86.54,46.56,86.47z"/>
		<path class="st31" d="M37.25,59.92c0,0.49,0.02,0.98,0,1.46c-0.03,0.77-0.57,1.3-1.27,1.29c-0.53,0-0.95-0.44-0.99-1.16
			c-0.04-0.75-0.35-1.46-0.25-2.22c0.05-0.41,0.06-0.82,0.26-1.2c0.35-0.71,0.61-0.86,1.31-0.74c0.66,0.12,0.81,0.29,0.89,1.09
			c0.03,0.26,0.02,0.53,0.03,0.79c0,0.23,0,0.45,0,0.68C37.22,59.92,37.24,59.92,37.25,59.92z"/>
		<path class="st31" d="M58.01,58.81c-0.02,0.88-0.07,1.77-0.39,2.63c-0.18,0.48-0.52,0.59-0.96,0.63
			c-0.45,0.04-0.75-0.23-0.87-0.58c-0.47-1.35-0.49-2.72,0.04-4.07c0.22-0.55,0.75-0.64,1.2-0.68c0.42-0.04,0.58,0.41,0.77,0.73
			C58.05,57.87,57.88,58.35,58.01,58.81z"/>
		<path class="st32" d="M46.11,78.14c-2.77-0.2-5.13-1.18-7.38-2.43c-1.47-0.82-2.44-2.13-2.93-3.73c-0.6-1.95,0.87-4.42,2.85-4.85
			c0.61-0.13,1.22-0.02,1.78,0.21c1.47,0.6,3.05,0.84,4.53,1.4c0.1,0.04,0.23,0.12,0.31,0.09c1.12-0.33,2.26-0.09,3.38-0.06
			c1.05,0.03,1.77-0.54,2.5-1.13c0.83-0.67,1.69-1.25,2.83-1.27c1.72-0.02,3.27,0.29,4.4,1.76c0.29,0.39,0.47,0.79,0.46,1.24
			c-0.1,2.7-1.01,4.93-3.44,6.46c-1.73,1.09-3.57,1.8-5.51,2.21C48.62,78.3,47.27,78.49,46.11,78.14z"/>
		<path class="st4" d="M42.54,69.36c0.34,0.04,0.68,0.05,1.01,0.12c0.83,0.16,0.98,0.33,1.14,1.2c0.46,2.48,3.14,3.41,5.1,1.79
			c0.73-0.6,0.9-1.48,1.05-2.31c0.08-0.43,0.24-0.67,0.56-0.89c0.28-0.19,0.55-0.4,0.81-0.62c1.32-1.14,3.72-0.85,4.8,0.5
			c1.48,1.85-0.79,4.38-2.28,5.43c-2.02,1.43-4.29,2.24-6.74,2.34c-2.17,0.09-4.27-0.36-6.3-1.21c-1.34-0.56-2.44-1.43-3.43-2.43
			c-0.73-0.73-0.76-2.12-0.23-3.06c0.54-0.94,1.56-1.44,2.67-1.25c0.39,0.07,0.85-0.06,1.17,0.31
			C42.07,69.47,42.29,69.48,42.54,69.36z"/>
		<path class="st33" d="M49.35,70.09c-0.13,0.68,0.14,1.37-0.57,1.7c-0.79,0.37-1.62,0.38-2.38-0.09c-0.4-0.25-0.43-0.6-0.25-1.08
			c0.16-0.42,0.27-0.63,0.76-0.56C47.66,70.19,48.42,70.16,49.35,70.09z"/>
		<path class="st34" d="M42.54,69.36c-0.27,0.28-0.49,0.22-0.67-0.1C42.09,69.29,42.32,69.33,42.54,69.36z"/>
		<path class="st35" d="M37,69.26c-0.02,0-0.06,0.02-0.07,0.01c-0.02-0.02-0.03-0.06-0.02-0.08c0.03-0.09,0.08-0.09,0.12-0.01
			C37.03,69.19,37.01,69.23,37,69.26z"/>
	</g>
	<g class="st1">
		<g>
			<path class="st32" d="M45.77,88.87c-0.01,0.09-0.04,0.06-0.07,0.24c-0.07,0.41-0.12,0.76-0.2,1.14
				c-0.03,0.18-0.13,0.44-0.17,0.61c-0.05,0.2-0.15,0.56-0.22,0.8c-0.08,0.23-0.11,0.34,0.01,0.04c0.32-0.9,0.42-1.52,0.58-2.35
				c0.06-0.34,0.11-0.67,0.18-1c0.07-0.33,0.13-0.66,0.29-0.96c0.09-0.17,0.19-0.32,0.3-0.47c-0.14,0.19-0.28,0.39-0.39,0.64
				C45.91,87.87,45.87,88.31,45.77,88.87z"/>
			<path class="st32" d="M48.15,84.19c0.01-0.07,0.03-0.14,0.03-0.22c0.01-0.1,0-0.2,0-0.3c0-0.01,0-0.02,0-0.03
				c0-0.23-0.03-0.47-0.17-0.67c-0.07-0.1-0.16-0.19-0.27-0.25c-0.06-0.03-0.12-0.06-0.18-0.07c-0.04-0.01-0.08-0.01-0.12-0.01
				c-0.02-0.01,0-0.05,0-0.08c0.01-0.03,0.01-0.05,0.01-0.11c0-0.1,0-0.2-0.01-0.31c-0.02-0.21-0.07-0.44-0.14-0.68
				c-0.13-0.37-0.32-0.8-0.68-1.21c0.03,0.04,0.05,0.07,0.05,0.07c-0.01,0-0.11-0.11-0.3-0.27c-0.19-0.16-0.5-0.34-0.89-0.38
				c-0.18-0.02-0.37-0.03-0.57-0.04c-0.1,0-0.19-0.01-0.29-0.01c-0.07,0-0.11,0-0.16,0.01l-0.01,0.01l0.02-0.09l0.01-0.07l0.02-0.14
				c0.01-0.09,0.01-0.18,0.01-0.26c0.01-0.57-0.1-1.2-0.43-1.81c-0.18-0.31-0.44-0.57-0.73-0.77c-0.29-0.21-0.63-0.37-1-0.45
				c-0.19-0.04-0.39-0.05-0.6-0.01c-0.2,0.03-0.42,0.14-0.57,0.3c-0.3,0.33-0.36,0.72-0.49,1c-0.01,0.01,0,0.03-0.02,0.02
				l-0.15-0.05c-0.17-0.06-0.34-0.11-0.52-0.15c-0.35-0.08-0.8-0.09-1.14,0.15c-0.17,0.11-0.31,0.28-0.39,0.47
				c-0.09,0.18-0.13,0.38-0.16,0.57c-0.05,0.38-0.06,0.77-0.03,1.19c0.05,1.07,0.29,2.08,0.38,3.07c0.09,0.99,0.02,2-0.46,2.84
				c-0.51,0.9-1.38,1.59-1.85,2.48c-0.51,0.98-0.67,2.12-0.52,3.24c0.17,1.19,0.73,2.2,1.53,2.83c0.55,0.47,1.24,0.9,1.84,1.05
				c0.47,0.12,0.92,0.13,1.34,0.08c0.09-0.01,0.18-0.03,0.27-0.05c-0.09,0.01-0.18,0.03-0.27,0.04c-0.39,0.04-0.8,0.05-1.28-0.06
				c-0.32-0.09-0.2-0.06,0.04-0.01c0.25,0.05,0.63,0.07,0.84,0.06c0.18-0.01,0.47,0.01,0.65-0.03c0.39-0.06,0.74-0.16,1.13-0.32
				c0.17-0.07,0.16-0.03,0.24-0.07c0.53-0.23,0.89-0.5,1.19-0.71c0.23-0.16,0.42-0.32,0.6-0.49c0.11-0.11,0.22-0.22,0.32-0.35
				c0.06-0.08,0.12-0.17,0.18-0.26c0.42-0.63,0.72-1.46,0.89-2.24l-0.01,0.01c-0.11,0.45-0.25,0.89-0.47,1.33
				c0.09-0.19,0.09-0.16-0.01,0.06l-0.09,0.16c0.04-0.08,0.07-0.17,0.11-0.26c0.02-0.04,0.03-0.08,0.05-0.13
				c0.1-0.26,0.19-0.51,0.28-0.76c0,0,0.04-0.17,0.06-0.26c0.04-0.13,0.05-0.12,0.06-0.14c0.02-0.09,0.04-0.18,0.06-0.27
				c-0.03,0.11-0.09,0.29-0.14,0.46c-0.01,0.02-0.01,0.03-0.02,0.05c0.27-0.98,0.4-2.01,0.64-2.97c0.32-1.3,1.96-2.33,2.26-3.67
				C48.14,84.23,48.15,84.21,48.15,84.19z M44.32,79.78L44.32,79.78L44.32,79.78L44.32,79.78z M43.23,93.96
				c-0.01,0.01-0.02,0.01-0.03,0.02C43.21,93.97,43.22,93.97,43.23,93.96z M37.46,86.43C37.46,86.43,37.46,86.43,37.46,86.43
				L37.46,86.43C37.46,86.43,37.46,86.43,37.46,86.43z M37.4,86.39c0.01,0.01,0.03,0.02,0.04,0.03l0.01,0.02
				c0,0.01-0.01,0.01-0.01,0.02L37.4,86.39z M42.25,94.51c0.01-0.01,0.02-0.01,0.04-0.02c0.01,0,0.02-0.01,0.03-0.01
				C42.3,94.49,42.27,94.5,42.25,94.51z"/>
			<path class="st32" d="M40.85,95.08c0.15-0.03,0.3-0.06,0.44-0.09C41.15,95.02,41,95.05,40.85,95.08z"/>
			<path class="st32" d="M40.8,95.09c0.02,0,0.04-0.01,0.06-0.01C40.84,95.08,40.82,95.08,40.8,95.09z"/>
			<path class="st32" d="M46.31,79.96c0.11,0.1,0.21,0.2,0.3,0.3C46.57,80.2,46.48,80.1,46.31,79.96z"/>
			<path class="st32" d="M41.29,94.98c0.13-0.03,0.26-0.07,0.4-0.12C41.57,94.91,41.43,94.95,41.29,94.98z"/>
		</g>
		<path class="st36" d="M43.95,90.11c-0.22,0.9-0.72,1.6-1.26,2.32c-0.31,0.41-1.12,1.26-1.74,1.02l-0.05,0.06
			c-0.53,0.18-1.06,0.15-1.59,0.02l-0.09-0.05l-0.1,0.02c-0.08-0.06-0.17-0.11-0.26-0.16c-0.02-0.08-0.06-0.11-0.14-0.09
			c-0.14-0.02-0.24-0.1-0.29-0.24l0.02,0.02c-0.12-0.03-0.19-0.12-0.26-0.21c-0.09-0.07-0.18-0.15-0.22-0.26l0.02,0.02
			c-0.18-0.12-0.15-0.34-0.24-0.51c0.03-0.07,0.01-0.13-0.06-0.16c-0.06-0.1-0.15-0.19-0.16-0.31l0.03-0.08l-0.06-0.06
			c-0.19-0.21-0.03-0.51-0.21-0.72c0-0.35,0-0.69,0.01-1.04c0.15-0.22,0.03-0.51,0.18-0.74c0.07-0.03,0.09-0.07,0.06-0.14
			c0.08-0.18,0.04-0.41,0.25-0.52l-0.02,0.02c0.03-0.12,0.12-0.19,0.19-0.28c0.15-0.11,0.1-0.33,0.23-0.45
			c0.07-0.06,0.13-0.14,0.18-0.22c0.08-0.01,0.11-0.05,0.08-0.13c0.1-0.22,0.3-0.37,0.46-0.54l-0.02,0.02
			c0.04-0.12,0.13-0.19,0.22-0.26l-0.01,0.01c0.12-0.13,0.08-0.36,0.26-0.45l-0.01,0.02c0.1-0.16,0.05-0.41,0.32-0.46
			c0.11-0.03,0.16-0.09,0.13-0.21c-0.04-0.15,0.17-0.43,0.21-0.57c0.32-1.23,0.39-2.53,0.15-3.77c-0.08-0.41-1.05-2.51-0.03-2.48
			c0.99,0.04,1.37,1.81,1.54,2.56c0.07-0.92-0.28-1.88-0.02-2.79c0.31-1.07,1.42-0.01,1.54,0.58c0.11,0.55,0.18,1.17,0.11,1.73
			c-0.05,0.37-0.24,0.75-0.19,1.13c0.34-0.69,1.15-1.13,1.91-0.92c0.76,0.21,1.55,0.77,1.63,1.61c0.03,0.27-0.04,0.57-0.24,0.76
			c-0.2,0.19-0.54,0.24-0.75,0.06c-0.39-0.33-0.02-0.86-0.68-0.98c-0.45-0.08-0.8,0.45-0.78,0.9c0.02,0.46,0.26,0.87,0.36,1.32
			c0.33-0.46,0.74-0.94,1.3-1.03c0.56-0.09,1.22,0.46,1,0.98c-0.18,0.44-0.78,0.52-1.12,0.86c-0.61,0.61-1.33,2.24-1.51,3.07
			C44.12,88.98,44.09,89.56,43.95,90.11z"/>
		<path class="st4" d="M42.33,89.2c-0.22,1.26-0.66,2.73-1.89,3.18c-0.78,0.29-1.63-0.1-2.45-0.19c-0.14,0.62,0.5,1.15,1.11,1.34
			c0.97,0.3,2.05,0.16,2.93-0.34s1.54-1.36,1.84-2.32c0.21-0.67,0.25-1.38,0.37-2.07c0.11-0.64,0.52-1.2,0.48-1.85
			c-0.27,0.38-0.71,0.59-1.18,0.61c-0.37,0.02-0.69-0.12-0.93,0.27c-0.12,0.19-0.15,0.43-0.18,0.65
			C42.4,88.71,42.37,88.95,42.33,89.2z"/>
		<path class="st4" d="M41.86,83.15c-0.03,0.02-0.06,0.05-0.07,0.08c-0.02,0.06,0.02,0.11,0.05,0.16c0.2,0.29,0.24,0.65,0.28,1
			c0.05,0.47,0.1,0.94,0.15,1.4c0.4-0.44,0.98-0.71,1.57-0.72c0.07,0,0.15,0,0.2-0.06c0.04-0.04,0.04-0.1,0.04-0.15
			c0.03-0.55,0.11-1.33-0.34-1.72C43.27,82.73,42.34,82.8,41.86,83.15z"/>
	</g>
</g>
</svg>
