<?xml version="1.0" encoding="UTF-8"?>
<svg width="100px" height="100px" viewBox="0 0 100 100" version="1.1" xmlns="http://www.w3.org/2000/svg" xmlns:xlink="http://www.w3.org/1999/xlink">
    <title>medi-03</title>
    <defs>
        <path d="M0,49.9998195 C0,77.6145319 22.3858696,100 50,100 L50,100 C77.6141304,100 100,77.6145319 100,49.9998195 L100,49.9998195 C100,22.3858291 77.6141304,0 50,0 L50,0 C22.3858696,0 0,22.3858291 0,49.9998195 L0,49.9998195 Z" id="path-1"></path>
    </defs>
    <g id="Page-1" stroke="none" stroke-width="1" fill="none" fill-rule="evenodd">
        <g id="Group-59">
            <mask id="mask-2" fill="white">
                <use xlink:href="#path-1"></use>
            </mask>
            <g id="Clip-2"></g>
            <polygon id="Fill-1" fill="#B993EA" mask="url(#mask-2)" points="-43.4782609 142.028886 157.971014 142.028886 157.971014 -9.41993148 -43.4782609 -9.41993148"></polygon>
            <path d="M60.0087319,99.4536476 C60.521413,101.073392 60.9739493,102.711547 61.2819203,104.381468 C61.4036594,105.040629 61.3750362,105.729029 61.3942391,106.404795 C61.4177899,107.223512 61.339529,107.284157 60.5424275,107.428552 C60.3417029,107.465011 60.181558,107.409781 60.0011232,107.394258 C59.0757609,107.315202 59.0833696,107.349857 59.2080072,108.298528 C59.5424275,110.844563 60.3677899,113.306127 60.4949638,115.887899 C60.5489493,116.981326 60.6402536,118.072948 60.7239493,119.164931 C60.756558,119.591255 60.6996739,119.991228 60.4840942,120.366654 C60.3855435,120.538122 60.2580072,120.724391 60.0667029,120.697317 C59.0217754,120.549673 58.1717754,121.268758 57.1518478,121.307383 C56.1753986,121.344565 55.1967754,121.458997 54.2170652,121.520365 C53.7525725,121.549605 53.3138043,121.530473 52.8725,121.924308 C52.496413,122.260386 51.8949638,121.980622 51.4199638,121.700136 C51.2156159,121.579567 50.8667029,121.706634 50.7561957,121.384273 C50.6438768,121.055054 50.6851812,120.711395 50.7272101,120.37279 C50.7601812,120.104578 50.988442,120.003141 51.1844565,119.912172 C51.6076449,119.715435 51.6663406,119.365639 51.6431522,118.967472 C51.5076449,116.620701 51.5797464,114.282594 51.8471377,111.944488 C51.9424275,111.11422 52.1511232,110.317162 52.3090942,109.504944 C52.4442391,108.811489 52.3362681,108.641826 51.6547464,108.707525 C50.9826449,108.772503 50.1105435,108.40899 49.7007609,108.863471 C49.373587,109.226262 49.5782971,110.072414 49.5543841,110.704139 C49.4605435,113.199636 49.8590942,115.669864 49.946413,118.155975 C49.9728623,118.906826 49.973587,119.646847 49.8667029,120.404196 C49.7739493,121.062274 49.5000362,121.230854 48.9293841,121.249625 C47.0826449,121.309549 45.2362681,121.392937 43.3891667,121.453583 C42.5580072,121.480657 41.7246739,121.455388 40.8938768,121.493291 C40.4927899,121.511701 40.2460507,121.391132 40.1282971,121.003072 C39.9949638,120.563391 40.1478623,120.191936 40.5612681,120.104939 C41.1808333,119.974262 41.1822826,119.588007 41.1797464,119.106451 C41.1674275,116.953169 41.3822826,114.813244 41.8377174,112.715554 C42.0837319,111.582058 42.1768478,110.397301 42.706558,109.3277 C42.796413,109.146485 42.8409783,108.896321 42.7188768,108.677925 C42.4580072,108.443645 42.2170652,108.705721 41.9663406,108.706443 C41.3040217,108.708608 40.6880797,108.689476 40.3685145,107.934654 C40.1819203,107.494251 39.7188768,107.252391 39.5014855,106.775528 C39.1902536,106.093625 39.0670652,105.439158 39.1011232,104.69697 C39.2007609,102.514087 39.2253986,100.327595 39.3177899,98.1439901 C39.3587319,97.1801573 39.4931522,96.2199344 39.5851812,95.2589895 C38.4029348,94.9911378 37.5417029,94.3778225 37.1909783,93.1609384 C37.1043841,92.860598 37.0101812,92.5523159 37.1174275,92.2729127 C37.6398913,90.9101903 38.0359058,89.4889881 39.2199638,88.4688415 C40.1369928,87.678282 40.7503986,86.6126511 41.556558,85.6888878 C40.8532971,85.3676102 40.1855435,85.1936149 39.4931522,85.0430837 C38.0913406,84.7376895 36.7978623,84.0911634 35.4931522,83.5135857 C32.8257609,82.3328003 30.4420652,80.6845379 28.1569203,78.8861053 C26.6975,77.7374476 25.4322826,76.3956624 24.2717754,74.9582159 C22.2330072,72.4331183 20.5721377,69.6975659 19.2489493,66.7075183 C18.0949638,64.0997549 17.3170652,61.4093257 16.9127174,58.6369527 C16.5272101,55.9959786 16.4898913,53.31674 16.7130797,50.6201741 C16.9710507,47.5034203 17.6826449,44.5122898 18.7536594,41.6179035 C19.6518478,39.1913551 20.9061957,36.914977 22.4391667,34.8010425 C23.4848188,33.3592642 24.5514855,31.9499746 25.8098188,30.6814695 C27.1308333,29.3501529 28.5551087,28.1693674 30.0811957,27.0719698 C31.706558,25.9027359 33.3859058,24.8797014 35.1927899,24.0223595 C37.2123551,23.0643024 39.3014855,22.3455792 41.4677899,21.8279252 C41.6518478,21.7842458 41.8460507,21.7629477 42.0177899,21.6893065 C44.6859058,20.5428148 47.4859058,20.5576152 50.3210507,20.6272855 C53.5123551,20.7059805 56.5779348,21.3431209 59.5837319,22.3437743 C60.8989493,22.7816504 62.1377174,23.3888289 63.3775725,24.0216375 C64.7181522,24.7060671 66.0369928,25.4117949 67.2547464,26.2821323 C68.998587,27.5286172 70.6141667,28.9166086 72.1069203,30.4796783 C73.9072826,32.3651085 75.5123551,34.3703861 76.8192391,36.6164415 C78.3750362,39.2913482 79.6022101,42.1001809 80.3373551,45.1219952 C80.7036594,46.6273072 81.0322826,48.1304531 81.1888043,49.6740296 C81.4717754,52.4586761 81.4956884,55.2317711 81.1047464,58.0124468 C80.8261232,59.9942603 80.4109058,61.947195 79.7869928,63.837318 C79.1047464,65.9043243 78.2449638,67.9041871 77.1101812,69.7878124 C76.5072826,70.7881048 75.9080072,71.7880362 75.264529,72.7630596 C74.1344565,74.4748555 72.7196014,75.9206047 71.2609058,77.3569683 C68.6471377,79.9315209 65.6699638,81.9371595 62.3750362,83.4951754 C61.4609058,83.9272757 60.4859058,84.231226 59.5377174,84.5918511 C59.3279348,84.671629 59.0920652,84.6994249 58.889529,84.9997654 C60.1080072,85.9065624 61.1293841,87.0368097 62.1000362,88.2118194 C63.988442,90.4975832 64.5967754,93.1815146 64.3282971,96.0592956 C64.2192391,97.2314173 63.4848188,98.1060866 62.3467754,98.5977496 C61.9605435,98.7641642 61.5619928,98.8572986 61.1706884,98.9890585 C60.9094565,99.1706345 60.6293841,99.1370628 60.3330072,99.0980763 C60.1123551,99.0688364 59.8801087,99.1208184 60.0087319,99.4536476" id="Fill-3" fill="#000000" mask="url(#mask-2)"></path>
            <path d="M84.8959058,38.1641692 C85.5031522,34.982438 86.7437319,32.081554 88.290471,29.2651407 C88.7491667,28.4298189 89.0796014,27.676441 90.2321377,27.7067638 C90.9299638,27.7251741 91.3575,28.1089023 91.5636594,28.7482086 C91.7701812,29.3875149 91.6303261,30.0445096 91.4549638,30.6574639 C90.7712681,33.0461088 89.6339493,35.29433 88.3498913,37.4089864 C87.9451812,38.0753667 87.4017029,39.5853714 86.4680072,39.6774228 C85.5998913,39.7633375 84.7459058,38.9500359 84.8959058,38.1641692" id="Fill-4" fill="#000000" mask="url(#mask-2)"></path>
            <path d="M83.9938768,43.7639656 C83.1746739,43.6036878 82.5811957,42.7477899 82.7453261,41.9633671 C82.9152536,41.1529534 84.0116304,40.4966807 84.8685145,40.6926962 C85.4935145,40.8352857 85.8456884,41.7669907 85.6616304,42.7900252 C85.5351812,43.4932261 84.8014855,43.9217166 83.9938768,43.7639656" id="Fill-5" fill="#070707" mask="url(#mask-2)"></path>
            <path d="M54.1144928,84.1585956 C50.8967391,84.8592696 47.665942,84.8275028 44.4264493,84.3343958 C41.9960145,83.9647461 39.6496377,83.292951 37.3753623,82.3641339 C36.0927536,81.8403431 34.9072464,81.1255907 33.6775362,80.4985579 C32.3547101,79.8245969 31.2152174,78.9196048 30.0699275,78.0171396 C28.1503623,76.504969 26.465942,74.7588794 24.9416667,72.8377115 C23.6231884,71.1753706 22.4478261,69.4130367 21.5539855,67.5193037 C20.3869565,65.0461882 19.4648551,62.4568351 18.9119565,59.7552153 C18.1391304,55.9789401 18.2413043,52.198694 18.7634058,48.4058133 C19.1778986,45.3980774 20.1297101,42.5289601 21.4536232,39.8457507 C22.8304348,37.0556893 24.5394928,34.4417892 26.7141304,32.1340052 C29.142029,29.5572867 31.8597826,27.4050877 34.9315217,25.6821012 C37.1688406,24.4276746 39.551087,23.5039113 42.0362319,22.8931229 C42.8007246,22.7054101 43.634058,22.836809 44.4456522,22.7018002 C49.4057971,21.877669 54.282971,22.3523657 59.0405797,23.9129085 C61.2851449,24.6493201 63.3938406,25.7084532 65.4253623,26.9466354 C68.0934783,28.5728777 70.4003623,30.611005 72.4507246,32.9227598 C73.8481884,34.498103 75.0550725,36.2488855 76.0528986,38.1220422 C76.1384058,38.282681 76.1557971,38.4797794 76.2050725,38.6599114 C76.9992754,40.3395796 77.0981884,42.1798866 77.315942,43.9696555 C77.5202899,45.6511286 77.5601449,47.3607586 77.6452899,49.0591981 C77.8246377,52.6322382 76.8384058,55.9587249 75.7608696,59.2678842 C73.6985507,65.5995798 70.4746377,71.3031597 66.3119565,76.4973883 C65.2688406,77.798743 63.9771739,78.7484974 62.6268116,79.6585433 C59.9503623,81.4627517 57.0981884,82.9355748 54.1144928,84.1585956" id="Fill-6" fill="#FFFFFF" mask="url(#mask-2)"></path>
            <path d="M57.0681884,119.867554 C55.9377536,119.845895 54.827971,120.12602 53.6928261,120.084868 C53.2417391,120.068623 52.9942754,119.974767 52.9855797,119.469026 C52.945,117.135612 52.5768841,114.819886 52.6681884,112.472033 C52.6924638,111.847166 52.7446377,111.217606 52.7627536,110.58949 C52.7692754,110.361708 52.7410145,110.154863 52.9584058,109.983395 C53.5877536,109.4874 53.304058,108.915598 53.0602174,108.35643 C52.8156522,107.796902 52.352971,107.792209 51.8272464,107.818561 C50.9989855,107.860436 50.1671014,107.829391 49.337029,107.829391 C48.5377536,108.074861 47.852971,107.698353 47.1598551,107.410647 C46.5652899,107.163732 45.9815942,106.889383 45.3645652,106.702753 C45.0732609,106.614673 44.7431884,106.534173 44.5094928,106.788668 C44.2533333,107.06771 44.4703623,107.354694 44.5964493,107.624712 C44.6605797,107.761886 44.5555072,107.61316 44.6558696,107.720012 C46.8917391,110.097466 46.4761594,112.992214 46.2392029,115.847252 C46.1642029,116.752605 45.9627536,117.644963 45.877971,118.547789 C45.7910145,119.471913 45.4174638,119.938307 44.4330435,119.775864 C44.1823188,119.73435 43.902971,119.713052 43.6558696,119.853476 C42.7265217,119.842285 42.7428261,119.841563 42.7091304,119.098293 C42.5776087,116.220512 42.9866667,113.383161 43.3417391,110.542923 C43.4207246,109.910836 43.5942754,109.290662 43.7243478,108.665074 C43.787029,108.362206 43.7087681,108.089301 43.3732609,108.093272 C42.8819565,108.099047 42.7518841,107.748169 42.5667391,107.426891 C42.4917391,107.296936 42.4446377,107.131966 42.3355797,107.043163 C41.1975362,106.117234 40.996087,104.855227 40.9964493,103.494309 C40.9968116,101.685047 40.9044203,99.8747017 40.9478986,98.0672445 C40.9852174,96.5283609 41.1910145,94.9974189 41.6373913,93.5119613 C41.7808696,93.2040402 41.8819565,92.8726549 41.9645652,92.5524603 C42.1334058,91.8990755 42.4406522,91.6456633 43.1036957,91.911349 C43.6982609,92.1495998 44.3171014,92.0802905 44.8815942,91.8550352 C46.7808696,91.0969645 48.8334058,90.8940903 50.743913,90.1432393 C52.0957246,89.6122288 53.3674638,89.0447587 54.4989855,88.1087218 C56.2352174,86.6723582 57.2765217,86.860432 58.4272464,88.8252791 C59.3642029,90.4251694 59.7562319,92.1997769 59.6105797,94.0577722 C59.5652899,94.634267 59.5047826,95.3085889 58.6555072,95.334219 C58.2381159,94.6981615 58.0022464,93.9837701 57.7797826,93.2661298 C57.6584058,92.8744599 57.5819565,92.4687115 57.3257971,92.1322725 C56.6602174,92.171259 57.0410145,92.6105791 57.0319565,92.9008119 C57.0221739,94.4035969 57.6863043,95.7554897 57.9986232,97.1867995 C58.5192754,99.5725564 59.1254348,101.939903 59.5478986,104.346597 C59.6123913,104.714803 59.5685507,105.100697 59.6076812,105.47504 C59.6591304,105.967064 59.5558696,106.277512 58.9645652,106.224447 C58.4526087,106.178601 58.3562319,106.729827 58.0174638,106.939199 C57.9047826,107.144961 57.7475362,107.314986 57.5254348,107.386822 C56.6276087,107.677777 56.3500725,108.380256 56.2852174,109.226046 C56.1094928,111.523 55.9638406,113.820316 56.0243478,116.127378 C56.0475362,117.02154 56.2681884,117.837369 56.7022464,118.612406 C56.9181884,118.997578 57.2413768,119.363979 57.0681884,119.867554" id="Fill-7" fill="#FFFFFF" mask="url(#mask-2)"></path>
            <path d="M54.1144928,84.1585956 C54.5858696,83.708446 55.1721014,83.4442042 55.742029,83.1536104 C57.6271739,82.1923045 59.5105072,81.2353304 61.3402174,80.1599529 C63.8311594,78.6961544 65.8221014,76.7735426 67.5257246,74.457817 C70.2963768,70.6909273 72.5652174,66.6507712 74.3467391,62.3424025 C75.6601449,59.1650031 76.5695652,55.8475411 77.2565217,52.48279 C77.4568841,51.5012689 77.2844203,50.4457456 77.3039855,49.424155 C77.3699275,45.9395565 76.9155797,42.5116328 76.2083333,39.1097001 C76.1782609,38.9656666 76.2047101,38.8100816 76.2050725,38.6599114 C77.0557971,39.6963024 77.473913,40.9633635 77.9235507,42.1802476 C78.5485507,43.8725503 79.0076087,45.6294695 79.4706522,47.376281 C79.6608696,48.0942823 79.7076087,48.8563239 79.7634058,49.6024821 C79.9231884,51.7384367 79.9746377,53.8776402 79.8275362,56.0168436 C79.6608696,58.4347283 79.1155797,60.7771669 78.3938406,63.0838679 C77.865942,64.7721997 77.1797101,66.4092716 76.3764493,67.9680094 C75.4996377,69.6689758 74.3967391,71.2587584 73.232971,72.7915053 C71.6724638,74.8473209 69.8003623,76.6064061 67.8155797,78.2261506 C66.5398551,79.2672344 65.0971014,80.1021952 63.6543478,80.9183847 C61.0105072,82.4139499 58.1637681,83.3507088 55.2347826,84.070515 C54.8757246,84.1585956 54.4887681,84.1318827 54.1144928,84.1585956" id="Fill-8" fill="#D1D1D1" mask="url(#mask-2)"></path>
            <path d="M58.655471,95.3342551 C59.2003986,95.0552128 59.3188768,94.5509153 59.3449638,94.0058263 C59.4243116,92.3521491 59.0438768,90.7930503 58.3808333,89.2888213 C58.063442,88.5690151 57.4525725,88.105509 56.9170652,87.5809962 C56.5141667,87.1867995 56.0543841,87.3622387 55.6703261,87.6268415 C54.9888043,88.0964844 54.3043841,88.572264 53.6840942,89.117353 C53.1837319,89.557395 52.6250362,89.8212758 52.0083696,90.0194571 C51.0750362,90.3187146 50.1268478,90.5793465 49.2569203,91.0493504 C49.1576449,91.1027763 49.0475,91.1767785 48.9438768,91.1742516 C47.3902536,91.1399579 46.0456884,91.9370152 44.5833696,92.2644295 C43.6851812,92.4651378 43.3855435,92.4431176 42.5090942,91.9991048 C42.0967754,92.4279562 42.1123551,93.1181616 41.6373551,93.5119974 C41.7018478,92.1889834 41.8311957,91.6677195 42.3344565,90.7399853 C42.7177899,90.7717521 42.9228623,91.1565633 43.2761232,91.2482537 C43.4837319,91.3024016 43.6402536,91.2688299 43.6561957,91.0121688 C43.5221377,90.8302319 43.5228623,90.6493778 43.6612681,90.4699678 C43.9924275,90.5205058 44.2728623,90.7638104 44.7406159,90.7266289 C44.2612681,90.0093495 43.7264855,89.4483772 43.0993116,88.9487725 C42.7156159,88.6430173 42.7909783,88.5047596 43.3739493,88.312354 C44.4181522,88.7332638 45.063442,89.7707377 46.1587319,90.1122306 C47.9667029,90.0634974 49.5706884,89.3534379 51.1322826,88.5383313 C51.6243116,88.2816702 52.1311957,88.0210383 52.5362681,87.6192608 C53.3188768,86.8308672 54.1975,86.21322 55.330471,86.0486104 C55.4076449,86.0522202 55.4587319,86.0175656 55.4833696,85.9442854 C55.5746739,85.9063819 55.6569203,85.8540389 55.730471,85.7879784 C55.8681522,85.7309426 56.0011232,85.6547746 56.1442391,85.6201199 C56.6192391,85.5053263 57.0942391,85.3421606 57.5757609,85.3154477 C58.2217754,85.2793491 58.221413,85.9731643 58.5043841,86.3269306 C59.9138043,88.0881817 61.2094565,89.9234349 62.1898913,91.9767236 C62.6246739,92.8874915 62.7761232,93.8401337 62.9159783,94.7971078 C63.0431522,95.6663622 62.2927899,96.6428296 61.3909783,96.9388381 C61.0725,97.0431631 60.7185145,97.0420801 60.4022101,97.1514589 C60.0927899,97.2583108 59.8475,97.5326602 59.4598188,97.5283791 C59.0275725,96.8623091 58.9163406,96.0699447 58.655471,95.3342551" id="Fill-9" fill="#D1D1D1" mask="url(#mask-2)"></path>
            <path d="M42.623913,86.6950642 C42.5456522,87.116335 42.2702899,87.4412224 42.0815217,87.8087063 C41.1851449,89.5533519 40.5242754,91.3806634 40.1481884,93.3115779 C40.0728261,93.3115779 39.9815217,93.3404568 39.9300725,93.3076071 C38.884058,92.6336461 38.9094203,92.6383389 39.2032609,91.444558 C39.3692029,90.7713189 39.657971,90.1836336 40.0731884,89.6367397 C40.7536232,88.7400503 41.4112319,87.8260336 42.0782609,86.9192366 C42.2152174,86.7354947 42.3315217,86.5008537 42.623913,86.6950642" id="Fill-10" fill="#CCCCCC" mask="url(#mask-2)"></path>
            <path d="M48.6719928,88.7612763 C48.5723551,88.9305788 48.3944565,88.9525989 48.2281522,88.9966392 C47.7230797,89.2197286 47.5227174,88.7717449 47.2219928,88.5432407 C47.1129348,88.4479404 47.0143841,88.3421715 46.9241667,88.2295438 C46.8618478,88.1605955 46.8020652,88.0887593 46.740471,88.0190889 C46.7053261,87.9891271 46.6727174,87.9559164 46.6372101,87.9255936 C46.5575,87.8732506 46.4803261,87.8191027 46.3991667,87.7689256 C46.0922826,87.5978182 45.7759783,87.4429552 45.5140217,87.2018165 C45.3263406,87.0260163 45.1277899,86.8480501 45.0491667,86.6007747 C44.9194565,86.1921384 45.065471,86.0437732 45.4785145,86.2123537 C45.7614855,86.2311249 46.0448188,86.2498962 46.3281522,86.2686675 C46.448442,86.3029612 46.566558,86.3430306 46.6748913,86.4083691 C46.7397464,86.4636 46.798442,86.5246066 46.8535145,86.5892231 C46.9730797,86.7162902 47.1129348,86.8231421 47.2267029,86.9570679 C47.4223551,87.2184218 47.6223551,87.474722 47.8828623,87.6765132 C48.1893841,87.9273985 48.5719928,88.0967009 48.7491667,88.485122 C48.7723551,88.5905299 48.7437319,88.6822204 48.6719928,88.7612763" id="Fill-11" fill="#C1C1C1" mask="url(#mask-2)"></path>
            <path d="M47.5060145,89.1703818 C47.2389855,89.2497988 47.0208696,89.4295698 46.7103623,89.1346442 C46.1201449,88.5747548 45.4552899,88.0939214 44.8212319,87.5802382 C44.7277536,87.5242853 44.6498551,87.4473953 44.56,87.3860277 L44.5560145,87.3845837 C44.2002174,87.2250279 43.8176087,87.0986828 43.6705072,86.677412 C43.6397101,86.3568564 43.5813768,86.0189734 44.077029,86.0276371 C44.7161594,86.1352109 45.0136232,86.7163985 45.4907971,87.0481447 C45.769058,87.3957743 46.152029,87.6195857 46.494058,87.8921301 C46.8165217,88.1076388 47.0273913,88.4527415 47.3734058,88.6418982 C47.5002174,88.7971222 47.6292029,88.9527072 47.5060145,89.1703818" id="Fill-12" fill="#BBBBBB" mask="url(#mask-2)"></path>
            <path d="M48.6719928,88.7612763 C48.6607609,88.6981037 48.6556884,88.6345702 48.6567754,88.5703147 C48.5803261,88.1190821 48.1651087,87.9703558 47.8821377,87.7032261 C47.5122101,87.4119104 47.2730797,87.007245 46.973442,86.6545616 C46.9325,86.4917569 46.940471,86.3459185 47.1136594,86.2585599 C48.2937319,86.5632321 48.8531522,87.5743541 49.6277899,88.353723 C49.316558,88.6565903 49.0488043,88.8489959 48.6719928,88.7612763" id="Fill-13" fill="#B8B8B8" mask="url(#mask-2)"></path>
            <path d="M55.3305797,86.0486465 C54.4128261,86.5966233 53.566087,87.2705843 52.5363768,87.6192969 C52.5483333,87.1918894 52.2805797,87.2879117 52.030942,87.3492793 C51.8313043,86.889744 52.1860145,86.7828921 52.4838406,86.6558251 C52.815,86.5143185 53.1968841,86.4973522 53.4805797,86.2515207 C53.4573913,86.1096531 53.9512319,86.3100004 53.6592029,85.9811421 C54.2302174,85.6623914 54.7813043,85.827723 55.3305797,86.0486465" id="Fill-14" fill="#161616" mask="url(#mask-2)"></path>
            <path d="M46.1588043,90.1122306 C45.7421377,90.33532 45.4316304,90.074327 45.1229348,89.867482 C44.4696739,89.4299669 43.908442,88.8852389 43.3740217,88.312354 C43.4689493,88.2260784 43.5642391,88.1394417 43.659529,88.053166 C44.2446739,87.8246618 44.4646014,88.3975467 44.8548188,88.5960891 C45.2348913,89.0534584 45.9312681,89.1794426 46.1370652,89.8194709 C46.1443116,89.9172981 46.151558,90.0147643 46.1588043,90.1122306" id="Fill-15" fill="#181818" mask="url(#mask-2)"></path>
            <path d="M51.1078261,87.8023529 C50.3288406,88.1961887 50.3331884,88.1922179 49.761087,87.565546 C49.5846377,87.3720575 49.3676087,87.2161115 49.1897101,87.0240669 C49.0444203,86.866677 48.8023913,86.7847332 48.7748551,86.5165205 C49.5263043,86.2847675 49.9172464,86.9511478 50.4744928,87.1948134 C50.8813768,87.1930084 51.2433333,87.2381317 51.1078261,87.8023529" id="Fill-16" fill="#B5B5B5" mask="url(#mask-2)"></path>
            <path d="M53.7494203,86.268848 C53.3468841,86.6078139 52.9211594,86.9020176 52.3794928,86.9651901 C52.1468841,86.9922641 52.0892754,87.1687863 52.030942,87.3492793 L51.9323913,87.355777 L51.8342029,87.3471134 C51.6197101,87.1926113 51.5186232,86.9973179 51.6113768,86.7316321 C52.0135507,86.3049466 52.4881884,86.0804133 53.0874638,86.2024265 C53.3178986,86.1255365 53.5447101,86.087272 53.7494203,86.268848" id="Fill-17" fill="#A7A7A7" mask="url(#mask-2)"></path>
            <path d="M51.6111957,86.731596 C51.7082971,86.9286944 51.8655435,87.1037727 51.8340217,87.3470773 L51.8582971,87.4116938 C51.1872826,87.613485 50.8564855,87.1153242 50.468442,86.7359279 C50.2803986,86.5344976 50.403587,86.3854104 50.5880072,86.3355943 C51.0108333,86.2215227 51.3767754,86.3247647 51.6111957,86.731596" id="Fill-18" fill="#B4B4B4" mask="url(#mask-2)"></path>
            <path d="M44.7796739,88.7462954 C44.4064855,88.5152643 44.0329348,88.2842332 43.6597464,88.0532021 C43.3380072,87.8098975 43.3438043,87.4839271 43.4293116,87.1381024 C44.001413,86.9633852 44.0637319,87.5525144 44.3746014,87.7687451 L44.4050362,87.797624 C44.4293116,87.901227 44.4876449,87.977756 44.5851087,88.0232403 C44.7332971,88.1813522 44.8818478,88.3391031 45.0303986,88.497215 C45.085471,88.7195824 45.0097464,88.8105509 44.7796739,88.7462954" id="Fill-19" fill="#C0C0C0" mask="url(#mask-2)"></path>
            <path d="M45.4334783,87.1654291 C44.8476087,86.9455886 44.5881884,86.3362441 44.0769565,86.027601 C44.5476087,86.0615337 45.0537681,85.8286977 45.4784058,86.2124259 C45.315,86.2914818 44.7769565,86.1416726 45.2211594,86.5943491 C45.399058,86.7755641 45.6733333,86.8603959 45.7805797,87.1231937 C45.6776812,87.2423191 45.5621014,87.2563976 45.4334783,87.1654291" id="Fill-20" fill="#1E1E1E" mask="url(#mask-2)"></path>
            <path d="M44.7796739,88.7462954 C44.8633696,88.6632686 44.9467029,88.5802418 45.0303986,88.497215 C45.386558,88.7444905 45.7481522,88.9852682 46.0974275,89.2422902 C46.3227899,89.4087048 46.2575725,89.6177158 46.1372826,89.819507 C45.6282246,89.533245 45.1561232,89.2004159 44.7796739,88.7462954" id="Fill-21" fill="#9F9F9F" mask="url(#mask-2)"></path>
            <path d="M50.4683333,86.7358918 C50.9998551,86.8210845 51.2998551,87.3820568 51.8581884,87.4116577 C51.6636232,87.6488255 51.3802899,87.715608 51.1078261,87.8022446 C51.0092754,87.482411 50.6643478,87.4195994 50.4744928,87.195066 C50.4723188,87.0420079 50.4705072,86.8889499 50.4683333,86.7358918" id="Fill-22" fill="#212121" mask="url(#mask-2)"></path>
            <path d="M44.374529,87.7686729 C43.956413,87.7127201 43.8339493,87.2138373 43.4292391,87.1380302 C43.5096739,86.9846112 43.5901087,86.8311921 43.6705435,86.677412 C44.0035145,86.8658467 44.3625725,87.0214317 44.5560507,87.3845837 C44.3908333,87.4629177 44.3890217,87.6188637 44.374529,87.7686729" id="Fill-23" fill="#3C3C3C" mask="url(#mask-2)"></path>
            <path d="M43.6612319,90.4698234 C43.6597826,90.6506774 43.657971,90.8315314 43.6565217,91.0123854 C43.351087,90.6521213 43.0460145,90.2918572 42.740942,89.9315931 C42.6775362,89.8399027 42.6815217,89.7489342 42.7434783,89.6586877 C43.1710145,89.7915305 43.3898551,90.1604583 43.6612319,90.4698234" id="Fill-24" fill="#7E7E7E" mask="url(#mask-2)"></path>
            <path d="M42.623913,86.6950642 C42.442029,86.7697884 42.2601449,86.8445125 42.0782609,86.9192366 C42.1431159,86.4568134 42.5286232,86.2178407 42.784058,85.7889892 C43.0539855,86.2283092 42.8456522,86.4629502 42.623913,86.6950642" id="Fill-25" fill="#939393" mask="url(#mask-2)"></path>
            <path d="M47.5060145,89.1703818 C47.4342754,89.0418708 47.3625362,88.9133597 47.2911594,88.7848487 C47.1639855,88.6263758 47.1549275,88.466459 47.2853623,88.3047372 C47.6828261,88.4220577 47.7125362,89.0404268 48.2281159,88.9967475 C48.0277536,89.2220028 47.7763043,89.2357203 47.5060145,89.1703818" id="Fill-26" fill="#606060" mask="url(#mask-2)"></path>
            <path d="M57.0319928,92.9008119 C56.8243841,92.6524534 56.8551812,92.3416444 56.8251087,92.0521336 C56.8048188,91.86045 56.8801812,91.6431364 57.1142391,91.679596 C57.334529,91.7138897 57.3251087,91.9460037 57.3258333,92.1322725 C57.0062681,92.3037409 57.1569928,92.6549803 57.0319928,92.9008119" id="Fill-27" fill="#2B2B2B" mask="url(#mask-2)"></path>
            <path d="M47.1134783,86.2586682 C47.0337681,86.4063115 47.010942,86.5611745 47.0555072,86.7243402 C47.1580435,86.8308311 47.1511594,86.9297413 47.0348551,87.0210708 C46.8848551,86.9337121 46.7142029,86.8672907 46.6786957,86.6654995 C46.693913,86.5665893 46.6511594,86.5041387 46.5580435,86.4738159 C46.427971,86.4655132 46.3631159,86.3839303 46.327971,86.2687758 C46.5899275,86.2651659 46.8515217,86.2619171 47.1134783,86.2586682" id="Fill-28" fill="#212121" mask="url(#mask-2)"></path>
            <path d="M53.7494203,86.268848 C53.5291304,86.2464668 53.3084783,86.2244467 53.0878261,86.2020656 C53.2780435,86.1284244 53.4686232,86.0547832 53.6592029,85.9811421 C53.79,86.010382 54.0302174,86.0327631 54.0323913,86.0699447 C54.0428986,86.2359983 53.8834783,86.2526036 53.7494203,86.268848" id="Fill-29" fill="#A3A3A3" mask="url(#mask-2)"></path>
            <path d="M44.5850362,88.0232764 C44.4748913,87.9878997 44.4093116,87.9171465 44.4049638,87.7972991 C44.533587,87.8178753 44.5875725,87.8980142 44.5850362,88.0232764" id="Fill-30" fill="#3C3C3C" mask="url(#mask-2)"></path>
            <path d="M42.7435507,89.658796 C42.7428261,89.7497645 42.7417391,89.840372 42.7410145,89.9313404 C42.6497101,89.8887441 42.5312319,89.8562553 42.5663768,89.7255784 C42.5757971,89.6898408 42.6819565,89.6804551 42.7435507,89.658796" id="Fill-31" fill="#B3B3B3" mask="url(#mask-2)"></path>
            <path d="M44.5598551,87.3861721 C44.7044203,87.3735376 44.787029,87.4442908 44.8214493,87.5803826 C44.695,87.56847 44.6102174,87.5002437 44.5598551,87.3861721" id="Fill-32" fill="#3C3C3C" mask="url(#mask-2)"></path>
            <path d="M55.7303986,85.7881228 C55.6803986,85.8913649 55.6025,85.9505666 55.4832971,85.9444298 C55.5235145,85.8256654 55.6072101,85.7758493 55.7303986,85.7881228" id="Fill-33" fill="#161616" mask="url(#mask-2)"></path>
            <path d="M52.7260507,33.354427 C51.4948913,33.6655969 50.7169928,34.4579614 49.851413,35.0965457 C48.603587,36.0166992 47.518442,37.1155408 46.4880072,38.2714182 C45.3590217,39.5381183 44.0568478,39.4579794 42.9959783,38.0905642 C42.078587,36.9079738 41.3651812,35.5697985 40.2543116,34.5319635 C39.8727899,34.1756703 39.8630072,33.6973637 40.1941667,33.3107476 C40.5394565,32.9078872 40.9738768,33.1374743 41.328587,33.3389046 C41.5843841,33.48366 41.8068478,33.7128861 41.9974275,33.9428342 C42.7894565,34.9005303 43.7090217,35.7513745 44.3872826,36.8036488 C44.6303986,37.1808793 44.8256884,37.2779845 45.2688043,36.9343258 C46.1296739,36.2665016 46.8032246,35.3972471 47.7369203,34.8073959 C49.1300362,33.9265899 50.3825725,32.8165577 51.9746014,32.2671369 C52.1155435,32.2187648 52.2463406,32.1422357 52.386558,32.0909757 C53.4698913,31.695335 53.6369203,31.7917183 53.6180797,32.9775575 C53.5803986,35.3611485 53.9206159,37.707197 54.2452536,40.0572163 C54.2967029,40.4297539 54.3198913,40.8087893 54.3198913,41.1849368 C54.3198913,41.4249925 54.1851087,41.6271447 53.9322101,41.6762388 C53.6470652,41.7314697 53.3916304,41.6383353 53.2807609,41.3546002 C53.1999638,41.1473942 53.1688043,40.9167241 53.1419928,40.6932737 C52.9985145,39.4929951 52.8177174,38.2945213 52.7383696,37.0899108 C52.6590217,35.8871052 52.5738768,34.6796068 52.7260507,33.354427" id="Fill-34" fill="#010101" mask="url(#mask-2)"></path>
            <path d="M37.490471,36.0240272 C37.416558,37.6296933 37.7107609,39.4064667 38.166558,41.1641079 C38.2419203,41.4550626 38.2618478,41.7608179 38.3020652,42.0604363 C38.3393841,42.3409225 38.3140217,42.6297113 37.9890217,42.6936059 C37.6709058,42.7567784 37.3969928,42.6286284 37.2741667,42.2874965 C36.9190942,41.3027265 36.5589493,40.3295081 36.4607609,39.2642382 C36.2911957,37.4271801 36.2082246,35.6013125 36.5730797,33.7779719 C36.6274275,33.5079543 36.6502536,33.2188045 37.0100362,33.2437125 C37.3940942,33.2704255 37.5321377,33.5736538 37.4730797,33.8902386 C37.3531522,34.5353207 37.4937319,35.1681293 37.490471,36.0240272" id="Fill-35" fill="#050505" mask="url(#mask-2)"></path>
            <path d="M47.0348551,87.0209264 C47.0417391,86.9220162 47.0486232,86.823106 47.0555072,86.7241958 C47.4337681,86.9411484 47.7366667,87.2407669 48.0015217,87.5826207 C48.0453623,87.8028222 47.9783333,87.911118 47.7373913,87.8443356 C47.4312319,87.6313538 47.0844928,87.4530267 47.0348551,87.0209264" id="Fill-36" fill="#333333" mask="url(#mask-2)"></path>
            <path d="M45.4334783,87.1654291 C45.549058,87.1513506 45.665,87.1372722 45.7805797,87.1231937 C46.0236957,87.2928572 46.2668116,87.4628816 46.5099275,87.6325451 C46.6465217,87.6556482 46.7135507,87.7361481 46.7121014,87.8744057 C46.6526812,88.0650064 46.5631884,88.1989322 46.3360145,88.0772799 C45.9392754,87.868269 45.697971,87.505117 45.4334783,87.1654291" id="Fill-37" fill="#2C2C2C" mask="url(#mask-2)"></path>
            <path d="M47.7375725,87.8443356 C47.8683696,87.8002953 47.9571377,87.7140196 48.0017029,87.5826207 C48.2357609,87.7956025 48.4759783,88.0020865 48.7017029,88.2237319 C48.8230797,88.3428573 48.7966304,88.4706464 48.6567754,88.5699176 C48.3502536,88.3284179 48.0440942,88.0861963 47.7375725,87.8443356" id="Fill-38" fill="#6F6F6F" mask="url(#mask-2)"></path>
            <path d="M46.3359058,88.0772438 C46.4282971,87.9956609 46.5206884,87.9140781 46.613442,87.8324952 C46.6967754,87.7538003 46.7681522,87.7635469 46.8275725,87.8620961 L46.8094565,87.8422419 C46.921413,87.8938629 46.9942391,87.9855533 47.0594565,88.0848245 L47.2855435,88.304665 C47.2873551,88.4645819 47.2891667,88.6248597 47.2909783,88.7851375 C46.8960507,88.6522946 46.6569203,88.3097188 46.3359058,88.0772438" id="Fill-39" fill="#2F2F2F" mask="url(#mask-2)"></path>
            <path d="M47.0593116,88.0849689 C46.9223551,88.0596999 46.8455435,87.9719803 46.8096739,87.8423863 C46.9390217,87.875597 47.0216304,87.9571798 47.0593116,88.0849689" id="Fill-40" fill="#BBBBBB" mask="url(#mask-2)"></path>
            <path d="M46.8277174,87.8619517 C46.7567029,87.8478733 46.6853261,87.8381266 46.6132246,87.8327118 C46.5762681,87.7673734 46.5418478,87.7005909 46.5103261,87.6327256 C46.6639493,87.6428332 46.7722826,87.7157523 46.8277174,87.8619517" id="Fill-41" fill="#BBBBBB" mask="url(#mask-2)"></path>
            <path d="M46.5580797,86.4738159 C46.6501087,86.5052217 46.7562681,86.5272418 46.6787319,86.6651385 C46.6385145,86.6016049 46.5982971,86.5377104 46.5580797,86.4738159" id="Fill-42" fill="#000000" mask="url(#mask-2)"></path>
            <path d="M37.2544928,59.9245539 C37.2544928,60.4129681 37.2715217,60.9021042 37.2505072,61.3894354 C37.2175362,62.1558088 36.6834783,62.6864583 35.9798551,62.6835822 C35.4461594,62.6814045 35.0298551,62.2464163 34.9863768,61.5266101 C34.9414493,60.7800909 34.6363768,60.0696703 34.7316667,59.3043798 C34.7827536,58.8942997 34.7957971,58.4892733 34.988913,58.1051841 C35.3432609,57.4001783 35.5997826,57.2417054 36.2939855,57.3691335 C36.9581159,57.4915078 37.1019565,57.6618932 37.1791304,58.4596724 C37.2044928,58.7210264 37.2012319,58.9852682 37.205942,59.248066 C37.2099275,59.4736823 37.2066667,59.6989376 37.2066667,59.9245539 C37.2226087,59.9245539 37.2385507,59.9245539 37.2544928,59.9245539" id="Fill-43" fill="#030303" mask="url(#mask-2)"></path>
            <path d="M58.0100362,58.8058942 C57.9853986,59.6812854 57.940471,60.572199 57.6180072,61.4349557 C57.440471,61.9103744 57.0933696,62.024446 56.6618478,62.0630715 C56.2118478,62.1035019 55.9122101,61.8331234 55.7882971,61.478635 C55.3151087,60.1249373 55.2940942,58.7604099 55.8299638,57.4074341 C56.0491667,56.8536815 56.5756159,56.7720987 57.0325,56.7237265 C57.4520652,56.6793252 57.6132971,57.1352507 57.8056884,57.4543623 C58.0549638,57.8687743 57.8821377,58.3459979 58.0100362,58.8058942" id="Fill-44" fill="#030303" mask="url(#mask-2)"></path>
            <path d="M46.1109783,78.1408856 C43.3396014,77.9398164 40.9769203,76.964432 38.7258333,75.7150593 C37.2519203,74.8970648 36.2906884,73.5830755 35.7972101,71.9810194 C35.1957609,70.0284457 36.668587,67.5621889 38.6472101,67.1297276 C39.2548188,66.9968847 39.8700362,67.1105953 40.4294565,67.3365726 C41.9022826,67.9318386 43.4798188,68.1751432 44.9606159,68.7364766 C45.0635145,68.7754631 45.1859783,68.855241 45.2736594,68.82925 C46.3957609,68.5007527 47.5298188,68.7361156 48.6540942,68.7664384 C49.6993841,68.7945953 50.4218478,68.2249593 51.1562681,67.6318592 C51.9885145,66.9600641 52.8497464,66.3777936 53.9848913,66.3622712 C55.701558,66.3395291 57.259529,66.6481721 58.384529,68.1249662 C58.6787319,68.5112213 58.8573551,68.9155256 58.8410507,69.3631484 C58.7425,72.066934 57.8312681,74.2888033 55.3972101,75.8197452 C53.6707609,76.9055913 51.825471,77.6181778 49.8841667,78.0336728 C48.6171377,78.3047733 47.2714855,78.4852664 46.1109783,78.1408856" id="Fill-45" fill="#060401" mask="url(#mask-2)"></path>
            <path d="M42.5395652,69.3584556 C42.877971,69.3956371 43.2207246,69.4104376 43.554058,69.4746931 C44.3834058,69.6349709 44.529058,69.7995805 44.6921014,70.6717229 C45.1551449,73.1491703 47.8297826,74.0848462 49.7931884,72.4665456 C50.5265217,71.8622549 50.6968116,70.9915565 50.843913,70.1547908 C50.92,69.7230515 51.0812319,69.4833567 51.4004348,69.2613503 C51.679058,69.0675008 51.9507971,68.8606558 52.2073188,68.6382883 C53.5232609,67.4993773 55.9323188,67.792498 57.0102174,69.140781 C58.4935507,70.9955274 56.2156522,73.5159321 54.7297826,74.5671236 C52.7142029,75.9926575 50.4388406,76.8055982 47.9863043,76.9045084 C45.8192754,76.991867 43.7149275,76.5453272 41.6866667,75.695927 C40.3421014,75.1331497 39.2489855,74.2628123 38.2522464,73.2650468 C37.5228986,72.534772 37.4906522,71.1471415 38.0272464,70.2067728 C38.5638406,69.2653212 39.5888406,68.7649945 40.7018841,68.9537902 C41.095,69.0205726 41.5536957,68.8909786 41.8692754,69.2631552 C42.0671014,69.4746931 42.293913,69.4822738 42.5395652,69.3584556" id="Fill-46" fill="#D1D1D1" mask="url(#mask-2)"></path>
            <path d="M49.3469928,70.0942896 C49.215471,70.7761922 49.4908333,71.4635097 48.7806884,71.7992268 C47.9886594,72.1732083 47.1607609,72.180789 46.3973551,71.7129511 C45.9937319,71.4656756 45.9701812,71.1137142 46.1520652,70.6346857 C46.3122101,70.2141369 46.4267029,70.005487 46.9125725,70.0762403 C47.6607609,70.1852581 48.4194565,70.1578231 49.3469928,70.0942896" id="Fill-47" fill="#FAFAF9" mask="url(#mask-2)"></path>
            <path d="M42.5395652,69.3584195 C42.2718116,69.6385446 42.0518841,69.5822308 41.8692754,69.2631191 C42.0928261,69.2948859 42.3160145,69.3266527 42.5395652,69.3584195" id="Fill-48" fill="#F4F4F3" mask="url(#mask-2)"></path>
            <path d="M36.9975,69.2598703 C36.9728623,69.2627582 36.9351812,69.2764756 36.9257609,69.266007 C36.9087319,69.2461528 36.8946014,69.2068053 36.9029348,69.1844242 C36.9351812,69.0995924 36.9833696,69.0952606 37.0203261,69.1739556 C37.0301087,69.1945318 37.0061957,69.2306304 36.9975,69.2598703" id="Fill-49" fill="#252321" mask="url(#mask-2)"></path>
            <path d="M45.7671014,88.8652403 C45.7533333,88.9533209 45.7232609,88.9262469 45.6975362,89.1013252 C45.627971,89.5099614 45.5786957,89.8626448 45.4942754,90.2438461 C45.4631159,90.4196463 45.360942,90.6835271 45.3207246,90.8564395 C45.2743478,91.0603966 45.1743478,91.4199387 45.1015217,91.6520527 C45.0228986,91.8816399 44.9913768,91.9895747 45.1094928,91.6935661 C45.4330435,90.7918229 45.5276087,90.1763417 45.6866667,89.3471567 C45.7453623,89.0092737 45.7989855,88.6775275 45.8645652,88.3468643 C45.9297826,88.0129522 45.996087,87.6884257 46.1591304,87.3823095 C46.2486232,87.2108411 46.3504348,87.0603099 46.4580435,86.9119447 C46.3167391,87.1043502 46.1761594,87.3061415 46.0634783,87.551251 C45.9062319,87.8703627 45.8739855,88.3132926 45.7671014,88.8652403" id="Fill-50" fill="#060401" mask="url(#mask-2)"></path>
            <path d="M42.2512681,94.5101239 C42.2632246,94.5047091 42.2748188,94.4992943 42.2867754,94.4938795 C42.2951087,94.4917136 42.3063406,94.4881037 42.3193841,94.4841329 C42.2976449,94.4920746 42.2730072,94.5018212 42.2512681,94.5101239 L42.2512681,94.5101239 Z M37.3998188,86.3850494 C37.4139493,86.39624 37.4280797,86.4074305 37.4407609,86.4178991 L37.4541667,86.4406413 C37.4498188,86.446056 37.4451087,86.4511099 37.4407609,86.4565246 L37.3998188,86.3850494 Z M48.1476449,84.1913371 C48.1610507,84.1202228 48.1740942,84.0487476 48.179529,83.9754674 C48.1867754,83.8780011 48.1838768,83.778008 48.1751812,83.6765709 C48.1759058,83.6639364 48.1759058,83.6534678 48.1751812,83.647331 C48.1737319,83.415939 48.1425725,83.1758832 48.0012681,82.973731 C47.9324275,82.8748209 47.8432971,82.7856573 47.7313406,82.7199578 C47.6755435,82.6878301 47.6117754,82.6618391 47.5498188,82.6466777 C47.5067029,82.636931 47.4711957,82.6325992 47.4317029,82.637292 C47.413587,82.6297113 47.4356884,82.5842271 47.4353261,82.560041 C47.4407609,82.5253863 47.4403986,82.5141958 47.4451087,82.4539111 C47.4501812,82.353557 47.4480072,82.249593 47.4382246,82.1427411 C47.4190217,81.9286764 47.3719203,81.7030601 47.2940217,81.4651703 C47.1617754,81.0919107 46.9719203,80.6634202 46.613587,80.2573109 C46.6443841,80.2973803 46.6606884,80.3237323 46.6606884,80.3237323 C46.6501812,80.3280641 46.553442,80.2107437 46.3617754,80.0508268 C46.1690217,79.891632 45.861413,79.7129439 45.4740942,79.6689036 C45.2907609,79.6508543 45.1005435,79.6378588 44.9067029,79.6299171 C44.8096014,79.6259462 44.7121377,79.6234193 44.6132246,79.6241413 C44.5440217,79.6252243 44.5027174,79.6226974 44.4574275,79.6371368 L44.4483696,79.6461615 L44.4719203,79.5559149 L44.4856884,79.4898545 L44.5012681,79.3530408 C44.5074275,79.2631552 44.5150362,79.1754356 44.5150362,79.0924088 C44.5226449,78.5242168 44.4146739,77.8932131 44.0835145,77.2827857 C43.9085145,76.9683668 43.6414855,76.7167595 43.3509058,76.5099145 C43.0570652,76.3041524 42.7248188,76.1362939 42.3461957,76.055433 C42.1570652,76.0150026 41.9519928,76.0063389 41.7501812,76.0409936 C41.546558,76.0727604 41.3302536,76.1760024 41.1809783,76.3370022 C40.8831522,76.6629726 40.8197464,77.0531985 40.6907609,77.3387385 C40.6853261,77.3445143 40.6856884,77.3701443 40.671558,77.3596757 L40.5259058,77.3120255 C40.3570652,77.2567947 40.1835145,77.2030077 40.0016304,77.1640212 C39.6494565,77.0846043 39.2063406,77.0734137 38.8596014,77.3174403 C38.6936594,77.430429 38.5509058,77.5990095 38.4661232,77.7827514 C38.3780797,77.9664933 38.3320652,78.1603428 38.3038043,78.3531094 C38.2552536,78.7361156 38.2476449,79.1252586 38.2708333,79.5385876 C38.3211957,80.6085503 38.5625,81.6164234 38.646558,82.6102181 C38.7331522,83.597515 38.6701087,84.6118858 38.1882246,85.4497345 C37.6798913,86.3547266 36.8041667,87.042766 36.3425725,87.9329577 C35.8360507,88.9105079 35.6762681,90.0508629 35.8251812,91.1764175 C35.9903986,92.3709204 36.5559783,93.3730177 37.3556159,94.0079922 C37.9067029,94.4772741 38.5922101,94.9104574 39.1936594,95.0541299 C39.6599638,95.1743382 40.113587,95.1840848 40.529529,95.1339078 C40.6226449,95.1234392 40.7092391,95.102502 40.7994565,95.0873406 C40.711413,95.101419 40.6230072,95.1144145 40.5338768,95.1248831 C40.1483696,95.1671185 39.7356884,95.1732553 39.2548913,95.0617106 C38.9378623,94.9750739 39.0512681,94.99926 39.295471,95.0472711 C39.5403986,95.0970872 39.9233696,95.1151365 40.1360507,95.1050289 C40.3168478,95.0949213 40.6067029,95.1100827 40.7849638,95.0707352 C41.1751812,95.0093676 41.5251812,94.9079305 41.9179348,94.7548724 C42.0838768,94.6830362 42.0777174,94.7241886 42.1603261,94.6862851 C42.6918478,94.4566979 43.0483696,94.1848754 43.3483696,93.9769474 C43.5780797,93.8191965 43.7701087,93.6545869 43.9490942,93.4863674 C44.061413,93.3780715 44.1653986,93.263278 44.2701087,93.1358499 C44.329529,93.0528231 44.3911232,92.9665474 44.4527174,92.8802718 C44.8773551,92.2467412 45.1697464,91.4190001 45.3436594,90.6392702 L45.3378623,90.6486559 C45.2269928,91.1027763 45.088587,91.5420964 44.8711957,91.9774456 C44.9603261,91.7875669 44.9639493,91.8164458 44.8650362,92.0355643 L44.771558,92.1943982 C44.811413,92.1102885 44.8418478,92.0240128 44.8773551,91.9388201 C44.895471,91.8973067 44.9121377,91.8554323 44.929529,91.8135579 C45.0309783,91.5565358 45.1240942,91.2991528 45.2143116,91.0511553 C45.2143116,91.0511553 45.2574275,90.877882 45.2744565,90.7912454 C45.3128623,90.6649002 45.3219203,90.6732029 45.3378623,90.6486559 C45.3581522,90.5602143 45.3788043,90.4699678 45.3994565,90.3797212 C45.3657609,90.4883781 45.3085145,90.6742859 45.2585145,90.8360076 C45.253442,90.853335 45.2483696,90.8681354 45.2432971,90.8847408 C45.511413,89.9079125 45.6443841,88.8744093 45.8824275,87.9192402 C46.2052536,86.6225782 47.8422101,85.5879922 48.1403986,84.2472899 C48.1425725,84.2285186 48.1451087,84.2101083 48.1476449,84.1913371 L48.1476449,84.1913371 Z" id="Fill-51" fill="#060401" mask="url(#mask-2)"></path>
            <path d="M40.8544928,95.0777384 C41.0037681,95.0510254 41.1512319,95.0210635 41.2932609,94.98316 C41.1450725,95.0210635 40.9994203,95.0528303 40.8544928,95.0777384" id="Fill-52" fill="#060401" mask="url(#mask-2)"></path>
            <path d="M40.7993478,95.0873045 C40.8178261,95.0844166 40.8363043,95.0808067 40.8544203,95.0779188 C40.8363043,95.0811677 40.8178261,95.0840556 40.7993478,95.0873045" id="Fill-53" fill="#060401" mask="url(#mask-2)"></path>
            <path d="M46.3131159,79.9572953 C46.4261594,80.0547616 46.5236232,80.1554767 46.6134783,80.2572748 C46.5674638,80.1973511 46.4815942,80.0995239 46.3131159,79.9572953" id="Fill-54" fill="#060401" mask="url(#mask-2)"></path>
            <path d="M41.2934058,94.9833044 C41.4242029,94.9500937 41.5568116,94.9132731 41.6955797,94.8681498 C41.5651449,94.9125511 41.4292754,94.9475668 41.2934058,94.9833044" id="Fill-55" fill="#060401" mask="url(#mask-2)"></path>
            <path d="M43.9542754,90.1123028 C43.7328986,91.012602 43.2357971,91.7100271 42.6912319,92.4338042 C42.3803623,92.8474942 41.5665942,93.6979774 40.956087,93.4532288 L40.9057246,93.5127915 C40.3778261,93.6979774 39.8477536,93.6611568 39.3162319,93.5319238 L39.2252899,93.4803028 L39.1227536,93.500157 C39.0415942,93.4409553 38.9564493,93.3886123 38.8665942,93.344572 C38.8499275,93.2637112 38.8017391,93.2333883 38.7216667,93.2536035 C38.5774638,93.2290565 38.4785507,93.1496396 38.4281884,93.0113819 L38.4495652,93.0301532 C38.3314493,92.9973034 38.2575362,92.9077789 38.1886957,92.8251131 C38.1002899,92.7514719 38.0136957,92.6763868 37.9702174,92.5648421 L37.9854348,92.5883062 C37.8028261,92.4662929 37.8365217,92.2435645 37.7481159,92.0775109 C37.7807246,92.0038698 37.7604348,91.9504438 37.6876087,91.9172331 C37.6231159,91.8179619 37.5397826,91.7287984 37.5263768,91.6035362 L37.5513768,91.5233973 L37.4905072,91.4656395 C37.3017391,91.2587945 37.4582609,90.9526783 37.2828986,90.7422235 C37.2850725,90.3963988 37.2868841,90.0509351 37.2886957,89.7054715 C37.4412319,89.4823821 37.3213043,89.1932322 37.4687681,88.9686989 C37.5419565,88.9434299 37.5607971,88.8965017 37.5256522,88.8275533 C37.6028261,88.6513921 37.5680435,88.421805 37.7731159,88.3062895 L37.7524638,88.3290316 C37.7803623,88.2120721 37.8731159,88.1402359 37.9466667,88.0496284 C38.0919565,87.9351958 38.0473913,87.7236579 38.1767391,87.5994787 C38.2506522,87.5381111 38.3089855,87.464109 38.353913,87.3792772 C38.4314493,87.3684477 38.4597101,87.3251293 38.4386957,87.2500442 C38.5434058,87.0283988 38.7372464,86.8836434 38.9021014,86.7139799 L38.8843478,86.7338341 C38.9223913,86.6172356 39.0097101,86.5417896 39.103913,86.4724802 L39.0973913,86.4815049 C39.2191304,86.3504669 39.1727536,86.1248506 39.353913,86.0273844 L39.3412319,86.0475996 C39.4415942,85.8909317 39.3955797,85.6335486 39.6575362,85.5887863 C39.770942,85.5606294 39.8202174,85.493847 39.7865217,85.3765265 C39.7426812,85.2223855 39.9575362,84.9509239 39.9955797,84.8043636 C40.3155072,83.5788159 40.3865217,82.2789051 40.1466667,81.0324202 C40.0673188,80.6201741 39.0992029,78.5203181 40.1155072,78.5564167 C41.1071739,78.5917933 41.4854348,80.3678448 41.6597101,81.1215837 C41.7281884,80.2021522 41.3836232,79.2379584 41.6434058,78.3315224 C41.9524638,77.2579498 43.0633333,78.3199708 43.1803623,78.912349 C43.2897826,79.4657406 43.3611594,80.0794169 43.2926812,80.6429162 C43.2473913,81.0168978 43.053913,81.3970161 43.1021014,81.7756905 C43.4452174,81.0858461 44.2477536,80.6432772 45.0162319,80.8584249 C45.7792754,81.0717676 46.5662319,81.6294911 46.6448551,82.4716716 C46.6702174,82.7442161 46.6046377,83.0387807 46.4089855,83.2304643 C46.2133333,83.421787 45.8716667,83.471964 45.6636957,83.2939979 C45.2742029,82.9615297 45.6397826,82.436656 44.9843478,82.3164476 C44.5357971,82.2341428 44.1883333,82.7626264 44.2082609,83.2181908 C44.2281884,83.6741162 44.4680435,84.0896112 44.5636957,84.53579 C44.8934058,84.0712009 45.3035507,83.5946993 45.8655072,83.5015649 C46.4274638,83.4084305 47.0821739,83.9592952 46.8655072,84.4859739 C46.6828986,84.9289038 46.0843478,85.0090427 45.7466667,85.3490916 C45.1372464,85.9624069 44.4187681,87.592259 44.2408696,88.421805 C44.120942,88.9806114 44.0908696,89.5571062 43.9542754,90.1123028" id="Fill-56" fill="#FEFEFE" mask="url(#mask-2)"></path>
            <path d="M42.3267029,89.198647 C42.1114855,90.4606543 41.6625725,91.9251748 40.433587,92.3803782 C39.6535145,92.6662792 38.8060507,92.283995 37.9806884,92.1897776 C37.8433696,92.8128396 38.4785145,93.3416841 39.0879348,93.5312018 C40.0542391,93.8319032 41.141558,93.6954505 42.0205435,93.1933189 C42.8991667,92.6911872 43.5632971,91.8367332 43.8647464,90.8707345 C44.0738043,90.2007444 44.1140217,89.4921287 44.2353986,88.8008404 C44.3480797,88.1604511 44.7538768,87.6052545 44.7143841,86.9497038 C44.4401087,87.33271 44.0031522,87.5370281 43.5372101,87.5641021 C43.1687319,87.5854003 42.8422826,87.4402839 42.606413,87.8355636 C42.490471,88.0301351 42.4593116,88.2618882 42.4310507,88.4864215 C42.4024275,88.7098719 42.3690942,88.9502886 42.3267029,89.198647" id="Fill-57" fill="#D1D1D1" mask="url(#mask-2)"></path>
            <path d="M41.8624638,83.1479068 C41.8334783,83.169205 41.8037681,83.1933911 41.7925362,83.2276847 C41.774058,83.2847205 41.8135507,83.3421173 41.8472464,83.3919334 C42.0421739,83.6821662 42.0849275,84.0453182 42.1222464,84.3929478 L42.2736957,85.7971836 C42.6693478,85.3578635 43.2497826,85.0907338 43.8407246,85.0759334 C43.9117391,85.0741285 43.9925362,85.0716016 44.0396377,85.0185366 C44.0755072,84.9781062 44.080942,84.9199874 44.0838406,84.8662005 C44.1135507,84.3196676 44.1957971,83.5381328 43.7472464,83.1482678 C43.2689855,82.7320509 42.341087,82.7981113 41.8624638,83.1479068" id="Fill-58" fill="#D1D1D1" mask="url(#mask-2)"></path>
        </g>
    </g>
</svg>