<?xml version="1.0" encoding="UTF-8"?>
<svg width="100px" height="100px" viewBox="0 0 100 100" version="1.1" xmlns="http://www.w3.org/2000/svg" xmlns:xlink="http://www.w3.org/1999/xlink">
    <title>medi-07</title>
    <defs>
        <path d="M0,49.9998195 C0,77.6145319 22.3858696,100 50,100 L50,100 C77.6141304,100 100,77.6145319 100,49.9998195 L100,49.9998195 C100,22.3858291 77.6141304,0 50,0 L50,0 C22.3858696,0 0,22.3858291 0,49.9998195 L0,49.9998195 Z" id="path-1"></path>
        <polygon id="path-3" points="1.12410081e-15 0 70.9012631 0 70.9012631 110.37204 1.12410081e-15 110.37204"></polygon>
    </defs>
    <g id="Page-1" stroke="none" stroke-width="1" fill="none" fill-rule="evenodd">
        <g id="Group-59">
            <mask id="mask-2" fill="white">
                <use xlink:href="#path-1"></use>
            </mask>
            <g id="Clip-2"></g>
            <polygon id="Fill-1" fill="#8DDD55" mask="url(#mask-2)" points="-43.4782609 142.028886 157.971014 142.028886 157.971014 -9.41993148 -43.4782609 -9.41993148"></polygon>
            <g id="Group-141" mask="url(#mask-2)">
                <g transform="translate(15.000000, 20.000000)">
                    <g id="Group-3" stroke-width="1" fill="none">
                        <mask id="mask-4" fill="white">
                            <use xlink:href="#path-3"></use>
                        </mask>
                        <g id="Clip-2"></g>
                        <path d="M46.8835125,97.2767 C46.8825125,99.2647 47.3355125,101.2007 47.5435125,103.1647 C47.7475125,105.0917 48.2085125,106.9927 48.1175125,108.9497 C48.0715125,109.9347 48.0565125,109.9747 47.0315125,109.9067 C46.6105125,109.8797 46.2165125,109.9297 45.8145125,110.0457 C43.3545125,110.7547 41.0025125,110.1947 38.6595125,109.4487 C38.2525125,109.3197 38.1545125,109.0737 38.1505125,108.7227 C38.1475125,108.3927 38.1255125,108.0557 38.1795125,107.7327 C38.4025125,106.3887 38.5275125,105.0397 38.4765125,103.6777 C38.6705125,103.2297 38.6985125,102.7337 38.7885125,102.2697 C38.9735125,101.3167 39.3455125,101.5657 39.8345125,101.9747 C40.3175125,103.4407 39.9995125,104.9067 39.7485125,106.3487 C39.5675125,107.3877 39.8115125,107.8357 40.9125125,107.9677 C42.0905125,108.1087 43.2515125,108.3797 44.4505125,108.3057 C44.7805125,108.3107 45.1075125,108.2917 45.4365125,108.2497 C46.0965125,108.1647 46.3535125,107.8247 46.2645125,107.1517 C45.9525125,104.7837 45.7185125,102.4057 45.4265125,100.0357 C45.2845125,98.8847 45.4825125,97.7247 45.2075125,96.5927 C45.1315125,96.0347 44.9235125,95.6127 44.2975125,95.4667 C43.9025125,95.3737 43.5215125,95.1707 43.6615125,94.6247 C43.8635125,94.3267 44.1815125,94.2497 44.4995125,94.1517 C46.1955125,93.6337 46.7285125,92.9407 46.8025125,91.1207 C46.9205125,88.2317 46.6335125,85.3727 46.1395125,82.5317 C46.1695125,81.5547 45.7285125,80.6077 45.8255125,79.8857 C44.2605125,82.7727 42.5155125,85.9027 40.4535125,88.8237 C39.8085125,89.7387 39.0435125,90.9537 37.5005125,90.6157 C37.3415125,90.4907 37.2745125,90.3197 37.2535125,90.1267 C37.2505125,90.0037 37.2655125,89.8817 37.2965125,89.7627 C38.4615125,88.0247 40.0055125,86.5627 41.0065125,84.7017 C41.2355125,84.4367 41.4275125,84.1427 41.6205125,83.8507 C42.7625125,82.3947 43.3795125,80.6727 44.0345125,78.9817 C44.4215125,77.9807 44.7975125,76.9737 45.1975125,75.9777 C45.4075125,74.9237 45.4835125,73.8527 45.5705125,72.7877 C45.6225125,72.1567 45.4495125,71.5187 44.8385125,71.1807 C44.1985125,70.8267 43.6525125,71.1847 43.1225125,71.5327 C40.9475125,72.9647 38.7145125,74.3077 36.3595125,75.4167 C35.1845125,75.9697 33.9565125,76.5597 32.5635125,76.2257 C32.3955125,76.1207 32.3095125,75.9587 32.2525125,75.7767 C32.1865125,75.5427 32.1425125,75.3037 32.1455125,75.0587 C32.1805125,74.8687 32.2955125,74.7467 32.4735125,74.6827 C32.9225125,74.5547 33.2905125,75.0327 33.7475125,74.8497 C34.0705125,74.7817 34.3875125,74.6917 34.6985125,74.5827 C35.0365125,74.4597 35.3875125,74.3657 35.7475125,74.1037 C34.9635125,73.3777 34.3795125,72.5277 33.3515125,72.2237 C33.1345125,72.2237 32.9175125,72.2527 32.7005125,72.2307 C32.3245125,72.3067 31.8335125,71.8157 31.5745125,72.4647 C31.5095125,72.6287 31.3845125,72.7067 31.2145125,72.7267 C30.8995125,72.7057 30.7265125,72.4227 30.4705125,72.3187 C30.1085125,72.1697 30.3605125,72.4537 30.3485125,72.5517 C30.3845125,72.6537 30.4005125,72.7567 30.3965125,72.8627 C30.3645125,73.0267 30.2745125,73.1537 30.1525125,73.2597 C29.9145125,73.4217 29.8715125,73.6517 29.9295125,73.9167 C29.9445125,74.0807 29.9195125,74.2377 29.8535125,74.3887 C29.4755125,74.8917 29.9405125,75.1927 30.1375125,75.5547 C30.2005125,75.6467 30.2535125,75.7447 30.3035125,75.8447 C30.3535125,75.9437 30.3885125,76.0487 30.4125125,76.1577 C30.4305125,76.3247 30.4015125,76.4817 30.2945125,76.6187 C30.1955125,76.6697 30.0905125,76.6897 29.9785125,76.6777 C29.8375125,76.6417 29.7075125,76.5797 29.5855125,76.5257 C29.5925125,76.5357 29.5065125,76.6087 29.5175125,76.6157 C29.6175125,76.7287 29.7015125,76.8397 29.7605125,76.9707 C29.8265125,77.2017 29.7725125,77.4497 29.5355125,77.4537 C27.9505125,77.4867 27.9085125,78.6797 27.7455125,79.7897 C26.8045125,83.7187 27.0145125,87.7067 27.1205125,91.6897 C27.1425125,92.5107 27.4555125,93.2037 27.9725125,93.8217 C28.3705125,94.2987 28.7415125,94.7917 28.7925125,95.4467 C28.8025125,95.7397 28.7355125,96.0047 28.5155125,96.2147 C28.0095125,96.4547 27.4825125,96.4667 26.9415125,96.3687 C26.7325125,96.3307 26.5125125,96.3047 26.3875125,96.1297 C25.4415125,94.8037 24.4005125,93.6027 24.6415125,91.7057 C24.8955125,89.7097 24.7825125,87.6647 24.7895125,85.6407 C24.7925125,84.8457 24.9325125,84.0667 25.1465125,83.3307 C25.5215125,82.0397 25.5335125,80.6537 26.1885125,79.4347 C26.3155125,79.1967 26.2755125,78.8697 26.3125125,78.5837 C26.9035125,77.2637 27.4765125,75.9377 27.5065125,74.4547 C27.6225125,73.8577 27.9575125,73.3577 28.2575125,72.8507 C27.9385125,73.3487 27.4605125,73.3617 26.9525125,73.3007 C26.8315125,73.2667 26.7215125,73.2117 26.6185125,73.1397 C26.4695125,73.0167 26.3595125,72.8637 26.2775125,72.6907 C25.6275125,71.0037 25.5265125,69.2237 25.4795125,67.4507 C25.4495125,66.3247 25.2375125,65.2437 25.0485125,64.1447 C24.8875125,63.2117 24.3485125,62.8037 23.5265125,62.5857 C22.2055125,62.2367 20.9035125,62.4047 19.6075125,62.7237 C19.4285125,62.7707 19.2485125,62.8137 19.0695125,62.8597 C18.9535125,62.8937 18.8335125,62.9157 18.7145125,62.9337 C17.8995125,63.0367 16.9375125,62.7857 16.5135125,63.8367 C16.1475125,64.7447 16.4635125,65.9447 17.2585125,66.7007 C17.7675125,68.3847 18.2565125,70.0767 18.9525125,71.6967 C19.0225125,71.8507 19.0865125,72.0087 19.1545125,72.1637 C19.2055125,72.2597 19.2495125,72.3587 19.2935125,72.4587 C19.3665125,72.6027 19.4395125,72.7467 19.5185125,72.8897 C19.5775125,72.9837 19.6295125,73.0817 19.6815125,73.1807 C20.3235125,74.3257 21.1675125,75.3287 21.9635125,76.3627 C22.5005125,77.0607 23.2125125,77.4017 24.1165125,77.0837 C25.0375125,76.8647 25.7155125,75.7887 26.8455125,76.3057 C27.1615125,77.0497 26.7825125,77.5667 26.2795125,78.0447 C24.7685125,79.3607 23.1375125,78.9337 21.5105125,78.3467 C21.2535125,78.2537 20.9885125,78.0547 20.8305125,77.8307 C19.2385125,75.5767 17.5435125,73.3807 16.8435125,70.6257 C16.6005125,69.6697 15.8775125,68.8907 15.7635125,67.8737 C15.7405125,67.6707 15.5925125,67.4607 15.6255125,67.2757 C15.8495125,66.0067 14.9525125,65.4067 14.1135125,64.8647 C11.8635125,63.4137 10.0805125,61.4877 8.38251254,59.4617 C6.79251254,57.5637 5.47351254,55.4807 4.23151254,53.3467 C3.94251254,52.8497 3.73451254,52.3057 3.49151254,51.7817 C2.49051254,49.6197 1.58051254,47.4197 1.05051254,45.0917 C0.575512539,43.0057 0.259512539,40.8967 0.0865125394,38.7527 C-0.107487461,36.3557 0.0605125394,33.9847 0.240512539,31.6127 C0.338512539,30.3127 0.628512539,29.0117 0.973512539,27.7507 C1.38751254,26.2407 1.74751254,24.7137 2.33651254,23.2517 C3.43151254,20.5347 4.78051254,17.9697 6.46151254,15.5617 C7.95951254,13.4167 9.63251254,11.4387 11.5615125,9.6797 C15.6045125,5.9937 20.2845125,3.4197 25.5105125,1.8417 C26.7225125,1.4757 27.9435125,1.2107 29.1205125,0.6727 C30.0185125,0.2617 31.1455125,0.3597 32.1705125,0.2217 C34.8435125,-0.1383 37.5325125,-0.0333 40.1715125,0.3417 C43.2125125,0.7747 46.2125125,1.4717 49.0495125,2.7807 C51.3255125,3.8307 53.5605125,4.9387 55.5915125,6.4007 C57.4235125,7.7207 59.1175125,9.1977 60.6955125,10.8387 C62.6985125,12.9207 64.4805125,15.1427 65.9205125,17.6357 C67.6765125,20.6757 69.0265125,23.8767 69.8375125,27.3127 C70.1985125,28.8437 70.5085125,30.3767 70.6725125,31.9337 C70.9675125,34.7207 70.9985125,37.5077 70.6395125,40.3037 C70.3825125,42.3127 70.0025125,44.2837 69.4555125,46.2307 C68.7045125,48.8997 67.6245125,51.4157 66.2415125,53.8237 C65.5845125,54.9687 64.8895125,56.0827 64.1585125,57.1787 C62.9165125,59.0397 61.3695125,60.6157 59.7745125,62.1837 C56.8815125,65.0267 53.5785125,67.2097 49.9465125,68.9457 C49.1255125,69.3387 48.2505125,69.5647 47.3875125,69.8267 C46.9375125,69.9637 46.6835125,70.0547 46.8645125,70.6607 C47.2785125,72.0447 47.3805125,73.4587 47.2295125,74.9237 C47.0165125,76.9927 47.4875125,79.0297 47.7735125,81.0747 C48.1215125,83.5657 48.6815125,86.0217 48.9145125,88.5287 C49.0485125,89.9837 48.8775125,91.4177 48.5905125,92.8287 C48.4265125,93.6367 47.8935125,94.3157 47.4165125,94.9907 C47.3155125,95.0517 47.2455125,95.1487 47.1555125,95.2227 L47.1585125,95.2207 C46.8675125,95.8787 46.6945125,96.5537 46.8835125,97.2767" id="Fill-1" fill="#000000" mask="url(#mask-4)"></path>
                    </g>
                    <path d="M26.2798125,78.0444 C26.3268125,77.4384 26.9438125,76.9964 26.7778125,76.3284 C27.1038125,75.6624 26.8868125,74.7344 27.741819,74.3224 C27.8298125,75.9324 27.4418125,77.3824 26.3118125,78.5834 C26.2368125,78.4084 26.2158125,78.2284 26.2798125,78.0444" id="Fill-11" fill="#616161"></path>
                    <path d="M41.1911125,69.5859 C37.1681125,70.4189 33.1491125,70.3369 29.1351125,69.5259 C27.3251125,69.1609 27.3401125,69.1549 27.3971125,67.2189 C27.4151125,66.6029 27.3641125,65.9729 27.1391125,65.3919 C26.8221125,64.5789 26.6131125,63.7379 26.3861125,62.8989 C25.9891125,61.4349 25.2161125,60.8309 23.7351125,60.8719 C21.7911125,60.9269 19.8391125,60.8069 17.9061125,61.0979 C16.6421125,61.2879 15.7321125,62.0139 15.2161125,63.2109 C13.7121125,62.2409 12.5501125,60.9029 11.2911125,59.6759 C9.63011254,58.0579 8.30611254,56.1569 7.05511254,54.2339 C6.32811254,53.1169 5.60811254,51.9449 5.16711254,50.6499 C4.75711254,49.4469 4.15611254,48.3229 3.73511254,47.1199 C2.25711254,42.8919 1.68111254,38.5329 1.99611254,34.0929 C2.18211254,31.4859 2.50411254,28.8689 3.35611254,26.3539 C4.21411254,23.8239 5.15211254,21.3509 6.52011254,19.0269 C7.65611254,17.0979 8.89511254,15.2759 10.3361125,13.5689 C13.1601125,10.2239 16.5411125,7.5579 20.3551125,5.4679 C22.6951125,4.1869 25.2061125,3.2499 27.8041125,2.5869 C27.9621125,2.5459 28.1601125,2.4299 28.2761125,2.4849 C29.1551125,2.8999 29.9781125,2.4299 30.8031125,2.3149 C34.2541125,1.8339 37.6731125,1.8969 41.1231125,2.4219 C43.6721125,2.8099 46.1011125,3.5509 48.4791125,4.4549 C50.3171125,5.1529 52.0161125,6.1749 53.7061125,7.2009 C56.5181125,8.9079 58.9381125,11.0749 61.0711125,13.5269 C62.7971125,15.5099 64.4171125,17.6189 65.3971125,20.1179 C66.0641125,23.8179 66.5351125,27.5279 66.6761125,31.2999 C66.8241125,35.2449 65.8211125,38.9249 64.6251125,42.5789 C62.4161125,49.3259 59.0351125,55.4449 54.6221125,61.0169 C53.3611125,62.6089 51.8691125,63.8539 50.2041125,64.9499 C47.3661125,66.8189 44.4191125,68.4759 41.1911125,69.5859" id="Fill-13" fill="#FFFFFF"></path>
                    <path d="M39.7400125,101.9511 C40.1080125,101.5141 39.8990125,100.9731 40.0020125,100.4891 C40.2100125,99.5021 40.3950125,98.5181 40.1900125,97.5011 C40.1100125,97.1031 40.0930125,96.6891 40.0850125,96.2811 C40.0630125,95.2341 39.8840125,95.0181 38.9430125,95.3151 C37.8880125,95.6481 36.8260125,95.3071 35.7840125,95.5081 C35.0490125,95.9961 34.3460125,95.6691 33.6570125,95.3981 C32.8500125,95.0811 32.0770125,94.6731 31.2320125,94.4551 C30.9520125,94.3831 30.6380125,94.3381 30.4240125,94.5991 C30.2010125,94.8721 30.3780125,95.1451 30.4920125,95.4081 C30.5240125,95.4841 30.5620125,95.5601 30.6150125,95.6231 C33.7420125,99.3671 32.3170125,103.5751 31.8560125,107.6891 C31.7340125,108.7741 30.8500125,108.4181 30.2510125,108.6121 C28.5710125,108.7071 28.6090125,108.7061 28.5740125,107.0411 C28.5220125,104.5491 28.8340125,102.0981 29.1880125,99.6391 C29.3280125,98.6621 29.4580125,97.6831 29.6600125,96.7181 C29.7800125,96.1411 29.8120125,95.7121 29.0470125,95.7231 C28.8060125,95.7261 28.7360125,95.4741 28.5570125,95.3831 C28.4890125,94.8501 28.0980125,94.5251 27.7710125,94.1571 C27.1220125,93.4261 26.7470125,92.6291 26.7690125,91.5921 C26.8140125,89.4521 26.5010125,87.3031 26.7010125,85.1701 C26.8770125,83.2931 26.9590125,81.3891 27.5270125,79.5641 C27.7220125,78.4391 28.2320125,77.8901 29.4430125,78.4301 C29.7710125,78.5761 30.2010125,78.5201 30.5380125,78.3761 C32.4790125,77.5441 34.6010125,77.3481 36.5730125,76.6111 C37.4880125,76.2701 38.3960125,75.5531 39.4900125,76.0901 C39.5630125,76.2001 39.6000125,76.3231 39.6010125,76.4551 C39.5420125,76.9341 39.2020125,77.2181 38.8710125,77.5091 C36.5880125,79.7101 34.3690125,81.9691 32.3390125,84.4131 C30.9720125,86.0581 30.9860125,87.4681 32.4900125,88.9621 C33.5280125,89.9941 34.7540125,90.7381 36.0710125,91.3491 C37.5880125,92.4271 38.8180125,91.5571 40.0570125,90.7591 C42.4480125,88.7171 43.7970125,85.9841 45.0790125,83.2071 C45.2520125,82.8331 45.3730125,82.4351 45.6180125,82.0981 C46.0460125,81.5071 46.2460125,81.8451 46.4140125,82.2991 C46.9880125,85.3371 47.3430125,88.3901 47.0980125,91.4901 C46.9740125,93.0611 46.3090125,94.0691 45.1340125,94.4601 C44.6710125,94.6131 44.1310125,94.3631 43.7180125,94.7451 C43.5250125,95.1241 43.1620125,95.2061 42.7920125,95.2871 C42.2500125,95.4061 41.7050125,95.5801 41.5990125,96.2111 C41.4800125,96.9131 42.0240125,97.2261 42.5240125,97.5361 C42.6290125,97.6011 42.7410125,97.6571 42.8490125,97.7211 C42.9570125,97.7861 43.0520125,97.8641 43.1420125,97.9511 C43.4090125,98.2441 43.6050125,98.5821 43.7740125,98.9381 C44.2420125,100.8961 43.9770125,102.9151 44.2730125,104.8901 C44.3570125,105.4491 44.3050125,106.0311 44.4070125,106.5941 C44.4470125,107.1601 44.6050125,107.7021 44.7700125,108.2431 C44.7680125,108.4741 44.5780125,108.5391 44.4230125,108.6351 C43.8930125,108.6531 43.3630125,108.6721 42.8330125,108.6911 C42.6700125,108.6961 42.4580125,108.7701 42.3510125,108.6951 C41.4090125,108.0301 40.3210125,108.2671 39.1690125,108.1831 C39.4300125,106.0911 39.8430125,104.0401 39.7400125,101.9511" id="Fill-15" fill="#FFFFFF"></path>
                    <path d="M41.1911125,69.5859 C42.2171125,68.8829 43.3621125,68.4019 44.4761125,67.8729 C47.1371125,66.6079 49.5981125,65.0189 51.9921125,63.3229 C52.5591125,62.9219 53.0751125,62.4119 53.5111125,61.8679 C56.1191125,58.6109 58.5421125,55.2329 60.4661125,51.5069 C62.0051125,48.5259 63.3931125,45.4859 64.4101125,42.2879 C65.1591125,39.9309 65.9761125,37.5499 66.2261125,35.1089 C66.4711125,32.7079 66.4021125,30.2509 66.1411125,27.8119 C65.9751125,26.2559 65.7921125,24.7059 65.5821125,23.1559 C65.4771125,22.3789 65.3111125,21.6169 65.1661125,20.8499 C65.1081125,20.5429 65.0511125,20.2789 65.3971125,20.1179 C66.2481125,21.0599 66.5781125,22.2899 67.0131125,23.4129 C67.7681125,25.3629 68.3471125,27.3989 68.7951125,29.4449 C69.1251125,30.9509 69.1881125,32.5259 69.2621125,34.0749 C69.4101125,37.1349 69.2071125,40.1769 68.5401125,43.1739 C67.9571125,45.7939 67.0881125,48.3209 65.9301125,50.7419 C64.1521125,54.4579 61.7641125,57.7279 58.8261125,60.6269 C56.3061125,63.1139 53.4291125,65.0799 50.3161125,66.6889 C47.6771125,68.0519 44.8341125,68.9209 41.9321125,69.5679 C41.6961125,69.6209 41.4391125,69.5819 41.1911125,69.5859" id="Fill-17" fill="#D0D0D0"></path>
                    <path d="M41.2027125,84.7959 C40.2867125,86.4449 39.3337125,88.0639 37.8187125,89.2619 C37.6667125,89.3809 37.5877125,89.5919 37.4747125,89.7609 C37.2247125,89.9929 36.9187125,90.0609 36.5917125,90.0679 C36.4677125,90.0789 36.3417125,90.0779 36.2177125,90.0739 C34.7017125,90.0529 33.5577125,89.2169 32.5067125,88.2729 C31.6277125,87.4819 31.7117125,86.4999 32.7047125,85.2999 C34.2867125,83.3889 35.8787125,81.4849 37.4167125,79.5369 C37.9287125,78.8879 38.4707125,78.2619 38.9447125,77.5829 C39.1657125,77.3339 39.4357125,77.1219 39.5497125,76.7889 C39.7457125,76.5039 39.8087125,76.1779 39.8367125,75.8399 C39.9067125,75.2929 40.3157125,75.0039 40.6987125,74.6899 C41.6497125,73.9079 42.6267125,73.1619 43.4347125,72.2109 C44.0767125,71.4559 44.5937125,71.5619 44.7567125,72.5309 C44.9577125,73.7249 45.7457125,74.8099 45.4297125,76.0959 C44.5147125,78.5059 43.7587125,80.9839 42.4067125,83.2089 C42.2167125,83.5219 42.1047125,83.8929 41.7317125,84.0599 C41.4797125,84.2509 41.3827125,84.5529 41.2027125,84.7959" id="Fill-19" fill="#FFFFFF"></path>
                    <path d="M18.8278125,72.102 C18.0738125,70.417 17.3528125,68.722 17.1088125,66.87 C16.6138125,66.337 16.3598125,65.71 16.3358125,64.98 C16.2908125,63.643 16.8148125,62.991 18.1298125,62.792 C18.3688125,62.756 18.6268125,62.834 18.8438125,62.67 C18.9268125,62.705 18.9998125,62.69 19.0638125,62.627 C19.1668125,62.561 19.2548125,62.469 19.3828125,62.445 C20.5698125,62.039 21.7838125,62.007 23.0268125,62.103 C23.7218125,62.157 24.2718125,62.516 24.8808125,62.747 C25.2068125,62.87 25.3178125,63.18 25.3628125,63.544 C25.5958125,65.461 25.9998125,67.355 25.9198125,69.31 C25.8708125,70.511 26.2888125,71.666 26.5338125,72.835 C26.6128125,72.93 26.6828125,73.038 26.8218125,73.056 C26.7848125,74.386 25.5558125,74.271 24.7908125,74.655 C24.1468125,74.979 23.6268125,74.453 23.1958125,74.004 C22.3178125,73.088 22.0278125,71.845 21.4338125,70.771 C21.2688125,70.279 21.0498125,69.826 20.5668125,69.565 C20.4808125,69.514 20.3948125,69.457 20.3098125,69.402 C20.2638125,69.383 20.2188125,69.36 20.1738125,69.343 C19.9178125,69.308 19.8358125,69.491 19.7598125,69.679 C19.5028125,70.431 19.4358125,71.178 19.6468125,71.962 C19.7478125,72.338 20.0008125,72.832 19.3808125,73.07 C19.3208125,73.019 19.2938125,72.954 19.3018125,72.876 C19.2358125,72.783 19.1718125,72.688 19.1108125,72.592 C19.0468125,72.556 19.0168125,72.502 19.0188125,72.429 C19.0128125,72.286 18.9198125,72.194 18.8278125,72.102" id="Fill-21" fill="#FFFFFF"></path>
                    <path d="M45.4296125,76.0956 C45.3916125,75.6506 45.3776125,75.2346 45.1006125,74.8106 C44.5536125,73.9736 44.7016125,72.8946 44.3106125,72.0156 C44.1546125,71.9316 44.0026125,71.9356 43.9386125,72.0336 C43.0836125,73.3456 41.8206125,74.2196 40.5996125,75.1316 C40.2286125,75.4096 40.0266125,75.6866 40.1496125,76.1476 C39.9166125,76.1966 39.7616125,76.5096 39.4666125,76.3506 C39.3716125,76.2056 39.2496125,76.0876 39.0656125,76.1186 C38.9046125,76.1456 38.7426125,76.1926 38.5946125,76.2596 C36.2126125,77.3176 33.6006125,77.6246 31.1766125,78.5476 C30.1846125,78.9256 29.1816125,79.0376 28.2496125,78.3836 C27.8846125,78.7446 27.9646125,79.3116 27.5266125,79.5636 C27.4586125,78.9746 27.6136125,78.3956 27.9206125,77.9436 C28.1996125,77.5316 28.4306125,76.8586 29.2976125,77.3126 C29.7966125,77.5736 29.5536125,77.0626 29.4686125,76.8346 C29.4946125,76.4356 29.7056125,76.4056 30.0096125,76.5656 C30.0896125,76.5876 30.1696125,76.6106 30.2496125,76.6326 C30.6056125,76.4506 30.3766125,76.2766 30.2436125,76.1006 L30.2386125,76.0916 C30.1736125,75.9906 30.0856125,75.9066 30.0246125,75.8036 C29.9026125,75.4856 29.5656125,75.3556 29.3906125,75.0956 C29.1096125,74.6816 29.2646125,74.4346 29.7506125,74.3796 C30.6706125,74.9406 31.4856125,75.6696 32.4916125,76.0926 C34.4306125,75.9896 36.1746125,75.2616 37.8456125,74.3566 C39.2506125,73.5956 40.6046125,72.7416 41.9936125,71.9516 C42.3606125,71.7426 42.6426125,71.4436 42.9696125,71.1956 C43.5556125,70.7506 44.2236125,70.4766 44.9326125,70.7546 C45.6776125,71.0466 45.8316125,71.7846 45.9376125,72.4896 C46.0436125,73.1966 45.8206125,73.8866 45.7046125,74.5696 C45.6186125,75.0746 45.9306125,75.6686 45.4296125,76.0956" id="Fill-23" fill="#CECECE"></path>
                    <path d="M36.1950125,89.774 C36.2870125,89.764 36.3790125,89.755 36.4700125,89.745 C36.5770125,89.866 36.7320125,89.914 36.8620125,90 C37.0760125,90.152 37.2840125,90.312 37.4670125,90.502 C37.8480125,90.622 38.2050125,90.589 38.5090125,90.311 C39.2660125,89.619 40.1040125,89.017 40.6190125,88.079 C41.1130125,87.182 41.6820125,86.325 42.2450125,85.467 C42.7890125,84.638 43.3130125,83.806 43.7660125,82.918 C44.3780125,81.715 45.1110125,80.574 45.8570125,79.296 C46.1090125,80.37 46.4710125,81.292 46.4140125,82.299 C46.2170125,82.264 46.0670125,81.659 45.8180125,82.25 C45.6740125,82.591 45.5310125,82.933 45.3820125,83.272 C44.2110125,85.927 42.8610125,88.47 40.7780125,90.547 C40.6050125,90.719 40.3910125,90.848 40.1960125,90.998 C39.1960125,91.283 38.1800125,91.037 37.1740125,91.086 C36.8640125,91.063 36.5530125,91.032 36.2920125,90.836 C36.1720125,90.652 36.2060125,90.415 36.0910125,90.228 C36.0570125,90.061 36.0820125,89.907 36.1950125,89.774" id="Fill-27" fill="#C5C5C5"></path>
                    <path d="M21.5553125,70.6098 C21.9983125,71.1058 22.2893125,71.6978 22.4863125,72.3158 C22.6673125,72.8838 23.0303125,73.3148 23.3683125,73.7688 C23.5893125,74.0648 23.8943125,74.2718 24.2333125,74.4378 C24.6873125,74.6588 24.8903125,74.1588 25.1913125,74.1258 C25.9513125,74.0438 26.4513125,73.6748 26.8213125,73.0558 C27.4083125,73.2068 27.8973125,72.9048 28.5123125,72.5718 C28.4093125,73.3398 27.8903125,73.7548 27.7423125,74.3218 C27.4223125,74.7508 27.4383125,75.2868 27.2913125,75.7698 C27.2013125,76.0628 27.0953125,76.2748 26.7773125,76.3288 C26.1023125,76.2528 25.6153125,76.6988 25.0653125,76.9598 C24.7353125,77.1178 24.4703125,77.4178 24.0573125,77.3728 C23.4093125,77.1118 23.1953125,76.6638 23.4303125,76.0418 C22.6283125,76.8288 22.3103125,76.7998 21.7813125,75.8188 C20.8643125,74.1218 20.3203125,72.4028 21.5553125,70.6098" id="Fill-29" fill="#CACACA"></path>
                    <path d="M21.5553125,70.6098 C21.5493125,71.1398 21.6153125,71.6758 21.2163125,72.1328 C21.0973125,72.2688 21.0363125,72.5308 21.0713125,72.7108 C21.3343125,74.0658 21.7033125,75.3818 22.5473125,76.4658 C23.0813125,76.3458 23.0343125,75.7898 23.5603125,75.6588 C23.5173125,76.2958 23.6173125,76.8978 24.0573125,77.3728 C23.0973125,77.6638 22.3033125,77.4488 21.7433125,76.5848 C20.9763125,75.3988 19.8423125,74.4598 19.3803125,73.0698 C19.7333125,72.7168 19.4223125,72.3858 19.3323125,72.0588 C19.0763125,71.1278 19.1043125,70.2318 19.5783125,69.3718 C19.7583125,69.0998 19.9553125,68.8738 20.3143125,69.1178 L20.3133125,69.1178 C20.3903125,69.2118 20.4793125,69.2918 20.5863125,69.3508 C21.2553125,69.5038 21.5873125,69.9168 21.5553125,70.6098" id="Fill-31" fill="#C6C6C6"></path>
                    <path d="M34.7324125,74.8175 C34.4214125,74.9905 34.0884125,75.0665 33.7324125,75.0385 C33.6644125,74.9685 33.6264125,74.8835 33.6164125,74.7865 C33.5984125,74.5265 33.4474125,74.3475 33.2514125,74.1955 C32.5614125,73.6925 31.8954125,73.1685 31.4714125,72.4045 C31.3324125,72.2815 31.0794125,72.2285 31.1214125,71.9845 C31.1594125,71.7585 31.3714125,71.8275 31.5124125,71.8465 C31.9364125,71.9045 32.4034125,71.7525 32.7734125,72.0905 C33.3944125,72.3275 33.6764125,72.9315 34.1324125,73.3465 C34.3934125,73.6325 34.7394125,73.8305 34.9754125,74.1435 C35.0354125,74.2415 35.0684125,74.3465 35.0714125,74.4615 C35.0134125,74.6325 34.8824125,74.7345 34.7324125,74.8175" id="Fill-35" fill="#B4B4B4"></path>
                    <path d="M34.7324125,74.8175 C34.8204125,74.6515 34.9074125,74.4845 34.9954125,74.3185 L35.0034125,74.3255 C34.6324125,74.1245 34.2684125,73.9125 33.9884125,73.5875 C34.1254125,73.0795 33.5954125,72.9755 33.4194125,72.6565 C33.2814125,72.4065 32.8964125,72.2155 33.3004125,71.8885 C34.7184125,72.0765 35.2714125,73.3165 36.1684125,74.1635 C35.7614125,74.6495 35.2434125,74.7255 34.7324125,74.8175" id="Fill-37" fill="#AAAAAA"></path>
                    <path d="M33.7288125,74.8688 C33.7238125,74.9258 33.7248125,74.9818 33.7328125,75.0388 C33.2078125,75.5858 32.9848125,74.7888 32.5838125,74.7808 C31.8328125,74.6978 31.5068125,74.0408 31.0088125,73.6188 C30.9338125,73.5498 30.8638125,73.4728 30.7958125,73.3968 C30.7618125,73.3618 30.7298125,73.3228 30.6958125,73.2868 C30.6298125,73.2178 30.5698125,73.1408 30.5128125,73.0638 C30.4888125,73.0238 30.4668125,72.9818 30.4438125,72.9408 C30.3898125,72.8138 30.3278125,72.6918 30.1848125,72.6398 C30.0808125,72.5788 29.9298125,72.5438 29.8798125,72.4538 C29.7618125,72.2408 29.6908125,72.0008 29.7968125,71.7348 C30.5868125,71.5098 30.6928125,72.4358 31.2448125,72.6058 C31.4178125,72.6968 31.5878125,72.7918 31.7118125,72.9508 C31.8218125,73.0548 31.9388125,73.1508 32.0628125,73.2408 C32.4778125,73.5948 32.8868125,73.9538 33.3618125,74.2298 C33.5008125,74.4328 33.9538125,74.4568 33.7288125,74.8688" id="Fill-39" fill="#BFBFBF"></path>
                    <path d="M18.8437125,62.6701 C16.2757125,63.3281 16.1557125,64.9181 17.0987125,66.7471 C17.1157125,66.7811 17.1057125,66.8281 17.1087125,66.8701 C16.1817125,66.3181 15.8287125,65.3181 16.0997125,64.0151 C16.2897125,63.1021 16.8257125,62.7031 17.9917125,62.6351 C18.2747125,62.6181 18.5597125,62.6571 18.8437125,62.6701" id="Fill-41" fill="#2B2B2B"></path>
                    <path d="M32.4919125,76.0927 C31.2549125,76.3337 30.6799125,75.3707 29.9519125,74.6897 C29.8649125,74.6087 29.8169125,74.4837 29.7509125,74.3797 C29.7499125,74.2307 29.7489125,74.0817 29.7479125,73.9327 C30.6159125,73.7447 30.9729125,74.5367 31.5649125,74.8787 C31.8389125,75.1667 32.0739125,75.5087 32.5009125,75.6017 C32.4979125,75.7657 32.4949125,75.9287 32.4919125,76.0927" id="Fill-43" fill="#161616"></path>
                    <path d="M37.2489125,71.8716 C37.4819125,71.9176 37.7209125,71.9426 37.9449125,72.0146 C38.1469125,72.0786 38.6189125,72.0046 38.8669125,71.9046 C39.0409125,71.8356 39.2579125,71.8746 39.4549125,71.8656 C39.6639125,72.2096 38.8369125,72.2046 39.2069125,72.6026 C38.3319125,73.3396 38.6019125,73.3536 37.7609125,72.8196 C37.3549125,72.6306 36.4209125,72.7266 37.2489125,71.8716" id="Fill-45" fill="#A0A0A0"></path>
                    <path d="M31.0078125,73.3034 C31.4028125,73.9354 32.1988125,74.1384 32.5838125,74.7814 C32.4738125,74.8734 32.3638125,74.9664 32.2538125,75.0584 C32.0068125,75.2244 31.8198125,75.0854 31.6328125,74.9404 C31.0788125,74.3344 30.0518125,74.1604 29.9698125,73.1224 C30.0638125,73.0334 30.1588125,72.9454 30.2528125,72.8574 C30.3398125,72.7734 30.4168125,72.7774 30.4828125,72.8834 L30.4738125,72.8754 C30.5898125,72.9194 30.6628125,73.0194 30.7558125,73.0944 L30.7578125,73.0964 C30.8278125,73.1814 30.9108125,73.2504 31.0078125,73.3034" id="Fill-47" fill="#1F1F1F"></path>
                    <path d="M29.9700125,73.1221 C30.4810125,73.7781 31.1690125,74.2501 31.7520125,74.8311 C31.7890125,75.0781 31.7120125,75.2021 31.4420125,75.1151 C30.8770125,74.7211 30.3120125,74.3271 29.7480125,73.9321 C29.5640125,73.7641 29.4010125,73.5831 29.4810125,73.3071 C29.5590125,73.0371 29.7720125,73.0921 29.9700125,73.1221" id="Fill-49" fill="#9F9F9F"></path>
                    <path d="M37.4729125,73.0849 C37.5319125,73.2859 37.8659125,73.4679 37.5329125,73.6979 C37.2559125,73.8889 36.9519125,74.0519 36.6579125,73.7419 C36.3239125,73.3899 36.0159125,73.0129 35.6959125,72.6469 C35.6579125,72.3719 35.7309125,72.2099 36.0499125,72.3019 C36.1689125,72.3319 36.2889125,72.3619 36.4079125,72.3919 C36.8719125,72.4549 37.1619125,72.7859 37.4729125,73.0849" id="Fill-51" fill="#C0C0C0"></path>
                    <path d="M31.5305125,73.0156 C31.4355125,72.8786 31.3395125,72.7426 31.2445125,72.6056 C31.3205125,72.5386 31.3955125,72.4716 31.4715125,72.4046 C32.2175125,72.8806 32.8145125,73.5346 33.4815125,74.1056 C33.4815125,74.1056 33.4535125,74.1996 33.4545125,74.2006 C33.4215125,74.2596 33.3755125,74.3066 33.3185125,74.3436 C33.3185125,74.3436 33.2195125,74.3536 33.2195125,74.3536 C32.6895125,74.1026 32.2745125,73.6996 31.8495125,73.3106 C31.6765125,73.2846 31.5735125,73.1826 31.5305125,73.0156" id="Fill-53" fill="#303030"></path>
                    <path d="M33.3002125,71.888 C33.2112125,72.612 33.9542125,72.735 34.2422125,73.187 C34.4502125,73.515 34.3162125,73.608 33.9882125,73.587 C33.5562125,73.11 33.0902125,72.66 32.7732125,72.09 C32.9492125,72.023 33.1242125,71.955 33.3002125,71.888" id="Fill-55" fill="#212121"></path>
                    <path d="M37.4729125,73.0849 C36.9779125,73.0689 36.6919125,72.7319 36.4079125,72.3919 C36.7019125,72.2409 36.8029125,71.7759 37.2489125,71.8719 C37.0159125,72.0889 36.9019125,72.2979 37.2679125,72.5029 C37.4379125,72.5979 37.5969125,72.7139 37.7609125,72.8199 C37.6649125,72.9079 37.5689125,72.9969 37.4729125,73.0849" id="Fill-57" fill="#171717"></path>
                    <path d="M39.2064125,72.6028 C38.8844125,72.2198 39.2794125,72.0798 39.4554125,71.8658 C39.6004125,71.8478 39.7454125,71.8298 39.8904125,71.8118 C40.1444125,71.7598 40.4514125,71.6028 40.4394125,72.0848 C40.0364125,72.2778 39.7254125,72.6868 39.2064125,72.6028" id="Fill-59" fill="#B9B9B9"></path>
                    <path d="M31.4420125,75.1149 C31.5450125,75.0199 31.6480125,74.9259 31.7520125,74.8309 C31.9190125,74.9069 32.0860125,74.9829 32.2530125,75.0589 C32.3780125,75.2209 32.5470125,75.3619 32.5010125,75.6019 C31.9470125,75.8759 31.7610125,75.3509 31.4420125,75.1149" id="Fill-63" fill="#9C9C9C"></path>
                    <path d="M30.2432125,76.1011 C30.3762125,76.1821 30.5262125,76.2441 30.6362125,76.3481 C30.7632125,76.4691 30.9732125,76.6411 30.7382125,76.8051 C30.5732125,76.9201 30.3662125,76.8281 30.2502125,76.6331 C30.2472125,76.4551 30.2452125,76.2781 30.2432125,76.1011" id="Fill-67" fill="#2D2D2D"></path>
                    <path d="M30.0099125,76.5652 C29.8019125,76.6002 29.5249125,76.4952 29.4679125,76.8342 C29.2399125,76.7342 29.0959125,76.5572 29.0169125,76.3242 C29.1059125,76.2482 29.1909125,76.1662 29.2689125,76.0782 C29.5369125,76.2082 29.8339125,76.2952 30.0099125,76.5652" id="Fill-69" fill="#2D2D2D"></path>
                    <path d="M40.4392125,72.085 C40.3252125,71.855 40.0842125,71.881 39.8902125,71.811 C40.2492125,71.554 40.6532125,71.602 41.0822125,71.574 C40.9912125,71.98 40.6982125,72.009 40.4392125,72.085" id="Fill-71" fill="#8F8F8F"></path>
                    <path d="M36.0500125,72.3024 C35.9320125,72.4174 35.8140125,72.5324 35.6960125,72.6474 C35.4840125,72.5464 35.1330125,72.4104 35.3010125,72.1794 C35.4650125,71.9544 35.8250125,72.0694 36.0500125,72.3024" id="Fill-77" fill="#A0A0A0"></path>
                    <path d="M19.1109125,72.5921 C19.2649125,72.6261 19.3309125,72.7191 19.3019125,72.8761 C19.1659125,72.8301 19.0939125,72.7411 19.1109125,72.5921" id="Fill-81" fill="#C6C6C6"></path>
                    <path d="M18.8278125,72.102 C18.9668125,72.167 19.0518125,72.263 19.0188125,72.429 C18.8588125,72.376 18.8128125,72.257 18.8278125,72.102" id="Fill-83" fill="#C6C6C6"></path>
                    <path d="M30.4824125,72.8838 C30.4064125,72.8738 30.3294125,72.8648 30.2524125,72.8568 C30.2204125,72.7878 30.1974125,72.7158 30.1854125,72.6398 C30.3394125,72.6538 30.4334125,72.7418 30.4824125,72.8838" id="Fill-85" fill="#9F9F9F"></path>
                    <path d="M26.8214125,73.0556 C26.6474125,73.0846 26.5594125,72.9996 26.5334125,72.8356 C26.6794125,72.8436 26.7994125,72.8856 26.8214125,73.0556" id="Fill-87" fill="#CACACA"></path>
                    <path d="M19.3824125,62.4454 C19.3304125,62.6014 19.2244125,62.6624 19.0634125,62.6274 C19.1314125,62.4984 19.2294125,62.4234 19.3824125,62.4454" id="Fill-89" fill="#2B2B2B"></path>
                    <path d="M30.0244125,75.8034 C30.1664125,75.8464 30.2524125,75.9324 30.2384125,76.0914 C30.0994125,76.0454 30.0264125,75.9504 30.0244125,75.8034" id="Fill-91" fill="#2D2D2D"></path>
                    <path d="M29.2690125,76.0783 C29.2560125,76.2333 29.1680125,76.3113 29.0170125,76.3243 C28.9910125,76.1303 29.0630125,76.0353 29.2690125,76.0783" id="Fill-93" fill="#9F9F9F"></path>
                    <path d="M41.3528125,10.0402 C39.3298125,10.4792 37.7128125,11.4782 36.0608125,12.3712 C35.1948125,12.8402 34.4068125,13.4622 33.6158125,14.0572 C32.3048125,15.0432 30.9968125,14.7252 30.0698125,13.0682 C29.2688125,11.6362 28.8688125,10.0012 27.9178125,8.6302 C27.6058125,8.1792 27.6148125,7.6772 28.0438125,7.2792 C28.3798125,6.9682 29.0358125,7.1142 29.4388125,7.6732 C29.9198125,8.3412 30.3228125,9.0682 30.7208125,9.7902 C31.1168125,10.5122 31.4798125,11.2532 31.8288125,11.9992 C32.0288125,12.4282 32.2068125,12.4872 32.6748125,12.2632 C33.7898125,11.7312 34.7538125,10.9422 35.9178125,10.4882 C37.6028125,9.8302 39.2308125,9.0342 41.0378125,8.7102 C42.5758125,8.4342 42.9348125,8.6902 42.5748125,10.1512 C42.0568125,12.2512 41.8268125,14.3612 41.8898125,16.5262 C41.9128125,17.2872 41.6098125,18.0592 41.4448125,18.8232 C41.3868125,19.0892 41.2028125,19.2772 40.9308125,19.2812632 C40.6148125,19.2852 40.3418125,19.0992 40.2908125,18.7952 C40.0438125,17.3012 39.5548125,15.8302 39.9548125,14.2792 C40.3138125,12.8852 40.8468125,11.5532 41.3528125,10.0402" id="Fill-97" fill="#010101"></path>
                    <path d="M21.6613125,15.2245 C21.7433125,14.3415 21.8643125,13.5675 22.1723125,12.8395 C22.7263125,11.5255 23.2553125,10.1975 24.2543125,9.1285 C24.5173125,8.8475 24.7973125,8.6155 25.1803125,8.5545 C25.4883125,8.5045 25.8253125,8.3185 26.0873125,8.6705 C26.3063125,8.9635 26.3003125,9.2845 26.2053125,9.6155 C26.1823125,9.6945 26.1573125,9.7785 26.1093125,9.8425 C24.9393125,11.4185 24.3893125,13.2905 23.6103125,15.0525 C23.5273125,15.2405 23.4143125,15.4145 23.3203125,15.5965 C23.0953125,16.0335 22.7413125,16.3705 22.2523125,16.2465 C21.7273125,16.1135 21.7283125,15.5705 21.6613125,15.2245" id="Fill-99" fill="#030303"></path>
                    <path d="M41.0073125,38.3266 C40.9953125,38.9596 40.7813125,39.5346 40.5213125,40.0926 C40.2783125,40.6176 39.9163125,40.9856 39.2743125,40.7886 C38.7153125,40.6176 38.3913125,40.2926 38.4033125,39.6306 C38.4173125,38.8816 38.6063125,38.1736 38.7403125,37.4506 C38.8493125,36.8606 39.2063125,36.4956 39.7723125,36.3706 C40.1483125,36.2886 40.7973125,36.9166 40.9313125,37.4746 C40.9963125,37.7486 40.9843125,38.0416 41.0073125,38.3266" id="Fill-101" fill="#040404"></path>
                    <path d="M18.9235125,34.9817 C19.0305125,35.4507 18.9295125,35.9417 18.8015125,36.4077 C18.6055125,37.1207 18.1015125,37.4287 17.4375125,37.3447 C16.5415125,37.2297 16.3705125,36.9867 16.3665125,36.0547 C16.3625125,35.2087 16.7595125,34.5797 17.2975125,33.9897 C17.5995125,33.6577 17.9585125,33.4517 18.3805125,33.6207 C18.8395125,33.8037 19.0665125,34.1857 18.9555125,34.7097 C18.9385125,34.7897 18.9355125,34.8727 18.9235125,34.9817" id="Fill-103" fill="#070707"></path>
                    <path d="M27.7322125,54.4818 C26.3332125,54.1478 25.0412125,53.4508 23.5972125,53.2708 C23.5172125,53.2608 23.4322125,53.2328 23.3652125,53.1888 C23.0562125,52.9858 22.6792125,52.7918 22.9082125,52.3248 C23.0972125,51.9408 23.4272125,52.0178 23.7632125,52.1308 C25.1682125,52.6038 26.5592125,53.1018 27.7542125,54.0178 C27.8542125,54.0628 27.9472125,54.1208 28.0332125,54.1898 L28.0322125,54.1888 C28.0722125,54.4308 28.0122125,54.5688 27.7322125,54.4818" id="Fill-105" fill="#0E0E0E"></path>
                    <path d="M27.7322125,54.4818 C27.8562125,54.4088 28.0012125,54.3568 28.0322125,54.1888 C28.2102125,54.1718 28.3352125,54.2728 28.4582125,54.3798 C28.5832125,54.4878 28.6852125,54.6048 28.6402125,54.8478 C28.2542125,54.9608 27.9962125,54.7108 27.7322125,54.4818" id="Fill-107" fill="#4F4F4F"></path>
                    <path d="M28.0333125,54.1895 C27.8873125,54.2175 27.7913125,54.1665 27.7543125,54.0175 C27.9013125,53.9875 27.9813125,54.0655 28.0333125,54.1895" id="Fill-109" fill="#4F4F4F"></path>
                    <path d="M36.2791125,90.4933 C36.3931125,90.7673 36.6481125,90.7483 36.8781125,90.7803 C37.1621125,90.9883 37.1861125,91.2443 36.9601125,91.4913 C36.6541125,91.8253 36.3051125,91.6663 35.9691125,91.5263 C34.1911125,90.9653 32.8751125,89.7253 31.5391125,88.5143 C31.4491125,88.4323 31.3601125,88.3393 31.2981125,88.2353 C30.9231125,87.6103 31.0311125,85.5313 31.5161125,84.9743 C33.4411125,82.7593 35.2161125,80.4033 37.4941125,78.5173 C37.9371125,78.1503 38.1691125,77.5693 38.7341125,77.3363 C39.0751125,77.1443 39.2811125,77.1843 39.2441125,77.6363 C38.2091125,79.2343 36.9081125,80.6213 35.7161125,82.0963 C34.7331125,83.3133 33.7401125,84.5243 32.7621125,85.7463 C32.6101125,85.9363 32.4981125,86.1633 32.3911125,86.3843 C31.9661125,87.2613 31.9411125,87.3713 32.6441125,87.9833 C33.6671125,88.8743 34.6981125,89.8013 36.1951125,89.7743 C36.2221125,89.9373 36.2501125,90.1003 36.2771125,90.2633 C36.3281125,90.3393 36.3291125,90.4163 36.2791125,90.4933" id="Fill-111" fill="#030303"></path>
                    <path d="M39.2436125,77.6359 C39.1566125,77.3959 38.9506125,77.3569 38.7336125,77.3359 C38.9696125,77.0819 39.2046125,76.8269 39.4396125,76.5719 C39.7286125,76.5399 39.8676125,76.6339 39.7546125,76.9429 C39.7216125,77.2749 39.5496125,77.5039 39.2436125,77.6359" id="Fill-117" fill="#2A2A2A"></path>
                    <path d="M39.7541125,76.9424 C39.6941125,76.7814 39.6011125,76.6474 39.4401125,76.5724 C39.4361125,76.4964 39.4461125,76.4224 39.4671125,76.3504 C39.6861125,76.2534 39.8661125,76.0284 40.1491125,76.1474 C40.0061125,76.4064 40.0411125,76.7544 39.7541125,76.9424" id="Fill-119" fill="#363636"></path>
                    <path d="M20.3139125,69.1175 C20.0369125,69.1115 19.8129125,69.2585 19.5779125,69.3725 C19.6659125,68.8325 19.8989125,68.7115 20.3139125,69.1175" id="Fill-123" fill="#D6D6D6"></path>
                    <path d="M20.5867125,69.3507 C20.4957125,69.2727 20.4047125,69.1947 20.3127125,69.1177 C20.4047125,69.1947 20.4957125,69.2727 20.5867125,69.3507" id="Fill-125" fill="#D6D6D6"></path>
                    <path d="M33.7288125,74.8688 C33.6948125,74.5628 33.2998125,74.6138 33.2188125,74.3538 C33.2618125,74.3448 33.2998125,74.3258 33.3328125,74.2968 C33.3658125,74.2638 33.3988125,74.2318 33.4328125,74.1988 L33.4818125,74.1048 C33.6248125,74.3398 34.2668125,74.4138 33.7288125,74.8688" id="Fill-129" fill="#191919"></path>
                    <path d="M35.0037125,74.3258 C35.0297125,74.2678 35.0547125,74.2088 35.0807125,74.1508 C35.2387125,74.3018 35.0737125,74.2878 34.9957125,74.3178 C34.9957125,74.3178 35.0037125,74.3258 35.0037125,74.3258" id="Fill-131" fill="#4A4A4A"></path>
                    <path d="M31.5305125,73.0156 C31.6365125,73.1136 31.7435125,73.2116 31.8495125,73.3106 C31.6755125,73.2856 31.5685125,73.1886 31.5305125,73.0156" id="Fill-133" fill="#B4B4B4"></path>
                    <path d="M31.0078125,73.3034 C30.9248125,73.2344 30.8408125,73.1654 30.7578125,73.0964 C30.8888125,73.1074 30.9718125,73.1774 31.0078125,73.3034" id="Fill-135" fill="#9F9F9F"></path>
                    <path d="M30.7554125,73.0946 C30.6104125,73.0876 30.5184125,73.0116 30.4734125,72.8756 C30.5674125,72.9486 30.6614125,73.0216 30.7554125,73.0946" id="Fill-137" fill="#9F9F9F"></path>
                    <path d="M33.4327125,74.1989 C33.4177125,74.2509 33.3847125,74.2839 33.3327125,74.2969 C33.3327125,74.2959 33.3427125,74.2079 33.3427125,74.2079 L33.4327125,74.1989 Z" id="Fill-139" fill="#020202"></path>
                </g>
            </g>
        </g>
    </g>
</svg>