<?xml version="1.0" encoding="UTF-8"?>
<svg width="100px" height="100px" viewBox="0 0 100 100" version="1.1" xmlns="http://www.w3.org/2000/svg" xmlns:xlink="http://www.w3.org/1999/xlink">
    <title>medi-06</title>
    <defs>
        <path d="M0,49.9998195 C0,77.6145319 22.3858696,100 50,100 L50,100 C77.6141304,100 100,77.6145319 100,49.9998195 L100,49.9998195 C100,22.3858291 77.6141304,0 50,0 L50,0 C22.3858696,0 0,22.3858291 0,49.9998195 L0,49.9998195 Z" id="path-1"></path>
        <polygon id="path-3" points="0 0 67.144 0 67.144 104.522486 0 104.522486"></polygon>
    </defs>
    <g id="Page-1" stroke="none" stroke-width="1" fill="none" fill-rule="evenodd">
        <g id="Group-59">
            <mask id="mask-2" fill="white">
                <use xlink:href="#path-1"></use>
            </mask>
            <g id="Clip-2"></g>
            <polygon id="Fill-1" fill="#7BEDBB" mask="url(#mask-2)" points="-43.4782609 142.028886 157.971014 142.028886 157.971014 -9.41993148 -43.4782609 -9.41993148"></polygon>
            <g id="Group-90" mask="url(#mask-2)">
                <g transform="translate(16.000000, 19.000000)">
                    <g id="Group-3" stroke-width="1" fill="none">
                        <mask id="mask-4" fill="white">
                            <use xlink:href="#path-3"></use>
                        </mask>
                        <g id="Clip-2"></g>
                        <path d="M25.8364,67.5283858 C23.3114,66.6103858 20.7604,65.7823858 18.3584,64.5263858 C14.3004,62.4033858 10.7314,59.7333858 7.8634,56.1223858 C5.8634,53.6043858 4.1744,50.9303858 2.8734,47.9833858 C1.2354,44.2723858 0.3634,40.4203858 0.0894,36.3743858 C-0.0616,34.1403858 -0.0336,31.9113858 0.2674,29.7363858 C0.8404,25.5983858 2.0384,21.6303858 4.1174,17.9353858 C5.7024,15.1183858 7.5544,12.5273858 9.8064,10.2323858 C11.0784,8.93738577 12.4824,7.78638577 13.9914,6.73838577 C15.6894,5.55838577 17.4164,4.48038577 19.2864,3.59338577 C21.3774,2.60138577 23.5384,1.85538577 25.7804,1.31538577 C26.2344,1.20638577 26.7004,1.13038577 27.0764,0.805385771 C27.3544,0.565385771 27.7074,0.535385771 28.0624,0.491385771 C30.4644,0.198385771 32.8564,-0.118614229 35.2934,0.0443857711 C37.6314,0.200385771 39.9264,0.546385771 42.1994,1.11538577 C43.9014,1.54038577 45.5834,2.05838577 47.1264,2.85738577 C49.2864,3.97538577 51.4484,5.08438577 53.4134,6.59138577 C55.0934,7.88038577 56.6454,9.28738577 58.0784,10.8013858 C59.9704,12.8003858 61.6184,15.0133858 62.8994,17.4813858 C63.9944,19.5923858 65.0104,21.7293858 65.6744,24.0223858 C66.5134,26.9223858 67.0164,29.8673858 67.1234,32.8943858 C67.2384,36.1953858 66.8704,39.4353858 66.1084,42.6303858 C65.5734,44.8723858 64.7444,47.0203858 63.7434,49.0983858 C62.6744,51.3173858 61.3334,53.3773858 59.8864,55.3583858 C58.9914,56.5823858 57.8744,57.6263858 56.7814,58.6883858 C55.6844,59.7533858 54.5554,60.7643858 53.3244,61.6623858 C51.5254,62.9763858 49.6474,64.1543858 47.6224,65.0993858 C46.7344,65.5143858 45.8064,65.7883858 44.8794,66.0793858 C44.2164,66.2883858 43.5554,66.5023858 42.6664,66.7873858 C43.9684,67.5383858 45.0064,68.1803858 46.3554,68.2063858 C49.4994,68.2643858 52.5754,67.8773858 55.6284,67.1393858 C56.5294,66.9223858 57.4524,66.4673858 58.4574,67.0303858 C59.0584,67.3673858 59.4904,67.7653858 59.5694,68.4133858 C59.7914,70.2373858 59.6824,72.0093858 58.4394,73.5173858 C57.7244,74.3853858 57.0524,75.2953858 56.2714,76.0983858 C55.7434,76.6403858 54.9394,76.5953858 54.2574,76.4853858 C53.2894,76.3293858 52.3214,76.2383858 51.3474,76.1713858 C49.6694,76.0563858 48.2454,75.2163858 46.7524,74.5773858 C46.0864,74.2923858 45.4774,73.8703858 44.7394,73.7333858 C44.5104,75.0953858 45.0744,76.3143858 45.2324,77.5853858 C45.3774,78.7473858 45.4764,79.9163858 45.6264,81.0733858 C45.8674,82.9343858 45.9734,84.7863858 45.8864,86.6543858 C45.8694,87.0163858 45.9884,87.2703858 46.3954,87.2923858 C46.8214,87.3163858 47.1604,87.5403858 47.3694,87.8733858 C47.9494,88.7963858 48.6654,89.6453858 49.0584,90.6723858 C49.2934,91.2863858 49.4724,91.9263858 49.4284,92.6153858 C49.3924,93.1943858 49.3344,93.7863858 49.5724,94.3573858 C49.6784,94.6103858 49.7044,94.9153858 49.3814,95.0663858 C49.0954,95.2003858 48.8564,95.0813858 48.6444,94.8693858 C48.2664,94.4933858 47.8794,94.1263858 47.5024,93.7603858 C47.3814,93.8733858 47.2924,93.9163858 47.2814,93.9733858 C46.9994,95.4213858 46.0404,96.3033858 44.8834,97.1233858 C43.5984,98.0343858 41.7714,97.8353858 40.6674,96.5943858 C39.2604,95.0113858 38.4804,93.1073858 37.7534,91.0893858 C36.5994,91.1903858 35.4114,91.3223858 34.2554,91.3063858 C33.8264,94.9613858 34.6424,98.5183858 34.5764,102.104386 C34.5264,104.787386 34.3384,104.220386 32.4604,104.269386 C30.1554,104.329386 27.8574,104.594386 25.5484,104.504386 C25.1024,104.486386 24.5564,104.652386 24.4234,103.974386 C24.3104,103.402386 24.5734,103.078386 25.1284,102.969386 C25.5514,102.886386 25.5264,102.566386 25.5274,102.247386 C25.5344,100.252386 25.6584,98.2683858 26.0244,96.3023858 C26.2964,94.8443858 26.5524,93.3873858 27.0504,91.9823858 C27.1344,91.7453858 27.2964,91.4833858 27.1274,91.2093858 C26.8434,91.0323858 26.5954,91.2593858 26.3334,91.2643858 C25.6534,91.2783858 24.9984,91.2673858 24.6704,90.4873858 C24.4884,90.0553858 24.0104,89.8413858 23.8124,89.3873858 C23.4624,88.5883858 23.2914,87.8153858 23.3564,86.9053858 C23.5054,84.8383858 23.4744,82.7593858 23.5174,80.6843858 C23.5254,80.3333858 23.5864,79.9973858 23.6764,79.6503858 C24.0624,78.1553858 24.1544,76.5883858 24.8174,75.1583858 C24.9254,74.9243858 24.8874,74.6233858 24.9174,74.3523858 C25.1534,73.8913858 24.7004,73.4433858 24.8864,72.9823858 C25.1914,71.6273858 25.7954,70.4053858 26.5574,69.2553858 C26.6134,69.1633858 26.6774,69.0753858 26.7424,68.9893858 C26.8044,68.5443858 27.5044,67.9343858 26.4204,67.7983858 C26.1944,67.7733858 25.9884,67.7083858 25.8364,67.5283858" id="Fill-1" fill="#000000" mask="url(#mask-4)"></path>
                    </g>
                    <path d="M25.1319,72.9512858 C25.0579,73.4182858 25.3079,73.9342858 24.9179,74.3522858 C24.8299,74.2342858 24.8769,73.8432858 24.5979,74.0872858 C23.3079,75.2142858 21.7729,75.9132858 20.2179,76.5342858 C18.8999,77.0602858 17.6189,77.7652858 16.1339,77.7882858 C15.1599,77.8032858 14.2079,77.7622858 13.3749,77.1702858 C13.4799,76.9712858 13.6339,76.7612858 13.1929,76.8802858 C13.0039,76.9322858 12.8129,76.8422858 12.6729,76.6852858 C11.2229,74.6562858 10.8479,72.4052858 11.4999,70.0362858 C11.7069,69.2832858 12.3019,68.6342858 12.7369,67.9482858 C12.9359,67.6352858 13.2809,67.7072858 13.5869,67.6932858 C14.7779,67.6402858 15.8729,68.1252858 17.0189,68.3272858 C17.5139,68.4142858 18.0099,68.5252858 18.5099,68.5502858 C20.7159,68.6612858 22.9239,68.8492858 25.1219,68.4462858 C25.5569,68.2552858 25.9459,67.9522858 26.4389,67.9072858 C26.6049,67.9382858 26.8089,67.7762858 26.9399,68.0012858 C26.8869,67.7382858 26.6239,67.9472858 26.5139,67.8112858 C26.4569,67.7182858 26.4589,67.6272858 26.5189,67.5382858 C27.3319,67.5962858 27.3119,67.5922858 27.1849,68.4372858 C27.1469,68.6912858 27.3209,68.9792858 27.0309,69.1822858 C26.6529,68.8342858 26.4869,69.3402858 26.2059,69.3902858 C25.1229,69.8972858 23.9769,69.9962858 22.8019,69.9782858 C21.2149,69.9532858 19.6269,69.9802858 18.0409,69.9692858 C16.8819,69.8632858 15.7479,69.6122858 14.6459,69.2522858 C13.7849,68.9712858 13.3059,69.2262858 13.1199,70.0912858 C12.7999,71.1482858 12.9199,72.1712858 13.3539,73.1702858 C13.6019,73.7422858 13.9069,74.2882858 14.1659,74.8562858 C14.8879,76.4362858 15.0779,76.5592858 16.7399,76.2112858 C19.2039,75.6962858 21.4969,74.7452858 23.6439,73.4302858 C24.0919,73.1552858 24.5159,72.7332858 25.1319,72.9512858" id="Fill-4" fill="#020202"></path>
                    <path d="M38.7818,65.8653858 C35.9658,66.5323858 33.1138,66.4883858 30.2638,66.2253858 C29.0238,66.1113858 27.7858,65.8813858 26.5708,65.6033858 C24.4018,65.1063858 22.3088,64.3663858 20.2828,63.4363858 C19.0538,62.8723858 17.8698,62.2053858 16.7088,61.5323858 C15.3678,60.7553858 14.1128,59.7703858 12.9858,58.7003858 C12.0898,57.8493858 11.1668,57.0113858 10.3268,56.0863858 C9.1958,54.8413858 8.1868,53.5073858 7.2518,52.1273858 C4.8468,48.5763858 3.3308,44.6443858 2.4588,40.4503858 C1.8338,37.4423858 1.7178,34.4253858 2.0108,31.3693858 C2.2878,28.4903858 2.8198,25.6943858 3.8708,22.9783858 C4.5458,21.2323858 5.3248,19.5633858 6.2248,17.9233858 C7.1898,16.1633858 8.3188,14.5363858 9.5988,13.0103858 C12.3098,9.78238577 15.5538,7.17838577 19.2428,5.16338577 C21.4968,3.93238577 23.8988,2.99238577 26.4058,2.41138577 C27.1998,2.22738577 28.0608,2.35538577 28.9008,2.21538577 C34.0408,1.35838577 39.0918,1.85938577 44.0198,3.47438577 C46.3828,4.24838577 48.5928,5.37938577 50.7278,6.68738577 C53.4528,8.35738577 55.7898,10.4593858 57.8938,12.8143858 C59.3228,14.4123858 60.5298,16.2063858 61.5698,18.0943858 C61.7188,18.3643858 61.7848,18.6793858 61.8888,18.9743858 C62.6238,21.4663858 63.0248,24.0133858 63.1038,26.6083858 C63.1528,28.2123858 63.0438,29.8173858 63.3038,31.4193858 C63.5098,32.6903858 63.0128,33.9023858 62.7318,35.1163858 C60.6538,44.0733858 56.5278,51.9973858 50.6148,59.0133858 C50.0208,59.7183858 49.2338,60.1753858 48.4948,60.6803858 C45.4488,62.7623858 42.2788,64.6233858 38.7818,65.8653858" id="Fill-6" fill="#FFFFFF"></path>
                    <path d="M42.0937,67.7570858 C43.0147,68.3850858 43.8457,69.1410858 45.0537,69.2650858 C47.4497,69.5100858 49.8397,69.6190858 52.2357,69.3140858 C53.2377,69.1860858 54.2397,69.0570858 55.2407,68.9280858 C55.5707,68.8030858 55.8957,68.7360858 56.2807,69.0350858 C55.4377,70.0560858 54.9477,71.2470858 54.3597,72.3840858 C53.9447,73.1870858 53.3327,73.4700858 52.4297,73.3520858 C49.4367,72.9620858 46.4747,72.4040858 43.5287,71.7530858 C43.2727,71.2280858 43.0107,70.7060858 42.7637,70.1780858 C42.6707,69.9780858 42.5397,69.8640858 42.3187,69.8820858 C42.0887,69.9000858 41.9937,70.0810858 41.9187,70.2610858 C41.7737,70.6090858 41.8377,70.9510858 41.9837,71.2840858 C42.1397,71.6420858 42.2727,72.0110858 42.4517,72.3570858 C43.1747,73.7520858 43.6657,75.1990858 43.8577,76.7820858 C44.1647,79.3030858 44.6317,81.8040858 44.6897,84.3520858 C44.7147,85.4060858 44.7247,86.4650858 44.4687,87.4930858 C44.1717,88.6820858 43.3737,89.3380858 42.1687,89.4680858 C41.8737,89.4990858 41.4197,89.3950858 41.4307,89.8010858 C41.4417,90.2200858 41.9227,90.0390858 42.2007,90.1140858 C42.2387,90.1240858 42.2757,90.1370858 42.3127,90.1480858 C42.8417,90.3760858 42.7927,90.9020858 42.9317,91.3340858 C43.3537,92.6530858 44.4677,92.9660858 45.5287,92.0720858 C46.0937,91.5960858 46.7207,91.2340858 47.4557,91.0850858 C47.7317,91.4220858 47.8407,91.8350858 47.9827,92.2330858 C48.0437,92.4910858 47.9187,92.5660858 47.6857,92.5350858 C47.1167,92.3840858 46.8167,92.7200858 46.5637,93.1500858 C46.1287,93.8940858 45.5807,94.5370858 44.9297,95.1110858 C43.8117,96.0950858 41.9267,96.2430858 40.8077,94.5470858 C40.5167,94.1070858 40.1607,93.7270858 39.7417,93.3630858 C39.0447,92.7550858 38.5867,91.8600858 38.5847,90.8990858 C38.5847,90.3390858 38.3557,90.2200858 37.9327,90.1690858 C37.7007,90.1420858 37.4407,90.0770858 37.2357,90.1500858 C36.1327,90.5410858 34.9897,90.2570858 33.8737,90.3870858 C32.7597,90.5550858 31.8577,89.9260858 30.8757,89.5940858 C30.2387,89.3780858 29.4727,88.7050858 28.9537,89.3640858 C28.4637,89.9850858 29.2807,90.5950858 29.6827,91.0270858 C30.6797,92.1000858 30.7517,93.3910858 30.8507,94.7120858 C31.0297,97.1080858 30.6207,99.4590858 30.3537,101.823086 C30.2257,102.956086 29.3017,102.617086 28.6567,102.804086 C27.0647,102.895086 27.1017,102.895086 27.0677,101.320086 C27.0177,98.9630858 27.3157,96.6450858 27.6487,94.3200858 C27.7867,93.3570858 27.9137,92.3940858 28.1217,91.4440858 C28.2167,91.0090858 28.2227,90.6400858 27.6497,90.6070858 C27.4337,90.5950858 27.2697,90.5420858 27.1787,90.3410858 C26.8857,89.6860858 26.3387,89.2200858 25.9327,88.6500858 C25.5707,88.1430858 25.3647,87.5890858 25.3707,86.9140858 C25.3867,84.8110858 25.1067,82.7020858 25.2947,80.6060858 C25.4607,78.7510858 25.5717,76.8740858 26.1097,75.0670858 C26.3527,74.1020858 26.8207,73.5470858 27.9167,74.0110858 C28.1597,74.1140858 28.4697,74.0790858 28.7267,73.9960858 C31.5367,73.0830858 34.5247,72.7100858 37.1937,71.3980858 C38.6517,70.6810858 39.9427,69.6370858 41.0107,68.3640858 C41.2867,68.0350858 41.4587,67.4670858 42.0937,67.7570858" id="Fill-8" fill="#FFFFFF"></path>
                    <path d="M38.7818,65.8653858 C39.4938,65.3003858 40.3438,64.9843858 41.1448,64.5843858 C43.8428,63.2353858 46.4458,61.7413858 48.9338,60.0233858 C50.2718,59.0993858 51.1168,57.8083858 52.1078,56.6163858 C55.1878,52.9123858 57.3998,48.6803858 59.4228,44.3493858 C60.4498,42.1513858 61.1468,39.8183858 61.7878,37.4793858 C62.1798,36.0503858 62.4668,34.5913858 62.8508,33.1593858 C63.0688,32.3413858 63.0838,31.5463858 62.8988,30.7283858 C62.6968,29.8383858 62.7798,28.9293858 62.8198,28.0343858 C62.9368,25.3933858 62.3998,22.8283858 61.9768,20.2513858 C61.9068,19.8213858 61.8408,19.4053858 61.8888,18.9743858 C62.7248,19.7993858 63.0068,20.9463858 63.4048,21.9653858 C64.1668,23.9173858 64.8378,25.9463858 65.1898,28.0043858 C65.5408,30.0523858 65.6738,32.1583858 65.6308,34.2643858 C65.5558,37.9623858 64.9128,41.5213858 63.6608,45.0193858 C62.4098,48.5173858 60.6018,51.6563858 58.2968,54.5293858 C55.6328,57.8513858 52.4098,60.5073858 48.6678,62.5523858 C46.0518,63.9823858 43.2818,64.9633858 40.3968,65.6673858 C39.8588,65.7983858 39.3308,65.8833858 38.7818,65.8653858" id="Fill-10" fill="#D0D0D0"></path>
                    <path d="M43.5285,71.7528858 C43.8375,71.5448858 44.1615,71.4898858 44.5305,71.5868858 C47.1995,72.2908858 49.9275,72.6648858 52.6505,73.0738858 C53.2995,73.1718858 53.7075,73.0138858 53.9865,72.4488858 C54.3835,71.6438858 54.7815,70.8388858 55.1785,70.0328858 C55.3665,69.6518858 55.5295,69.2508858 55.9945,69.0728858 C55.7575,68.8558858 55.4695,69.0398858 55.2405,68.9288858 C56.1005,68.7078858 56.9605,68.4858858 57.8205,68.2658858 C58.1585,68.1788858 58.2535,68.4018858 58.2275,68.6518858 C58.1065,69.8018858 58.1795,70.9918858 57.2865,71.9488858 C56.4575,72.8368858 55.9455,73.9578858 55.3025,74.9798858 C55.0755,75.3408858 54.8815,75.3798858 54.5685,75.2878858 C53.4715,74.9678858 52.3315,74.9738858 51.2125,74.8208858 C49.0625,74.5268858 47.0765,73.7148858 45.1715,72.7288858 C44.6155,72.4408858 43.8525,72.4438858 43.5285,71.7528858" id="Fill-14" fill="#D0D0D0"></path>
                    <path d="M25.1319,72.9512858 C24.5429,73.0882858 24.1149,73.5082858 23.6179,73.8072858 C21.2959,75.2002858 18.8059,76.1542858 16.1449,76.6592858 C15.6859,76.7462858 15.2459,76.8382858 14.7989,76.5342858 C14.3789,76.2492858 14.2379,75.8972858 14.1069,75.4132858 C13.9279,74.7532858 13.4999,74.1632858 13.1899,73.5372858 C12.6379,72.4252858 12.4309,71.2762858 12.8559,70.0692858 C13.3469,70.3662858 13.4069,70.9022858 13.5619,71.3772858 C13.7189,71.8622858 13.8229,72.3632858 14.0219,72.8352858 C14.8419,74.7802858 15.3889,74.9982858 17.2859,74.2092858 C18.4449,73.7272858 19.6009,73.2392858 20.7609,72.7602858 C21.9059,72.2882858 22.6309,71.4092858 23.2919,70.2622858 C21.8039,70.1132858 20.4429,70.2402858 19.0899,70.1732858 C18.6319,70.1512858 18.0339,70.3702858 17.8279,69.6712858 C19.7239,69.6492858 21.6199,69.7062858 23.5179,69.6382858 C24.5919,69.5992858 25.5809,69.3672858 26.5469,68.9452858 C26.7999,68.8902858 26.8979,68.9862858 26.8329,69.2402858 C26.1619,70.4292858 25.5669,71.6542858 25.1319,72.9512858" id="Fill-16" fill="#CFCFCF"></path>
                    <path d="M42.0937,67.7570858 C41.8517,67.7990858 41.6657,67.9020858 41.5347,68.1300858 C40.6627,69.6480858 39.0727,70.3680858 37.8197,71.4630858 C37.4797,71.7600858 37.0427,71.8250858 36.6417,71.9660858 C35.7577,72.2770858 34.8457,72.5110858 34.0137,72.9600858 C33.8767,73.0340858 33.7247,73.1320858 33.5807,73.1320858 C32.0177,73.1340858 30.6177,73.7840858 29.1657,74.2250858 C28.3547,74.4710858 27.5687,74.4470858 26.8657,74.0020858 C26.4447,74.2970858 26.6097,74.9100858 26.1097,75.0670858 C26.0547,74.7870858 26.1897,74.5380858 26.2307,74.2740858 C26.3037,73.8100858 26.6787,73.5640858 26.8927,73.2060858 C27.2627,72.5870858 27.6397,73.4790858 28.0277,73.1290858 C28.1017,72.8010858 27.8227,72.5420858 27.7207,72.2320858 C27.7207,72.2320858 27.6997,72.2500858 27.6997,72.2500858 C28.0047,72.3390858 28.3097,72.4270858 28.6147,72.5160858 C28.8427,72.5680858 29.0017,72.5480858 28.8897,72.2490858 C28.5787,71.8690858 28.2877,71.4780858 27.9217,71.1400858 C27.4987,70.7490858 27.6717,70.4930858 28.1827,70.3890858 C29.0537,70.9220858 29.8257,71.6100858 30.7787,72.0120858 C32.6137,71.9070858 34.2747,71.2350858 35.8527,70.3630858 C37.4527,69.4800858 39.0137,68.5250858 40.5757,67.5770858 C41.1557,67.2250858 41.6547,67.1330858 42.0937,67.7570858" id="Fill-18" fill="#CECECE"></path>
                    <path d="M32.8998,70.8042858 C32.6048,70.9652858 32.2898,71.0402858 31.9528,71.0142858 C31.8878,70.9472858 31.8528,70.8662858 31.8428,70.7752858 C31.8258,70.5292858 31.6828,70.3592858 31.4978,70.2152858 C30.8438,69.7402858 30.2138,69.2422858 29.8108,68.5212858 C29.6798,68.4032858 29.4408,68.3532858 29.4788,68.1222858 C29.5138,67.9072858 29.7158,67.9742858 29.8488,67.9912858 C30.2518,68.0452858 30.6938,67.9052858 31.0458,68.2212858 C31.6328,68.4472858 31.8998,69.0182858 32.3318,69.4112858 C32.5778,69.6822858 32.9058,69.8692858 33.1298,70.1662858 C33.1878,70.2582858 33.2168,70.3592858 33.2208,70.4672858 C33.1658,70.6292858 33.0418,70.7252858 32.8998,70.8042858" id="Fill-22" fill="#B3B3B3"></path>
                    <path d="M32.8998,70.8042858 C32.9828,70.6462858 33.0658,70.4892858 33.1488,70.3312858 L33.1568,70.3392858 C32.8048,70.1482858 32.4608,69.9472858 32.1948,69.6392858 C32.3258,69.1592858 31.8238,69.0602858 31.6568,68.7582858 C31.5258,68.5212858 31.1618,68.3402858 31.5438,68.0302858 C32.8878,68.2072858 33.4078,69.3862858 34.2608,70.1842858 C33.8738,70.6452858 33.3838,70.7172858 32.8998,70.8042858" id="Fill-24" fill="#AAAAAA"></path>
                    <path d="M31.9494,70.8528858 C31.9444,70.9068858 31.9454,70.9608858 31.9524,71.0138858 C31.4564,71.5308858 31.2444,70.7768858 30.8654,70.7698858 C30.1544,70.6918858 29.8464,70.0688858 29.3734,69.6698858 C29.3024,69.6038858 29.2364,69.5318858 29.1714,69.4598858 C29.1404,69.4258858 29.1094,69.3888858 29.0774,69.3548858 C29.0154,69.2888858 28.9574,69.2168858 28.9044,69.1438858 C28.8824,69.1058858 28.8604,69.0658858 28.8394,69.0278858 C28.7884,68.9068858 28.7294,68.7918858 28.5944,68.7418858 C28.1334,68.6108858 28.1864,68.2518858 28.2054,67.8908858 C28.9744,67.6698858 29.0744,68.5488858 29.5964,68.7098858 C29.7614,68.7968858 29.9224,68.8858858 30.0394,69.0368858 C30.1434,69.1358858 30.2544,69.2268858 30.3714,69.3108858 C30.7644,69.6468858 31.1524,69.9868858 31.6014,70.2478858 C31.7344,70.4398858 32.1624,70.4628858 31.9494,70.8528858" id="Fill-26" fill="#BFBFBF"></path>
                    <path d="M30.7782,72.0122858 C29.6082,72.2372858 29.0622,71.3292858 28.3742,70.6832858 C28.2912,70.6052858 28.2452,70.4882858 28.1832,70.3892858 C28.1822,70.2482858 28.1802,70.1072858 28.1792,69.9672858 C29.0022,69.7882858 29.3402,70.5392858 29.9002,70.8622858 C30.1602,71.1352858 30.3822,71.4582858 30.7862,71.5472858 C30.7842,71.7022858 30.7812,71.8572858 30.7782,72.0122858" id="Fill-28" fill="#161616"></path>
                    <path d="M37.1363,68.7068858 C36.3133,69.3908858 36.5853,69.4258858 35.7653,68.9148858 C35.3873,68.7308858 34.4983,68.8218858 35.2823,68.0148858 C35.5023,68.0588858 35.7293,68.0838858 35.9413,68.1518858 C36.1323,68.2128858 36.5783,68.1418858 36.8153,68.0468858 C36.9793,67.9808858 37.1843,68.0178858 37.3723,68.0098858 C37.5693,68.3348858 36.7873,68.3298858 37.1363,68.7068858" id="Fill-30" fill="#A0A0A0"></path>
                    <path d="M29.3729,69.3709858 C29.7459,69.9699858 30.5019,70.1609858 30.8659,70.7699858 C30.7609,70.8579858 30.6569,70.9459858 30.5519,71.0349858 C30.3189,71.1889858 30.1409,71.0579858 29.9649,70.9199858 C29.4399,70.3469858 28.4679,70.1819858 28.3899,69.1989858 C28.4799,69.1159858 28.5689,69.0319858 28.6579,68.9479858 C28.7409,68.8669858 28.8139,68.8749858 28.8759,68.9729858 L28.8679,68.9649858 C28.9769,69.0079858 29.0469,69.1019858 29.1339,69.1729858 L29.1369,69.1739858 C29.2019,69.2549858 29.2809,69.3209858 29.3729,69.3709858" id="Fill-32" fill="#1F1F1F"></path>
                    <path d="M34.1468,68.4232858 C34.2598,68.4512858 34.3738,68.4792858 34.4868,68.5062858 C34.9258,68.5682858 35.2008,68.8812858 35.4948,69.1642858 C35.5508,69.3542858 35.8658,69.5272858 35.5508,69.7442858 C35.2888,69.9252858 35.0008,70.0792858 34.7228,69.7862858 C34.4068,69.4522858 34.1148,69.0952858 33.8118,68.7492858 C33.7758,68.4892858 33.8448,68.3362858 34.1468,68.4232858" id="Fill-34" fill="#C0C0C0"></path>
                    <path d="M28.39,69.1992858 C28.873,69.8212858 29.525,70.2672858 30.078,70.8162858 C30.113,71.0512858 30.039,71.1682858 29.783,71.0862858 C29.249,70.7132858 28.714,70.3402858 28.18,69.9662858 C28.005,69.8072858 27.851,69.6352858 27.926,69.3732858 C28,69.1172858 28.202,69.1702858 28.39,69.1992858" id="Fill-36" fill="#9E9E9E"></path>
                    <path d="M31.467,70.3651858 C30.966,70.1261858 30.572,69.7471858 30.171,69.3771858 C30.006,69.3531858 29.908,69.2561858 29.868,69.0971858 C29.778,68.9681858 29.687,68.8391858 29.597,68.7101858 C29.668,68.6471858 29.74,68.5841858 29.811,68.5211858 C30.519,68.9711858 31.083,69.5901858 31.716,70.1291858 C31.716,70.1291858 31.689,70.2191858 31.69,70.2201858 C31.659,70.2761858 31.615,70.3201858 31.561,70.3551858 C31.561,70.3561858 31.467,70.3651858 31.467,70.3651858" id="Fill-38" fill="#303030"></path>
                    <path d="M37.1363,68.7068858 C36.8303,68.3448858 37.2053,68.2128858 37.3723,68.0098858 C37.8533,67.9268858 38.3203,67.7438858 38.9813,67.7948858 C38.3203,68.2218858 37.8333,68.6618858 37.1363,68.7068858" id="Fill-40" fill="#B9B9B9"></path>
                    <path d="M31.5435,68.0302858 C31.4595,68.7162858 32.1625,68.8322858 32.4345,69.2602858 C32.6325,69.5712858 32.5065,69.6592858 32.1955,69.6392858 C31.7855,69.1882858 31.3465,68.7602858 31.0455,68.2212858 C31.2115,68.1582858 31.3775,68.0942858 31.5435,68.0302858" id="Fill-42" fill="#212121"></path>
                    <path d="M35.4947,69.1639858 C35.0257,69.1489858 34.7557,68.8299858 34.4877,68.5069858 C34.7657,68.3639858 34.8597,67.9249858 35.2827,68.0149858 C35.0617,68.2209858 34.9547,68.4189858 35.2997,68.6129858 C35.4607,68.7039858 35.6107,68.8129858 35.7657,68.9139858 C35.6747,68.9979858 35.5847,69.0809858 35.4947,69.1639858" id="Fill-44" fill="#161616"></path>
                    <path d="M29.7834,71.0863858 C29.8814,70.9963858 29.9794,70.9063858 30.0784,70.8163858 L30.5524,71.0343858 C30.6694,71.1873858 30.8314,71.3203858 30.7864,71.5473858 C30.2634,71.8043858 30.0864,71.3093858 29.7834,71.0863858" id="Fill-46" fill="#9C9C9C"></path>
                    <path d="M28.8895,72.2487858 C29.1385,72.2597858 29.2915,72.4867858 29.1915,72.6207858 C29.0175,72.8527858 28.7795,72.7217858 28.6145,72.5157858 C28.7065,72.4267858 28.7975,72.3377858 28.8895,72.2487858" id="Fill-48" fill="#383838"></path>
                    <path d="M34.1468,68.4232858 C34.0348,68.5322858 33.9238,68.6402858 33.8118,68.7492858 C33.6108,68.6542858 33.2798,68.5252858 33.4398,68.3062858 C33.5948,68.0932858 33.9348,68.2002858 34.1468,68.4232858" id="Fill-52" fill="#A0A0A0"></path>
                    <path d="M26.8327,69.2402858 C26.7377,69.1422858 26.6417,69.0432858 26.5467,68.9452858 C26.6227,68.8132858 26.7167,68.6782858 26.8857,68.7232858 C27.1467,68.7942858 27.0057,69.0202858 27.0307,69.1822858 C26.9697,69.2192858 26.9037,69.2392858 26.8327,69.2402858" id="Fill-54" fill="#919191"></path>
                    <path d="M27.7204,72.2318858 C27.6094,72.2358858 27.5254,72.1998858 27.5184,72.0768858 C27.5174,72.0558858 27.5784,72.0078858 27.5974,72.0138858 C27.7144,72.0518858 27.7314,72.1428858 27.7004,72.2498858 C27.7004,72.2498858 27.7204,72.2318858 27.7204,72.2318858" id="Fill-56" fill="#9F9F9F"></path>
                    <path d="M28.8761,68.9725858 C28.8041,68.9635858 28.7311,68.9545858 28.6581,68.9475858 C28.6271,68.8825858 28.6051,68.8135858 28.5941,68.7425858 C28.7401,68.7555858 28.8291,68.8385858 28.8761,68.9725858" id="Fill-58" fill="#9E9E9E"></path>
                    <path d="M17.8283,69.6714858 C18.1453,70.0014858 18.5603,69.8914858 18.9373,69.8944858 C20.5323,69.9074858 22.1263,69.8994858 23.8373,69.8994858 C23.0513,71.4294858 22.1463,72.6394858 20.4983,73.2054858 C19.1763,73.6604858 17.9073,74.2724858 16.6293,74.8474858 C15.5573,75.3304858 15.2173,75.2504858 14.4973,74.2904858 C13.9733,73.5914858 13.6413,72.8074858 13.3973,71.9794858 C13.2103,71.3444858 13.0363,70.7064858 12.8563,70.0684858 C13.1973,68.4984858 13.1993,68.5204858 14.7633,68.9644858 C15.7703,69.2504858 16.8053,69.4394858 17.8283,69.6714858" id="Fill-60" fill="#FFFFFF"></path>
                    <path d="M29.2053,17.2889858 C30.4203,16.6199858 31.1763,15.4769858 32.2973,14.7569858 C33.7343,13.8329858 35.0433,12.7019858 36.6823,12.1129858 C36.8643,12.0469858 37.0443,11.9719858 37.2283,11.9099858 C38.2203,11.5779858 38.3333,11.6429858 38.3503,12.6349858 C38.3903,14.9409858 38.6093,17.2289858 38.9533,19.5079858 C39.0463,20.1249858 39.0703,20.7549858 39.0853,21.3789858 C39.0913,21.6129858 38.9713,21.8409858 38.6763,21.8659858 C38.4293,21.8879858 38.2123,21.8389858 38.0753,21.6009858 C37.9353,21.3569858 37.8893,21.0909858 37.8573,20.8149858 C37.5853,18.4419858 37.2643,16.0719858 37.3923,13.6719858 C37.3983,13.5609858 37.3633,13.4479858 37.3393,13.2759858 C36.1463,13.5949858 35.3243,14.4439858 34.3973,15.1229858 C33.0973,16.0749858 31.9973,17.2329858 30.9273,18.4279858 C29.8533,19.6269858 28.4543,19.5279858 27.4533,18.2479858 C26.4953,17.0219858 25.7783,15.6119858 24.6113,14.5449858 C24.4473,14.3949858 24.3163,14.1619858 24.2663,13.9449858 C24.1213,13.3269858 24.6143,12.8989858 25.2393,13.0489858 C25.7743,13.1779858 26.1113,13.5639858 26.4433,13.9469858 C27.3883,15.0399858 28.3773,16.0949858 29.2053,17.2889858" id="Fill-62" fill="#010101"></path>
                    <path d="M22.0427,39.6145858 C22.0427,40.1205858 22.0607,40.6265858 22.0387,41.1315858 C22.0047,41.9255858 21.4517,42.4745858 20.7227,42.471598 C20.1707,42.4685858 19.7387,42.0185858 19.6947,41.2735858 C19.6477,40.5005858 19.3317,39.7645858 19.4307,38.9725858 C19.4837,38.5475858 19.4967,38.1285858 19.6967,37.7305858 C20.0637,37.0005858 20.3297,36.8365858 21.0477,36.9685858 C21.7357,37.0955858 21.8847,37.2715858 21.9647,38.0975858 C21.9907,38.3685858 21.9877,38.6415858 21.9927,38.9145858 C21.9967,39.1475858 21.9927,39.3815858 21.9927,39.6145858 C22.0097,39.6145858 22.0257,39.6145858 22.0427,39.6145858" id="Fill-64" fill="#030303"></path>
                    <path d="M43.534,38.4562858 C43.508,39.3632858 43.462,40.2852858 43.128,41.1782858 C42.944,41.6702858 42.585,41.7892858 42.138,41.8292858 C41.672,41.8712858 41.362,41.5902858 41.234,41.2232858 C40.744,39.8222858 40.722,38.4092858 41.277,37.0082858 C41.504,36.4352858 42.049,36.3502858 42.522,36.3002858 C42.956,36.2542858 43.123,36.7262858 43.322,37.0562858 C43.581,37.4862858 43.402,37.9802858 43.534,38.4562858" id="Fill-66" fill="#030303"></path>
                    <path d="M21.6333,15.7267858 C21.5733,17.6937858 21.9513,19.5997858 22.4143,21.4957858 C22.4783,21.7587858 22.5043,22.0327858 22.5363,22.3027858 C22.5703,22.5977858 22.5073,22.8847858 22.1753,22.9287858 C21.9043,22.9637858 21.6033,22.8657858 21.4923,22.5747858 C21.2183,21.8527858 20.8333,21.1347858 20.7473,20.3857858 C20.5033,18.2667858 20.1963,16.1347858 20.6833,14.0027858 C20.7173,13.8517858 20.6993,13.6887858 20.7393,13.5397858 C20.8043,13.3017858 20.9293,13.0987858 21.2223,13.1317858 C21.5013,13.1627858 21.6243,13.3667858 21.6283,13.6187858 C21.6413,14.3207858 21.6333,15.0237858 21.6333,15.7267858" id="Fill-68" fill="#040404"></path>
                    <path d="M35.4718,52.1772858 C33.6418,53.1752858 31.7478,53.2082858 29.8078,52.5532858 C29.7168,52.4292858 29.7288,52.3162858 29.8428,52.2132858 C31.3968,52.1852858 32.9628,52.3602858 34.4978,51.9632858 C34.6608,51.8722858 34.8638,51.8992858 35.0208,51.7902858 C35.0978,51.7842858 35.1748,51.7792858 35.2518,51.7742858 C35.4388,51.8462858 35.5158,51.9792858 35.4718,52.1772858" id="Fill-70" fill="#1D1D1D"></path>
                    <path d="M35.4718,52.1772858 C35.3978,52.0432858 35.3248,51.9092858 35.2518,51.7742858 C35.2858,51.7562858 35.3188,51.7322858 35.3558,51.7212858 C35.5848,51.6552858 35.8928,51.3152858 36.0218,51.7232858 C36.1208,52.0392858 35.7478,52.1282858 35.4718,52.1772858" id="Fill-72" fill="#414141"></path>
                    <path d="M29.8425,52.2137858 C29.8305,52.3267858 29.8195,52.4397858 29.8075,52.5527858 C29.6025,52.4977858 29.2585,52.5307858 29.3845,52.1857858 C29.4695,51.9537858 29.6955,52.0457858 29.8425,52.2137858" id="Fill-74" fill="#151515"></path>
                    <path d="M35.0206,51.7898858 C34.8856,51.9678858 34.7056,52.0068858 34.4976,51.9638858 C34.6296,51.7778858 34.8106,51.7408858 35.0206,51.7898858" id="Fill-76" fill="#414141"></path>
                    <path d="M31.9494,70.8528858 C31.9174,70.5628858 31.5434,70.6108858 31.4674,70.3648858 C31.5074,70.3568858 31.5434,70.3388858 31.5744,70.3108858 C31.6054,70.2798858 31.6374,70.2488858 31.6694,70.2178858 L31.7154,70.1298858 C32.2294,70.5758858 32.2294,70.5758858 31.9494,70.8528858" id="Fill-78" fill="#191919"></path>
                    <path d="M33.1567,70.3388858 C33.1807,70.2838858 33.2047,70.2278858 33.2297,70.1728858 C33.3817,70.3158858 33.2227,70.3028858 33.1487,70.3318858 C33.1487,70.3318858 33.1567,70.3388858 33.1567,70.3388858" id="Fill-80" fill="#494949"></path>
                    <path d="M29.1342,69.1728858 C28.9972,69.1658858 28.9102,69.0938858 28.8682,68.9648858 C28.9562,69.0338858 29.0452,69.1038858 29.1342,69.1728858" id="Fill-82" fill="#9E9E9E"></path>
                    <path d="M29.3729,69.3709858 C29.2939,69.3049858 29.2149,69.2399858 29.1369,69.1739858 C29.2609,69.1849858 29.3389,69.2519858 29.3729,69.3709858" id="Fill-84" fill="#9E9E9E"></path>
                    <path d="M29.8683,69.0970858 C29.9693,69.1900858 30.0693,69.2840858 30.1703,69.3770858 C30.0053,69.3540858 29.9033,69.2610858 29.8683,69.0970858" id="Fill-86" fill="#B3B3B3"></path>
                    <path d="M31.6692,70.2181858 C31.6552,70.2681858 31.6232,70.2991858 31.5742,70.3111858 C31.5742,70.3111858 31.5842,70.2271858 31.5842,70.2271858 L31.6692,70.2181858 Z" id="Fill-88" fill="#020202"></path>
                </g>
            </g>
        </g>
    </g>
</svg>