<svg xmlns="http://www.w3.org/2000/svg" xmlns:xlink="http://www.w3.org/1999/xlink" width="100" height="100" xmlns:v="https://vecta.io/nano"><style><![CDATA[.B{mask:url(#B)}.C{fill:#3c3c3c}]]></style><defs><path d="M0 50c0 27.614 22.386 50 50 50h0c27.614 0 50-22.386 50-50h0c0-27.614-22.386-50-50-50h0C22.386 0 0 22.386 0 50h0z" id="A"/></defs><g fill-rule="evenodd"><mask id="B" fill="#fff"><use xlink:href="#A"/></mask><path fill="#ffe133" d="M-43.478 142.029h201.449V-9.42H-43.478z" class="B"/><path d="M60.009 99.454c.513 1.62.965 3.258 1.273 4.928.122.659.093 1.347.112 2.023.024.819-.055.88-.852 1.024-.201.036-.361-.019-.541-.034-.925-.079-.918-.045-.793.904.334 2.546 1.16 5.008 1.287 7.589l.229 3.277c.033.426-.024.826-.24 1.202-.099.172-.226.358-.417.331-1.045-.148-1.895.571-2.915.61l-2.935.213c-.464.029-.903.01-1.345.404-.376.336-.978.057-1.453-.224-.204-.121-.553.006-.664-.316-.112-.329-.071-.673-.029-1.011.033-.268.261-.37.457-.461.423-.197.482-.547.459-.945a40.91 40.91 0 0 1 .204-7.023c.095-.83.304-1.628.462-2.439.135-.693.027-.863-.654-.797-.672.065-1.544-.299-1.954.156-.327.363-.122 1.209-.146 1.841-.094 2.496.305 4.966.392 7.452.026.751.027 1.491-.08 2.248-.093.658-.367.827-.937.845l-5.54.204-2.495.04c-.401.018-.648-.102-.766-.49-.133-.44.02-.811.433-.898.62-.131.621-.517.618-.999a29.3 29.3 0 0 1 .658-6.391c.246-1.133.339-2.318.869-3.388.09-.181.134-.432.012-.65-.261-.234-.502.028-.753.029-.662.002-1.278-.017-1.598-.772-.187-.441-.65-.683-.867-1.159a4.33 4.33 0 0 1-.4-2.078l.217-6.553.267-2.885c-1.182-.268-2.043-.881-2.394-2.098-.087-.3-.181-.609-.074-.888.522-1.363.918-2.784 2.103-3.804.917-.791 1.53-1.857 2.337-2.78-.703-.321-1.371-.495-2.063-.646-1.402-.305-2.695-.951-4-1.529-2.667-1.181-5.051-2.829-7.336-4.628-1.459-1.149-2.725-2.491-3.885-3.928-2.039-2.525-3.7-5.261-5.023-8.251-1.154-2.608-1.932-5.298-2.336-8.07-.386-2.641-.423-5.32-.2-8.017.258-3.117.97-6.108 2.041-9.003.898-2.426 2.153-4.703 3.686-6.817 1.046-1.442 2.112-2.851 3.371-4.12 1.321-1.331 2.745-2.512 4.271-3.609 1.625-1.169 3.305-2.192 5.112-3.05a31.81 31.81 0 0 1 6.275-2.194c.184-.044.378-.065.55-.139 2.668-1.147 5.468-1.132 8.303-1.062 3.191.079 6.257.716 9.263 1.716 1.315.438 2.554 1.045 3.794 1.678 1.341.684 2.659 1.39 3.877 2.26a33.98 33.98 0 0 1 4.852 4.198c1.8 1.886 3.405 3.89 4.712 6.137 1.556 2.675 2.783 5.484 3.518 8.506.366 1.505.695 3.008.851 4.552.283 2.784.307 5.558-.084 8.338-.279 1.982-.694 3.935-1.318 5.825-.682 2.067-1.542 4.067-2.677 5.95l-1.846 2.975c-1.13 1.712-2.545 3.157-4.004 4.594-2.614 2.575-5.591 4.58-8.886 6.138-.914.432-1.889.736-2.837 1.096-.21.08-.446.108-.648.408 1.218.907 2.24 2.037 3.211 3.212 1.888 2.286 2.497 4.97 2.228 7.848-.109 1.172-.843 2.047-1.982 2.538-.386.167-.785.26-1.176.391-.261.182-.541.148-.838.109-.221-.029-.453.023-.324.356m30.907-70.101c-.083 1.047-.415 2.4-1.207 3.145-.745.701-1.887.805-2.575 1.59-.875.998-.539 2.622-1.278 3.726-.714 1.067-2.485.898-2.797-.4a7.57 7.57 0 0 1-.194-1.969c.03-1.047-.149-2.103.276-3.14.357-.871.898-1.55 1.827-1.881.992-.354 2.129-.775 2.056-2.095-.043-.783-.983-1.269-1.707-1.384-.291-.046-.587-.042-.879-.083a2.58 2.58 0 0 1-1.517-.764c-.581-.62-.978-1.656-.452-2.388.847-1.179 2.187-1.084 3.403-.692 1.418.458 2.809.867 3.76 2.106.892 1.162 1.418 2.533 1.284 4.23" fill="#000" class="B"/><path d="M85.303 44.083c-.935.019-1.789-.776-1.796-1.673-.008-.927 1.034-1.905 2.018-1.895.718.008 1.326.943 1.37 2.106.03.8-.67 1.442-1.592 1.462" fill="#070707" class="B"/><path d="M54.114 84.159c-3.218.701-6.449.669-9.688.176-2.43-.37-4.777-1.041-7.051-1.97-1.283-.524-2.468-1.238-3.698-1.865-1.323-.674-2.462-1.579-3.608-2.482-1.92-1.512-3.604-3.258-5.128-5.18-1.318-1.662-2.494-3.425-3.388-5.318-1.167-2.473-2.089-5.062-2.642-7.764-.773-3.776-.671-7.557-.149-11.349.414-3.008 1.366-5.877 2.69-8.56 1.377-2.79 3.086-5.404 5.261-7.712 2.428-2.577 5.146-4.729 8.217-6.452 2.237-1.255 4.62-2.179 7.105-2.789.764-.188 1.598-.057 2.409-.191 4.96-.824 9.837-.35 14.595 1.211 2.245.736 4.353 1.795 6.385 3.033 2.668 1.626 4.975 3.664 7.025 5.976 1.397 1.575 2.604 3.326 3.602 5.199.086.161.103.358.152.538.794 1.68.893 3.52 1.111 5.31.204 1.681.244 3.391.329 5.089.179 3.573-.807 6.899-1.884 10.209-2.062 6.332-5.286 12.035-9.449 17.229-1.043 1.301-2.335 2.251-3.685 3.161-2.676 1.804-5.529 3.277-8.512 4.5m2.955 35.71c-1.13-.022-2.24.259-3.375.217-.451-.017-.699-.11-.707-.616l-.317-6.997.095-1.882c.007-.228-.022-.435.196-.606.629-.496.346-1.068.102-1.627s-.707-.564-1.233-.538l-2.49.011c-.799.246-1.484-.131-2.177-.418l-1.795-.708c-.291-.088-.621-.168-.855.086-.256.279-.039.566.087.836.064.137-.041-.012.059.096 2.236 2.378 1.82 5.272 1.583 8.127-.075.905-.276 1.798-.361 2.701-.087.924-.461 1.39-1.445 1.228-.251-.042-.53-.063-.777.078-.929-.011-.913-.012-.947-.755-.132-2.878.278-5.715.633-8.555.079-.632.253-1.252.383-1.878.063-.303-.016-.576-.351-.572-.491.006-.621-.345-.807-.666-.075-.13-.122-.295-.231-.384-1.138-.926-1.339-2.188-1.339-3.549l-.049-5.427c.037-1.539.243-3.07.689-4.555.143-.308.245-.639.327-.96.169-.653.476-.907 1.139-.641.595.238 1.213.169 1.778-.057 1.899-.758 3.952-.961 5.862-1.712 1.352-.531 2.624-1.099 3.755-2.034 1.736-1.437 2.778-1.249 3.928.716.937 1.6 1.329 3.374 1.183 5.233-.045.576-.106 1.251-.955 1.276-.417-.636-.653-1.351-.876-2.068-.121-.392-.198-.797-.454-1.134-.666.039-.285.479-.294.769-.01 1.503.654 2.855.967 4.286l1.549 7.16c.064.368.021.754.06 1.128.051.492-.052.803-.643.75-.512-.046-.608.505-.947.715-.113.205-.27.375-.492.447-.898.291-1.175.993-1.24 1.839l-.261 6.901a5.25 5.25 0 0 0 .678 2.485c.216.385.539.751.366 1.255" fill="#fff" class="B"/><path d="M54.114 84.159c.471-.45 1.058-.714 1.628-1.005l5.598-2.994c2.491-1.464 4.482-3.387 6.186-5.703a57.36 57.36 0 0 0 6.821-12.115c1.313-3.178 2.223-6.495 2.91-9.86.2-.982.028-2.037.047-3.059.066-3.485-.388-6.913-1.096-10.315-.03-.144-.004-.299-.003-.45.851 1.037 1.269 2.303 1.718 3.521.625 1.692 1.084 3.449 1.547 5.196.19.718.237 1.48.293 2.226.16 2.136.211 4.275.064 6.414-.167 2.418-.712 4.76-1.434 7.067-.528 1.688-1.214 3.325-2.017 4.884-.877 1.701-1.98 3.291-3.143 4.824-1.561 2.056-3.433 3.815-5.417 5.434-1.276 1.041-2.718 1.876-4.161 2.692-2.644 1.496-5.491 2.432-8.42 3.152-.359.088-.746.062-1.12.088m4.54 11.178c.545-.279.663-.783.689-1.329.079-1.654-.301-3.213-.964-4.717-.317-.72-.928-1.183-1.464-1.708-.403-.394-.863-.219-1.247.046l-1.986 1.491c-.5.44-1.059.704-1.676.902-.933.299-1.882.56-2.751 1.03-.099.054-.209.128-.313.125-1.554-.034-2.898.763-4.361 1.09-.898.201-1.198.179-2.074-.265-.412.429-.397 1.119-.872 1.513.064-1.323.194-1.845.697-2.772.383.032.588.417.942.508.208.054.364.021.38-.236a.41.41 0 0 1 .005-.542c.331.051.612.294 1.079.257a7.66 7.66 0 0 0-1.641-1.778c-.384-.306-.308-.444.275-.636 1.044.421 1.689 1.458 2.785 1.8 1.808-.049 3.412-.759 4.974-1.574.492-.257.999-.517 1.404-.919.783-.789 1.661-1.406 2.794-1.571a.14.14 0 0 0 .153-.104.86.86 0 0 0 .247-.156c.138-.057.271-.133.414-.168.475-.115.95-.278 1.432-.305.646-.036.646.658.929 1.011 1.409 1.762 2.705 3.597 3.686 5.65.435.911.586 1.863.726 2.82.127.87-.623 1.846-1.525 2.142-.318.105-.672.104-.989.213-.309.107-.555.381-.942.377-.432-.666-.543-1.458-.804-2.194" fill="#d1d1d1" class="B"/><path d="M42.624 86.695c-.078.421-.354.746-.542 1.113-.896 1.745-1.557 3.572-1.933 5.503-.075 0-.167.029-.218-.004-1.046-.674-1.021-.669-.727-1.863.166-.673.455-1.261.87-1.808l2.005-2.717c.137-.184.253-.418.546-.224" fill="#ccc" class="B"/><path d="M48.672 88.761c-.1.169-.278.191-.444.236-.505.223-.705-.225-1.006-.454a2.46 2.46 0 0 1-.298-.313l-.184-.211-.103-.093-.238-.157c-.307-.171-.623-.326-.885-.567-.188-.176-.386-.354-.465-.601-.13-.408.016-.557.429-.388l.85.056c.12.034.238.074.347.14a1.59 1.59 0 0 1 .179.181l.373.368c.196.261.396.517.656.719.307.251.689.42.866.808.023.106-.005.197-.077.276" fill="#c1c1c1" class="B"/><path d="M47.506 89.17c-.267.079-.485.259-.796-.036-.59-.56-1.255-1.041-1.889-1.555-.093-.056-.171-.133-.261-.194l-.004-.002c-.356-.16-.738-.286-.886-.707-.031-.321-.089-.659.407-.65.639.107.937.689 1.414 1.02.278.348.661.572 1.003.844.322.215.533.561.879.75.127.155.256.311.133.528" fill="#bbb" class="B"/><path d="M48.672 88.761a.99.99 0 0 1-.015-.191c-.076-.451-.492-.6-.775-.867-.37-.291-.609-.696-.909-1.048-.041-.163-.033-.309.14-.396 1.18.305 1.739 1.316 2.514 2.095-.311.303-.579.495-.956.408" fill="#b8b8b8" class="B"/><path d="M55.331 86.049c-.918.548-1.764 1.222-2.794 1.571.012-.428-.256-.332-.505-.27-.2-.459.155-.566.453-.693.331-.141.713-.159.997-.404-.023-.142.471.059.179-.27.571-.319 1.122-.154 1.671.067" fill="#161616" class="B"/><path d="M46.159 90.112c-.417.223-.727-.038-1.036-.245-.653-.438-1.214-.983-1.749-1.555l.286-.259c.585-.229.805.344 1.195.543.38.457 1.076.583 1.282 1.223l.022.293" fill="#181818" class="B"/><path d="M51.108 87.802c-.779.394-.775.39-1.347-.237-.176-.193-.393-.349-.571-.541-.145-.157-.387-.239-.415-.508.751-.232 1.142.435 1.7.679.407-.002.769.043.633.607" fill="#b5b5b5" class="B"/><path d="M53.749 86.269c-.403.339-.828.633-1.37.696-.233.027-.29.204-.349.384l-.099.007-.098-.009c-.214-.154-.316-.35-.223-.616.402-.426.877-.651 1.476-.529.23-.077.457-.115.662.067" fill="#a7a7a7" class="B"/><path d="M51.611 86.732c.097.197.254.372.223.616l.024.064c-.671.202-1.002-.296-1.39-.676-.188-.201-.065-.35.12-.4.423-.114.789-.011 1.023.396" fill="#b4b4b4" class="B"/><path d="M44.78 88.746l-1.12-.693c-.322-.243-.316-.569-.23-.915.572-.175.634.414.945.63l.03.029c.024.104.083.18.18.226l.445.474c.055.222-.021.313-.251.249" fill="silver" class="B"/><path d="M45.433 87.165c-.586-.22-.845-.829-1.357-1.138.471.034.977-.199 1.401.185-.163.079-.701-.071-.257.382.178.181.452.266.559.529a.23.23 0 0 1-.347.042" fill="#1e1e1e" class="B"/><path d="M44.78 88.746l.251-.249 1.067.745c.225.166.16.375.04.577-.509-.286-.981-.619-1.358-1.073" fill="#9f9f9f" class="B"/><path d="M50.468 86.736c.532.085.832.646 1.39.676-.195.237-.478.304-.75.39-.099-.32-.443-.383-.633-.607l-.006-.459" fill="#212121" class="B"/><path d="M44.375 87.769c-.418-.056-.541-.555-.945-.63l.241-.461c.333.188.692.343.886.707-.165.078-.167.234-.182.384" class="B C"/><path d="M43.661 90.47l-.005.542-.916-1.081a.22.22 0 0 1 .003-.272c.428.133.646.501.918.811" fill="#7e7e7e" class="B"/><path d="M42.624 86.695l-.546.224c.065-.463.45-.701.706-1.13.27.439.062.674-.16.906" fill="#939393" class="B"/><path d="M47.506 89.17l-.215-.386c-.127-.159-.136-.318-.006-.48.397.117.427.736.943.692-.2.225-.452.239-.722.174" fill="#606060" class="B"/><path d="M57.032 92.901c-.208-.248-.177-.559-.207-.849-.02-.192.055-.409.289-.373.22.034.211.267.212.453-.32.172-.169.523-.294.769" fill="#2b2b2b" class="B"/><path d="M47.113 86.259a.61.61 0 0 0-.058.466c.103.107.096.205-.021.297-.15-.087-.321-.154-.356-.356.015-.099-.028-.161-.121-.191-.13-.009-.195-.09-.23-.205l.786-.01" fill="#212121" class="B"/><path d="M53.749 86.269l-.662-.067.571-.221c.131.029.371.052.373.089.011.166-.149.183-.283.199" fill="#a3a3a3" class="B"/><path d="M44.585 88.023a.23.23 0 0 1-.18-.226c.129.02.183.101.18.226" class="B C"/><path d="M42.744 89.659l-.003.272c-.091-.042-.21-.075-.175-.206.009-.036.116-.045.177-.067" fill="#b3b3b3" class="B"/><path d="M44.56 87.386c.145-.013.227.058.262.194a.3.3 0 0 1-.262-.194" class="B C"/><path d="M55.73 85.788c-.05.103-.128.162-.247.156.04-.118.124-.168.247-.156" fill="#161616" class="B"/><path d="M52.726 33.354c-1.231.311-2.009 1.104-2.875 1.742-1.248.92-2.333 2.019-3.363 3.175-1.129 1.267-2.431 1.186-3.492-.181-.917-1.183-1.631-2.521-2.742-3.559-.382-.356-.391-.835-.06-1.221.345-.403.78-.173 1.134.028.256.145.478.374.669.604.792.958 1.712 1.809 2.39 2.861.243.377.438.474.882.13.861-.668 1.534-1.537 2.468-2.127 1.393-.88 2.646-1.991 4.238-2.54.141-.049.272-.125.412-.176 1.083-.396 1.25-.299 1.232.886-.038 2.384.303 4.73.627 7.08.051.373.075.752.075 1.128a.47.47 0 0 1-.388.491c-.285.055-.541-.038-.651-.322-.081-.207-.112-.438-.139-.661l-.404-3.604c-.079-1.202-.164-2.41-.012-3.735" fill="#010101" class="B"/><path d="M37.49 36.024c-.074 1.606.22 3.383.676 5.14.075.291.095.596.136.896.037.281.012.569-.313.634-.318.063-.592-.066-.715-.406-.355-.985-.715-1.958-.813-3.024-.17-1.837-.253-3.663.112-5.486.054-.27.077-.559.437-.534.384.027.522.33.463.647-.12.645.021 1.278.017 2.134" fill="#050505" class="B"/><path d="M47.035 87.021l.021-.297c.378.217.681.517.946.858.044.22-.023.329-.264.262-.306-.213-.653-.391-.703-.824" fill="#333" class="B"/><path d="M45.433 87.165l.347-.042.729.509c.137.023.204.104.202.242-.059.191-.149.325-.376.203-.397-.209-.638-.572-.903-.912" fill="#2c2c2c" class="B"/><path d="M47.738 87.844a.4.4 0 0 0 .264-.262l.7.641c.121.119.095.247-.045.346l-.919-.726" fill="#6f6f6f" class="B"/><path d="M46.336 88.077l.278-.245c.083-.079.155-.069.214.029l-.018-.02c.112.051.185.143.25.242l.226.22.005.48c-.395-.132-.634-.475-.955-.708" fill="#2f2f2f" class="B"/><g fill="#bbb" class="B"><path d="M47.059 88.085c-.137-.025-.214-.113-.25-.242a.33.33 0 0 1 .25.242"/><path d="M46.828 87.862c-.071-.014-.142-.024-.214-.029l-.103-.2c.154.01.262.083.317.229"/></g><path d="M46.558 86.474c.092.031.198.054.121.192l-.121-.192" fill="#000" class="B"/><path d="M37.254 59.924l-.004 1.465c-.033.767-.567 1.297-1.271 1.294-.534-.002-.95-.437-.993-1.157-.045-.746-.35-1.457-.255-2.222.051-.41.064-.815.257-1.199.354-.705.611-.864 1.305-.736.664.122.808.293.885 1.091.025.261.022.525.027.788l.001.676h.048m20.756-1.118c-.025.876-.07 1.766-.392 2.629-.178.475-.525.59-.956.628-.45.041-.75-.23-.874-.585-.473-1.353-.494-2.718.042-4.071.219-.554.746-.636 1.203-.684.42-.044.581.412.773.731.249.414.076.892.204 1.351M47.593 72.443c-.353.284-.943.251-1.191-.163s-.262-1.11.143-1.428c.389-.305.898.069 1.095.432.227.418.196.914-.147 1.25-.198.195-.079.463.149.554.28.112.611-.02.812-.217.647-.635.648-1.691.042-2.358-.731-.804-2.021-.796-2.815-.093-.72.637-.867 1.907-.127 2.602s2.061.536 2.8-.058c.607-.488-.316-.88-.761-.521" fill="#030303" class="B"/><g fill="#060401" class="B"><path d="M37.493 86.46l.202-.239-.001.005h0 0c-.044.097-.123.166-.201.234m9.991-2.258a1.29 1.29 0 0 0-.098-.274c-.142-.232-.292-.458-.377-.718-.033-.082-.07-.161-.118-.236l-.153-.208-.075-.102-.137-.211a1.28 1.28 0 0 0-.15-.2l-.254-.27-.162-.185c-.056-.059-.115-.115-.181-.164s-.133-.088-.206-.122l-.203-.113-.093-.067-.179-.143c-.062-.046-.126-.087-.196-.121l-.312-.158c-.071-.034-.143-.065-.219-.087-.154-.047-.3-.111-.433-.201l-.101-.072a1.37 1.37 0 0 0-.221-.132c-.082-.034-.167-.061-.255-.076l-.678-.136c-.095-.008-.191-.006-.285.011-.328.075-.665.08-.998.125-.092.018-.181.041-.268.075l-.483.177c-.078.026-.153.057-.224.097a1.67 1.67 0 0 0-.189.141l-.182.137-.299.164a.72.72 0 0 0-.17.156c-.043.068-.06.142-.054.222-.013.484-.597.775-.444 1.315-.07.081-.08.169-.035.264.097.041.109.105.043.191-.056.057-.063.12-.022.188-.171.212-.005.518-.204.721l-.063.048.023.076c-.066.187-.038.411-.218.551l.011-.017c-.047.102-.137.17-.204.256-.133.022-.209.079-.194.218-.077.018-.103.064-.077.139-.134.064-.186.172-.17.317-.071.024-.091.07-.058.137-.137.053-.208.153-.221.295-.118.041-.186.125-.206.25-.136.021-.206.098-.2.239l-.011.02c-.149.09-.26.207-.286.385-.122.045-.161.139-.145.265l.146-.25c-.002.104-.097.163-.146.25-.072.031-.093.083-.063.155-.208.102-.226.299-.252.491-.121.045-.175.132-.159.266l.163-.252c-.004.109-.097.171-.163.252l-.064.04.017.074c-.179.153-.196.352-.165.566-.09.182-.148.366-.05.564-.258.514-.237 1.028.001 1.542h0c-.045.216-.048.429.058.632-.029.187.037.332.195.435l.004.011c-.011.191.068.338.22.451-.008.213-.014.418.194.549h0l-.022.083.062.06c.073.079.161.149.178.264.146.043.221.145.235.297-.02-.147-.095-.249-.235-.297l-.179-.264c-.028.146.037.23.166.272.033.137.113.236.247.29h0l-.001.084.074.04c-.012.14.059.2.193.196l.024.016c.018.104.075.164.186.16l.187.096c.118.172.291.225.486.233.108.184.28.197.468.17.178.097.363.116.557.05.135-.046.484.113.656.099.214-.017.363-.121.562-.163.89-.189 1.53-.135 2.228-.767.547-.496 1.035-1.099 1.424-1.727.312-.504.352-1.064.709-1.558.051-.07.099-.144.136-.223s.062-.168.078-.258a3.48 3.48 0 0 1 .122-.528l.091-.258.172-.513a1.71 1.71 0 0 0 .065-.259c.028-.167.054-.334.122-.491l.059-.109.139-.205.128-.211.129-.207.074-.096.158-.185c.081-.093.158-.191.224-.296l.28-.422.23-.326c.097-.162.191-.327.253-.507.029-.093.051-.189.062-.287.031-.398.037-.796-.029-1.193"/><path d="M39.054 83.096h0z"/></g><path d="M45.918 85.099c-.06.04-.072.091-.037.154-.026.117-.105.205-.172.298-.068.026-.087.071-.057.138-.018.136-.107.229-.194.323l-.003.003c-.083.068-.156.149-.237.219l.004-.004a1.75 1.75 0 0 0-.192.231c-.067.033-.086.085-.058.154-.025.119-.104.207-.174.3-.066.027-.085.074-.057.139-.024.143-.107.241-.234.304l.013-.019c-.094.15-.071.346-.189.486-.053.055-.063.118-.03.187-.173.212-.023.512-.2.723-.055.051-.065.109-.031.175-.1.157-.069.366-.205.508-.063.036-.074.083-.031.142-.071.179-.074.381-.192.542l-.003.005c-.226.169-.016.502-.251.668l.009-.016a1.48 1.48 0 0 0-.16.243c-.075.046-.099.11-.071.193-.108.149-.078.359-.218.495l.002-.005c-.13.127-.094.334-.221.462l-.001.002a1.04 1.04 0 0 0-.2.234l-.019.017c-.082.046-.144.111-.184.196-.072.026-.099.076-.079.15-.04.161-.139.257-.305.281-.052.006-.102 0-.15-.019-2.311-1.045-3.064-3.513-1.729-5.567.907-1.395 2.021-2.622 3.068-3.905.335-.41.735-.773 1.346-.674a1.25 1.25 0 0 1 .316.144l.028.029c.063.177.334.104.372.311l-.031-.028c.102.032.146.098.123.205-.092.375.068.622.4.782.095.026.164.082.209.168-.036.065-.026.123.028.173a.33.33 0 0 1 .001.452" fill="#d1d1d1" class="B"/><path d="M44.62 83.031c-.608-.069-.993.3-1.324.718l-3.307 4.275c-.572.864-.567 1.65-.109 2.53.488.939 1.124 1.752 1.909 2.455l.041.092c-.092.043-.169.105-.228.189l-.009.004c-.171.112-.374.129-.562.188l-.073-.029-.05.06c-.528.185-1.058.148-1.589.019l-.091-.052-.103.02c-.081-.059-.166-.111-.256-.156-.017-.081-.065-.111-.145-.091-.144-.025-.243-.104-.293-.242l.022.019c-.118-.033-.192-.122-.268-.211l.007.005c-.089-.074-.175-.149-.218-.26l.015.024c-.183-.122-.149-.345-.238-.511.033-.074.013-.127-.061-.161-.064-.099-.148-.188-.161-.314l.025-.08-.061-.058c-.189-.207-.032-.513-.208-.724l.006-1.037c.153-.223.033-.512.18-.737.073-.025.092-.072.057-.141.077-.176.042-.406.247-.521l-.021.023c.028-.117.121-.189.193-.275l.001-.005c.146-.114.101-.326.229-.449h.001a.72.72 0 0 0 .177-.221c.078-.011.106-.054.085-.129.105-.222.299-.366.463-.536l-.018.02c.038-.117.125-.192.22-.262l-.006.009c.122-.131.075-.357.256-.454l-.012.02c.1-.157.054-.414.316-.459.113-.028.162-.095.129-.212.092-.48.522-.909.222-1.45.049-.073.039-.137-.029-.192-.11-.153-.112-.303.008-.452l.064-.051-.024-.078c.084-.299.221-.563.484-.747l-.018.021c.048-.261.211-.41.461-.474l-.022.017c.082-.201.323-.142.448-.274l1.306.008c.146.111.351.077.492.199.049.059.106.07.173.034.108.036.188.115.28.177l.045.072.084-.009c.27.008.393.238.572.383l.02.025c.098.143.295.227.268.446" fill="#fefefe" class="B"/></g></svg>