<svg xmlns="http://www.w3.org/2000/svg" xmlns:xlink="http://www.w3.org/1999/xlink" width="100" height="100" xmlns:v="https://vecta.io/nano"><style><![CDATA[.B{mask:url(#B)}.C{fill:#d1d1d1}.D{fill:#3c3c3c}]]></style><defs><path d="M0 50c0 27.615 22.386 50 50 50h0c27.614 0 50-22.385 50-50h0c0-27.614-22.386-50-50-50h0C22.386 0 0 22.386 0 50h0z" id="A"/></defs><g fill-rule="evenodd"><mask id="B" fill="#fff"><use xlink:href="#A"/></mask><path fill="#b993ea" d="M-43.478 142.029h201.449V-9.42H-43.478z" class="B"/><path d="M60.009 99.454c.513 1.62.965 3.258 1.273 4.928.122.659.093 1.348.112 2.023.024.819-.055.879-.852 1.024-.201.036-.361-.019-.541-.034-.925-.079-.918-.044-.793.904.334 2.546 1.16 5.008 1.287 7.589l.229 3.277c.033.426-.024.826-.24 1.202-.099.171-.226.358-.417.331-1.045-.148-1.895.571-2.915.61l-2.935.213c-.464.029-.903.01-1.345.404-.376.336-.978.056-1.453-.224-.204-.121-.553.006-.664-.316-.112-.329-.071-.673-.029-1.011.033-.268.261-.37.457-.461.423-.197.482-.547.459-.945-.136-2.347-.063-4.685.204-7.023.095-.83.304-1.627.462-2.44.135-.693.027-.863-.654-.797-.672.065-1.544-.299-1.954.156-.327.363-.122 1.209-.146 1.841-.094 2.495.305 4.966.392 7.452.026.751.027 1.491-.08 2.248-.093.658-.367.827-.937.845l-5.54.204-2.495.04c-.401.018-.648-.102-.766-.49-.133-.44.02-.811.433-.898.62-.131.621-.517.618-.998a29.3 29.3 0 0 1 .658-6.391c.246-1.133.339-2.318.869-3.388.09-.181.134-.431.012-.65-.261-.234-.502.028-.753.029-.662.002-1.278-.017-1.598-.772-.187-.44-.65-.682-.867-1.159a4.33 4.33 0 0 1-.4-2.079l.217-6.553.267-2.885c-1.182-.268-2.043-.881-2.394-2.098-.087-.3-.181-.609-.074-.888.522-1.363.918-2.784 2.103-3.804.917-.791 1.53-1.856 2.337-2.78-.703-.321-1.371-.495-2.063-.646-1.402-.305-2.695-.952-4-1.529-2.667-1.181-5.051-2.829-7.336-4.627-1.459-1.149-2.725-2.49-3.885-3.928a36.62 36.62 0 0 1-5.023-8.251c-1.154-2.608-1.932-5.298-2.336-8.071-.386-2.641-.423-5.32-.2-8.017.258-3.117.97-6.108 2.041-9.002.898-2.427 2.153-4.703 3.686-6.817 1.046-1.442 2.112-2.851 3.371-4.12 1.321-1.331 2.745-2.512 4.271-3.609 1.625-1.169 3.305-2.192 5.112-3.05a31.8 31.8 0 0 1 6.275-2.194c.184-.044.378-.065.55-.139 2.668-1.146 5.468-1.132 8.303-1.062 3.191.079 6.257.716 9.263 1.716 1.315.438 2.554 1.045 3.794 1.678 1.341.684 2.659 1.39 3.877 2.26a33.98 33.98 0 0 1 4.852 4.198c1.8 1.885 3.405 3.891 4.712 6.137 1.556 2.675 2.783 5.484 3.518 8.506.366 1.505.695 3.008.851 4.552.283 2.785.307 5.558-.084 8.338-.279 1.982-.694 3.935-1.318 5.825-.682 2.067-1.542 4.067-2.677 5.95l-1.846 2.975c-1.13 1.712-2.545 3.158-4.004 4.594-2.614 2.575-5.591 4.58-8.886 6.138-.914.432-1.889.736-2.837 1.097-.21.08-.446.108-.648.408 1.218.907 2.24 2.037 3.211 3.212 1.888 2.286 2.497 4.97 2.228 7.847-.109 1.172-.843 2.047-1.982 2.538-.386.166-.785.26-1.176.391-.261.182-.541.148-.838.109-.221-.029-.453.023-.324.356m24.888-61.289c.607-3.182 1.848-6.083 3.395-8.899.459-.835.789-1.589 1.942-1.558.698.018 1.125.402 1.332 1.041s.067 1.296-.109 1.909c-.684 2.389-1.821 4.637-3.105 6.752-.405.666-.948 2.176-1.882 2.268-.868.086-1.722-.727-1.572-1.513" fill="#000" class="B"/><path d="M83.994 43.764c-.819-.16-1.413-1.016-1.249-1.801.17-.81 1.266-1.467 2.123-1.271.625.143.977 1.074.793 2.097-.126.703-.86 1.132-1.668.974" fill="#070707" class="B"/><path d="M54.114 84.159c-3.218.701-6.449.669-9.688.176-2.43-.37-4.777-1.041-7.051-1.97-1.283-.524-2.468-1.239-3.698-1.866-1.323-.674-2.462-1.579-3.608-2.481-1.92-1.512-3.604-3.258-5.128-5.179-1.318-1.662-2.494-3.425-3.388-5.318-1.167-2.473-2.089-5.062-2.642-7.764-.773-3.776-.671-7.557-.149-11.349.414-3.008 1.366-5.877 2.69-8.56 1.377-2.79 3.086-5.404 5.261-7.712 2.428-2.577 5.146-4.729 8.217-6.452 2.237-1.254 4.62-2.178 7.105-2.789.764-.188 1.598-.056 2.409-.191 4.96-.824 9.837-.349 14.595 1.211 2.245.736 4.353 1.796 6.385 3.034 2.668 1.626 4.975 3.664 7.025 5.976 1.397 1.575 2.604 3.326 3.602 5.199.086.161.103.358.152.538.794 1.68.893 3.52 1.111 5.31.204 1.681.244 3.391.329 5.09.179 3.573-.807 6.9-1.884 10.209-2.062 6.332-5.286 12.035-9.449 17.23-1.043 1.301-2.335 2.251-3.685 3.161-2.676 1.804-5.529 3.277-8.512 4.5m2.955 35.706c-1.13-.022-2.24.258-3.375.217-.451-.016-.699-.11-.707-.616l-.317-6.997.095-1.883c.007-.228-.022-.435.196-.606.629-.496.346-1.068.102-1.627s-.707-.564-1.233-.538l-2.49.011c-.799.245-1.484-.131-2.177-.419l-1.795-.708c-.291-.088-.621-.169-.855.086-.256.279-.039.566.087.836.064.137-.041-.012.059.095 2.236 2.377 1.82 5.272 1.583 8.127-.075.905-.276 1.798-.361 2.701-.087.924-.461 1.391-1.445 1.228-.251-.042-.53-.063-.777.078-.929-.011-.913-.012-.947-.755-.132-2.878.278-5.715.633-8.555.079-.632.253-1.252.383-1.878.063-.303-.016-.576-.351-.572-.491.006-.621-.345-.807-.666-.075-.13-.122-.295-.231-.384-1.138-.926-1.339-2.188-1.339-3.549l-.049-5.427c.037-1.539.243-3.07.689-4.555.143-.308.245-.639.327-.96.169-.653.476-.907 1.139-.641.595.238 1.213.169 1.778-.056 1.899-.758 3.952-.961 5.862-1.712 1.352-.531 2.624-1.098 3.755-2.035 1.736-1.436 2.778-1.248 3.928.717.937 1.6 1.329 3.374 1.183 5.232-.045.576-.106 1.251-.955 1.276-.417-.636-.653-1.35-.876-2.068-.121-.392-.198-.797-.454-1.134-.666.039-.285.478-.294.769-.01 1.503.654 2.855.967 4.286l1.549 7.16c.064.368.021.754.06 1.128.051.492-.052.802-.643.749-.512-.046-.608.505-.947.715-.113.206-.27.376-.492.448-.898.291-1.175.993-1.24 1.839l-.261 6.901a5.25 5.25 0 0 0 .678 2.485c.216.385.539.752.366 1.255" fill="#fff" class="B"/><path d="M54.114 84.159c.471-.45 1.058-.714 1.628-1.005l5.598-2.994c2.491-1.464 4.482-3.386 6.186-5.702 2.771-3.767 5.039-7.807 6.821-12.115 1.313-3.177 2.223-6.495 2.91-9.86.2-.982.028-2.037.047-3.059.066-3.485-.388-6.913-1.096-10.314-.03-.144-.004-.3-.003-.45.851 1.036 1.269 2.303 1.718 3.52.625 1.692 1.084 3.449 1.547 5.196.19.718.237 1.48.293 2.226.16 2.136.211 4.275.064 6.414-.167 2.418-.712 4.76-1.434 7.067-.528 1.688-1.214 3.325-2.017 4.884-.877 1.701-1.98 3.291-3.143 4.823-1.561 2.056-3.433 3.815-5.417 5.435-1.276 1.041-2.718 1.876-4.161 2.692-2.644 1.496-5.491 2.432-8.42 3.152-.359.088-.746.061-1.12.088m4.54 11.177c.545-.279.663-.783.689-1.328.079-1.654-.301-3.213-.964-4.717-.317-.72-.928-1.183-1.464-1.708-.403-.394-.863-.219-1.247.046l-1.986 1.491c-.5.44-1.059.704-1.676.902-.933.299-1.882.56-2.751 1.03-.099.053-.209.127-.313.125-1.554-.034-2.898.763-4.361 1.09-.898.201-1.198.179-2.074-.265-.412.429-.397 1.119-.872 1.513.064-1.323.194-1.844.697-2.772.383.032.588.417.942.508.208.054.364.021.38-.236a.41.41 0 0 1 .005-.542c.331.051.612.294 1.079.257a7.66 7.66 0 0 0-1.641-1.778c-.384-.306-.308-.444.275-.636 1.044.421 1.689 1.458 2.785 1.8 1.808-.049 3.412-.759 4.974-1.574.492-.257.999-.517 1.404-.919.783-.788 1.661-1.406 2.794-1.571a.14.14 0 0 0 .153-.104.86.86 0 0 0 .247-.156c.138-.057.271-.133.414-.168.475-.115.95-.278 1.432-.305.646-.036.646.658.929 1.011 1.409 1.761 2.705 3.597 3.686 5.65.435.911.586 1.863.726 2.82.127.869-.623 1.846-1.525 2.142-.318.104-.672.103-.989.213-.309.107-.555.381-.942.377-.432-.666-.543-1.458-.804-2.194" class="C B"/><path d="M42.624 86.695c-.078.421-.354.746-.542 1.114-.896 1.745-1.557 3.572-1.933 5.503-.075 0-.167.029-.218-.004-1.046-.674-1.021-.669-.727-1.863.166-.673.455-1.261.87-1.808l2.005-2.718c.137-.184.253-.418.546-.224" fill="#ccc" class="B"/><path d="M48.672 88.761c-.1.169-.278.191-.444.235-.505.223-.705-.225-1.006-.453a2.44 2.44 0 0 1-.298-.314l-.184-.21-.103-.093-.238-.157c-.307-.171-.623-.326-.885-.567-.188-.176-.386-.354-.465-.601-.13-.409.016-.557.429-.388l.85.056c.12.034.238.074.347.14a1.59 1.59 0 0 1 .179.181l.373.368c.196.261.396.518.656.719.307.251.689.42.866.809.023.105-.005.197-.077.276" fill="#c1c1c1" class="B"/><path d="M47.506 89.17c-.267.079-.485.259-.796-.036-.59-.56-1.255-1.041-1.889-1.554-.093-.056-.171-.133-.261-.194l-.004-.001c-.356-.16-.738-.286-.886-.707-.031-.321-.089-.658.407-.65.639.108.937.689 1.414 1.021.278.348.661.571 1.003.844.322.216.533.561.879.75.127.155.256.311.133.528" fill="#bbb" class="B"/><path d="M48.672 88.761a.99.99 0 0 1-.015-.191c-.076-.451-.492-.6-.775-.867-.37-.291-.609-.696-.909-1.049-.041-.163-.033-.309.14-.396 1.18.305 1.739 1.316 2.514 2.095-.311.303-.579.495-.956.408" fill="#b8b8b8" class="B"/><path d="M55.331 86.049c-.918.548-1.764 1.222-2.794 1.571.012-.427-.256-.331-.505-.27-.2-.46.155-.566.453-.693.331-.142.713-.158.997-.404-.023-.142.471.058.179-.27.571-.319 1.122-.153 1.671.068" fill="#161616" class="B"/><path d="M46.159 90.112c-.417.223-.727-.038-1.036-.245-.653-.438-1.214-.982-1.749-1.555l.286-.259c.585-.229.805.344 1.195.543.38.457 1.076.583 1.282 1.223l.022.293" fill="#181818" class="B"/><path d="M51.108 87.802c-.779.394-.775.39-1.347-.237-.176-.193-.393-.349-.571-.541-.145-.157-.387-.239-.415-.508.751-.232 1.142.435 1.7.678.407-.002.769.043.633.608" fill="#b5b5b5" class="B"/><path d="M53.749 86.269c-.403.339-.828.633-1.37.696-.233.027-.29.204-.349.384l-.099.006-.098-.009c-.214-.155-.316-.35-.223-.615.402-.427.877-.651 1.476-.529.23-.077.457-.115.662.066" fill="#a7a7a7" class="B"/><path d="M51.611 86.732c.097.197.254.372.223.615l.024.065c-.671.202-1.002-.296-1.39-.676-.188-.201-.065-.351.12-.4.423-.114.789-.011 1.023.396" fill="#b4b4b4" class="B"/><path d="M44.78 88.746l-1.12-.693c-.322-.243-.316-.569-.23-.915.572-.175.634.414.945.631l.03.029c.024.104.083.18.18.226l.445.474c.055.222-.021.313-.251.249" fill="silver" class="B"/><path d="M45.433 87.165c-.586-.22-.845-.829-1.357-1.138.471.034.977-.199 1.401.185-.163.079-.701-.071-.257.382.178.181.452.266.559.529a.23.23 0 0 1-.347.042" fill="#1e1e1e" class="B"/><path d="M44.78 88.746l.251-.249 1.067.745c.225.166.16.375.04.577-.509-.286-.981-.619-1.358-1.073" fill="#9f9f9f" class="B"/><path d="M50.468 86.736c.532.085.832.646 1.39.676-.195.237-.478.304-.75.391-.099-.32-.443-.383-.633-.607l-.006-.459" fill="#212121" class="B"/><path d="M44.375 87.769c-.418-.056-.541-.555-.945-.631l.241-.461c.333.188.692.344.886.707-.165.078-.167.234-.182.384" class="B D"/><path d="M43.661 90.47l-.005.543-.916-1.081a.22.22 0 0 1 .003-.273c.428.133.646.502.918.811" fill="#7e7e7e" class="B"/><path d="M42.624 86.695l-.546.224c.065-.462.45-.701.706-1.13.27.439.062.674-.16.906" fill="#939393" class="B"/><path d="M47.506 89.17l-.215-.386c-.127-.158-.136-.318-.006-.48.397.117.427.736.943.692-.2.225-.452.239-.722.174" fill="#606060" class="B"/><path d="M57.032 92.901c-.208-.248-.177-.559-.207-.849-.02-.192.055-.409.289-.373.22.034.211.266.212.453-.32.171-.169.523-.294.769" fill="#2b2b2b" class="B"/><path d="M47.113 86.259a.61.61 0 0 0-.058.466c.103.106.096.205-.021.297-.15-.087-.321-.154-.356-.356.015-.099-.028-.161-.121-.192-.13-.008-.195-.09-.23-.205l.786-.01" fill="#212121" class="B"/><path d="M53.749 86.269l-.662-.067.571-.221c.131.029.371.052.373.089.011.166-.149.183-.283.199" fill="#a3a3a3" class="B"/><path d="M44.585 88.023a.23.23 0 0 1-.18-.226c.129.021.183.101.18.226" class="B D"/><path d="M42.744 89.659l-.003.273c-.091-.043-.21-.075-.175-.206.009-.036.116-.045.177-.067" fill="#b3b3b3" class="B"/><path d="M44.56 87.386c.145-.013.227.058.262.194-.126-.012-.211-.08-.262-.194" class="B D"/><path d="M55.73 85.788c-.05.103-.128.162-.247.156.04-.119.124-.169.247-.156" fill="#161616" class="B"/><path d="M52.726 33.354c-1.231.311-2.009 1.104-2.875 1.742-1.248.92-2.333 2.019-3.363 3.175-1.129 1.267-2.431 1.187-3.492-.181-.917-1.183-1.631-2.521-2.742-3.559-.382-.356-.391-.835-.06-1.221.345-.403.78-.173 1.134.028.256.145.478.374.669.604.792.958 1.712 1.809 2.39 2.861.243.377.438.474.882.131.861-.668 1.534-1.537 2.468-2.127 1.393-.881 2.646-1.991 4.238-2.54.141-.048.272-.125.412-.176 1.083-.396 1.25-.299 1.232.887-.038 2.384.303 4.73.627 7.08.051.373.075.752.075 1.128a.47.47 0 0 1-.388.491c-.285.055-.541-.038-.651-.322-.081-.207-.112-.438-.139-.661l-.404-3.603c-.079-1.203-.164-2.41-.012-3.735" fill="#010101" class="B"/><path d="M37.49 36.024c-.074 1.606.22 3.382.676 5.14.075.291.095.597.136.896.037.28.012.569-.313.633-.318.063-.592-.065-.715-.406-.355-.985-.715-1.958-.813-3.023-.17-1.837-.253-3.663.112-5.486.054-.27.077-.559.437-.534.384.027.522.33.463.647-.12.645.021 1.278.017 2.134" fill="#050505" class="B"/><path d="M47.035 87.021l.021-.297c.378.217.681.517.946.858.044.22-.023.328-.264.262-.306-.213-.653-.391-.703-.823" fill="#333" class="B"/><path d="M45.433 87.165l.347-.042.729.509c.137.023.204.104.202.242-.059.191-.149.325-.376.203-.397-.209-.638-.572-.903-.912" fill="#2c2c2c" class="B"/><path d="M47.738 87.844c.131-.044.22-.13.264-.262l.7.641c.121.119.095.247-.045.346l-.919-.726" fill="#6f6f6f" class="B"/><path d="M46.336 88.077l.278-.245c.083-.079.155-.069.214.03l-.018-.02c.112.052.185.143.25.243l.226.22.005.48c-.395-.133-.634-.475-.955-.708" fill="#2f2f2f" class="B"/><g fill="#bbb" class="B"><path d="M47.059 88.085c-.137-.025-.214-.113-.25-.243a.33.33 0 0 1 .25.243"/><path d="M46.828 87.862a1.79 1.79 0 0 0-.214-.029l-.103-.2c.154.01.262.083.317.229"/></g><path d="M46.558 86.474c.092.031.198.053.121.191l-.121-.191" fill="#000" class="B"/><path d="M37.254 59.925l-.004 1.465c-.033.766-.567 1.297-1.271 1.294-.534-.002-.95-.437-.993-1.157-.045-.747-.35-1.457-.255-2.222.051-.41.064-.815.257-1.199.354-.705.611-.863 1.305-.736.664.122.808.293.885 1.091.025.261.022.526.027.788l.001.676h.048m20.756-1.119c-.025.875-.07 1.766-.392 2.629-.178.475-.525.589-.956.628-.45.04-.75-.23-.874-.584-.473-1.354-.494-2.718.042-4.071.219-.554.746-.635 1.203-.684.42-.044.581.412.773.731.249.414.076.892.204 1.352" fill="#030303" class="B"/><path d="M46.111 78.141c-2.771-.201-5.134-1.176-7.385-2.426-1.474-.818-2.435-2.132-2.929-3.734-.601-1.953.871-4.419 2.85-4.851.608-.133 1.223-.019 1.782.207 1.473.595 3.05.839 4.531 1.4.103.039.225.119.313.093 1.122-.328 2.256-.093 3.38-.063 1.045.028 1.768-.541 2.502-1.135.832-.672 1.693-1.254 2.829-1.27 1.717-.023 3.275.286 4.4 1.763.294.386.473.791.457 1.238-.099 2.704-1.01 4.926-3.444 6.457-1.726 1.086-3.572 1.798-5.513 2.214-1.267.271-2.613.452-3.773.107" fill="#060401" class="B"/><path d="M42.54 69.358l1.014.116c.829.16.975.325 1.138 1.197.463 2.477 3.138 3.413 5.101 1.795.733-.604.904-1.475 1.051-2.312a1.22 1.22 0 0 1 .557-.893 9.61 9.61 0 0 0 .807-.623c1.316-1.139 3.725-.846 4.803.502 1.483 1.855-.795 4.375-2.28 5.426-2.016 1.426-4.291 2.238-6.743 2.337-2.167.087-4.271-.359-6.3-1.209-1.345-.563-2.438-1.433-3.434-2.431-.729-.73-.762-2.118-.225-3.058a2.53 2.53 0 0 1 2.675-1.253c.393.067.852-.063 1.167.309.198.212.425.219.67.095" class="B C"/><path d="M49.347 70.094c-.132.682.144 1.369-.566 1.705-.792.374-1.62.382-2.383-.086-.404-.247-.427-.599-.245-1.078.16-.421.275-.629.761-.558.748.109 1.507.082 2.434.018" fill="#fafaf9" class="B"/><path d="M42.54 69.358c-.268.28-.488.224-.67-.095l.67.095" fill="#f4f4f3" class="B"/><path d="M36.998 69.26c-.025.003-.062.017-.072.006-.017-.02-.031-.059-.023-.082.032-.085.08-.089.117-.01.01.021-.014.057-.023.086" fill="#252321" class="B"/><g fill="#060401" class="B"><path d="M45.767 88.865c-.014.088-.044.061-.07.236l-.203 1.143c-.031.176-.133.44-.174.613l-.219.796c-.079.23-.11.338.008.042.324-.902.418-1.517.577-2.346l.178-1c.065-.334.132-.658.295-.965.089-.171.191-.322.299-.47-.141.192-.282.394-.395.639-.157.319-.189.762-.296 1.314"/><path d="M42.251 94.51l.036-.016.033-.01-.068.026h0zM37.4 86.385l.041.033.013.023-.013.016-.041-.071zm10.748-2.194l.032-.216a1.88 1.88 0 0 0-.004-.299c.001-.013.001-.023 0-.029-.001-.231-.033-.471-.174-.674a.86.86 0 0 0-.27-.254.71.71 0 0 0-.182-.073c-.043-.01-.079-.014-.118-.009-.018-.008.004-.053.004-.077.005-.035.005-.046.01-.106a2.2 2.2 0 0 0-.007-.311c-.019-.214-.066-.44-.144-.678-.132-.373-.322-.802-.68-1.208l.047.066c-.011.004-.107-.113-.299-.273a1.72 1.72 0 0 0-.888-.382l-.567-.039-.293-.006c-.069.001-.111-.001-.156.013l-.009.009.024-.09.014-.066.016-.137.014-.261a3.66 3.66 0 0 0-.432-1.81c-.175-.314-.442-.566-.733-.773s-.626-.374-1.005-.454c-.189-.04-.394-.049-.596-.014a1.01 1.01 0 0 0-.569.296c-.298.326-.361.716-.49 1.002-.005.006-.005.031-.019.021l-.146-.048-.524-.148c-.352-.079-.795-.091-1.142.153a1.17 1.17 0 0 0-.393.465c-.088.184-.134.378-.162.57-.049.383-.056.772-.033 1.185.05 1.07.292 2.078.376 3.072.087.987.024 2.002-.458 2.84-.508.905-1.384 1.593-1.846 2.483-.507.978-.666 2.118-.517 3.243.165 1.195.731 2.197 1.53 2.832.551.469 1.237.902 1.838 1.046a3.6 3.6 0 0 0 1.336.08c.093-.01.18-.031.27-.047l-.266.038c-.386.042-.798.048-1.279-.063-.317-.087-.204-.062.041-.014s.628.068.841.058c.181-.01.471.005.649-.034.39-.061.74-.163 1.133-.316.166-.072.16-.031.242-.069.532-.23.888-.501 1.188-.709a4.99 4.99 0 0 0 .601-.491c.112-.108.216-.223.321-.351l.183-.256c.425-.634.717-1.461.891-2.241l-.006.009c-.111.454-.249.893-.467 1.329.089-.19.093-.161-.006.058l-.093.159c.04-.084.07-.17.106-.256l.052-.125.285-.762.06-.26c.038-.126.047-.118.063-.143l.062-.269-.141.456-.015.049c.268-.977.401-2.01.639-2.966.323-1.297 1.96-2.331 2.258-3.672l.007-.056h0z"/><path d="M40.854 95.078l.439-.095-.439.095"/><path d="M40.799 95.087l.055-.009-.055.009m5.514-15.13a3.09 3.09 0 0 1 .3.3 1.99 1.99 0 0 0-.3-.3m-5.02 15.026l.402-.115-.402.115"/></g><path d="M43.954 90.112c-.221.9-.718 1.598-1.263 2.322-.311.414-1.125 1.264-1.735 1.019l-.05.06c-.528.185-1.058.148-1.589.019l-.091-.052-.103.02c-.081-.059-.166-.112-.256-.156-.017-.081-.065-.111-.145-.091-.144-.025-.243-.104-.293-.242l.021.019c-.118-.033-.192-.122-.261-.205-.088-.074-.175-.149-.218-.26l.015.023c-.183-.122-.149-.345-.237-.511.033-.074.012-.127-.061-.16-.064-.099-.148-.188-.161-.314l.025-.08-.061-.058c-.189-.207-.032-.513-.208-.723l.006-1.037c.153-.223.033-.512.18-.737.073-.025.092-.072.057-.141.077-.176.042-.406.247-.521l-.021.023c.028-.117.121-.189.194-.279.145-.114.101-.326.23-.45a.72.72 0 0 0 .177-.22c.078-.011.106-.054.085-.129.105-.222.299-.366.463-.536l-.018.02c.038-.117.125-.192.22-.261l-.007.009c.122-.131.075-.357.257-.454l-.013.02c.1-.157.054-.414.316-.459.113-.028.163-.095.129-.212-.044-.154.171-.426.209-.572.32-1.226.391-2.525.151-3.772-.079-.412-1.047-2.512-.031-2.476.992.035 1.37 1.811 1.544 2.565.068-.919-.276-1.884-.016-2.79.309-1.074 1.42-.012 1.537.581.109.553.181 1.167.112 1.731-.045.374-.239.754-.191 1.133.343-.69 1.146-1.132 1.914-.917.763.213 1.55.771 1.629 1.613.025.273-.04.567-.236.759s-.537.241-.745.064c-.389-.332-.024-.857-.679-.978-.449-.082-.796.446-.776.902s.26.871.355 1.318c.33-.465.74-.941 1.302-1.034s1.217.458 1 .984c-.183.443-.781.523-1.119.863-.609.613-1.328 2.243-1.506 3.073l-.287 1.69" fill="#fefefe" class="B"/><path d="M42.327 89.199c-.215 1.262-.664 2.727-1.893 3.182-.78.286-1.628-.096-2.453-.191-.137.623.498 1.152 1.107 1.341a3.75 3.75 0 0 0 2.933-.338c.879-.502 1.543-1.357 1.844-2.323.209-.67.249-1.379.371-2.07.113-.64.518-1.196.479-1.851-.274.383-.711.587-1.177.614-.368.021-.695-.124-.931.271-.116.195-.147.426-.175.651l-.104.712m-.466-6.049c-.029.021-.059.045-.07.08-.018.057.021.114.055.164.195.29.238.653.275 1.001l.151 1.404a2.21 2.21 0 0 1 1.567-.721c.071-.002.152-.004.199-.057.036-.04.041-.099.044-.152.03-.547.112-1.328-.337-1.718-.478-.416-1.406-.35-1.885 0" class="C B"/></g></svg>