<?xml version="1.0" encoding="UTF-8"?>
<svg width="100px" height="100px" viewBox="0 0 100 100" version="1.1" xmlns="http://www.w3.org/2000/svg" xmlns:xlink="http://www.w3.org/1999/xlink">
    <title>medi-02</title>
    <defs>
        <polygon id="path-1" points="0 0 100 0 100 99.9995 0 99.9995"></polygon>
        <path d="M50,0 C22.386,0 0,22.385 0,49.999 L0,49.999 C0,77.614 22.386,100 50,100 L50,100 C77.614,100 100,77.614 100,49.999 L100,49.999" id="path-3"></path>
        <path d="M50,0 C22.386,0 0,22.385 0,49.999 L0,49.999 C0,77.614 22.386,100 50,100 L50,100 C77.614,100 100,77.614 100,49.999 L100,49.999" id="path-5"></path>
        <path d="M50,0 C22.386,0 0,22.385 0,49.999 L0,49.999 C0,77.614 22.386,100 50,100 L50,100 C77.614,100 100,77.614 100,49.999 L100,49.999" id="path-7"></path>
        <path d="M50,0 C22.386,0 0,22.385 0,49.999 L0,49.999 C0,77.614 22.386,100 50,100 L50,100 C77.614,100 100,77.614 100,49.999 L100,49.999" id="path-9"></path>
        <path d="M50,0 C22.386,0 0,22.385 0,49.999 L0,49.999 C0,77.614 22.386,100 50,100 L50,100 C77.614,100 100,77.614 100,49.999 L100,49.999" id="path-11"></path>
        <path d="M50,0 C22.386,0 0,22.385 0,49.999 L0,49.999 C0,77.614 22.386,100 50,100 L50,100 C77.614,100 100,77.614 100,49.999 L100,49.999" id="path-13"></path>
        <path d="M50,0 C22.386,0 0,22.385 0,49.999 L0,49.999 C0,77.614 22.386,100 50,100 L50,100 C77.614,100 100,77.614 100,49.999 L100,49.999" id="path-15"></path>
        <path d="M50,0 C22.386,0 0,22.385 0,49.999 L0,49.999 C0,77.614 22.386,100 50,100 L50,100 C77.614,100 100,77.614 100,49.999 L100,49.999" id="path-17"></path>
        <path d="M50,0 C22.386,0 0,22.385 0,49.999 L0,49.999 C0,77.614 22.386,100 50,100 L50,100 C77.614,100 100,77.614 100,49.999 L100,49.999" id="path-19"></path>
        <path d="M50,0 C22.386,0 0,22.385 0,49.999 L0,49.999 C0,77.614 22.386,100 50,100 L50,100 C77.614,100 100,77.614 100,49.999 L100,49.999" id="path-21"></path>
        <path d="M50,0 C22.386,0 0,22.385 0,49.999 L0,49.999 C0,77.614 22.386,100 50,100 L50,100 C77.614,100 100,77.614 100,49.999 L100,49.999" id="path-23"></path>
        <path d="M50,0 C22.386,0 0,22.385 0,49.999 L0,49.999 C0,77.614 22.386,100 50,100 L50,100 C77.614,100 100,77.614 100,49.999 L100,49.999" id="path-25"></path>
        <path d="M50,0 C22.386,0 0,22.385 0,49.999 L0,49.999 C0,77.614 22.386,100 50,100 L50,100 C77.614,100 100,77.614 100,49.999 L100,49.999" id="path-27"></path>
        <path d="M50,0 C22.386,0 0,22.385 0,49.999 L0,49.999 C0,77.614 22.386,100 50,100 L50,100 C77.614,100 100,77.614 100,49.999 L100,49.999" id="path-29"></path>
        <path d="M50,0 C22.386,0 0,22.385 0,49.999 L0,49.999 C0,77.614 22.386,100 50,100 L50,100 C77.614,100 100,77.614 100,49.999 L100,49.999" id="path-31"></path>
        <path d="M50,0 C22.386,0 0,22.385 0,49.999 L0,49.999 C0,77.614 22.386,100 50,100 L50,100 C77.614,100 100,77.614 100,49.999 L100,49.999" id="path-33"></path>
        <path d="M50,0 C22.386,0 0,22.385 0,49.999 L0,49.999 C0,77.614 22.386,100 50,100 L50,100 C77.614,100 100,77.614 100,49.999 L100,49.999" id="path-35"></path>
        <path d="M50,0 C22.386,0 0,22.385 0,49.999 L0,49.999 C0,77.614 22.386,100 50,100 L50,100 C77.614,100 100,77.614 100,49.999 L100,49.999" id="path-37"></path>
        <path d="M50,0 C22.386,0 0,22.385 0,49.999 L0,49.999 C0,77.614 22.386,100 50,100 L50,100 C77.614,100 100,77.614 100,49.999 L100,49.999" id="path-39"></path>
        <path d="M50,0 C22.386,0 0,22.385 0,49.999 L0,49.999 C0,77.614 22.386,100 50,100 L50,100 C77.614,100 100,77.614 100,49.999 L100,49.999" id="path-41"></path>
        <path d="M50,0 C22.386,0 0,22.385 0,49.999 L0,49.999 C0,77.614 22.386,100 50,100 L50,100 C77.614,100 100,77.614 100,49.999 L100,49.999" id="path-43"></path>
        <path d="M50,0 C22.386,0 0,22.385 0,49.999 L0,49.999 C0,77.614 22.386,100 50,100 L50,100 C77.614,100 100,77.614 100,49.999 L100,49.999" id="path-45"></path>
        <path d="M50,0 C22.386,0 0,22.385 0,49.999 L0,49.999 C0,77.614 22.386,100 50,100 L50,100 C77.614,100 100,77.614 100,49.999 L100,49.999" id="path-47"></path>
        <path d="M50,0 C22.386,0 0,22.385 0,49.999 L0,49.999 C0,77.614 22.386,100 50,100 L50,100 C77.614,100 100,77.614 100,49.999 L100,49.999" id="path-49"></path>
        <path d="M50,0 C22.386,0 0,22.385 0,49.999 L0,49.999 C0,77.614 22.386,100 50,100 L50,100 C77.614,100 100,77.614 100,49.999 L100,49.999" id="path-51"></path>
        <path d="M50,0 C22.386,0 0,22.385 0,49.999 L0,49.999 C0,77.614 22.386,100 50,100 L50,100 C77.614,100 100,77.614 100,49.999 L100,49.999" id="path-53"></path>
        <path d="M50,0 C22.386,0 0,22.385 0,49.999 L0,49.999 C0,77.614 22.386,100 50,100 L50,100 C77.614,100 100,77.614 100,49.999 L100,49.999" id="path-55"></path>
        <path d="M50,0 C22.386,0 0,22.385 0,49.999 L0,49.999 C0,77.614 22.386,100 50,100 L50,100 C77.614,100 100,77.614 100,49.999 L100,49.999" id="path-57"></path>
        <path d="M50,0 C22.386,0 0,22.385 0,49.999 L0,49.999 C0,77.614 22.386,100 50,100 L50,100 C77.614,100 100,77.614 100,49.999 L100,49.999" id="path-59"></path>
        <path d="M50,0 C22.386,0 0,22.385 0,49.999 L0,49.999 C0,77.614 22.386,100 50,100 L50,100 C77.614,100 100,77.614 100,49.999 L100,49.999" id="path-61"></path>
        <path d="M50,0 C22.386,0 0,22.385 0,49.999 L0,49.999 C0,77.614 22.386,100 50,100 L50,100 C77.614,100 100,77.614 100,49.999 L100,49.999" id="path-63"></path>
        <path d="M50,0 C22.386,0 0,22.385 0,49.999 L0,49.999 C0,77.614 22.386,100 50,100 L50,100 C77.614,100 100,77.614 100,49.999 L100,49.999" id="path-65"></path>
        <path d="M50,0 C22.386,0 0,22.385 0,49.999 L0,49.999 C0,77.614 22.386,100 50,100 L50,100 C77.614,100 100,77.614 100,49.999 L100,49.999" id="path-67"></path>
        <path d="M50,0 C22.386,0 0,22.385 0,49.999 L0,49.999 C0,77.614 22.386,100 50,100 L50,100 C77.614,100 100,77.614 100,49.999 L100,49.999" id="path-69"></path>
        <path d="M50,0 C22.386,0 0,22.385 0,49.999 L0,49.999 C0,77.614 22.386,100 50,100 L50,100 C77.614,100 100,77.614 100,49.999 L100,49.999" id="path-71"></path>
        <path d="M50,0 C22.386,0 0,22.385 0,49.999 L0,49.999 C0,77.614 22.386,100 50,100 L50,100 C77.614,100 100,77.614 100,49.999 L100,49.999" id="path-73"></path>
        <path d="M50,0 C22.386,0 0,22.385 0,49.999 L0,49.999 C0,77.614 22.386,100 50,100 L50,100 C77.614,100 100,77.614 100,49.999 L100,49.999" id="path-75"></path>
        <path d="M50,0 C22.386,0 0,22.385 0,49.999 L0,49.999 C0,77.614 22.386,100 50,100 L50,100 C77.614,100 100,77.614 100,49.999 L100,49.999" id="path-77"></path>
        <path d="M50,0 C22.386,0 0,22.385 0,49.999 L0,49.999 C0,77.614 22.386,100 50,100 L50,100 C77.614,100 100,77.614 100,49.999 L100,49.999" id="path-79"></path>
        <path d="M50,0 C22.386,0 0,22.385 0,49.999 L0,49.999 C0,77.614 22.386,100 50,100 L50,100 C77.614,100 100,77.614 100,49.999 L100,49.999" id="path-81"></path>
        <path d="M50,0 C22.386,0 0,22.385 0,49.999 L0,49.999 C0,77.614 22.386,100 50,100 L50,100 C77.614,100 100,77.614 100,49.999 L100,49.999" id="path-83"></path>
    </defs>
    <g id="Page-1" stroke="none" stroke-width="1" fill="none" fill-rule="evenodd">
        <g id="Group-128">
            <g id="Group-3">
                <mask id="mask-2" fill="white">
                    <use xlink:href="#path-1"></use>
                </mask>
                <g id="Clip-2"></g>
                <path d="M100,49.9995 C100,77.6135 77.614,99.9995 50,99.9995 C22.386,99.9995 0,77.6135 0,49.9995 C0,22.3855 22.386,-0.0005 50,-0.0005 C77.614,-0.0005 100,22.3855 100,49.9995" id="Fill-1" fill="#00ACDB" mask="url(#mask-2)"></path>
            </g>
            <g id="Group-127">
                <g id="Group-6">
                    <mask id="mask-4" fill="white">
                        <use xlink:href="#path-3"></use>
                    </mask>
                    <g id="Clip-5"></g>
                    <path d="M60.7502,101.4487 C61.2832,103.1337 61.7542,104.8377 62.0742,106.5747 C62.2012,107.2597 62.1712,107.9757 62.1912,108.6787 C62.2162,109.5307 62.1342,109.5937 61.3052,109.7437 C61.0962,109.7817 60.9302,109.7237 60.7422,109.7077 C59.7802,109.6257 59.7872,109.6617 59.9172,110.6487 C60.2652,113.2967 61.1232,115.8577 61.2562,118.5427 C61.3122,119.6797 61.4072,120.8157 61.4942,121.9507 C61.5282,122.3947 61.4692,122.8107 61.2442,123.2017 C61.1422,123.3797 61.0092,123.5727 60.8102,123.5447 C59.7232,123.3917 58.8392,124.1397 57.7792,124.1797 C56.7632,124.2177 55.7452,124.3377 54.7262,124.4007 C54.2432,124.4317 53.7872,124.4117 53.3272,124.8217 C52.9362,125.1707 52.3112,124.8797 51.8162,124.5877 C51.6042,124.4627 51.2412,124.5947 51.1262,124.2597 C51.0092,123.9167 51.0522,123.5597 51.0962,123.2077 C51.1302,122.9287 51.3682,122.8227 51.5712,122.7287 C52.0122,122.5237 52.0732,122.1597 52.0492,121.7457 C51.9082,119.3047 51.9832,116.8727 52.2612,114.4407 C52.3602,113.5767 52.5772,112.7487 52.7412,111.9037 C52.8822,111.1817 52.7702,111.0057 52.0612,111.0737 C51.3622,111.1417 50.4542,110.7637 50.0282,111.2367 C49.6882,111.6137 49.9012,112.4937 49.8762,113.1507 C49.7792,115.7467 50.1932,118.3157 50.2842,120.9017 C50.3112,121.6827 50.3122,122.4527 50.2012,123.2407 C50.1042,123.9247 49.8202,124.0997 49.2262,124.1197 C47.3052,124.1817 45.3852,124.2687 43.4642,124.3317 C42.5992,124.3597 41.7322,124.3337 40.8682,124.3727 C40.4512,124.3917 40.1942,124.2667 40.0722,123.8627 C39.9332,123.4057 40.0922,123.0197 40.5222,122.9287 C41.1662,122.7927 41.1682,122.3907 41.1652,121.8897 C41.1522,119.6507 41.3762,117.4247 41.8502,115.2427 C42.1062,114.0637 42.2022,112.8317 42.7542,111.7187 C42.8472,111.5307 42.8932,111.2707 42.7662,111.0427 C42.4952,110.7997 42.2442,111.0717 41.9832,111.0727 C41.2952,111.0757 40.6542,111.0557 40.3222,110.2707 C40.1282,109.8117 39.6462,109.5607 39.4202,109.0647 C39.0962,108.3557 38.9682,107.6747 39.0032,106.9027 C39.1072,104.6317 39.1322,102.3577 39.2292,100.0867 C39.2712,99.0837 39.4112,98.0857 39.5072,97.0857 C38.2772,96.8077 37.3812,96.1697 37.0162,94.9037 C36.9262,94.5907 36.8282,94.2707 36.9402,93.9797 C37.4842,92.5617 37.8952,91.0837 39.1272,90.0227 C40.0812,89.2007 40.7192,88.0917 41.5572,87.1317 C40.8262,86.7977 40.1312,86.6167 39.4112,86.4597 C37.9532,86.1417 36.6082,85.4697 35.2512,84.8687 C32.4762,83.6407 29.9972,81.9267 27.6202,80.0557 C26.1022,78.8607 24.7862,77.4647 23.5792,75.9697 C21.4582,73.3437 19.7312,70.4977 18.3542,67.3887 C17.1542,64.6757 16.3452,61.8777 15.9242,58.9937 C15.5232,56.2467 15.4852,53.4597 15.7172,50.6557 C15.9852,47.4137 16.7252,44.3027 17.8392,41.2917 C18.7742,38.7677 20.0782,36.3997 21.6732,34.2007 C22.7602,32.7017 23.8702,31.2357 25.1792,29.9167 C26.5532,28.5317 28.0342,27.3037 29.6212,26.1617 C31.3122,24.9457 33.0592,23.8817 34.9382,22.9897 C37.0392,21.9937 39.2122,21.2457 41.4652,20.7077 C41.6572,20.6617 41.8592,20.6397 42.0372,20.5627 C44.8122,19.3707 47.7252,19.3857 50.6732,19.4587 C53.9932,19.5407 57.1812,20.2027 60.3082,21.2437 C61.6762,21.6997 62.9642,22.3307 64.2542,22.9897 C65.6482,23.7007 67.0202,24.4357 68.2872,25.3407 C70.1012,26.6367 71.7812,28.0807 73.3342,29.7067 C75.2062,31.6677 76.8762,33.7527 78.2352,36.0897 C79.8542,38.8717 81.1302,41.7937 81.8952,44.9367 C82.2762,46.5027 82.6172,48.0657 82.7802,49.6717 C83.0752,52.5677 83.0992,55.4517 82.6932,58.3437 C82.4032,60.4057 81.9712,62.4367 81.3222,64.4027 C80.6122,66.5527 79.7182,68.6327 78.5382,70.5917 C77.9112,71.6327 77.2872,72.6727 76.6182,73.6867 C75.4432,75.4677 73.9712,76.9707 72.4542,78.4657 C69.7352,81.1427 66.6382,83.2297 63.2112,84.8497 C62.2602,85.2997 61.2462,85.6157 60.2602,85.9907 C60.0422,86.0737 59.7962,86.1027 59.5862,86.4147 C60.8532,87.3577 61.9162,88.5337 62.9252,89.7557 C64.8892,92.1327 65.5222,94.9247 65.2432,97.9187 C65.1292,99.1377 64.3662,100.0467 63.1822,100.5587 C62.7802,100.7317 62.3652,100.8287 61.9582,100.9657 C61.6872,101.1547 61.3962,101.1197 61.0872,101.0787 C60.8582,101.0487 60.6162,101.1027 60.7502,101.4487" id="Fill-4" fill="#000000" mask="url(#mask-4)"></path>
                </g>
                <g id="Group-9">
                    <mask id="mask-6" fill="white">
                        <use xlink:href="#path-5"></use>
                    </mask>
                    <g id="Clip-8"></g>
                    <path d="M54.6194,85.5398 C51.2724,86.2688 47.9124,86.2358 44.5424,85.7228 C42.0144,85.3378 39.5744,84.6398 37.2084,83.6738 C35.8744,83.1288 34.6414,82.3848 33.3624,81.7328 C31.9864,81.0318 30.8014,80.0908 29.6104,79.1518 C27.6134,77.5788 25.8614,75.7628 24.2754,73.7648 C22.9044,72.0358 21.6814,70.2028 20.7524,68.2328 C19.5384,65.6608 18.5794,62.9668 18.0044,60.1568 C17.2004,56.2288 17.3064,52.2968 17.8494,48.3518 C18.2804,45.2238 19.2704,42.2398 20.6474,39.4488 C22.0794,36.5468 23.8574,33.8278 26.1194,31.4268 C28.6444,28.7468 31.4714,26.5088 34.6664,24.7168 C36.9934,23.4118 39.4714,22.4508 42.0564,21.8158 C42.8514,21.6198 43.7184,21.7568 44.5624,21.6168 C49.7214,20.7588 54.7944,21.2528 59.7434,22.8758 C62.0774,23.6418 64.2714,24.7438 66.3844,26.0318 C69.1594,27.7228 71.5594,29.8428 73.6914,32.2478 C75.1454,33.8858 76.4004,35.7068 77.4384,37.6558 C77.5274,37.8228 77.5454,38.0278 77.5964,38.2148 C78.4224,39.9618 78.5254,41.8768 78.7524,43.7378 C78.9644,45.4868 79.0054,47.2648 79.0944,49.0318 C79.2814,52.7478 78.2554,56.2078 77.1344,59.6498 C74.9894,66.2358 71.6364,72.1688 67.3064,77.5708 C66.2214,78.9248 64.8774,79.9128 63.4734,80.8598 C60.6894,82.7358 57.7234,84.2678 54.6194,85.5398" id="Fill-7" fill="#FFFFFF" mask="url(#mask-6)"></path>
                </g>
                <g id="Group-12">
                    <mask id="mask-8" fill="white">
                        <use xlink:href="#path-7"></use>
                    </mask>
                    <g id="Clip-11"></g>
                    <path d="M57.6917,122.682 C56.5157,122.659 55.3617,122.951 54.1807,122.908 C53.7117,122.891 53.4547,122.793 53.4457,122.268 C53.4027,119.84 53.0197,117.432 53.1147,114.99 C53.1407,114.34 53.1947,113.685 53.2137,113.032 C53.2197,112.795 53.1907,112.58 53.4167,112.401 C54.0717,111.885 53.7767,111.29 53.5227,110.709 C53.2687,110.127 52.7867,110.122 52.2407,110.149 C51.3787,110.193 50.5137,110.161 49.6497,110.161 C48.8187,110.416 48.1067,110.024 47.3857,109.725 C46.7677,109.468 46.1607,109.183 45.5187,108.989 C45.2157,108.897 44.8717,108.814 44.6287,109.078 C44.3627,109.368 44.5887,109.667 44.7197,109.948 C44.7857,110.09 44.6767,109.936 44.7817,110.047 C47.1067,112.52 46.6747,115.531 46.4277,118.5 C46.3497,119.442 46.1407,120.37 46.0527,121.309 C45.9617,122.271 45.5737,122.755 44.5497,122.586 C44.2887,122.543 43.9977,122.521 43.7407,122.667 C42.7747,122.656 42.7917,122.655 42.7567,121.882 C42.6197,118.889 43.0447,115.937 43.4147,112.983 C43.4967,112.326 43.6767,111.681 43.8127,111.03 C43.8777,110.715 43.7957,110.431 43.4477,110.435 C42.9367,110.441 42.8007,110.076 42.6077,109.742 C42.5297,109.607 42.4807,109.435 42.3677,109.343 C41.1837,108.38 40.9747,107.067 40.9747,105.652 C40.9757,103.77 40.8787,101.887 40.9247,100.007 C40.9627,98.406 41.1777,96.814 41.6417,95.269 C41.7907,94.948 41.8957,94.604 41.9817,94.271 C42.1577,93.591 42.4777,93.327 43.1667,93.604 C43.7847,93.852 44.4287,93.779 45.0157,93.545 C46.9917,92.757 49.1267,92.546 51.1137,91.765 C52.5197,91.212 53.8427,90.622 55.0197,89.649 C56.8257,88.155 57.9087,88.35 59.1057,90.394 C60.0797,92.058 60.4877,93.904 60.3357,95.836 C60.2887,96.436 60.2257,97.138 59.3427,97.164 C58.9087,96.502 58.6627,95.759 58.4317,95.013 C58.3057,94.605 58.2257,94.183 57.9597,93.833 C57.2677,93.874 57.6637,94.331 57.6537,94.633 C57.6437,96.196 58.3347,97.602 58.6597,99.091 C59.2007,101.572 59.8317,104.035 60.2707,106.538 C60.3377,106.921 60.2927,107.322 60.3327,107.712 C60.3867,108.224 60.2787,108.547 59.6647,108.491 C59.1317,108.444 59.0317,109.017 58.6787,109.235 C58.5617,109.449 58.3987,109.625 58.1677,109.7 C57.2337,110.003 56.9447,110.734 56.8777,111.614 C56.6947,114.003 56.5427,116.392 56.6057,118.792 C56.6297,119.722 56.8597,120.57 57.3107,121.376 C57.5357,121.777 57.8717,122.158 57.6917,122.682" id="Fill-10" fill="#FFFFFF" mask="url(#mask-8)"></path>
                </g>
                <g id="Group-15">
                    <mask id="mask-10" fill="white">
                        <use xlink:href="#path-9"></use>
                    </mask>
                    <g id="Clip-14"></g>
                    <path d="M54.6194,85.5398 C55.1094,85.0718 55.7194,84.7968 56.3124,84.4948 C58.2734,83.4948 60.2314,82.4988 62.1354,81.3808 C64.7264,79.8578 66.7964,77.8578 68.5684,75.4498 C71.4504,71.5318 73.8104,67.3298 75.6634,62.8478 C77.0304,59.5428 77.9754,56.0928 78.6904,52.5928 C78.8984,51.5718 78.7194,50.4738 78.7394,49.4118 C78.8084,45.7868 78.3354,42.2218 77.5994,38.6828 C77.5684,38.5328 77.5964,38.3708 77.5964,38.2148 C78.4814,39.2928 78.9164,40.6108 79.3834,41.8768 C80.0344,43.6368 80.5114,45.4638 80.9934,47.2818 C81.1904,48.0278 81.2394,48.8208 81.2974,49.5968 C81.4634,51.8188 81.5174,54.0438 81.3644,56.2688 C81.1914,58.7838 80.6244,61.2198 79.8734,63.6188 C79.3244,65.3748 78.6104,67.0778 77.7744,68.6998 C76.8634,70.4688 75.7154,72.1218 74.5054,73.7168 C72.8814,75.8548 70.9344,77.6848 68.8704,79.3688 C67.5434,80.4518 66.0434,81.3208 64.5424,82.1698 C61.7924,83.7248 58.8314,84.6998 55.7844,85.4478 C55.4114,85.5398 55.0084,85.5118 54.6194,85.5398" id="Fill-13" fill="#D0D0D0" mask="url(#mask-10)"></path>
                </g>
                <g id="Group-18">
                    <mask id="mask-12" fill="white">
                        <use xlink:href="#path-11"></use>
                    </mask>
                    <g id="Clip-17"></g>
                    <path d="M59.3427,97.164 C59.9097,96.874 60.0327,96.349 60.0597,95.782 C60.1427,94.062 59.7467,92.44 59.0567,90.876 C58.7267,90.127 58.0917,89.645 57.5347,89.1 C57.1157,88.69 56.6377,88.872 56.2377,89.147 C55.5287,89.636 54.8167,90.131 54.1717,90.698 C53.6517,91.155 53.0707,91.43 52.4287,91.636 C51.4587,91.947 50.4717,92.218 49.5667,92.707 C49.4637,92.763 49.3487,92.84 49.2417,92.837 C47.6257,92.802 46.2267,93.631 44.7057,93.971 C43.7717,94.18 43.4597,94.157 42.5477,93.695 C42.1197,94.141 42.1357,94.859 41.6417,95.269 C41.7087,93.892 41.8437,93.35 42.3667,92.385 C42.7657,92.418 42.9787,92.819 43.3457,92.914 C43.5617,92.97 43.7247,92.935 43.7417,92.669 C43.6017,92.479 43.6027,92.291 43.7467,92.104 C44.0907,92.157 44.3827,92.41 44.8697,92.372 C44.3707,91.625 43.8147,91.042 43.1627,90.522 C42.7627,90.204 42.8417,90.06 43.4477,89.86 C44.5337,90.298 45.2057,91.377 46.3447,91.732 C48.2247,91.682 49.8937,90.943 51.5177,90.095 C52.0297,89.828 52.5567,89.557 52.9777,89.139 C53.7917,88.319 54.7057,87.677 55.8847,87.506 C55.9647,87.509 56.0177,87.473 56.0437,87.397 C56.1377,87.358 56.2237,87.303 56.3007,87.235 C56.4437,87.175 56.5817,87.096 56.7307,87.06 C57.2247,86.941 57.7187,86.771 58.2197,86.743 C58.8917,86.705 58.8917,87.427 59.1857,87.795 C60.6517,89.627 61.9997,91.536 63.0187,93.672 C63.4717,94.619 63.6287,95.61 63.7747,96.605 C63.9067,97.509 63.1257,98.525 62.1877,98.833 C61.8567,98.942 61.4887,98.941 61.1597,99.054 C60.8377,99.165 60.5827,99.451 60.1787,99.4460647 C59.7297,98.753 59.6137,97.929 59.3427,97.164" id="Fill-16" fill="#D0D0D0" mask="url(#mask-12)"></path>
                </g>
                <g id="Group-21">
                    <mask id="mask-14" fill="white">
                        <use xlink:href="#path-13"></use>
                    </mask>
                    <g id="Clip-20"></g>
                    <path d="M42.6677,88.1781 C42.5867,88.6161 42.2997,88.9541 42.1037,89.3361 C41.1717,91.1511 40.4837,93.0521 40.0927,95.0601 C40.0137,95.0601 39.9197,95.0901 39.8657,95.0561 C38.7777,94.3551 38.8037,94.3601 39.1097,93.1181 C39.2827,92.4181 39.5827,91.8071 40.0147,91.2381 C40.7227,90.3051 41.4067,89.3541 42.1007,88.4111 C42.2427,88.2201 42.3637,87.9761 42.6677,88.1781" id="Fill-19" fill="#CBCBCB" mask="url(#mask-14)"></path>
                </g>
                <g id="Group-24">
                    <mask id="mask-16" fill="white">
                        <use xlink:href="#path-15"></use>
                    </mask>
                    <g id="Clip-23"></g>
                    <path d="M48.9585,90.3272 C48.8545,90.5032 48.6695,90.5262 48.4965,90.5722 C47.9715,90.8042 47.7635,90.3382 47.4505,90.1002 C47.3365,90.0012 47.2345,89.8912 47.1405,89.7742 C47.0755,89.7022 47.0135,89.6272 46.9495,89.5552 C46.9125,89.5242 46.8795,89.4892 46.8415,89.4582 C46.7595,89.4032 46.6785,89.3472 46.5945,89.2952 C46.2755,89.1172 45.9465,88.9562 45.6735,88.7052 C45.4785,88.5222 45.2725,88.3372 45.1905,88.0802 C45.0555,87.6552 45.2075,87.5002 45.6365,87.6762 C45.9315,87.6952 46.2255,87.7152 46.5205,87.7342 C46.6455,87.7702 46.7685,87.8122 46.8815,87.8802 C46.9485,87.9372 47.0095,88.0002 47.0675,88.0682 C47.1915,88.2002 47.3365,88.3112 47.4555,88.4502 C47.6585,88.7222 47.8665,88.9892 48.1375,89.1992 C48.4565,89.4602 48.8545,89.6362 49.0385,90.0402 C49.0625,90.1492 49.0335,90.2452 48.9585,90.3272" id="Fill-22" fill="#C0C0C0" mask="url(#mask-16)"></path>
                </g>
                <g id="Group-27">
                    <mask id="mask-18" fill="white">
                        <use xlink:href="#path-17"></use>
                    </mask>
                    <g id="Clip-26"></g>
                    <path d="M47.7458,90.7527 C47.4678,90.8347 47.2408,91.0227 46.9178,90.7157 C46.3048,90.1337 45.6128,89.6327 44.9538,89.0987 C44.8558,89.0407 44.7748,88.9607 44.6818,88.8967 L44.6778,88.8947 C44.3068,88.7287 43.9088,88.5977 43.7558,88.1597 C43.7238,87.8267 43.6638,87.4747 44.1788,87.4837 C44.8438,87.5957 45.1528,88.1997 45.6498,88.5457 C45.9388,88.9067 46.3378,89.1397 46.6928,89.4227 C47.0288,89.6467 47.2478,90.0067 47.6078,90.2027 C47.7398,90.3647 47.8738,90.5257 47.7458,90.7527" id="Fill-25" fill="#BABABA" mask="url(#mask-18)"></path>
                </g>
                <g id="Group-30">
                    <mask id="mask-20" fill="white">
                        <use xlink:href="#path-19"></use>
                    </mask>
                    <g id="Clip-29"></g>
                    <path d="M48.9585,90.3272 C48.9465,90.2612 48.9415,90.1952 48.9425,90.1282 C48.8635,89.6592 48.4315,89.5042 48.1375,89.2262 C47.7525,88.9232 47.5035,88.5032 47.1915,88.1362 C47.1495,87.9662 47.1575,87.8152 47.3375,87.7242 C48.5655,88.0412 49.1465,89.0922 49.9525,89.9032 C49.6285,90.2182 49.3505,90.4182 48.9585,90.3272" id="Fill-28" fill="#B7B7B7" mask="url(#mask-20)"></path>
                </g>
                <g id="Group-33">
                    <mask id="mask-22" fill="white">
                        <use xlink:href="#path-21"></use>
                    </mask>
                    <g id="Clip-32"></g>
                    <path d="M55.8843,87.5057 C54.9303,88.0757 54.0493,88.7767 52.9783,89.1397 C52.9903,88.6947 52.7113,88.7947 52.4523,88.8587 C52.2443,88.3807 52.6133,88.2697 52.9233,88.1367 C53.2683,87.9897 53.6653,87.9727 53.9603,87.7167 C53.9363,87.5687 54.4493,87.7777 54.1463,87.4357 C54.7393,87.1037 55.3133,87.2757 55.8843,87.5057" id="Fill-31" fill="#161616" mask="url(#mask-22)"></path>
                </g>
                <g id="Group-36">
                    <mask id="mask-24" fill="white">
                        <use xlink:href="#path-23"></use>
                    </mask>
                    <g id="Clip-35"></g>
                    <path d="M46.3445,91.7324 C45.9115,91.9644 45.5885,91.6934 45.2665,91.4784 C44.5875,91.0224 44.0035,90.4564 43.4475,89.8604 C43.5465,89.7704 43.6455,89.6804 43.7445,89.5904 C44.3535,89.3534 44.5825,89.9484 44.9885,90.1554 C45.3835,90.6314 46.1075,90.7624 46.3215,91.4284 C46.3295,91.5294 46.3365,91.6314 46.3445,91.7324" id="Fill-34" fill="#181818" mask="url(#mask-24)"></path>
                </g>
                <g id="Group-39">
                    <mask id="mask-26" fill="white">
                        <use xlink:href="#path-25"></use>
                    </mask>
                    <g id="Clip-38"></g>
                    <path d="M51.4921,89.3298 C50.6821,89.7398 50.6861,89.7358 50.0911,89.0838 C49.9081,88.8818 49.6821,88.7198 49.4971,88.5198 C49.3461,88.3568 49.0941,88.2708 49.0651,87.9918 C49.8471,87.7508 50.2541,88.4448 50.8331,88.6978 C51.2571,88.6958 51.6331,88.7428 51.4921,89.3298" id="Fill-37" fill="#B4B4B4" mask="url(#mask-26)"></path>
                </g>
                <g id="Group-42">
                    <mask id="mask-28" fill="white">
                        <use xlink:href="#path-27"></use>
                    </mask>
                    <g id="Clip-41"></g>
                    <path d="M54.2397,87.7347 C53.8207,88.0867 53.3777,88.3927 52.8147,88.4587 C52.5727,88.4867 52.5127,88.6707 52.4527,88.8587 C52.4527,88.8587 52.3497,88.8657 52.3497,88.8657 L52.2477,88.8557 C52.0247,88.6957 51.9197,88.4927 52.0157,88.2157 C52.4337,87.7727 52.9277,87.5387 53.5507,87.6657 C53.7907,87.5857 54.0267,87.5457 54.2397,87.7347" id="Fill-40" fill="#A6A6A6" mask="url(#mask-28)"></path>
                </g>
                <g id="Group-45">
                    <mask id="mask-30" fill="white">
                        <use xlink:href="#path-29"></use>
                    </mask>
                    <g id="Clip-44"></g>
                    <path d="M52.0157,88.2161 C52.1167,88.4211 52.2807,88.6031 52.2477,88.8561 L52.2727,88.9241 C51.5747,89.1331 51.2307,88.6151 50.8267,88.2201 C50.6317,88.0111 50.7597,87.8561 50.9517,87.8041 C51.3907,87.6851 51.7717,87.7931 52.0157,88.2161" id="Fill-43" fill="#B3B3B3" mask="url(#mask-30)"></path>
                </g>
                <g id="Group-48">
                    <mask id="mask-32" fill="white">
                        <use xlink:href="#path-31"></use>
                    </mask>
                    <g id="Clip-47"></g>
                    <path d="M44.91,90.3116 L43.745,89.5906 C43.41,89.3376 43.417,88.9986 43.506,88.6386 C44.1,88.4566 44.165,89.0696 44.489,89.2946 L44.52,89.3246 C44.546,89.4326 44.606,89.5126 44.708,89.5596 C44.862,89.7236 45.016,89.8876 45.171,90.0526 C45.228,90.2836 45.149,90.3786 44.91,90.3116" id="Fill-46" fill="#BFBFBF" mask="url(#mask-32)"></path>
                </g>
                <g id="Group-51">
                    <mask id="mask-34" fill="white">
                        <use xlink:href="#path-33"></use>
                    </mask>
                    <g id="Clip-50"></g>
                    <path d="M45.59,88.6673 C44.981,88.4383 44.711,87.8053 44.179,87.4833 C44.669,87.5193 45.195,87.2773 45.637,87.6763 C45.467,87.7583 44.907,87.6023 45.369,88.0733 C45.554,88.2613 45.84,88.3503 45.951,88.6233 C45.844,88.7473 45.724,88.7613 45.59,88.6673" id="Fill-49" fill="#1E1E1E" mask="url(#mask-34)"></path>
                </g>
                <g id="Group-54">
                    <mask id="mask-36" fill="white">
                        <use xlink:href="#path-35"></use>
                    </mask>
                    <g id="Clip-53"></g>
                    <path d="M44.91,90.3116 C44.997,90.2256 45.084,90.1386 45.171,90.0526 C45.541,90.3096 45.917,90.5596 46.28,90.8276 C46.515,91.0006 46.447,91.2176 46.322,91.4276 C45.793,91.1296 45.301,90.7836 44.91,90.3116" id="Fill-52" fill="#9E9E9E" mask="url(#mask-36)"></path>
                </g>
                <g id="Group-57">
                    <mask id="mask-38" fill="white">
                        <use xlink:href="#path-37"></use>
                    </mask>
                    <g id="Clip-56"></g>
                    <path d="M50.827,88.2205 C51.38,88.3095 51.692,88.8925 52.273,88.9235 C52.07,89.1695 51.776,89.2395 51.492,89.3295 C51.39,88.9975 51.031,88.9315 50.833,88.6975 C50.831,88.5385 50.829,88.3795 50.827,88.2205" id="Fill-55" fill="#212121" mask="url(#mask-38)"></path>
                </g>
                <g id="Group-60">
                    <mask id="mask-40" fill="white">
                        <use xlink:href="#path-39"></use>
                    </mask>
                    <g id="Clip-59"></g>
                    <path d="M44.4886,89.2948 C44.0536,89.2368 43.9266,88.7178 43.5056,88.6388 C43.5896,88.4788 43.6726,88.3198 43.7566,88.1598 C44.1026,88.3558 44.4766,88.5178 44.6776,88.8948 C44.5056,88.9768 44.5036,89.1388 44.4886,89.2948" id="Fill-58" fill="#3C3C3C" mask="url(#mask-40)"></path>
                </g>
                <g id="Group-63">
                    <mask id="mask-42" fill="white">
                        <use xlink:href="#path-41"></use>
                    </mask>
                    <g id="Clip-62"></g>
                    <path d="M43.7466,92.1043 C43.7446,92.2923 43.7436,92.4803 43.7416,92.6683 C43.4246,92.2933 43.1066,91.9193 42.7896,91.5443 C42.7236,91.4493 42.7276,91.3543 42.7916,91.2603 C43.2366,91.3983 43.4646,91.7823 43.7466,92.1043" id="Fill-61" fill="#7E7E7E" mask="url(#mask-42)"></path>
                </g>
                <g id="Group-66">
                    <mask id="mask-44" fill="white">
                        <use xlink:href="#path-43"></use>
                    </mask>
                    <g id="Clip-65"></g>
                    <path d="M42.6677,88.1781 C42.4787,88.2561 42.2897,88.3341 42.1007,88.4111 C42.1677,87.9301 42.5687,87.6821 42.8347,87.2361 C43.1147,87.6921 42.8987,87.9371 42.6677,88.1781" id="Fill-64" fill="#929292" mask="url(#mask-44)"></path>
                </g>
                <g id="Group-69">
                    <mask id="mask-46" fill="white">
                        <use xlink:href="#path-45"></use>
                    </mask>
                    <g id="Clip-68"></g>
                    <path d="M47.7458,90.7527 C47.6708,90.6187 47.5968,90.4857 47.5218,90.3517 C47.3898,90.1867 47.3808,90.0207 47.5168,89.8517 C47.9298,89.9747 47.9608,90.6177 48.4968,90.5717 C48.2888,90.8067 48.0268,90.8207 47.7458,90.7527" id="Fill-67" fill="#606060" mask="url(#mask-46)"></path>
                </g>
                <g id="Group-72">
                    <mask id="mask-48" fill="white">
                        <use xlink:href="#path-47"></use>
                    </mask>
                    <g id="Clip-71"></g>
                    <path d="M57.654,94.6329 C57.438,94.3749 57.47,94.0509 57.439,93.7499 C57.418,93.5509 57.496,93.3249 57.74,93.3629 C57.969,93.3979 57.959,93.6399 57.96,93.8329 C57.627,94.0119 57.784,94.3769 57.654,94.6329" id="Fill-70" fill="#2B2B2B" mask="url(#mask-48)"></path>
                </g>
                <g id="Group-75">
                    <mask id="mask-50" fill="white">
                        <use xlink:href="#path-49"></use>
                    </mask>
                    <g id="Clip-74"></g>
                    <path d="M47.3374,87.7241 C47.2544,87.8781 47.2304,88.0391 47.2774,88.2081 C47.3834,88.3191 47.3764,88.4221 47.2554,88.5171 C47.0994,88.4261 46.9224,88.3571 46.8854,88.1471 C46.9014,88.0441 46.8564,87.9791 46.7594,87.9481 C46.6244,87.9391 46.5564,87.8541 46.5204,87.7341 C46.7924,87.7311 47.0654,87.7271 47.3374,87.7241" id="Fill-73" fill="#212121" mask="url(#mask-50)"></path>
                </g>
                <g id="Group-78">
                    <mask id="mask-52" fill="white">
                        <use xlink:href="#path-51"></use>
                    </mask>
                    <g id="Clip-77"></g>
                    <path d="M54.2397,87.7347 C54.0107,87.7117 53.7807,87.6887 53.5517,87.6657 C53.7497,87.5887 53.9477,87.5117 54.1457,87.4357 C54.2817,87.4657 54.5317,87.4897 54.5337,87.5277 C54.5447,87.7007 54.3787,87.7177 54.2397,87.7347" id="Fill-76" fill="#A2A2A2" mask="url(#mask-52)"></path>
                </g>
                <g id="Group-81">
                    <mask id="mask-54" fill="white">
                        <use xlink:href="#path-53"></use>
                    </mask>
                    <g id="Clip-80"></g>
                    <path d="M44.7075,89.5596 C44.5925,89.5226 44.5245,89.4496 44.5205,89.3246 C44.6535,89.3466 44.7105,89.4296 44.7075,89.5596" id="Fill-79" fill="#3C3C3C" mask="url(#mask-54)"></path>
                </g>
                <g id="Group-84">
                    <mask id="mask-56" fill="white">
                        <use xlink:href="#path-55"></use>
                    </mask>
                    <g id="Clip-83"></g>
                    <path d="M42.7921,91.2607 C42.7911,91.3547 42.7901,91.4497 42.7891,91.5447 C42.6941,91.4997 42.5711,91.4657 42.6081,91.3297 C42.6181,91.2927 42.7281,91.2827 42.7921,91.2607" id="Fill-82" fill="#B2B2B2" mask="url(#mask-56)"></path>
                </g>
                <g id="Group-87">
                    <mask id="mask-58" fill="white">
                        <use xlink:href="#path-57"></use>
                    </mask>
                    <g id="Clip-86"></g>
                    <path d="M44.6813,88.8969 C44.8313,88.8839 44.9173,88.9569 44.9533,89.0989 C44.8223,89.0859 44.7333,89.0159 44.6813,88.8969" id="Fill-85" fill="#3C3C3C" mask="url(#mask-58)"></path>
                </g>
                <g id="Group-90">
                    <mask id="mask-60" fill="white">
                        <use xlink:href="#path-59"></use>
                    </mask>
                    <g id="Clip-89"></g>
                    <path d="M56.3002,87.2347 C56.2482,87.3417 56.1672,87.4037 56.0432,87.3977 C56.0852,87.2737 56.1722,87.2217 56.3002,87.2347" id="Fill-88" fill="#161616" mask="url(#mask-60)"></path>
                </g>
                <g id="Group-93">
                    <mask id="mask-62" fill="white">
                        <use xlink:href="#path-61"></use>
                    </mask>
                    <g id="Clip-92"></g>
                    <path d="M53.1753,32.6966 C51.8953,33.0206 51.0853,33.8446 50.1853,34.5086 C48.8873,35.4656 47.7583,36.6086 46.6873,37.8106 C45.5123,39.1286 44.1583,39.0446 43.0543,37.6226 C42.1003,36.3926 41.3583,35.0006 40.2033,33.9216 C39.8063,33.5506 39.7963,33.0536 40.1403,32.6516 C40.4993,32.2326 40.9513,32.4706 41.3203,32.6806 C41.5863,32.8316 41.8183,33.0696 42.0163,33.3086 C42.8403,34.3046 43.7963,35.1896 44.5023,36.2846 C44.7543,36.6766 44.9583,36.7776 45.4193,36.4196 C46.3143,35.7256 47.0153,34.8216 47.9863,34.2076 C49.4353,33.2916 50.7383,32.1376 52.3943,31.5656 C52.5403,31.5156 52.6763,31.4356 52.8223,31.3826 C53.9493,30.9706 54.1223,31.0716 54.1033,32.3046 C54.0643,34.7836 54.4183,37.2246 54.7553,39.6686 C54.8093,40.0556 54.8333,40.4506 54.8333,40.8416 C54.8333,41.0906 54.6933,41.3016 54.4303,41.3526 C54.1333,41.4096 53.8673,41.3126 53.7523,41.0176 C53.6683,40.8026 53.6363,40.5626 53.6083,40.3306 C53.4593,39.0816 53.2713,37.8356 53.1883,36.5816 C53.1053,35.3316 53.0173,34.0746 53.1753,32.6966" id="Fill-91" fill="#010101" mask="url(#mask-62)"></path>
                </g>
                <g id="Group-96">
                    <mask id="mask-64" fill="white">
                        <use xlink:href="#path-63"></use>
                    </mask>
                    <g id="Clip-95"></g>
                    <path d="M37.3282,35.4733 C37.2512,37.1433 37.5572,38.9913 38.0312,40.8203 C38.1102,41.1223 38.1312,41.4403 38.1722,41.7523 C38.2112,42.0433 38.1852,42.3443 37.8462,42.4103 C37.5162,42.4763 37.2312,42.3433 37.1032,41.9883 C36.7342,40.9643 36.3592,39.9513 36.2572,38.8433 C36.0812,36.9323 35.9942,35.0333 36.3742,33.1373 C36.4302,32.8563 36.4542,32.5553 36.8282,32.5813 C37.2282,32.6093 37.3712,32.9243 37.3102,33.2543 C37.1852,33.9253 37.3322,34.5833 37.3282,35.4733" id="Fill-94" fill="#050505" mask="url(#mask-64)"></path>
                </g>
                <g id="Group-99">
                    <mask id="mask-66" fill="white">
                        <use xlink:href="#path-65"></use>
                    </mask>
                    <g id="Clip-98"></g>
                    <path d="M47.3015,79.7019 C46.8745,79.7359 46.4425,79.8239 46.0205,79.7879 C45.6205,79.7529 45.2675,79.5609 45.3145,79.0389 C45.3565,78.5629 45.6605,78.5209 46.0555,78.5099 C46.5325,78.4959 46.9875,78.5979 47.4525,78.6509 C48.2755,78.7449 49.0905,78.5839 49.9085,78.5119 C50.1415,78.4919 50.3765,78.4629 50.6095,78.4689 C50.8525,78.4749 51.1075,78.5529 51.1515,78.8229 C51.2045,79.1509 50.9705,79.3379 50.6815,79.3919 C49.5665,79.5999 48.4415,79.7349 47.3015,79.7019" id="Fill-97" fill="#070707" mask="url(#mask-66)"></path>
                </g>
                <g id="Group-102">
                    <mask id="mask-68" fill="white">
                        <use xlink:href="#path-67"></use>
                    </mask>
                    <g id="Clip-101"></g>
                    <path d="M47.2557,88.517 C47.2627,88.414 47.2697,88.311 47.2767,88.208 C47.6707,88.434 47.9857,88.746 48.2617,89.101 C48.3067,89.33 48.2367,89.443 47.9867,89.373 C47.6677,89.152 47.3067,88.966 47.2557,88.517" id="Fill-100" fill="#333333" mask="url(#mask-68)"></path>
                </g>
                <g id="Group-105">
                    <mask id="mask-70" fill="white">
                        <use xlink:href="#path-69"></use>
                    </mask>
                    <g id="Clip-104"></g>
                    <path d="M45.59,88.6673 C45.71,88.6523 45.831,88.6383 45.951,88.6233 C46.204,88.8003 46.457,88.9763 46.71,89.1533 C46.852,89.1773 46.922,89.2613 46.92,89.4053 C46.858,89.6033 46.765,89.7423 46.529,89.6153 C46.116,89.3983 45.865,89.0203 45.59,88.6673" id="Fill-103" fill="#2C2C2C" mask="url(#mask-70)"></path>
                </g>
                <g id="Group-108">
                    <mask id="mask-72" fill="white">
                        <use xlink:href="#path-71"></use>
                    </mask>
                    <g id="Clip-107"></g>
                    <path d="M47.9866,89.3735 C48.1226,89.3275 48.2156,89.2375 48.2616,89.1015 C48.5046,89.3225 48.7546,89.5375 48.9896,89.7675 C49.1156,89.8915 49.0886,90.0245 48.9426,90.1285 C48.6236,89.8765 48.3056,89.6255 47.9866,89.3735" id="Fill-106" fill="#6F6F6F" mask="url(#mask-72)"></path>
                </g>
                <g id="Group-111">
                    <mask id="mask-74" fill="white">
                        <use xlink:href="#path-73"></use>
                    </mask>
                    <g id="Clip-110"></g>
                    <path d="M46.5287,89.6157 C46.6247,89.5307 46.7207,89.4457 46.8177,89.3617 C46.9037,89.2797 46.9787,89.2897 47.0407,89.3917 L47.0207,89.3717 C47.1377,89.4247 47.2137,89.5197 47.2807,89.6237 C47.3597,89.6997 47.4377,89.7757 47.5167,89.8527 C47.5187,90.0187 47.5197,90.1857 47.5217,90.3517 C47.1117,90.2137 46.8627,89.8577 46.5287,89.6157" id="Fill-109" fill="#2F2F2F" mask="url(#mask-74)"></path>
                </g>
                <g id="Group-114">
                    <mask id="mask-76" fill="white">
                        <use xlink:href="#path-75"></use>
                    </mask>
                    <g id="Clip-113"></g>
                    <path d="M47.2811,89.6238 C47.1381,89.5978 47.0591,89.5058 47.0211,89.3718 C47.1561,89.4058 47.2421,89.4908 47.2811,89.6238" id="Fill-112" fill="#BABABA" mask="url(#mask-76)"></path>
                </g>
                <g id="Group-117">
                    <mask id="mask-78" fill="white">
                        <use xlink:href="#path-77"></use>
                    </mask>
                    <g id="Clip-116"></g>
                    <path d="M47.0402,89.3918 C46.9662,89.3778 46.8922,89.3668 46.8172,89.3618 C46.7782,89.2938 46.7432,89.2238 46.7102,89.1528 C46.8702,89.1638 46.9822,89.2398 47.0402,89.3918" id="Fill-115" fill="#BABABA" mask="url(#mask-78)"></path>
                </g>
                <g id="Group-120">
                    <mask id="mask-80" fill="white">
                        <use xlink:href="#path-79"></use>
                    </mask>
                    <g id="Clip-119"></g>
                    <path d="M46.7597,87.9479 C46.8557,87.9799 46.9657,88.0039 46.8857,88.1469 C46.8437,88.0809 46.8017,88.0139 46.7597,87.9479" id="Fill-118" fill="#000000" mask="url(#mask-80)"></path>
                </g>
                <g id="Group-123">
                    <mask id="mask-82" fill="white">
                        <use xlink:href="#path-81"></use>
                    </mask>
                    <g id="Clip-122"></g>
                    <path d="M37.1078,60.3655 C37.1078,60.8735 37.1258,61.3825 37.1038,61.8895 C37.0698,62.6865 36.5138,63.2385 35.7818,63.2355122 C35.2268,63.2325 34.7938,62.7805 34.7488,62.0315 C34.7018,61.2555 34.3848,60.5165 34.4838,59.7205 C34.5368,59.2935 34.5508,58.8725 34.7508,58.4735 C35.1198,57.7395 35.3868,57.5745 36.1088,57.7075 C36.7998,57.8345 36.9488,58.0115 37.0298,58.8415 C37.0558,59.1135 37.0518,59.3885 37.0568,59.6615 C37.0618,59.8965 37.0578,60.1315 37.0578,60.3655 C37.0748,60.3655 37.0908,60.3655 37.1078,60.3655" id="Fill-121" fill="#030303" mask="url(#mask-82)"></path>
                </g>
                <g id="Group-126">
                    <mask id="mask-84" fill="white">
                        <use xlink:href="#path-83"></use>
                    </mask>
                    <g id="Clip-125"></g>
                    <path d="M58.6964,59.2019 C58.6704,60.1129 58.6244,61.0389 58.2884,61.9369 C58.1044,62.4309 57.7424,62.5499 57.2944,62.5899 C56.8264,62.6319 56.5144,62.3509 56.3854,61.9819 C55.8934,60.5739 55.8714,59.1549 56.4284,57.7469 C56.6564,57.1719 57.2044,57.0859 57.6794,57.0359 C58.1164,56.9899 58.2844,57.4639 58.4834,57.7959 C58.7434,58.2269 58.5634,58.7239 58.6964,59.2019" id="Fill-124" fill="#030303" mask="url(#mask-84)"></path>
                </g>
            </g>
        </g>
    </g>
</svg>