<svg xmlns="http://www.w3.org/2000/svg" xmlns:xlink="http://www.w3.org/1999/xlink" width="100" height="100" xmlns:v="https://vecta.io/nano"><defs><path d="M0 50c0 27.615 22.386 50 50 50h0c27.614 0 50-22.385 50-50h0c0-27.614-22.386-50-50-50h0C22.386 0 0 22.386 0 50h0z" id="A"/><path id="B" d="M0 0h70.07v68.837H0z"/></defs><g fill="none" fill-rule="evenodd"><mask id="C" fill="#fff"><use xlink:href="#A"/></mask><path fill="#f5a7be" mask="url(#C)" d="M-43.478 142.029h201.449V-9.42H-43.478z"/><g mask="url(#C)"><g transform="translate(15 19)"><path d="M44.51 93.307c-.003.04-.018.082-.014.121.148 1.334-.709 1.693-1.785 1.838.071-.146.199-.29.204-.438.067-1.832.164-3.675-.048-5.493l-.412-4.356c-.003-.994.322-2.84 1.413-1.585.816.938 1.391 2.17 1.734 3.355-.191-2.466.703-5.258-.836-7.47-.483-.694-.963-1.451-.985-2.296-.011-.399.146-.868.531-.972.391-.106.572.186.87.336.352.178.742.057 1.035.399.127.148.191.339.245.527l.424 1.64c.122.633.287 1.259.498 1.868.267.772.741 1.495.869 2.304.287 1.811.423 3.545.318 5.381-.019.33-.041.663-.126.982-.286 1.076-.997 1.921-1.823 2.637-.496.43-.651.444-1.261.48-.525.032-.803.162-.851.742" fill="#d0d0d0"/><mask id="D" fill="#fff"><use xlink:href="#B"/></mask><path d="M22.673 68.791c-.289.014-.551-.041-.826-.161-2.73-1.194-5.283-2.659-7.725-4.394-2.527-1.795-4.675-3.94-6.526-6.355-1.726-2.252-3.256-4.652-4.377-7.313-.837-1.984-1.673-3.957-2.172-6.047-.492-2.056-.788-4.143-.961-6.262-.192-2.368-.026-4.711.151-7.055.097-1.285.382-2.57.724-3.816l1.344-4.446c1.084-2.683 2.386-5.238 4.081-7.593 1.075-1.494 2.172-2.955 3.472-4.272 1.484-1.503 3.103-2.809 4.79-4.081 3.137-2.365 6.619-3.945 10.321-5.122.653-.207 1.328-.346 1.993-.515.198-.05.43-.045.59-.151C29.068.207 30.838.414 32.507.146c1.697-.273 3.394-.094 5.097-.021 3.119.135 6.109.86 9.045 1.839 1.379.46 2.679 1.113 3.979 1.785 1.371.708 2.738 1.417 3.99 2.304 1.954 1.385 3.741 2.957 5.429 4.682 2.032 2.075 3.816 4.32 5.225 6.817 1.678 2.972 3.039 6.097 3.772 9.482.328 1.517.651 3.032.811 4.568.283 2.712.304 5.428-.039 8.15-.255 2.026-.637 4.016-1.194 5.975-.736 2.594-1.797 5.044-3.142 7.387-.69 1.203-1.404 2.384-2.2 3.515-2.322 3.298-5.177 6.045-8.522 8.302-.976.659-1.869 1.44-2.995 1.854-1.07-.043-1.365-.482-1.094-1.621.286-.357.659-.608 1.047-.836 6.353-3.723 10.881-9.063 13.781-15.779 2.485-5.756 3.191-11.768 2.326-17.986-.524-3.762-1.657-7.305-3.441-10.648-1.095-2.457-2.742-4.54-4.468-6.566-2.609-3.059-5.748-5.475-9.282-7.344-4.324-2.287-8.957-3.567-13.857-3.757-2.578-.1-5.127.178-7.695.508-6.064.78-10.961 3.739-15.452 7.639-3.975 3.452-6.904 7.647-8.874 12.487a33.3 33.3 0 0 0-2.377 15.606c.575 6.784 3.054 12.752 7.142 18.099 2.358 3.083 5.268 5.568 8.591 7.592 1.541.939 3.177 1.681 4.754 2.544.239.193.538.309.734.561.154.632-.209 1.075-.556 1.525a.49.49 0 0 1-.369-.018" fill="#000" mask="url(#D)"/><g fill="#060401"><path d="M23.019 68.752c-.166-.584.465-.899.48-1.422-.007-.086.012-.166.058-.24a.78.78 0 0 1 .185-.168l.322-.178.197-.149c.064-.056.133-.104.204-.151.078-.044.159-.077.243-.106l.522-.191c.095-.037.191-.062.29-.081.36-.048.724-.053 1.079-.134.102-.018.205-.021.308-.012l.732.147a1.33 1.33 0 0 1 .276.083c.084.039.164.088.239.142l.109.078a1.69 1.69 0 0 0 .468.217c.081.024.16.057.236.094l.337.171c.075.036.145.081.212.13l.194.154.1.073.22.122c.079.038.152.083.223.133s.135.113.196.177l.174.199.274.293c.062.066.115.139.162.215l.148.228.081.11c.06.072.114.147.165.225a1.56 1.56 0 0 1 .128.255c.091.282.254.526.407.776a1.42 1.42 0 0 1 .106.297c.072.429.065.859.032 1.289a1.66 1.66 0 0 1-.067.311 2.94 2.94 0 0 1-.273.547c-.074.124-.16.239-.249.353l-.303.456a2.51 2.51 0 0 1-.242.32l-.171.2-.08.103-.139.224c-.041.079-.088.154-.138.228l-.15.222-.064.117c-.073.17-.102.35-.132.531a1.91 1.91 0 0 1-.07.28l-.187.554c-.027.095-.062.187-.098.279-.063.186-.099.378-.132.571-.018.096-.048.188-.085.278a1.6 1.6 0 0 1-.147.241l-.079.112c-.878 1.347-.843 2.828-1.133 4.353-.113.595-.785 1.894-.475 2.423.048-.083.086-.157.113-.243l.267-.729c.71-2.021 2.325-2.789 4.275-2.917 1.945-.128 3.007 1.197 3.982 2.877.378-.722.772-1.311 1.228-1.853 2.196-2.608 5.956-1.959 7.178 1.246.576 1.512 1.101 2.867.995 4.494-.009.143-.025.299-.125.402-.16.167-.459.1-.613-.073s-.204-.411-.256-.637c-.225-.969-.597-1.896-.968-2.819-1.011-2.514-4.185-3.191-5.55-.555-.575 1.11-.784 2.316-.83 3.55-.065 1.752.108 3.512-.205 5.257-.144.805.222 1.246 1.07 1.251.367.003.739.033 1.089.148.409.134 1.006.158.959.75-.049.609-.617.681-1.117.729-.488.047-.983-.005-1.468.064-.352.05-.738.028-1.091.431 2.069.194 4.023.173 5.914-.581.917-.181 1.6-.56 1.647-1.648.019-.458.305-.812.772-1.02 1.86-.827 3.021-2.992 2.749-5.084-.111-.853-.011-1.692-.161-2.572s-.262-1.357-.542-2.201c-.294-.889-.444-1.87-.675-2.778 0-.367-.168-.754-.193-1.125-.019-.278-.083-.548-.145-.819-.038-.168-.251-.72-.157-.873.241-.387.771.333.94.461.787.595 1.909.76 2.867.651.768-.088 1.417-.372 1.973-.891.506-.474.622-1.036.369-1.677-.046-.114-.089-.234-.163-.33-1.457-1.882-1.992-4.054-2.098-6.39-.057-1.242-.841-1.976-2.002-2.327-.69-.022-1.38-.065-2.065.054-.843.148-1.59.462-1.819 1.383-.225.911-.141 1.801.602 2.472.648.585 1.225 1.211 1.384 2.088.11.611.327 1.315-.507 1.665-.907-.037-1.419-.498-1.494-1.412-.069-.838-.701-1.331-1.154-1.941-.331-.446-.443.136-.678.109-.19.008-.325-.071-.4-.247-.012-.673.185-1.344.01-2.02l.278-1.055c.474-2.067 1.544-2.909 4.101-3.248 1.243.048 2.514-.198 3.708.358.399.185.849.291 1.079.727-.043.769.186 1.11.977 1.453-.353.291-.271.674-.16 1.017.231.712.289 1.455.264 2.175-.036 1.036.235 1.937.846 2.739.503.662.821 1.419 1.095 2.178.391 1.081.335 2.145-.404 3.124-.671.889-1.629 1.53-2.705 1.814-.562.148-1.138.254-1.713.12-.415-.098-1.738-.617-1.79-1.111.091.872.503 1.643.789 2.453l.577 1.67c.45 1.326.711 2.731.758 4.13.02.572-.159 1.051-.229 1.59-.084.647-.034 1.197-.311 1.823-.581 1.309-1.1 2.841-2.786 3.268-.247.063-.343.18-.346.41l-.001.858c.002.472-.25.818-.672.919-1.544.372-2.956 1.163-4.562 1.351-1.71.201-3.369.167-5.074-.208-1.411-.311-2.905-.242-4.362-.353-1.502-.115-3.021.154-4.513-.229-.367-.094-.707-.179-.964-.474-.461-.528-.339-1.348.27-1.681.335-.183.934-.072.963-.572s.074-1.044-.227-1.545c-.338-.561-.495-1.202-.502-1.867-.183-.998-.175-1.99.009-2.993.096-.521-.169-1.023-.095-1.529.062-.429.329-.884.419-1.326.058-.288.121-3.226.067-3.201-.558.255-1.132.262-1.717.387-.215.045-.375.158-.607.176-.186.014-.563-.157-.709-.107a.72.72 0 0 1-.602-.054c-.153-.111-.356-.086-.511-.191l.016.009c-.127-.193-.369-.142-.536-.253l-.202-.104c-.091-.029-.158-.087-.2-.173l-.026-.017a.63.63 0 0 1-.209-.212l-.08-.043.001-.091c-.016-.172-.101-.286-.272-.329l.022.023c-.012-.135-.114-.212-.197-.301l-.067-.065.025-.089c-.078-.193-.059-.419-.208-.587l-.002-.006c-.149-.129-.104-.351-.237-.487l-.005-.012c-.155-.119-.105-.33-.211-.47-.114-.219-.111-.449-.063-.683-.175-.555-.13-1.11 0-1.666-.106-.214-.044-.413.054-.61.107-.19.126-.405.178-.611l-.018-.079.069-.043c.075-.093.186-.161.192-.297l-.023.028c.243-.108.181-.367.275-.549-.032-.078-.01-.134.068-.168.055-.099.172-.162.172-.293l-.02.026c.212-.068.151-.333.314-.435l.012-.022a2.86 2.86 0 0 1 .216-.256c.091-.081.189-.157.234-.277l-.015.021c.136-.072.227-.176.242-.335-.035-.073-.014-.122.063-.148.085-.101.176-.2.184-.342-.029-.081-.001-.132.083-.151.054-.088.121-.164.202-.228l.007-.008c.073-.093.17-.166.22-.276l-.011.018c.195-.153.165-.394.236-.596l-.025-.082.068-.052c.216-.22.037-.551.221-.78-.044-.074-.036-.141.024-.203.075-.097.06-.169-.059-.213l.015.014c-.054-.105-.042-.202.035-.292"/><path d="M19.806 75.991l.001 1.666c-.257-.555-.28-1.111-.001-1.666m3.199-6.545c.006.282.069.581-.221.779-.006-.282-.02-.567.221-.779"/><path d="M20.533 73.83c.017.237-.002.457-.275.549.03-.214.044-.436.275-.549m2.207-3.47c.022.239.016.466-.236.596.019-.222.032-.447.236-.596m-2.871 7.98c.169.112.202.286.211.47a.44.44 0 0 1-.211-.47m.169-3.57c.023.228.031.451-.178.611-.034-.231-.015-.446.178-.611"/><path d="M20.325 79.315c.22.142.229.358.207.586-.225-.14-.218-.362-.207-.586m-.24-.493c.187.11.23.29.237.487-.163-.121-.249-.28-.237-.487m.983-5.863c-.023.204-.083.381-.314.435.022-.204.148-.334.314-.435m.67 8.344c.224-.011.43.013.536.252-.215-.007-.407-.063-.536-.252m-.637-.507l.209.212c-.145.004-.221-.06-.209-.212"/><path d="M21.335 81.026l.201.173c-.12.004-.181-.061-.201-.173m-.586-.693c.164.049.25.163.272.329-.15-.06-.239-.171-.272-.329"/><path d="M20.575 80.056l.197.301c-.153-.043-.229-.137-.197-.301m2.444-11.304l-.035.292a.39.39 0 0 1-.312-.252l.347-.04"/><path d="M22.97 69.03c.176.028.235.088.059.213a.26.26 0 0 1-.059-.213m-2.197 4.338l-.171.294c-.018-.142.026-.248.171-.294m-.492.983l-.192.297c-.019-.153.045-.252.192-.297m2.235-3.414l-.22.277c.017-.137.089-.231.22-.277"/><path d="M22.288 71.222l-.202.228c-.016-.15.066-.213.202-.228m-.285.378c-.005.144-.063.26-.184.342-.017-.156.039-.273.184-.342m-.246.491c-.017.158-.095.271-.242.335.01-.163.089-.276.242-.335"/><path d="M21.529 72.405l-.234.277c.022-.14.097-.234.234-.277"/><path d="M21.298 72.679l-.219.259c-.006-.154.07-.237.219-.259"/></g><path d="M30.918 68.402l-.004-.097-.086-.044c-.164-.145-.303-.313-.442-.48l-.005-.007c-.065-.085-.143-.157-.232-.216l-.046-.078-.091.007c-.169-.023-.287-.103-.309-.286l.024.022c-.156 0-.234-.106-.302-.223l.016.009c-.16-.107-.378-.081-.521-.228l.004.002c-.183-.236-.566.012-.718-.298l.026.021c-.129-.017-.201-.122-.296-.191l-.038-.068-.076.015c-.278-.111-.592-.046-.866-.177l-.252-.018c-.481.25-1.032-.041-1.515.196l.024-.014c-.173.29-.538.066-.74.278l.012-.007c-.079.106-.154.217-.31.208l.021-.021c-.028.236-.327.156-.397.341l-.028.028c-.336.071-.676.195-.983-.082l-3.245-1.584c-2.3-1.347-4.619-2.703-6.492-4.676l-2.268-2.203c-1.221-1.266-2.245-2.683-3.221-4.123-2.511-3.705-4.091-7.809-5.007-12.186-.666-3.181-.734-6.368-.47-9.601.267-3.268 1.03-6.408 2.178-9.449.628-1.663 1.498-3.233 2.385-4.791.995-1.747 2.157-3.355 3.439-4.887 2.803-3.345 6.168-6.018 9.979-8.105 2.351-1.288 4.859-2.266 7.476-2.876.83-.193 1.727-.057 2.605-.204 5.364-.898 10.637-.374 15.781 1.311 2.466.808 4.773 1.988 7.001 3.354 2.844 1.743 5.284 3.936 7.48 6.394 1.491 1.669 2.75 3.541 3.836 5.511.156.282.225.611.334.918a31.05 31.05 0 0 1 1.274 7.954c.052 1.671-.095 3.348.212 5.012.104.562.008 1.137-.105 1.703-1.578 7.917-4.636 15.216-9.15 21.903-1.236 1.83-2.527 3.652-4.065 5.213-1.642 1.666-3.447 3.334-6.16 2.873-.233-.039-.49-.043-.719.079-.198.03-.397.05-.592.094-1.918.429-2.816 1.127-3.137 3.237-.06.397-.176.664-.499.862-1.493.749-3.136.7-4.734.853-.927.088-1.868.012-2.802.02-.531.004-1.067-.003-1.451.463-.093.101-.203.179-.326.237-.246.035-.344-.154-.464-.31l-.002-.007c-.245-.294-.322-.667-.471-1.007l.007.012c-.104-.073-.198-.155-.239-.282l.022.022c-.15-.058-.238-.166-.26-.326" fill="#fff"/><path d="M45.866 64.534c.553-.391 1.185-.201 1.777-.201.641 0 1.195-.137 1.715-.516l2.596-1.837c1.003-.842 1.662-2.001 2.494-3.003 3.133-3.773 5.372-8.083 7.454-12.481 1.121-2.365 1.871-4.874 2.572-7.39.415-1.489.709-3.012 1.108-4.507.228-.853.244-1.683.051-2.536-.21-.929-.124-1.878-.083-2.811.122-2.756-.439-5.432-.879-8.122-.073-.449-.14-.882-.092-1.332.873.861 1.167 2.06 1.583 3.123.795 2.038 1.495 4.157 1.864 6.306.367 2.14.504 4.339.459 6.538-.08 3.862-.76 7.576-2.061 11.23-1.288 3.618-3.153 6.865-5.532 9.831-2.645 3.297-5.761 6.067-9.512 8.077-.214.114-.397.285-.594.429-1.556-.782-3.229-.844-4.92-.798" fill="#d0d0d0"/><path d="M22.788 66.994c.328.027.644.189.983.082l-.271.254c-.259-.067-.577-.007-.712-.336" fill="#060401"/><path d="M45.823 85.779c-.651-1.509-1.192-3.719-2.521-4.782-1.672-1.339-3.952-1.137-5.43.458-.657.709-1.095 1.497-1.42 2.446-.489-.277-.507-.819-.756-1.194-.779-1.174-1.679-2.167-3.205-2.092-1.045.051-2.098.345-2.919 1.016-.692.566-1.205 1.486-1.495 2.319a2.56 2.56 0 0 1-.448.791c-.014.017-.029.034-.049.042-.036.014-.077-.004-.1-.035s-.029-.069-.031-.107c-.008-.155.054-.304.102-.452.216-.659.121-1.39.218-2.072.115-.812.324-1.565.591-2.341.134-.388.268-1.395.561-1.68.113-.153.181-.336.312-.478a13.99 13.99 0 0 1 4.166-1.367c1.765-.278 3.336-1.064 5.014-1.554.762-.223 1.357-.734 1.967-1.217.625-.495 1.202-.547 1.574.284.676 1.508 1.715 2.877 1.569 4.69-.099 1.223 2.058 1.987 2.402 3.066l-.002-.006c.254 1.454.029 2.851-.087 4.295l-.013-.03" fill="#fff"/><path d="M45.925 81.52l-.888-.998c-.614-.708-1.972-1.523-1.871-2.47.097-.9-.159-1.689-.651-2.426-.474-.712-.633-1.587-1.155-2.275-.277-.065-.503.076-.655.244-.889.984-2.067 1.413-3.285 1.782-.624.189-1.242.397-1.82.712-.211.115-.453.238-.684.245-2.038.065-3.838 1.031-5.766 1.505-.11-.178-.15-.342.084-.456l-.028.031c.011-.135.112-.215.193-.307.068-.045.08-.102.036-.171.159-.249.023-.574.213-.815l.003-.005c.239-.191.035-.524.234-.728.055-.07.063-.145.023-.225.235-.182-.038-.593.324-.718l-.03.032c-.011-.146.098-.224.179-.318.064-.042.077-.095.04-.162a.47.47 0 0 1 .25-.317l-.015.023c.055-.09.136-.145.241-.163.215-.019.398.074.583.165s.352.213.496.363c.135.162.24.334.197.558-.09.124-.218.175-.362.186a.86.86 0 0 1-.233-.019c.005.004-.092-.004-.092-.004l-.091.007c-.028.056-.026.107.02.157a.51.51 0 0 0 .18.091c.007-.003.111.017.116.013.236-.006.444-.111.667-.161 2.37-.352 4.446-1.402 6.427-2.68 1.067-.448 1.918-1.35 3.129-1.501.377-.159.143-.609.457-.875l1.21 1.483c.312.386.558.792.518 1.325-.054.725.349 1.104 1.016 1.258.548.823 1.071 1.651.497 2.682-1.133.039-1.078.038-1.06 1.166.02 1.267 1.216 2.513 1.353 3.766" fill="#d0d0d0"/><path d="M45.632 76.588c.153-.953-.48-1.76-.497-2.682.259-.033.442-.112.454-.438.041-1.069-.157-2.029-1.108-2.679-.817-.559-1.096-1.376-1.096-2.311-.001-1.167.542-1.875 1.678-2.218.907-.274 1.834-.312 2.77-.182.486.211.442.63.395 1.039-.121 1.029.132 1.969.422 2.966.449 1.541.441 3.201 1.029 4.735.168.437-.151.778-.532.989-1.041.574-2.139.943-3.351.853a.15.15 0 0 1-.164-.072" fill="#fff"/><path d="M30.403 71.208c-.065.043-.078.099-.04.167-.028.126-.113.221-.186.322-.073.027-.094.077-.062.148-.02.147-.116.247-.209.35l-.004.003c-.09.074-.168.161-.256.237l.005-.004c-.076.077-.146.16-.208.249-.072.036-.093.092-.063.167-.028.128-.112.224-.188.324-.072.03-.092.08-.061.151-.026.155-.116.26-.254.329l.014-.02c-.102.162-.076.373-.204.525-.057.06-.068.127-.032.202-.187.229-.025.554-.217.781-.059.055-.07.118-.034.19-.108.169-.074.395-.221.549-.068.038-.079.089-.034.153-.076.193-.079.412-.208.586l-.003.006c-.244.183-.018.542-.271.722l.009-.017c-.066.082-.124.169-.173.262-.08.049-.106.119-.077.208-.117.161-.083.389-.235.535l.002-.006c-.141.138-.102.361-.239.5l-.001.002a1.14 1.14 0 0 0-.217.253l-.021.018c-.088.05-.155.119-.199.211a.12.12 0 0 0-.085.163c-.043.174-.151.278-.33.303a.33.33 0 0 1-.162-.02c-2.497-1.129-3.311-3.797-1.869-6.016.98-1.508 2.185-2.834 3.315-4.22.362-.444.795-.836 1.455-.729.12.036.234.088.341.156l.03.032c.068.191.361.112.402.336l-.033-.031c.11.034.158.106.133.221-.099.406.073.673.432.845.102.028.178.089.227.182-.039.07-.029.132.03.187.128.162.128.325.001.488" fill="#d0d0d0"/><path d="M29 68.973c-.657-.075-1.073.324-1.431.776l-3.574 4.62c-.618.934-.613 1.784-.118 2.735a9.24 9.24 0 0 0 2.062 2.652l.044.1c-.1.046-.183.113-.246.204l-.01.005c-.185.12-.404.139-.608.202l-.078-.031-.055.064c-.57.2-1.143.161-1.717.021l-.098-.056-.111.022c-.088-.064-.18-.121-.277-.169-.018-.087-.07-.12-.157-.098-.156-.026-.262-.112-.317-.261l.023.02c-.128-.036-.207-.132-.289-.227l.007.005c-.095-.079-.189-.161-.236-.281l.017.025c-.198-.132-.161-.372-.257-.552.035-.079.014-.137-.065-.173-.07-.107-.16-.204-.175-.339l.028-.087-.066-.062c-.204-.224-.035-.554-.225-.782l.007-1.12c.165-.241.035-.554.194-.796.079-.027.1-.078.062-.153.083-.19.045-.438.267-.563l-.022.024c.03-.126.13-.204.208-.297l.002-.005c.157-.123.109-.352.247-.485l.001-.001a.78.78 0 0 0 .192-.238c.084-.012.114-.058.091-.14.114-.239.323-.395.501-.579l-.019.022c.041-.126.135-.208.237-.283l-.007.01c.132-.142.082-.386.278-.491l-.014.022c.108-.169.058-.447.342-.496.122-.03.175-.102.139-.229.1-.519.565-.983.24-1.567.053-.079.042-.148-.032-.208-.118-.165-.12-.328.009-.488l.069-.056-.025-.085c.091-.322.239-.608.522-.807l-.019.023a.61.61 0 0 1 .498-.511l-.024.017c.089-.217.349-.153.484-.295l1.411.008c.158.12.379.084.532.215.052.064.114.076.187.037.116.04.203.124.302.191l.048.078.091-.01c.292.009.425.258.619.414l.021.027c.106.155.319.246.29.482" fill="#fdfdfd"/><path d="M45.796 76.661c.934-.605 2.11-.476 3.073-1.034.512-.296.725-.559.439-1.135-.571-1.149-.821-2.372-.728-3.659.018-.249-.029-.498-.18-.698-.793-1.045-.678-2.203-.413-3.37.064-.278-.047-.471-.154-.687.988.207 2.167 1.323 2.242 2.222.067.808.25 1.605.2 2.428a3.26 3.26 0 0 0 .71 2.269c.493.64.861 1.381 1.252 2.094.529.962.382 1.656-.455 2.366-1.702 1.444-4.248 1.24-5.653-.45-.102-.123-.222-.231-.333-.346" fill="#d0d0d0"/><path d="M38.985 72.395c-2.042 1.506-4.291 2.503-6.833 2.781-.263.1-.523.148-.77-.042l-.003-.001c-.092-.072-.158-.173-.266-.225l-.001-.001c-.018-.442.189-.429.485-.241l.01.01c.178.105.346.148.478-.068l-.228-.436c-.095-.213.035-.315.196-.401.652-.061 1.311.346 1.958-.032.105-.042.212-.076.32-.109.931-.209 1.062-.58.259-1.182-.534-.401-.923-1.01-1.653-1.123-.171.004-.343.007-.512-.031-.108-.055-.187-.137-.24-.246-.093-.305-.058-.586.156-.833l.072-.893c.631-.171 1.285-.044 1.925-.042 2.086.007 4.159-.082 6.206-.517.36-.076.725-.139 1.093-.035.186.048.511.086.43.292-.186.475.065 1.056-.375 1.453-.377.533-.994.237-1.47.429l-.761.243a4.67 4.67 0 0 1-.476.12c-.681.614-1.385.413-2.091.061-.322-.043-.535.217-.812.298a.95.95 0 0 1-.396.014c-.152-.035.058-.095-.087-.019-.031.016-.043.046-.033.089s.033.07.077.074c.427.09.571 1.297 1.25.306.088-.158.22-.252.397-.285.449 0 .899.194 1.349-.008.336.073.604.185.346.6" fill="#020202"/><path d="M34.322 73.886l-.096.053-.11-.004c-.233.128-.41-.023-.598-.118l-.624-.519c-.429-.387-1.128-.568-1.039-1.353.045-.061.054-.126.027-.197.127-.175.083-.406.193-.588.105-.052.193-.029.267.059l.057-.036c.596.257.884.839 1.331 1.253.257.284.598.479.832.788a.62.62 0 0 1 .096.313c-.056.17-.184.272-.336.349" fill="#bcbcbc"/><path d="M40.212 70.653c.455-.375 1.014.105 1.481-.18l.241.242c-.958.604-1.855 1.314-2.948 1.68-.02-.293-.184-.434-.47-.445-.111-.193.001-.307.141-.414.371-.225.81-.299 1.179-.531.117-.033.241-.05.351-.101.089-.041.219.005.267-.122-.133.056-.219.021-.242-.129" fill="#131313"/><path d="M31.856 71.945c.27.554.862.786 1.235 1.236l-.055.154c-.07.086-.158.144-.264.177-.053 0-.108-.001-.161 0-.449-.088-.75-.377-.997-.739l-.135-.282c.105-.196.17-.42.377-.546" fill="#303030"/><path d="M30.166 70.467c-.85-.112-.883-.17-.542-.967.121-.119.204-.096.247.069-.019.083.011.141.089.173.032.082.052.166.061.253a.86.86 0 0 0 .082.246l.091-.027c.034.089.025.173-.028.253" fill="#e9e9e8"/><g fill="#060401"><path d="M32.116 71.212c-.082.177-.03.412-.234.537l-.021-1.758.232.252c.217.318.183.642.023.969m-8.099-1.27c.455.604.017 1.072-.24 1.567-.103-.551.293-1.024.24-1.567m-.749 10.379l1.717-.021c-.567.395-1.14.367-1.717.021m1.92-14.058c.471-.327 1.006-.166 1.516-.196-.461.413-1.005.176-1.516.196"/><path d="M31.388 68.976c.286.275.433.616.471 1.007-.447-.2-.515-.577-.471-1.007m-6.828-.678c-.099.318-.289.577-.523.807-.042-.409.077-.714.523-.807m3.646-1.812c.247.082.554.016.718.298-.276-.011-.586.06-.718-.298m-5.385 6.468c-.042.301-.228.477-.501.579.025-.316.197-.505.501-.579"/><path d="M25.039 67.809c-.11.225-.264.407-.498.512-.044-.375.122-.546.498-.512m5.347-.028c.202.11.371.25.441.48-.301-.018-.431-.194-.441-.48m-1.698.683l-.618-.413c.327-.045.559.055.618.413"/><path d="M29 68.973l-.29-.482c.277.028.44.174.471.456h-.092l-.089.026zm-1.99 12.089c-.092.276.838.551.746.827-.003-.307-1.137-.651-.746-.827m.657-3.717c.031-.263-.01-.553.272-.722-.014.269.041.565-.272.722m1.981-1.224c-.081.269.012.584-.213.815-.015-.294-.085-.603.213-.815m.237-.732c.047.283.036.547-.235.728.013-.264-.04-.549.235-.728m-8.613.001c-.016.277.06.577-.194.796-.012-.284-.08-.582.194-.796"/><path d="M21.071 77.307c.219.219.234.497.224.782-.294-.198-.23-.498-.224-.782m9.16-2.862l-.323.719c.012-.283-.079-.612.323-.719m-3.275-8.36c.299.007.617-.079.866.177-.304.015-.622.101-.866-.177m-2.483.442c.176-.281.47-.247.74-.278-.15.351-.459.278-.74.278m3.965 8.612c-.062-.298-.04-.572.217-.781.007.282.07.58-.217.781m.796 2.244l-.084.456-.228.257c.012-.278-.066-.595.312-.713"/><path d="M25.119 80.268c.162-.19.386-.194.608-.203-.151.223-.375.226-.608.203m3.804-2.177c.024.224-.026.417-.23.545-.014-.22.007-.425.23-.545m-.74-2.214c-.033-.226.02-.417.221-.549.015.219-.004.424-.221.549m.504-1.721c-.045-.219-.016-.409.204-.525.021.209-.006.4-.204.525m-.746 2.461c.014-.215.003-.439.208-.586.023.228.013.445-.208.586m-.75 1.716c-.009-.216.051-.403.235-.534.011.217-.013.419-.235.534m3.212-7.125l-.001-.488c.241.162.243.324.001.488m-8.367 2.704a.61.61 0 0 1-.248.485c.008-.2.052-.381.248-.485"/><path d="M23.637 71.738c-.092.181-.143.389-.342.496-.011-.252.049-.454.342-.496m4.599 7.855c-.038.194-.102.371-.306.453.014-.21.068-.394.306-.453"/><path d="M23.309 72.212c-.012.209-.056.4-.277.491-.002-.217.034-.413.277-.491m-1.708 2.462c-.045.209-.062.431-.267.564-.02-.24-.007-.464.267-.564m5.353 4.153c.006-.202.067-.378.239-.5 0 .205-.04.39-.239.5m4.144-5.678c.031-.192.084-.372.254-.492l.112.136c.036.192-.016.342-.205.426l-.161-.07"/><path d="M21.574 78.75c.215.124.245.334.257.552-.255-.105-.274-.32-.257-.552m7.056.081c.023.2-.03.368-.206.484.003-.19.033-.367.206-.484m-3.132-11.3c-.136.139-.276.273-.484.295.066-.255.264-.292.484-.295m1.943.224c-.227.05-.402-.028-.532-.215.211-.011.406.017.532.215m1.479-.974c.201.015.41.011.522.229-.215.016-.407-.018-.522-.229m-5.122.268c.061-.197.208-.293.397-.341-.02.245-.193.31-.397.341m3.836 13.497c-.035.239-.231.255-.409.296.048-.22.211-.282.409-.296m-3.64-11.301l-.009.488c-.237-.167-.233-.33.009-.488"/><path d="M29.613 69.316c-.191-.044-.341-.138-.403-.336.201.032.374.098.403.336m-8.279 8.921c.141.07.191.188.174.339l-.174-.339m8.065-1.129c.032.163-.043.258-.193.307.005-.139.071-.241.193-.307m-1.896.482c-.019-.138.053-.216.173-.262l-.173.262m-.255 3.231c-.033.143-.116.238-.264.27.03-.147.118-.237.264-.27m.679-.769c-.005.151-.063.27-.208.334.014-.146.082-.258.208-.334m-5.145.067c.13-.006.22.055.277.168l-.277-.168m2.955-.059c.043-.115.118-.192.246-.204l-.246.204"/><path d="M22.309 79.759c.157.025.263.112.317.262a.36.36 0 0 1-.317-.262m3.792.018l.33-.303c-.044.173-.156.272-.33.303"/><path d="M22.043 79.552c.146.012.251.077.289.227-.138-.022-.234-.098-.289-.227m6.38-.235c.015.159-.056.257-.208.3.015-.138.085-.237.208-.3"/><path d="M21.814 79.276c.136.045.202.15.236.281-.129-.051-.208-.145-.236-.281m4.702.035c-.013-.145.07-.201.199-.211l-.199.211m.22-.229a.3.3 0 0 1 .217-.253l-.217.253M29.424 67c.156 0 .258.072.302.223a.31.31 0 0 1-.302-.223"/><path d="M29.703 67.201c.158.036.256.137.309.286-.168-.025-.276-.115-.309-.286"/><path d="M30.149 67.558c.154-.01.225.069.232.216l-.232-.216m-2.218.425c-.15.014-.245-.058-.302-.191l.302.191m2.987.419c.149.059.228.174.26.326-.156-.053-.24-.164-.26-.326"/><path d="M31.156 68.706c.153.032.237.122.239.282-.132-.049-.213-.143-.239-.282m-1.284.863l-.248-.069-.044-.215c.162.028.257.125.292.284"/><path d="M29.934 69.912a.7.7 0 0 1 .027-.17l.177.259c-.102.049-.17.02-.204-.089m-1.998-3.597c.15-.016.25.045.296.191l-.296-.191m-3.761.413c.049-.15.159-.21.31-.208-.058.137-.161.207-.31.208m-1.136 5.964c-.007.155-.09.246-.237.283.026-.139.106-.233.237-.283m6.153.479c-.015-.153.05-.26.188-.325l-.188.325m1.66.225l.246-.247.025.022c.041.126.006.225-.105.297l-.166-.072"/><path d="M28.877 73.651c.015-.163.106-.268.253-.329-.019.159-.101.271-.253.329m1.973-.005c-.062.029-.127.048-.194.057l.196-.307.023.018c.078.06.1.115.066.164s-.061.068-.091.068"/><path d="M22.228 73.672c.012.14-.07.205-.192.238l.192-.238m8.443.008c-.015.16-.104.261-.25.318.022-.154.104-.262.25-.318m-.29.479c.035.159-.028.263-.179.318-.006-.143.055-.248.179-.318m-8.594.243c.022.163-.058.255-.208.297l.208-.297"/></g><path d="M29.934 69.912a2.06 2.06 0 0 1 .204.089 1.32 1.32 0 0 1-.035.241c-.121-.077-.182-.184-.169-.33" fill="#d0d0d0"/><g fill="#060401"><path d="M30.166 70.467l.028-.253.177.319a.82.82 0 0 0-.205-.066m.011 1.23a.3.3 0 0 1 .186-.322l-.186.322"/><path d="M29.906 72.195c.021-.146.074-.272.21-.349-.011.152-.078.27-.21.349"/><path d="M29.646 72.435c.033-.136.125-.207.256-.236l-.256.236"/><path d="M29.443 72.68c-.014-.153.059-.233.208-.249l-.208.249m1.909-.023c.029-.067.072-.123.128-.167.056.007.108-.007.154-.043.06.236-.038.302-.256.24l-.026-.03zm4.138-6.909c-3.001.105-5.653-.668-8.216-1.75-1.679-.708-2.865-2.008-3.581-3.672-.873-2.028.423-4.849 2.499-5.543.637-.213 1.311-.162 1.938.016 1.652.469 3.375.547 5.031.978.116.03.256.102.348.064 1.167-.483 2.413-.362 3.624-.46 1.127-.091 1.837-.787 2.557-1.509.816-.818 1.673-1.544 2.891-1.692 1.842-.224 3.552-.073 4.932 1.383.361.381.6.795.634 1.277.209 2.917-.512 5.41-2.95 7.337-1.728 1.367-3.628 2.347-5.665 3.018-1.33.438-2.755.788-4.042.553"/></g><path d="M26.873 44.958l-3.32-1.598c-1.021-.431-1.952-1.004-2.895-1.569-.36-.215-.837-.383-.566-.885.296-.547.782-.268 1.172-.055.999.547 1.978 1.14 3.045 1.544 1.677.633 3.265 1.459 4.909 2.162.378.162.64.342.637.773-.002.398-.131.789-.557.838-1.561.177-2.521 1.4-3.75 2.138-1.005.603-1.933 1.331-3.024 1.798-.33.142-.63.327-.843.666-.715 1.141-1.794 1.599-3.113 1.563-.449-.012-.901.018-1.347-.024-1.668-.155-2.576-2.212-1.59-3.588.092-.128.219-.296.352-.32 1.258-.232 2.386-1.048 3.753-.803.537.096 1.014.297 1.458.589a.71.71 0 0 0 .897-.009l4.782-3.22" fill="#060502"/><path d="M30.466 18.036c1.272-.688 2.055-1.885 3.222-2.635 1.5-.964 2.869-2.136 4.574-2.759l.681-.26c.927-.289 1.053-.204 1.07.788.043 2.404.266 4.791.627 7.168.098.643.116 1.301.13 1.954.005.24-.11.494-.42.513-.249.016-.481-.028-.627-.281-.17-.295-.196-.617-.236-.943-.306-2.474-.61-4.948-.467-7.451.004-.07-.053-.145-.104-.277-1.198.357-2.071 1.215-3.036 1.929-1.352.999-2.5 2.205-3.618 3.45s-2.582 1.144-3.623-.192c-.997-1.28-1.748-2.748-2.964-3.863-.171-.157-.307-.399-.36-.625-.153-.646.359-1.092 1.011-.938.559.132.911.535 1.257.934l2.883 3.488" fill="#010101"/><path d="M41.352 44.043l5.056 2.338c.255.132.631.346.923-.166.748-1.312 2.004-1.387 3.314-1.187.48.073.946.244 1.418.37.783.209 1.098.798 1.203 1.528.105.736-.197 1.286-.879 1.584-1.743.761-3.476 1.202-5.13-.23-.143-.124-.375-.138-.558-.221l-6.183-2.875c-.25-.129-.534-.193-.805-.279-.348-.11-.555-.355-.606-.7-.054-.365.149-.605.465-.777 1.753-.957 3.461-1.99 5.104-3.126a15.79 15.79 0 0 1 2.093-1.219c.219-.106.431-.239.662-.31.217-.066.503-.215.658.065.158.285.045.526-.237.721l-2.282 1.653c-1.25 1.037-2.719 1.748-4.216 2.831" fill="#070502"/><path d="M21.985 22.339c-.556-1.676-.657-3.417-.662-5.16-.001-.844.01-1.705.246-2.534.011-.039.009-.081.012-.122.03-.366.016-.82.521-.81.518.01.459.465.465.83l.038 2.815c-.066 1.446.354 2.816.562 4.219l.109.723c-.393.635-.534.64-1.291.039" fill="#050505"/><path d="M21.985 22.339c.434.107.875.453 1.291-.039.045.067.118.129.13.201.067.388.257.866-.25 1.053-.551.204-.801-.174-.925-.67-.048-.19-.162-.364-.246-.545" fill="#272727"/><path d="M32.116 71.212l-.023-.969.248-.027.001 1.003-.226-.007" fill="#8f8f8f"/><path d="M31.378 72.687l.256-.24c.321.425.74.73 1.204.979.292-.026.509.195.78.236l.498.272c-.66.338-1.313.509-1.931-.086-.273-.021-.555-.151-.81.064l-.526-.266c-.008-.079.001-.157.026-.232.134-.029.22-.106.247-.243.172-.116.245-.283.256-.484" fill="#ababaa"/><path d="M31.375 73.912c.029-.194-.008-.454.262-.48.279-.026.408.22.548.417l-.328.323-.482-.26" fill="#2c2c2b"/><g fill="#3e3e3e"><path d="M31.597 74.666c-.198.007-.379.048-.484.241-.214-.141-.183-.325-.02-.451.255-.198.393 0 .504.21m-.215.468c.261-.06.519-.068.77.042-.268.19-.526.213-.77-.042"/><path d="M32.085 74.608c-.115.336-.265.424-.478.068l.478-.068m-.972.299c.138.017.219.101.266.225-.158.008-.265-.046-.266-.225"/></g><path d="M34.322 73.886l.258-.483.006.006c-.362-.204-.725-.406-1-.729.145-.505-.386-.606-.559-.923-.135-.247-.52-.436-.116-.76 1.399.188 1.943 1.414 2.829 2.247-.403.478-.912.557-1.418.642" fill="#aaa"/><path d="M38.748 71.684c-.114.057-.23.112-.232.266-.412.459-.808.311-1.198-.033-.403-.186-1.331-.088-.505-.937.23.048.467.073.687.149.236.082.615.019.913-.114.165-.073.384-.026.579-.034.2.332-.592.319-.244.703" fill="#a0a0a0"/><path d="M37.032 72.178c.056.199.385.379.057.605-.274.189-.573.348-.862.041l-.951-1.079c-.038-.271.034-.429.348-.339l.353.087c.461.061.747.39 1.055.685" fill="silver"/><path d="M32.911 70.997c-.09.716.646.837.929 1.284.21.33.061.412-.253.399-.428-.474-.906-.907-1.187-1.497l.511-.186" fill="#222"/><path d="M37.032 72.178c-.489-.017-.774-.348-1.055-.685.294-.146.396-.605.836-.513-.233.214-.346.42.016.623.168.095.326.209.489.314l-.286.261" fill="#161616"/><path d="M38.748 71.684c-.332-.378.091-.494.244-.703l.445-.063c.24-.045.542-.209.515.266-.404.16-.707.564-1.204.5" fill="#c5c5c5"/><path d="M39.952 71.183c-.102-.225-.341-.183-.516-.266.21-.229.523-.159.775-.264l.403.165c-.115.087-.224.185-.348.256-.094.054-.209.074-.314.109" fill="#828282"/><path d="M35.624 71.406l-.347.339c-.208-.1-.553-.234-.388-.46.161-.22.515-.11.735.121" fill="#a0a0a0"/><path d="M33.619 73.662c-.388.345-.526-.138-.78-.236l.102-.05.099-.097.051-.098.528.481" fill="#191919"/><path d="M33.04 73.279a.13.13 0 0 1-.1.097l.011-.087.089-.01z" fill="#010101"/><path d="M30.633 56.726l1.103.007c.91.076 1.086.236 1.362 1.154.786 2.608 3.768 3.303 5.69 1.337.717-.734.799-1.69.86-2.606.031-.472.177-.749.494-1.024l.795-.763c1.184-1.272 2.663-1.328 4.19-.936 1.285.33 1.681 1.036 1.617 2.368-.091 1.926-1.019 3.419-2.409 4.645-1.999 1.765-4.35 2.903-6.973 3.294-2.319.345-4.631.109-6.909-.568-1.51-.449-2.786-1.257-3.973-2.214-.868-.699-1.064-2.187-.597-3.259s1.511-1.73 2.729-1.657c.43.026.907-.166 1.29.197.237.205.482.186.731.025" fill="#d0d0d0"/><path d="M38.032 56.727c-.062.748.314 1.454-.411 1.897-.807.494-1.695.598-2.57.184-.463-.219-.529-.594-.389-1.13.123-.47.222-.708.752-.688.817.03 1.629-.087 2.618-.263" fill="#f9f9f8"/><path d="M30.633 56.726c-.255.332-.498.297-.731-.025l.731.025" fill="#f3f3f2"/><path d="M24.667 57.263c-.026.006-.065.025-.076.015-.021-.02-.041-.06-.034-.085.024-.095.076-.105.125-.025.012.021-.009.063-.015.095" fill="#252321"/><g fill="#f9f9f9"><path d="M20.178 48.938c.142.528-.341.994.048 1.471.168.206-.065.347-.242.454-1.032.625-2.12.515-3.189.172-.512-.164-.502-.681-.482-1.148.021-.481.129-.839.673-1.019 1.096-.363 2.146-.215 3.192.07m29.463-.796c-.282-.019-.57-.007-.844-.064-.496-.102-.786-.406-.765-.941.018-.468.107-.875.653-1.034 1.173-.342 2.245.096 3.31.444.435.143.337.79-.118 1.072-.444.276-1.268.456-2.236.523"/></g><path d="M34.586 73.409l.08-.176c.158.152-.01.138-.086.171" fill="#494949"/><path d="M31.652 57.134c-.114.123-.257.204-.421.176-.126-.021-.241-.176-.146-.251.107-.084.301-.07.459-.074.104-.002.141.069.108.149" fill="#f3f3f3"/></g></g></g></svg>