<svg xmlns="http://www.w3.org/2000/svg" xmlns:xlink="http://www.w3.org/1999/xlink" width="100" height="100" xmlns:v="https://vecta.io/nano"><defs><path d="M0 50c0 27.615 22.386 50 50 50h0c27.614 0 50-22.385 50-50h0c0-27.614-22.386-50-50-50h0C22.386 0 0 22.386 0 50h0z" id="A"/><path id="B" d="M0 0h70.901v110.372H0z"/></defs><g fill="none" fill-rule="evenodd"><mask id="C" fill="#fff"><use xlink:href="#A"/></mask><path fill="#8ddd55" mask="url(#C)" d="M-43.478 142.029h201.449V-9.42H-43.478z"/><g mask="url(#C)"><g transform="translate(15 20)"><mask id="D" fill="#fff"><use xlink:href="#B"/></mask><path d="M46.884 97.277c-.001 1.988.452 3.924.66 5.888.204 1.927.665 3.828.574 5.785-.046.985-.061 1.025-1.086.957-.421-.027-.815.023-1.217.139-2.46.709-4.812.149-7.155-.597-.407-.129-.505-.375-.509-.726-.003-.33-.025-.667.029-.99.223-1.344.348-2.693.297-4.055.194-.448.222-.944.312-1.408.185-.953.557-.704 1.046-.295.483 1.466.165 2.932-.086 4.374-.181 1.039.063 1.487 1.164 1.619 1.178.141 2.339.412 3.538.338a6.93 6.93 0 0 0 .986-.056c.66-.085.917-.425.828-1.098l-.838-7.116c-.142-1.151.056-2.311-.219-3.443-.076-.558-.284-.98-.91-1.126-.395-.093-.776-.296-.636-.842.202-.298.52-.375.838-.473 1.696-.518 2.229-1.211 2.303-3.031.118-2.889-.169-5.748-.663-8.589.03-.977-.411-1.924-.314-2.646-1.565 2.887-3.31 6.017-5.372 8.938-.645.915-1.41 2.13-2.953 1.792-.159-.125-.226-.296-.247-.489-.003-.123.012-.245.043-.364 1.165-1.738 2.709-3.2 3.71-5.061.229-.265.421-.559.614-.851 1.142-1.456 1.759-3.178 2.414-4.869l1.163-3.004c.21-1.054.286-2.125.373-3.19.052-.631-.121-1.269-.732-1.607-.64-.354-1.186.004-1.716.352-2.175 1.432-4.408 2.775-6.763 3.884-1.175.553-2.403 1.143-3.796.809-.168-.105-.254-.267-.311-.449-.066-.234-.11-.473-.107-.718a.47.47 0 0 1 .328-.376c.449-.128.817.35 1.274.167a7.62 7.62 0 0 0 .951-.267c.338-.123.689-.217 1.049-.479-.784-.726-1.368-1.576-2.396-1.88-.217 0-.434.029-.651.007-.376.076-.867-.415-1.126.234-.065.164-.19.242-.36.262-.315-.021-.488-.304-.744-.408-.362-.149-.11.135-.122.233a.83.83 0 0 1 .048.311c-.032.164-.122.291-.244.397-.238.162-.281.392-.223.657.015.164-.01.321-.076.472-.378.503.087.804.284 1.166.063.092.116.19.166.29a1.32 1.32 0 0 1 .109.313.61.61 0 0 1-.118.461.55.55 0 0 1-.316.059c-.141-.036-.271-.098-.393-.152.007.01-.079.083-.068.09a1.41 1.41 0 0 1 .243.355c.066.231.012.479-.225.483-1.585.033-1.627 1.226-1.79 2.336-.941 3.929-.731 7.917-.625 11.9.022.821.335 1.514.852 2.132.398.477.769.97.82 1.625.01.293-.057.558-.277.768-.506.24-1.033.252-1.574.154-.209-.038-.429-.064-.554-.239-.946-1.326-1.987-2.527-1.746-4.424.254-1.996.141-4.041.148-6.065.003-.795.143-1.574.357-2.31.375-1.291.387-2.677 1.042-3.896.127-.238.087-.565.124-.851.591-1.32 1.164-2.646 1.194-4.129.116-.597.451-1.097.751-1.604-.319.498-.797.511-1.305.45-.121-.034-.231-.089-.334-.161-.149-.123-.259-.276-.341-.449-.65-1.687-.751-3.467-.798-5.24-.03-1.126-.242-2.207-.431-3.306-.161-.933-.7-1.341-1.522-1.559-1.321-.349-2.623-.181-3.919.138l-.538.136c-.116.034-.236.056-.355.074-.815.103-1.777-.148-2.201.903-.366.908-.05 2.108.745 2.864.509 1.684.998 3.376 1.694 4.996.07.154.134.312.202.467a4.41 4.41 0 0 1 .139.295l.225.431a4.34 4.34 0 0 1 .163.291c.642 1.145 1.486 2.148 2.282 3.182.537.698 1.249 1.039 2.153.721.921-.219 1.599-1.295 2.729-.778.316.744-.063 1.261-.566 1.739-1.511 1.316-3.142.889-4.769.302a1.51 1.51 0 0 1-.68-.516c-1.592-2.254-3.287-4.45-3.987-7.205-.243-.956-.966-1.735-1.08-2.752-.023-.203-.171-.413-.138-.598.224-1.269-.673-1.869-1.512-2.411-2.25-1.451-4.033-3.377-5.731-5.403-1.59-1.898-2.909-3.981-4.151-6.115-.289-.497-.497-1.041-.74-1.565-1.001-2.162-1.911-4.362-2.441-6.69-.475-2.086-.791-4.195-.964-6.339-.194-2.397-.026-4.768.154-7.14.098-1.3.388-2.601.733-3.862.414-1.51.774-3.037 1.363-4.499 1.095-2.717 2.444-5.282 4.125-7.69 1.498-2.145 3.171-4.123 5.1-5.882 4.043-3.686 8.723-6.26 13.949-7.838 1.212-.366 2.433-.631 3.61-1.169.898-.411 2.025-.313 3.05-.451 2.673-.36 5.362-.255 8.001.12 3.041.433 6.041 1.13 8.878 2.439 2.276 1.05 4.511 2.158 6.542 3.62a37.37 37.37 0 0 1 5.104 4.438c2.003 2.082 3.785 4.304 5.225 6.797 1.756 3.04 3.106 6.241 3.917 9.677.361 1.531.671 3.064.835 4.621.295 2.787.326 5.574-.033 8.37-.257 2.009-.637 3.98-1.184 5.927-.751 2.669-1.831 5.185-3.214 7.593-.657 1.145-1.352 2.259-2.083 3.355-1.242 1.861-2.789 3.437-4.384 5.005-2.893 2.843-6.196 5.026-9.828 6.762-.821.393-1.696.619-2.559.881-.45.137-.704.228-.523.834.414 1.384.516 2.798.365 4.263-.213 2.069.258 4.106.544 6.151.348 2.491.908 4.947 1.141 7.454.134 1.455-.037 2.889-.324 4.3-.164.808-.697 1.487-1.174 2.162-.101.061-.171.158-.261.232l.003-.002c-.291.658-.464 1.333-.275 2.056" fill="#000" mask="url(#D)"/><path d="M26.28 78.044c.047-.606.664-1.048.498-1.716.326-.666.109-1.594.964-2.006.088 1.61-.3 3.06-1.43 4.261-.075-.175-.096-.355-.032-.539" fill="#616161"/><g fill="#fff"><path d="M41.191 69.586c-4.023.833-8.042.751-12.056-.06-1.81-.365-1.795-.371-1.738-2.307.018-.616-.033-1.246-.258-1.827-.317-.813-.526-1.654-.753-2.493-.397-1.464-1.17-2.068-2.651-2.027-1.944.055-3.896-.065-5.829.226-1.264.19-2.174.916-2.69 2.113-1.504-.97-2.666-2.308-3.925-3.535-1.661-1.618-2.985-3.519-4.236-5.442-.727-1.117-1.447-2.289-1.888-3.584-.41-1.203-1.011-2.327-1.432-3.53a32.23 32.23 0 0 1-1.739-13.027c.186-2.607.508-5.224 1.36-7.739.858-2.53 1.796-5.003 3.164-7.327 1.136-1.929 2.375-3.751 3.816-5.458 2.824-3.345 6.205-6.011 10.019-8.101 2.34-1.281 4.851-2.218 7.449-2.881.158-.041.356-.157.472-.102.879.415 1.702-.055 2.527-.17 3.451-.481 6.87-.418 10.32.107 2.549.388 4.978 1.129 7.356 2.033 1.838.698 3.537 1.72 5.227 2.746 2.812 1.707 5.232 3.874 7.365 6.326 1.726 1.983 3.346 4.092 4.326 6.591.667 3.7 1.138 7.41 1.279 11.182.148 3.945-.855 7.625-2.051 11.279-2.209 6.747-5.59 12.866-10.003 18.438-1.261 1.592-2.753 2.837-4.418 3.933-2.838 1.869-5.785 3.526-9.013 4.636m-1.451 32.365c.368-.437.159-.978.262-1.462.208-.987.393-1.971.188-2.988-.08-.398-.097-.812-.105-1.22-.022-1.047-.201-1.263-1.142-.966-1.055.333-2.117-.008-3.159.193-.735.488-1.438.161-2.127-.11-.807-.317-1.58-.725-2.425-.943-.28-.072-.594-.117-.808.144-.223.273-.046.546.068.809.032.076.07.152.123.215 3.127 3.744 1.702 7.952 1.241 12.066-.122 1.085-1.006.729-1.605.923-1.68.095-1.642.094-1.677-1.571-.052-2.492.26-4.943.614-7.402.14-.977.27-1.956.472-2.921.12-.577.152-1.006-.613-.995-.241.003-.311-.249-.49-.34-.068-.533-.459-.858-.786-1.226-.649-.731-1.024-1.528-1.002-2.565.045-2.14-.268-4.289-.068-6.422.176-1.877.258-3.781.826-5.606.195-1.125.705-1.674 1.916-1.134.328.146.758.09 1.095-.054 1.941-.832 4.063-1.028 6.035-1.765.915-.341 1.823-1.058 2.917-.521a.66.66 0 0 1 .111.365c-.059.479-.399.763-.73 1.054-2.283 2.201-4.502 4.46-6.532 6.904-1.367 1.645-1.353 3.055.151 4.549 1.038 1.032 2.264 1.776 3.581 2.387 1.517 1.078 2.747.208 3.986-.59 2.391-2.042 3.74-4.775 5.022-7.552.173-.374.294-.772.539-1.109.428-.591.628-.253.796.201.574 3.038.929 6.091.684 9.191-.124 1.571-.789 2.579-1.964 2.97-.463.153-1.003-.097-1.416.285-.193.379-.556.461-.926.542-.542.119-1.087.293-1.193.924-.119.702.425 1.015.925 1.325.105.065.217.121.325.185a1.59 1.59 0 0 1 .293.23c.267.293.463.631.632.987.468 1.958.203 3.977.499 5.952.084.559.032 1.141.134 1.704.04.566.198 1.108.363 1.649-.002.231-.192.296-.347.392l-1.59.056c-.163.005-.375.079-.482.004-.942-.665-2.03-.428-3.182-.512.261-2.092.674-4.143.571-6.232"/></g><path d="M41.191 69.586c1.026-.703 2.171-1.184 3.285-1.713 2.661-1.265 5.122-2.854 7.516-4.55.567-.401 1.083-.911 1.519-1.455 2.608-3.257 5.031-6.635 6.955-10.361 1.539-2.981 2.927-6.021 3.944-9.219.749-2.357 1.566-4.738 1.816-7.179.245-2.401.176-4.858-.085-7.297l-.559-4.656c-.105-.777-.271-1.539-.416-2.306-.058-.307-.115-.571.231-.732.851.942 1.181 2.172 1.616 3.295.755 1.95 1.334 3.986 1.782 6.032.33 1.506.393 3.081.467 4.63.148 3.06-.055 6.102-.722 9.099-.583 2.62-1.452 5.147-2.61 7.568-1.778 3.716-4.166 6.986-7.104 9.885-2.52 2.487-5.397 4.453-8.51 6.062-2.639 1.363-5.482 2.232-8.384 2.879-.236.053-.493.014-.741.018" fill="#d0d0d0"/><g fill="#fff"><path d="M41.203 84.796c-.916 1.649-1.869 3.268-3.384 4.466-.152.119-.231.33-.344.499-.25.232-.556.3-.883.307-.124.011-.25.01-.374.006-1.516-.021-2.66-.857-3.711-1.801-.879-.791-.795-1.773.198-2.973l4.712-5.763 1.528-1.954c.221-.249.491-.461.605-.794.196-.285.259-.611.287-.949.07-.547.479-.836.862-1.15.951-.782 1.928-1.528 2.736-2.479.642-.755 1.159-.649 1.322.32.201 1.194.989 2.279.673 3.565-.915 2.41-1.671 4.888-3.023 7.113-.19.313-.302.684-.675.851-.252.191-.349.493-.529.736M18.828 72.102c-.754-1.685-1.475-3.38-1.719-5.232-.495-.533-.749-1.16-.773-1.89-.045-1.337.479-1.989 1.794-2.188.239-.036.497.042.714-.122.083.035.156.02.22-.043.103-.066.191-.158.319-.182 1.187-.406 2.401-.438 3.644-.342.695.054 1.245.413 1.854.644.326.123.437.433.482.797.233 1.917.637 3.811.557 5.766-.049 1.201.369 2.356.614 3.525.079.095.149.203.288.221-.037 1.33-1.266 1.215-2.031 1.599-.644.324-1.164-.202-1.595-.651-.878-.916-1.168-2.159-1.762-3.233-.165-.492-.384-.945-.867-1.206l-.257-.163-.136-.059c-.256-.035-.338.148-.414.336-.257.752-.324 1.499-.113 2.283.101.376.354.87-.266 1.108-.06-.051-.087-.116-.079-.194l-.191-.284c-.064-.036-.094-.09-.092-.163-.006-.143-.099-.235-.191-.327"/></g><path d="M45.43 76.096c-.038-.445-.052-.861-.329-1.285-.547-.837-.399-1.916-.79-2.795-.156-.084-.308-.08-.372.018-.855 1.312-2.118 2.186-3.339 3.098-.371.278-.573.555-.45 1.016-.233.049-.388.362-.683.203-.095-.145-.217-.263-.401-.232-.161.027-.323.074-.471.141-2.382 1.058-4.994 1.365-7.418 2.288-.992.378-1.995.49-2.927-.164-.365.361-.285.928-.723 1.18a2.41 2.41 0 0 1 .394-1.62c.279-.412.51-1.085 1.377-.631.499.261.256-.25.171-.478.026-.399.237-.429.541-.269l.24.067c.356-.182.127-.356-.006-.532l-.005-.009c-.065-.101-.153-.185-.214-.288-.122-.318-.459-.448-.634-.708-.281-.414-.126-.661.36-.716.92.561 1.735 1.29 2.741 1.713 1.939-.103 3.683-.831 5.354-1.736l4.148-2.405c.367-.209.649-.508.976-.756.586-.445 1.254-.719 1.963-.441.745.292.899 1.03 1.005 1.735s-.117 1.397-.233 2.08c-.086.505.226 1.099-.275 1.526" fill="#cecece"/><path d="M36.195 89.774l.275-.029c.107.121.262.169.392.255a4.21 4.21 0 0 1 .605.502c.381.12.738.087 1.042-.191.757-.692 1.595-1.294 2.11-2.232.494-.897 1.063-1.754 1.626-2.612l1.521-2.549c.612-1.203 1.345-2.344 2.091-3.622.252 1.074.614 1.996.557 3.003-.197-.035-.347-.64-.596-.049l-.436 1.022c-1.171 2.655-2.521 5.198-4.604 7.275-.173.172-.387.301-.582.451-1 .285-2.016.039-3.022.088-.31-.023-.621-.054-.882-.25-.12-.184-.086-.421-.201-.608-.034-.167-.009-.321.104-.454" fill="#c5c5c5"/><path d="M21.555 70.61c.443.496.734 1.088.931 1.706.181.568.544.999.882 1.453.221.296.526.503.865.669.454.221.657-.279.958-.312.76-.082 1.26-.451 1.63-1.07.587.151 1.076-.151 1.691-.484-.103.768-.622 1.183-.77 1.75-.32.429-.304.965-.451 1.448-.09.293-.196.505-.514.559-.675-.076-1.162.37-1.712.631-.33.158-.595.458-1.008.413-.648-.261-.862-.709-.627-1.331-.802.787-1.12.758-1.649-.223-.917-1.697-1.461-3.416-.226-5.209" fill="#cacaca"/><path d="M21.555 70.61c-.006.53.06 1.066-.339 1.523a.77.77 0 0 0-.145.578c.263 1.355.632 2.671 1.476 3.755.534-.12.487-.676 1.013-.807-.043.637.057 1.239.497 1.714-.96.291-1.754.076-2.314-.788-.767-1.186-1.901-2.125-2.363-3.515.353-.353.042-.684-.048-1.011-.256-.931-.228-1.827.246-2.687.18-.272.377-.498.736-.254h-.001a.94.94 0 0 0 .273.233c.669.153 1.001.566.969 1.259" fill="#c6c6c6"/><path d="M34.732 74.818c-.311.173-.644.249-1 .221-.068-.07-.106-.155-.116-.252-.018-.26-.169-.439-.365-.591-.69-.503-1.356-1.027-1.78-1.791-.139-.123-.392-.176-.35-.42.038-.226.25-.157.391-.138.424.058.891-.094 1.261.244.621.237.903.841 1.359 1.256.261.286.607.484.843.797a.63.63 0 0 1 .096.318c-.058.171-.189.273-.339.356" fill="#b4b4b4"/><path d="M34.732 74.818l.263-.499.008.007c-.371-.201-.735-.413-1.015-.738.137-.508-.393-.612-.569-.931-.138-.25-.523-.441-.119-.768 1.418.188 1.971 1.428 2.868 2.275-.407.486-.925.562-1.436.654" fill="#aaa"/><path d="M33.729 74.869c-.005.057-.004.113.004.17-.525.547-.748-.25-1.149-.258-.751-.083-1.077-.74-1.575-1.162a3.19 3.19 0 0 1-.213-.222l-.1-.11c-.066-.069-.126-.146-.183-.223l-.069-.123c-.054-.127-.116-.249-.259-.301-.104-.061-.255-.096-.305-.186-.118-.213-.189-.453-.083-.719.79-.225.896.701 1.448.871.173.091.343.186.467.345a3.51 3.51 0 0 0 .351.29c.415.354.824.713 1.299.989.139.203.592.227.367.639" fill="#bfbfbf"/><path d="M18.844 62.67c-2.568.658-2.688 2.248-1.745 4.077.017.034.007.081.01.123-.927-.552-1.28-1.552-1.009-2.855.19-.913.726-1.312 1.892-1.38.283-.017.568.022.852.035" fill="#2b2b2b"/><path d="M32.492 76.093c-1.237.241-1.812-.722-2.54-1.403-.087-.081-.135-.206-.201-.31l-.003-.447c.868-.188 1.225.604 1.817.946.274.288.509.63.936.723l-.009.491" fill="#161616"/><path d="M37.249 71.872c.233.046.472.071.696.143.202.064.674-.01.922-.11.174-.069.391-.03.588-.039.209.344-.618.339-.248.737-.875.737-.605.751-1.446.217-.406-.189-1.34-.093-.512-.948" fill="#a0a0a0"/><path d="M31.008 73.303c.395.632 1.191.835 1.576 1.478l-.33.277c-.247.166-.434.027-.621-.118-.554-.606-1.581-.78-1.663-1.818l.283-.265c.087-.084.164-.08.23.026l-.009-.008c.116.044.189.144.282.219l.002.002c.07.085.153.154.25.207" fill="#1f1f1f"/><path d="M29.97 73.122c.511.656 1.199 1.128 1.782 1.709.037.247-.04.371-.31.284l-1.694-1.183c-.184-.168-.347-.349-.267-.625.078-.27.291-.215.489-.185" fill="#9f9f9f"/><path d="M37.473 73.085c.059.201.393.383.06.613-.277.191-.581.354-.875.044l-.962-1.095c-.038-.275.035-.437.354-.345l.358.09c.464.063.754.394 1.065.693" fill="silver"/><path d="M31.531 73.016l-.286-.41.227-.201c.746.476 1.343 1.13 2.01 1.701l-.027.095c-.033.059-.079.106-.136.143l-.099.01c-.53-.251-.945-.654-1.37-1.043-.173-.026-.276-.128-.319-.295" fill="#303030"/><path d="M33.3 71.888c-.089.724.654.847.942 1.299.208.328.074.421-.254.4-.432-.477-.898-.927-1.215-1.497l.527-.202" fill="#212121"/><path d="M37.473 73.085c-.495-.016-.781-.353-1.065-.693.294-.151.395-.616.841-.52-.233.217-.347.426.019.631.17.095.329.211.493.317l-.288.265" fill="#171717"/><path d="M39.206 72.603c-.322-.383.073-.523.249-.737l.435-.054c.254-.052.561-.209.549.273-.403.193-.714.602-1.233.518" fill="#b9b9b9"/><path d="M31.442 75.115l.31-.284.501.228c.125.162.294.303.248.543-.554.274-.74-.251-1.059-.487" fill="#9c9c9c"/><g fill="#2d2d2d"><path d="M30.243 76.101c.133.081.283.143.393.247.127.121.337.293.102.457-.165.115-.372.023-.488-.172l-.007-.532m-.233.464c-.208.035-.485-.07-.542.269a.81.81 0 0 1-.451-.51c.089-.076.174-.158.252-.246.268.13.565.217.741.487"/></g><path d="M40.439 72.085c-.114-.23-.355-.204-.549-.274.359-.257.763-.209 1.192-.237-.091.406-.384.435-.643.511" fill="#8f8f8f"/><path d="M36.05 72.302l-.354.345c-.212-.101-.563-.237-.395-.468.164-.225.524-.11.749.123" fill="#a0a0a0"/><g fill="#c6c6c6"><path d="M19.111 72.592c.154.034.22.127.191.284-.136-.046-.208-.135-.191-.284m-.283-.49c.139.065.224.161.191.327-.16-.053-.206-.172-.191-.327"/></g><path d="M30.482 72.884l-.23-.027c-.032-.069-.055-.141-.067-.217.154.014.248.102.297.244" fill="#9f9f9f"/><path d="M26.821 73.056c-.174.029-.262-.056-.288-.22.146.008.266.05.288.22" fill="#cacaca"/><path d="M19.382 62.445c-.052.156-.158.217-.319.182.068-.129.166-.204.319-.182" fill="#2b2b2b"/><path d="M30.024 75.803c.142.043.228.129.214.288-.139-.046-.212-.141-.214-.288" fill="#2d2d2d"/><path d="M29.269 76.078c-.013.155-.101.233-.252.246-.026-.194.046-.289.252-.246" fill="#9f9f9f"/><path d="M41.353 10.04c-2.023.439-3.64 1.438-5.292 2.331-.866.469-1.654 1.091-2.445 1.686-1.311.986-2.619.668-3.546-.989-.801-1.432-1.201-3.067-2.152-4.438-.312-.451-.303-.953.126-1.351.336-.311.992-.165 1.395.394.481.668.884 1.395 1.282 2.117l1.108 2.209c.2.429.378.488.846.264 1.115-.532 2.079-1.321 3.243-1.775 1.685-.658 3.313-1.454 5.12-1.778 1.538-.276 1.897-.02 1.537 1.441a23.55 23.55 0 0 0-.685 6.375c.023.761-.28 1.533-.445 2.297-.058.266-.242.454-.514.458-.316.004-.589-.182-.64-.486-.247-1.494-.736-2.965-.336-4.516.359-1.394.892-2.726 1.398-4.239" fill="#010101"/><path d="M21.661 15.225c.082-.883.203-1.657.511-2.385.554-1.314 1.083-2.642 2.082-3.711.263-.281.543-.513.926-.574.308-.05.645-.236.907.116.219.293.213.614.118.945-.023.079-.048.163-.096.227-1.17 1.576-1.72 3.448-2.499 5.21-.083.188-.196.362-.29.544-.225.437-.579.774-1.068.65-.525-.133-.524-.676-.591-1.022" fill="#030303"/><path d="M41.007 38.327c-.012.633-.226 1.208-.486 1.766-.243.525-.605.893-1.247.696-.559-.171-.883-.496-.871-1.158.014-.749.203-1.457.337-2.18a1.26 1.26 0 0 1 1.032-1.08c.376-.082 1.025.546 1.159 1.104.065.274.053.567.076.852" fill="#040404"/><path d="M18.924 34.982c.107.469.006.96-.122 1.426-.196.713-.7 1.021-1.364.937-.896-.115-1.067-.358-1.071-1.29-.004-.846.393-1.475.931-2.065.302-.332.661-.538 1.083-.369.459.183.686.565.575 1.089-.017.08-.02.163-.032.272" fill="#070707"/><path d="M27.732 54.482c-1.399-.334-2.691-1.031-4.135-1.211a.56.56 0 0 1-.232-.082c-.309-.203-.686-.397-.457-.864.189-.384.519-.307.855-.194 1.405.473 2.796.971 3.991 1.887.1.045.193.103.279.172l-.001-.001c.04.242-.02.38-.3.293" fill="#0e0e0e"/><g fill="#4f4f4f"><path d="M27.732 54.482c.124-.073.269-.125.3-.293.178-.017.303.084.426.191s.227.225.182.468c-.386.113-.644-.137-.908-.366"/><path d="M28.033 54.19c-.146.028-.242-.023-.279-.172.147-.03.227.048.279.172"/></g><path d="M36.279 90.493c.114.274.369.255.599.287.284.208.308.464.082.711-.306.334-.655.175-.991.035-1.778-.561-3.094-1.801-4.43-3.012a1.28 1.28 0 0 1-.241-.279c-.375-.625-.267-2.704.218-3.261 1.925-2.215 3.7-4.571 5.978-6.457.443-.367.675-.948 1.24-1.181.341-.192.547-.152.51.3-1.035 1.598-2.336 2.985-3.528 4.46l-2.954 3.65c-.152.19-.264.417-.371.638-.425.877-.45.987.253 1.599 1.023.891 2.054 1.818 3.551 1.791l.082.489c.051.076.052.153.002.23" fill="#030303"/><path d="M39.244 77.636c-.087-.24-.293-.279-.51-.3l.706-.764c.289-.032.428.062.315.371a.79.79 0 0 1-.511.693" fill="#2a2a2a"/><path d="M39.754 76.942c-.06-.161-.153-.295-.314-.37-.004-.076.006-.15.027-.222.219-.097.399-.322.682-.203-.143.259-.108.607-.395.795" fill="#363636"/><g fill="#d6d6d6"><path d="M20.314 69.118c-.277-.006-.501.141-.736.255.088-.54.321-.661.736-.255"/><path d="M20.587 69.351l-.274-.233.274.233"/></g><path d="M33.729 74.869c-.034-.306-.429-.255-.51-.515.043-.009.081-.028.114-.057l.1-.098.049-.094c.143.235.785.309.247.764" fill="#191919"/><path d="M35.004 74.326l.077-.175c.158.151-.007.137-.085.167" fill="#4a4a4a"/><path d="M31.531 73.016l.319.295a.35.35 0 0 1-.319-.295" fill="#b4b4b4"/><g fill="#9f9f9f"><path d="M31.008 73.303l-.25-.207c.131.011.214.081.25.207"/><path d="M30.755 73.095a.29.29 0 0 1-.282-.219l.282.219"/></g><path d="M33.433 74.199c-.015.052-.048.085-.1.098 0-.001.01-.089.01-.089l.09-.009z" fill="#020202"/></g></g></g></svg>