<svg xmlns="http://www.w3.org/2000/svg" xmlns:xlink="http://www.w3.org/1999/xlink" width="100" height="100" xmlns:v="https://vecta.io/nano"><style><![CDATA[.B{fill:#fff}.C{fill:#bababa}.D{fill:#3c3c3c}]]></style><defs><path id="A" d="M0 0h100v100H0z"/><path d="M50 0C22.386 0 0 22.385 0 49.999h0C0 77.614 22.386 100 50 100h0c27.614 0 50-22.386 50-50.001h0" id="B"/></defs><g fill-rule="evenodd"><mask id="C" class="B"><use xlink:href="#A"/></mask><path d="M100 50c0 27.614-22.386 50-50 50S0 77.614 0 50 22.386 0 50 0s50 22.386 50 50" fill="#00acdb" mask="url(#C)"/><mask id="D" class="B"><use xlink:href="#B"/></mask><path d="M60.75 101.449c.533 1.685 1.004 3.389 1.324 5.126.127.685.097 1.401.117 2.104.025.852-.057.915-.886 1.065-.209.038-.375-.02-.563-.036-.962-.082-.955-.046-.825.941.348 2.648 1.206 5.209 1.339 7.894l.238 3.408c.034.444-.025.86-.25 1.251-.102.178-.235.371-.434.343-1.087-.153-1.971.595-3.031.635l-3.053.221c-.483.031-.939.011-1.399.421-.391.349-1.016.058-1.511-.234-.212-.125-.575.007-.69-.328-.117-.343-.074-.7-.03-1.052.034-.279.272-.385.475-.479.441-.205.502-.569.478-.983a42.56 42.56 0 0 1 .212-7.305c.099-.864.316-1.692.48-2.537.141-.722.029-.898-.68-.83-.699.068-1.607-.31-2.033.163-.34.377-.127 1.257-.152 1.914-.097 2.596.317 5.165.408 7.751.027.781.028 1.551-.083 2.339-.097.684-.381.859-.975.879l-5.762.212-2.596.041c-.417.019-.674-.106-.796-.51-.139-.457.02-.843.45-.934.644-.136.646-.538.643-1.039a30.45 30.45 0 0 1 .685-6.647c.256-1.179.352-2.411.904-3.524.093-.188.139-.448.012-.676-.271-.243-.522.029-.783.03-.688.003-1.329-.017-1.661-.802-.194-.459-.676-.71-.902-1.206a4.5 4.5 0 0 1-.417-2.162l.226-6.816c.042-1.003.182-2.001.278-3.001-1.23-.278-2.126-.916-2.491-2.182-.09-.313-.188-.633-.076-.924.544-1.418.955-2.896 2.187-3.957.954-.822 1.592-1.931 2.43-2.891-.731-.334-1.426-.515-2.146-.672-1.458-.318-2.803-.99-4.16-1.591-2.775-1.228-5.254-2.942-7.631-4.813-1.518-1.195-2.834-2.591-4.041-4.086a38.11 38.11 0 0 1-5.225-8.581 32.14 32.14 0 0 1-2.43-8.395c-.401-2.747-.439-5.534-.207-8.338.268-3.242 1.008-6.353 2.122-9.364.935-2.524 2.239-4.892 3.834-7.091 1.087-1.499 2.197-2.965 3.506-4.284 1.374-1.385 2.855-2.613 4.442-3.755 1.691-1.216 3.438-2.28 5.317-3.172a33.12 33.12 0 0 1 6.527-2.282c.192-.046.394-.068.572-.145 2.775-1.192 5.688-1.177 8.636-1.104 3.32.082 6.508.744 9.635 1.785 1.368.456 2.656 1.087 3.946 1.746 1.394.711 2.766 1.446 4.033 2.351 1.814 1.296 3.494 2.74 5.047 4.366 1.872 1.961 3.542 4.046 4.901 6.383 1.619 2.782 2.895 5.704 3.66 8.847.381 1.566.722 3.129.885 4.735.295 2.896.319 5.78-.087 8.672-.29 2.062-.722 4.093-1.371 6.059-.71 2.15-1.604 4.23-2.784 6.189l-1.92 3.095c-1.175 1.781-2.647 3.284-4.164 4.779-2.719 2.677-5.816 4.764-9.243 6.384-.951.45-1.965.766-2.951 1.141-.218.083-.464.112-.674.424 1.267.943 2.33 2.119 3.339 3.341 1.964 2.377 2.597 5.169 2.318 8.163-.114 1.219-.877 2.128-2.061 2.64-.402.173-.817.27-1.224.407-.271.189-.562.154-.871.113-.229-.03-.471.024-.337.37" fill="#000" mask="url(#D)"/><mask id="E" class="B"><use xlink:href="#C" href="#B"/></mask><path d="M54.619 85.54c-3.347.729-6.707.696-10.077.183-2.528-.385-4.968-1.083-7.334-2.049-1.334-.545-2.567-1.289-3.846-1.941-1.376-.701-2.561-1.642-3.752-2.581-1.997-1.573-3.749-3.389-5.335-5.387-1.371-1.729-2.594-3.562-3.523-5.532-1.214-2.572-2.173-5.266-2.748-8.076-.804-3.928-.698-7.86-.155-11.805.431-3.128 1.421-6.112 2.798-8.903 1.432-2.902 3.21-5.621 5.472-8.022 2.525-2.68 5.352-4.918 8.547-6.71 2.327-1.305 4.805-2.266 7.39-2.901.795-.196 1.662-.059 2.506-.199 5.159-.858 10.232-.364 15.181 1.259 2.334.766 4.528 1.868 6.641 3.156 2.775 1.691 5.175 3.811 7.307 6.216 1.454 1.638 2.709 3.459 3.747 5.408.089.167.107.372.158.559.826 1.747.929 3.662 1.156 5.523.212 1.749.253 3.527.342 5.294.187 3.716-.839 7.176-1.96 10.618-2.145 6.586-5.498 12.519-9.828 17.921-1.085 1.354-2.429 2.342-3.833 3.289-2.784 1.876-5.75 3.408-8.854 4.68" mask="url(#E)" class="B"/><mask id="F" class="B"><use xlink:href="#D" href="#B"/></mask><path d="M57.692 122.682c-1.176-.023-2.33.269-3.511.226-.469-.017-.726-.115-.735-.64l-.331-7.278.099-1.958c.006-.237-.023-.452.203-.631.655-.516.36-1.111.106-1.692s-.736-.587-1.282-.56l-2.591.012c-.831.255-1.543-.137-2.264-.436l-1.867-.736c-.303-.092-.647-.175-.89.089-.266.29-.04.589.091.87.066.142-.043-.012.062.099 2.325 2.473 1.893 5.484 1.646 8.453-.078.942-.287 1.87-.375 2.809-.091.962-.479 1.446-1.503 1.277-.261-.043-.552-.065-.809.081-.966-.011-.949-.012-.984-.785-.137-2.993.288-5.945.658-8.899.082-.657.262-1.302.398-1.953.065-.315-.017-.599-.365-.595-.511.006-.647-.359-.84-.693-.078-.135-.127-.307-.24-.399-1.184-.963-1.393-2.276-1.393-3.691l-.05-5.645c.038-1.601.253-3.193.717-4.738.149-.321.254-.665.34-.998.176-.68.496-.944 1.185-.667.618.248 1.262.175 1.849-.059 1.976-.788 4.111-.999 6.098-1.78 1.406-.553 2.729-1.143 3.906-2.116 1.806-1.494 2.889-1.299 4.086.745.974 1.664 1.382 3.51 1.23 5.442-.047.6-.11 1.302-.993 1.328-.434-.662-.68-1.405-.911-2.151-.126-.408-.206-.83-.472-1.18-.692.041-.296.498-.306.8-.01 1.563.681 2.969 1.006 4.458l1.611 7.447c.067.383.022.784.062 1.174.054.512-.054.835-.668.779-.533-.047-.633.526-.986.744-.117.214-.28.39-.511.465-.934.303-1.223 1.034-1.29 1.914l-.272 7.178a5.46 5.46 0 0 0 .705 2.584c.225.401.561.782.381 1.306" mask="url(#F)" class="B"/><mask id="G" class="B"><use xlink:href="#E" href="#B"/></mask><path d="M54.619 85.54c.49-.468 1.1-.743 1.693-1.045l5.823-3.114c2.591-1.523 4.661-3.523 6.433-5.931 2.882-3.918 5.242-8.12 7.095-12.602 1.367-3.305 2.312-6.755 3.027-10.255.208-1.021.029-2.119.049-3.181.069-3.625-.404-7.19-1.14-10.729-.031-.15-.003-.312-.003-.468.885 1.078 1.32 2.396 1.787 3.662.651 1.76 1.128 3.587 1.61 5.405.197.746.246 1.539.304 2.315.166 2.222.22 4.447.067 6.672-.173 2.515-.74 4.951-1.491 7.35-.549 1.756-1.263 3.459-2.099 5.081-.911 1.769-2.059 3.422-3.269 5.017-1.624 2.138-3.571 3.968-5.635 5.652-1.327 1.083-2.827 1.952-4.328 2.801-2.75 1.555-5.711 2.53-8.758 3.278-.373.092-.776.064-1.165.092" fill="#d0d0d0" mask="url(#G)"/><mask id="H" class="B"><use xlink:href="#F" href="#B"/></mask><path d="M59.343 97.164c.567-.29.69-.815.717-1.382.083-1.72-.313-3.342-1.003-4.906-.33-.749-.965-1.231-1.522-1.776-.419-.41-.897-.228-1.297.047l-2.066 1.551c-.52.457-1.101.732-1.743.938-.97.311-1.957.582-2.862 1.071-.103.056-.218.133-.325.13-1.616-.035-3.015.794-4.536 1.134-.934.209-1.246.186-2.158-.276-.428.446-.412 1.164-.906 1.574.067-1.377.202-1.919.725-2.884.399.033.612.434.979.529.216.056.379.021.396-.245-.14-.19-.139-.378.005-.565.344.053.636.306 1.123.268-.499-.747-1.055-1.33-1.707-1.85-.4-.318-.321-.462.285-.662 1.086.438 1.758 1.517 2.897 1.872 1.88-.05 3.549-.789 5.173-1.637.512-.267 1.039-.538 1.46-.956.814-.82 1.728-1.462 2.907-1.633.08.003.133-.033.159-.109a.92.92 0 0 0 .257-.162c.143-.06.281-.139.43-.175.494-.119.988-.289 1.489-.317.672-.038.672.684.966 1.052 1.466 1.832 2.814 3.741 3.833 5.877.453.947.61 1.938.756 2.933.132.904-.649 1.92-1.587 2.228-.331.109-.699.108-1.028.221-.322.111-.577.397-.981.392-.449-.693-.565-1.517-.836-2.282" fill="#d0d0d0" mask="url(#H)"/><mask id="I" class="B"><use xlink:href="#G" href="#B"/></mask><path d="M42.668 88.178c-.081.438-.368.776-.564 1.158-.932 1.815-1.62 3.716-2.011 5.724-.079 0-.173.03-.227-.004-1.088-.701-1.062-.696-.756-1.938.173-.7.473-1.311.905-1.88l2.086-2.827c.142-.191.263-.435.567-.233" fill="#cbcbcb" mask="url(#I)"/><mask id="J" class="B"><use xlink:href="#H" href="#B"/></mask><path d="M48.959 90.327c-.104.176-.289.199-.462.245-.525.232-.733-.234-1.046-.472-.114-.099-.216-.209-.31-.326l-.191-.219-.108-.097-.247-.163c-.319-.178-.648-.339-.921-.59-.195-.183-.401-.368-.483-.625-.135-.425.017-.58.446-.404l.884.058c.125.036.248.078.361.146a1.65 1.65 0 0 1 .186.188l.388.382c.203.272.411.539.682.749.319.261.717.437.901.841.024.109-.005.205-.08.287" fill="silver" mask="url(#J)"/><mask id="K" class="B"><use xlink:href="#I" href="#B"/></mask><path d="M47.746 90.753c-.278.082-.505.27-.828-.037-.613-.582-1.305-1.083-1.964-1.617-.098-.058-.179-.138-.272-.202l-.004-.002c-.371-.166-.769-.297-.922-.735-.032-.333-.092-.685.423-.676.665.112.974.716 1.471 1.062.289.361.688.594 1.043.877.336.224.555.584.915.78.132.162.266.323.138.55" mask="url(#K)" class="C"/><mask id="L" class="B"><use xlink:href="#J" href="#B"/></mask><path d="M48.959 90.327a1.02 1.02 0 0 1-.016-.199c-.079-.469-.511-.624-.805-.902-.385-.303-.634-.723-.946-1.09-.042-.17-.034-.321.146-.412 1.228.317 1.809 1.368 2.615 2.179-.324.315-.602.515-.994.424" fill="#b7b7b7" mask="url(#L)"/><mask id="M" class="B"><use xlink:href="#K" href="#B"/></mask><path d="M55.884 87.506c-.954.57-1.835 1.271-2.906 1.634.012-.445-.267-.345-.526-.281-.208-.478.161-.589.471-.722.345-.147.742-.164 1.037-.42-.024-.148.489.061.186-.281.593-.332 1.167-.16 1.738.07" fill="#161616" mask="url(#M)"/><mask id="N" class="B"><use xlink:href="#L" href="#B"/></mask><path d="M46.345 91.732c-.433.232-.756-.039-1.078-.254-.679-.456-1.263-1.022-1.819-1.618l.297-.27c.609-.237.838.358 1.244.565.395.476 1.119.607 1.333 1.273l.023.304" fill="#181818" mask="url(#N)"/><mask id="O" class="B"><use xlink:href="#M" href="#B"/></mask><path d="M51.492 89.33c-.81.41-.806.406-1.401-.246-.183-.202-.409-.364-.594-.564-.151-.163-.403-.249-.432-.528.782-.241 1.189.453 1.768.706.424-.002.8.045.659.632" fill="#b4b4b4" mask="url(#O)"/><mask id="P" class="B"><use xlink:href="#N" href="#B"/></mask><path d="M54.24 87.735c-.419.352-.862.658-1.425.724-.242.028-.302.212-.362.4l-.103.007-.102-.01c-.223-.16-.328-.363-.232-.64.418-.443.912-.677 1.535-.55.24-.08.476-.12.689.069" fill="#a6a6a6" mask="url(#P)"/><mask id="Q" class="B"><use xlink:href="#O" href="#B"/></mask><path d="M52.016 88.216c.101.205.265.387.232.64l.025.068c-.698.209-1.042-.309-1.446-.704-.195-.209-.067-.364.125-.416.439-.119.82-.011 1.064.412" fill="#b3b3b3" mask="url(#Q)"/><mask id="R" class="B"><use xlink:href="#P" href="#B"/></mask><path d="M44.91 90.312l-1.165-.721c-.335-.253-.328-.592-.239-.952.594-.182.659.431.983.656l.031.03c.026.108.086.188.188.235l.463.493c.057.231-.022.326-.261.259" fill="#bfbfbf" mask="url(#R)"/><mask id="S" class="B"><use xlink:href="#Q" href="#B"/></mask><path d="M45.59 88.667c-.609-.229-.879-.862-1.411-1.184.49.036 1.016-.206 1.458.193-.17.082-.73-.074-.268.397.185.188.471.277.582.55a.24.24 0 0 1-.361.044" fill="#1e1e1e" mask="url(#S)"/><mask id="T" class="B"><use xlink:href="#R" href="#B"/></mask><path d="M44.91 90.312l.261-.259 1.109.775c.235.173.167.39.042.6-.529-.298-1.021-.644-1.412-1.116" fill="#9e9e9e" mask="url(#T)"/><mask id="U" class="B"><use xlink:href="#S" href="#B"/></mask><path d="M50.827 88.221c.553.089.865.672 1.446.703-.203.246-.497.316-.781.406-.102-.332-.461-.398-.659-.632l-.006-.477" fill="#212121" mask="url(#U)"/><mask id="V" class="B"><use xlink:href="#T" href="#B"/></mask><path d="M44.489 89.295c-.435-.058-.562-.577-.983-.656l.251-.479c.346.196.72.358.921.735-.172.082-.174.244-.189.4" mask="url(#V)" class="D"/><mask id="W" class="B"><use xlink:href="#U" href="#B"/></mask><path d="M43.747 92.104l-.005.564-.952-1.124a.23.23 0 0 1 .002-.284c.445.138.673.522.955.844" fill="#7e7e7e" mask="url(#W)"/><mask id="X" class="B"><use xlink:href="#V" href="#B"/></mask><path d="M42.668 88.178l-.567.233c.067-.481.468-.729.734-1.175.28.456.064.701-.167.942" fill="#929292" mask="url(#X)"/><mask id="Y" class="B"><use xlink:href="#W" href="#B"/></mask><path d="M47.746 90.753l-.224-.401c-.132-.165-.141-.331-.005-.5.413.123.444.766.98.72-.208.235-.47.249-.751.181" fill="#606060" mask="url(#Y)"/><mask id="Z" class="B"><use xlink:href="#X" href="#B"/></mask><path d="M57.654 94.633c-.216-.258-.184-.582-.215-.883-.021-.199.057-.425.301-.387.229.035.219.277.22.47-.333.179-.176.544-.306.8" fill="#2b2b2b" mask="url(#Z)"/><mask id="a" class="B"><use xlink:href="#Y" href="#B"/></mask><path d="M47.337 87.724a.63.63 0 0 0-.06.484.18.18 0 0 1-.022.309c-.156-.091-.333-.16-.37-.37.016-.103-.029-.168-.126-.199-.135-.009-.203-.094-.239-.214l.817-.01" fill="#212121" mask="url(#a)"/><mask id="b" class="B"><use xlink:href="#Z" href="#B"/></mask><path d="M54.24 87.735l-.688-.069.594-.23c.136.03.386.054.388.092.011.173-.155.19-.294.207" fill="#a2a2a2" mask="url(#b)"/><mask id="c" class="B"><use xlink:href="#a" href="#B"/></mask><path d="M44.708 89.56c-.115-.037-.183-.11-.187-.235.133.022.19.105.187.235" mask="url(#c)" class="D"/><mask id="d" class="B"><use xlink:href="#b" href="#B"/></mask><path d="M42.792 91.261l-.003.284c-.095-.045-.218-.079-.181-.215.01-.037.12-.047.184-.069" fill="#b2b2b2" mask="url(#d)"/><mask id="e" class="B"><use xlink:href="#c" href="#B"/></mask><path d="M44.681 88.897c.15-.013.236.06.272.202-.131-.013-.22-.083-.272-.202" mask="url(#e)" class="D"/><mask id="f" class="B"><use xlink:href="#d" href="#B"/></mask><path d="M56.3 87.235c-.052.107-.133.169-.257.163a.22.22 0 0 1 .257-.163" fill="#161616" mask="url(#f)"/><mask id="g" class="B"><use xlink:href="#e" href="#B"/></mask><path d="M53.175 32.697c-1.28.324-2.09 1.148-2.99 1.812-1.298.957-2.427 2.1-3.498 3.302-1.175 1.318-2.529 1.234-3.633-.188-.954-1.23-1.696-2.622-2.851-3.701-.397-.371-.407-.868-.063-1.27.359-.419.811-.181 1.18.029.266.151.498.389.696.628.824.996 1.78 1.881 2.486 2.976.252.392.456.493.917.135.895-.694 1.596-1.598 2.567-2.212 1.449-.916 2.752-2.07 4.408-2.642.146-.05.282-.13.428-.183 1.127-.412 1.3-.311 1.281.922-.039 2.479.315 4.92.652 7.364a8.52 8.52 0 0 1 .078 1.173c0 .249-.14.46-.403.511-.297.057-.563-.04-.678-.335-.084-.215-.116-.455-.144-.687l-.42-3.749c-.083-1.25-.171-2.507-.013-3.885" fill="#010101" mask="url(#g)"/><mask id="h" class="B"><use xlink:href="#f" href="#B"/></mask><path d="M37.328 35.473c-.077 1.67.229 3.518.703 5.347.079.302.1.62.141.932.039.291.013.592-.326.658-.33.066-.615-.067-.743-.422-.369-1.024-.744-2.037-.846-3.145-.176-1.911-.263-3.81.117-5.706.056-.281.08-.582.454-.556.4.028.543.343.482.673-.125.671.022 1.329.018 2.219" fill="#050505" mask="url(#h)"/><mask id="i" class="B"><use xlink:href="#g" href="#B"/></mask><path d="M47.302 79.702c-.427.034-.859.122-1.281.086-.4-.035-.753-.227-.706-.749.042-.476.346-.518.741-.529.477-.014.932.088 1.397.141.823.094 1.638-.067 2.456-.139l.701-.043c.243.006.498.084.542.354.053.328-.181.515-.47.569-1.115.208-2.24.343-3.38.31" fill="#070707" mask="url(#i)"/><mask id="j" class="B"><use xlink:href="#h" href="#B"/></mask><path d="M47.256 88.517l.021-.309c.394.226.709.538.985.893.045.229-.025.342-.275.272-.319-.221-.68-.407-.731-.856" fill="#333" mask="url(#j)"/><mask id="k" class="B"><use xlink:href="#i" href="#B"/></mask><path d="M45.59 88.667l.361-.044.759.53c.142.024.212.108.21.252-.062.198-.155.337-.391.21-.413-.217-.664-.595-.939-.948" fill="#2c2c2c" mask="url(#k)"/><mask id="l" class="B"><use xlink:href="#j" href="#B"/></mask><path d="M47.987 89.374c.136-.046.229-.136.275-.272l.728.666c.126.124.099.257-.047.361l-.956-.755" fill="#6f6f6f" mask="url(#l)"/><mask id="m" class="B"><use xlink:href="#k" href="#B"/></mask><path d="M46.529 89.616l.289-.254c.086-.082.161-.072.223.03l-.02-.02c.117.053.193.148.26.252l.236.229.005.499c-.41-.138-.659-.494-.993-.736" fill="#2f2f2f" mask="url(#m)"/><mask id="n" class="B"><use xlink:href="#l" href="#B"/></mask><path d="M47.281 89.624c-.143-.026-.222-.118-.26-.252.135.034.221.119.26.252" mask="url(#n)" class="C"/><mask id="o" class="B"><use xlink:href="#m" href="#B"/></mask><path d="M47.04 89.392c-.074-.014-.148-.025-.223-.03l-.107-.209a.35.35 0 0 1 .33.239" mask="url(#o)" class="C"/><mask id="p" class="B"><use xlink:href="#n" href="#B"/></mask><path d="M46.76 87.948c.096.032.206.056.126.199l-.126-.199" fill="#000" mask="url(#p)"/><mask id="q" class="B"><use xlink:href="#o" href="#B"/></mask><path d="M37.108 60.366l-.004 1.524c-.034.797-.59 1.349-1.322 1.346-.555-.003-.988-.455-1.033-1.204-.047-.776-.364-1.515-.265-2.311.053-.427.067-.848.267-1.247.369-.734.636-.899 1.358-.766.691.127.84.304.921 1.134.026.272.022.547.027.82l.001.704h.05" fill="#030303" mask="url(#q)"/><mask id="r" class="B"><use xlink:href="#p" href="#B"/></mask><path d="M58.696 59.202c-.026.911-.072 1.837-.408 2.735-.184.494-.546.613-.994.653-.468.042-.78-.239-.909-.608-.492-1.408-.514-2.827.043-4.235.228-.575.776-.661 1.251-.711.437-.046.605.428.804.76.26.431.08.928.213 1.406" fill="#030303" mask="url(#r)"/></g></svg>