<?xml version="1.0" encoding="UTF-8"?>
<svg width="100px" height="100px" viewBox="0 0 100 100" version="1.1" xmlns="http://www.w3.org/2000/svg" xmlns:xlink="http://www.w3.org/1999/xlink">
    <title>medi-01</title>
    <defs>
        <path d="M0,50 C0,77.6141304 22.3858696,100 50,100 L50,100 C77.6141304,100 100,77.6141304 100,50 L100,50 C100,22.3858696 77.6141304,0 50,0 L50,0 C22.3858696,0 0,22.3858696 0,50 L0,50 Z" id="path-1"></path>
    </defs>
    <g id="Page-1" stroke="none" stroke-width="1" fill="none" fill-rule="evenodd">
        <g id="Group-50">
            <mask id="mask-2" fill="white">
                <use xlink:href="#path-1"></use>
            </mask>
            <g id="Clip-2"></g>
            <polygon id="Fill-1" fill="#FFE133" mask="url(#mask-2)" points="-43.4782609 142.028986 157.971014 142.028986 157.971014 -9.42028986 -43.4782609 -9.42028986"></polygon>
            <path d="M60.0087319,99.4536594 C60.521413,101.073587 60.9739493,102.71163 61.2819203,104.381558 C61.4036594,105.040616 61.3750362,105.729022 61.3942391,106.404746 C61.4177899,107.223587 61.339529,107.284457 60.5424275,107.428659 C60.3417029,107.464891 60.181558,107.409819 60.0011232,107.394239 C59.0757609,107.315254 59.0833696,107.349674 59.2080072,108.298587 C59.5424275,110.844601 60.3677899,113.306196 60.4949638,115.88808 C60.5489493,116.981558 60.6402536,118.073225 60.7239493,119.164891 C60.756558,119.591341 60.6996739,119.990978 60.4840942,120.366703 C60.3855435,120.538442 60.2580072,120.724312 60.0667029,120.6975 C59.0217754,120.549674 58.1717754,121.268877 57.1518478,121.307283 C56.1753986,121.344601 55.1967754,121.459094 54.2170652,121.520688 C53.7525725,121.549674 53.3138043,121.530471 52.8725,121.924312 C52.496413,122.260181 51.8949638,121.980833 51.4199638,121.700399 C51.2156159,121.579746 50.8667029,121.706558 50.7561957,121.384094 C50.6438768,121.055109 50.6851812,120.711268 50.7272101,120.372862 C50.7601812,120.104746 50.988442,120.003297 51.1844565,119.912355 C51.6076449,119.715616 51.6663406,119.365616 51.6431522,118.96779 C51.5076449,116.620688 51.5797464,114.282645 51.8471377,111.944601 C51.9424275,111.114167 52.1511232,110.317065 52.3090942,109.505109 C52.4442391,108.81163 52.3362681,108.641703 51.6547464,108.707645 C50.9826449,108.7725 50.1105435,108.409094 49.7007609,108.863442 C49.373587,109.226486 49.5782971,110.072138 49.5543841,110.704022 C49.4605435,113.199674 49.8590942,115.669601 49.946413,118.156196 C49.9728623,118.90692 49.973587,119.646775 49.8667029,120.404384 C49.7739493,121.061993 49.5000362,121.231196 48.9293841,121.249674 C47.0826449,121.309457 45.2362681,121.39279 43.3891667,121.453297 C42.5580072,121.480833 41.7246739,121.455471 40.8938768,121.493152 C40.4927899,121.51163 40.2460507,121.390978 40.1282971,121.003297 C39.9949638,120.563442 40.1478623,120.192065 40.5612681,120.105109 C41.1808333,119.974312 41.1822826,119.58808 41.1797464,119.106196 C41.1674275,116.953297 41.3822826,114.813442 41.8377174,112.715616 C42.0837319,111.582283 42.1768478,110.3975 42.706558,109.327935 C42.796413,109.146775 42.8409783,108.896413 42.7188768,108.677935 C42.4580072,108.443877 42.2170652,108.705471 41.9663406,108.706558 C41.3040217,108.708732 40.6880797,108.689529 40.3685145,107.934819 C40.1819203,107.494239 39.7188768,107.25221 39.5014855,106.775399 C39.1902536,106.093877 39.0670652,105.439529 39.1011232,104.697138 C39.2007609,102.513804 39.2253986,100.327572 39.3177899,98.1438768 C39.3587319,97.1801087 39.4931522,96.2199638 39.5851812,95.2590942 C38.4029348,94.9913406 37.5417029,94.3779348 37.1909783,93.1609058 C37.1043841,92.8605435 37.0101812,92.5522101 37.1174275,92.2728623 C37.6398913,90.9101812 38.0359058,89.4888043 39.2199638,88.4688768 C40.1369928,87.6782971 40.7503986,86.6123551 41.556558,85.6891667 C40.8532971,85.3677899 40.1855435,85.1938768 39.4931522,85.0427899 C38.0913406,84.7377174 36.7978623,84.0913406 35.4931522,83.5138043 C32.8257609,82.3326449 30.4420652,80.6844565 28.1569203,78.8859058 C26.6975,77.7373551 25.4322826,76.3953261 24.2717754,74.9580072 C22.2330072,72.4330072 20.5721377,69.6975 19.2489493,66.7072826 C18.0949638,64.0996739 17.3170652,61.4090942 16.9127174,58.6369928 C16.5272101,55.9956884 16.4898913,53.3167029 16.7130797,50.6203261 C16.9710507,47.5032971 17.6826449,44.5123551 18.7536594,41.6177899 C19.6518478,39.1913406 20.9061957,36.9148913 22.4391667,34.8007609 C23.4848188,33.3590942 24.5514855,31.9496739 25.8098188,30.6811957 C27.1308333,29.3500362 28.5551087,28.1692391 30.0811957,27.0717754 C31.706558,25.9025725 33.3859058,24.8793841 35.1927899,24.0221377 C37.2123551,23.0641667 39.3014855,22.3453261 41.4677899,21.8279348 C41.6518478,21.7840942 41.8460507,21.7627174 42.0177899,21.6891667 C44.6859058,20.5424275 47.4859058,20.5572826 50.3210507,20.6272101 C53.5123551,20.7058333 56.5779348,21.3427899 59.5837319,22.3435145 C60.8989493,22.781558 62.1377174,23.3888043 63.3775725,24.0217754 C64.7181522,24.7058333 66.0369928,25.4119928 67.2547464,26.2819203 C68.998587,27.5282971 70.6141667,28.9163406 72.1069203,30.4797464 C73.9072826,32.3652536 75.5123551,34.3699638 76.8192391,36.6163406 C78.3750362,39.2913406 79.6022101,42.1000362 80.3373551,45.1221377 C80.7036594,46.6272101 81.0322826,48.1301087 81.1888043,49.6739493 C81.4717754,52.4583696 81.4956884,55.2319203 81.1047464,58.0123551 C80.8261232,59.9942391 80.4109058,61.9471377 79.7869928,63.8373551 C79.1047464,65.9043841 78.2449638,67.9043841 77.1101812,69.7877174 C76.5072826,70.7880797 75.9080072,71.7880797 75.264529,72.7630797 C74.1344565,74.4750362 72.7196014,75.9203261 71.2609058,77.3569203 C68.6471377,79.931558 65.6699638,81.9373551 62.3750362,83.4953261 C61.4609058,83.9275725 60.4859058,84.2311957 59.5377174,84.5917029 C59.3279348,84.671413 59.0920652,84.6993116 58.889529,84.9996739 C60.1080072,85.906558 61.1293841,87.0369928 62.1000362,88.2116304 C63.988442,90.4975 64.5967754,93.181558 64.3282971,96.0594565 C64.2192391,97.231558 63.4848188,98.1061957 62.3467754,98.5975 C61.9605435,98.7641667 61.5619928,98.8572826 61.1706884,98.9888043 C60.9094565,99.1706884 60.6293841,99.1369928 60.3330072,99.0978623 C60.1123551,99.0688768 59.8801087,99.1206884 60.0087319,99.4536594" id="Fill-3" fill="#000000" mask="url(#mask-2)"></path>
            <path d="M90.9152536,29.3520652 C90.8326449,30.3991667 90.5003986,31.7520652 89.7083696,32.4969928 C88.9638043,33.1977174 87.8217754,33.3017029 87.1337319,34.0868478 C86.2583696,35.0850362 86.5942391,36.7089493 85.8558333,37.8125725 C85.1413406,38.8799638 83.3706884,38.7107609 83.0583696,37.4122101 C82.905471,36.7756159 82.8453261,36.098442 82.864529,35.4430072 C82.8949638,34.3959058 82.7156159,33.340471 83.1406159,32.3031522 C83.4975,31.4325 84.0388043,30.7531522 84.9677899,30.4223551 C85.9601812,30.0687319 87.0967754,29.6469928 87.0239493,28.3270652 C86.9808333,27.5444565 86.0413406,27.0582246 85.3167029,26.9433696 C85.0257609,26.8973551 84.7293841,26.9013406 84.4377174,26.8600362 C83.8663406,26.7792391 83.3156159,26.5169203 82.9210507,26.0959058 C82.3398913,25.4763406 81.9431522,24.4397464 82.4688768,23.7078623 C83.3159783,22.5288768 84.6561957,22.623442 85.8717754,23.015471 C87.289529,23.4730797 88.680471,23.8828623 89.631558,25.1216304 C90.523587,26.283587 91.0493116,27.6549638 90.9152536,29.3520652" id="Fill-4" fill="#000000" mask="url(#mask-2)"></path>
            <path d="M85.3029348,44.0827174 C84.3681522,44.1019203 83.5141667,43.3066304 83.506558,42.409529 C83.4982246,41.4823551 84.5406159,40.5040942 85.5246739,40.5149638 C86.2424275,40.5229348 86.8507609,41.458442 86.8946014,42.6211232 C86.9243116,43.4207609 86.2243116,44.0635145 85.3029348,44.0827174" id="Fill-5" fill="#070707" mask="url(#mask-2)"></path>
            <path d="M54.1144928,84.1585507 C50.8967391,84.8592754 47.665942,84.8273913 44.4264493,84.3342754 C41.9960145,83.9647101 39.6496377,83.292971 37.3753623,82.3639855 C36.0927536,81.8400725 34.9072464,81.1255797 33.6775362,80.4987681 C32.3547101,79.8244928 31.2152174,78.9194203 30.0699275,78.0172464 C28.1503623,76.5049275 26.465942,74.758913 24.9416667,72.8375362 C23.6231884,71.1752174 22.4478261,69.4128986 21.5539855,67.519058 C20.3869565,65.0462319 19.4648551,62.4567391 18.9119565,59.7549275 C18.1391304,55.9788406 18.2413043,52.1984058 18.7634058,48.4056522 C19.1778986,45.3976812 20.1297101,42.5288406 21.4536232,39.8458696 C22.8304348,37.0556522 24.5394928,34.4418841 26.7141304,32.133913 C29.142029,29.5571014 31.8597826,27.4049275 34.9315217,25.6821014 C37.1688406,24.4273913 39.551087,23.5034783 42.0362319,22.892971 C42.8007246,22.7049275 43.634058,22.8364493 44.4456522,22.7016667 C49.4057971,21.8773913 54.282971,22.352029 59.0405797,23.9128986 C61.2851449,24.6491304 63.3938406,25.7081884 65.4253623,26.9462319 C68.0934783,28.5726812 70.4003623,30.6107246 72.4507246,32.9226812 C73.8481884,34.4980435 75.0550725,36.2487681 76.0528986,38.1219565 C76.1384058,38.2828261 76.1557971,38.4795652 76.2050725,38.6596377 C76.9992754,40.3393478 77.0981884,42.1799275 77.315942,43.9697826 C77.5202899,45.650942 77.5601449,47.3603623 77.6452899,49.0592754 C77.8246377,52.6321014 76.8384058,55.9585507 75.7608696,59.267971 C73.6985507,65.5994928 70.4746377,71.3031159 66.3119565,76.4973188 C65.2688406,77.7987681 63.9771739,78.7484058 62.6268116,79.6585507 C59.9503623,81.4628986 57.0981884,82.9353623 54.1144928,84.1585507" id="Fill-6" fill="#FFFFFF" mask="url(#mask-2)"></path>
            <path d="M57.0681884,119.867609 C55.9377536,119.84587 54.827971,120.126304 53.6928261,120.085 C53.2417391,120.068333 52.9942754,119.974855 52.9855797,119.469058 C52.945,117.135725 52.5768841,114.819783 52.6681884,112.471957 C52.6924638,111.847319 52.7446377,111.217609 52.7627536,110.58971 C52.7692754,110.361812 52.7410145,110.154928 52.9584058,109.983551 C53.5877536,109.487174 53.304058,108.915435 53.0602174,108.356377 C52.8156522,107.796957 52.352971,107.792246 51.8272464,107.818696 C50.9989855,107.860362 50.1671014,107.829565 49.337029,107.829203 C48.5377536,108.074855 47.852971,107.698406 47.1598551,107.410725 C46.5652899,107.163986 45.9815942,106.889348 45.3645652,106.702754 C45.0732609,106.61471 44.7431884,106.534275 44.5094928,106.788986 C44.2533333,107.067609 44.4703623,107.354928 44.5964493,107.624493 C44.6605797,107.761812 44.5555072,107.612899 44.6558696,107.720145 C46.8917391,110.097681 46.4761594,112.992246 46.2392029,115.847319 C46.1642029,116.752391 45.9627536,117.645145 45.877971,118.548043 C45.7910145,119.471957 45.4174638,119.938261 44.4330435,119.775942 C44.1823188,119.734275 43.902971,119.713261 43.6558696,119.853478 C42.7265217,119.842246 42.7428261,119.841522 42.7091304,119.098406 C42.5776087,116.22087 42.9866667,113.383188 43.3417391,110.542971 C43.4207246,109.910725 43.5942754,109.290797 43.7243478,108.665072 C43.787029,108.362174 43.7087681,108.089348 43.3732609,108.093333 C42.8819565,108.09913 42.7518841,107.748406 42.5667391,107.427029 C42.4917391,107.296957 42.4446377,107.132101 42.3355797,107.043333 C41.1975362,106.117246 40.996087,104.85529 40.9964493,103.49442 C40.9968116,101.685 40.9044203,99.8748551 40.9478986,98.0672464 C40.9852174,96.5281159 41.1910145,94.9976812 41.6373913,93.5121739 C41.7808696,93.2038406 41.8819565,92.8726812 41.9645652,92.5523913 C42.1334058,91.8991304 42.4406522,91.6455072 43.1036957,91.9114493 C43.6982609,92.1494928 44.3171014,92.0802899 44.8815942,91.8549275 C46.7808696,91.0969565 48.8334058,90.894058 50.743913,90.1433333 C52.0957246,89.6121739 53.3674638,89.0447826 54.4989855,88.108913 C56.2352174,86.6723188 57.2765217,86.8603623 58.4272464,88.8252174 C59.3642029,90.4252174 59.7562319,92.1994928 59.6105797,94.0578261 C59.5652899,94.6342754 59.5047826,95.308913 58.6555072,95.3342754 C58.2381159,94.6980435 58.0022464,93.9835507 57.7797826,93.2661594 C57.6584058,92.8744928 57.5819565,92.4686957 57.3257971,92.1321014 C56.6602174,92.1712319 57.0410145,92.6107246 57.0319565,92.900942 C57.0221739,94.4034783 57.6863043,95.7556522 57.9986232,97.1868116 C58.5192754,99.5723188 59.1254348,101.93971 59.5478986,104.346594 C59.6123913,104.71471 59.5685507,105.10058 59.6076812,105.474855 C59.6591304,105.967246 59.5558696,106.277754 58.9645652,106.224493 C58.4526087,106.178841 58.3562319,106.729928 58.0174638,106.939348 C57.9047826,107.144783 57.7475362,107.31471 57.5254348,107.386812 C56.6276087,107.677754 56.3500725,108.38029 56.2852174,109.226304 C56.1094928,111.523043 55.9638406,113.820145 56.0243478,116.127391 C56.0475362,117.021594 56.2681884,117.837536 56.7022464,118.612536 C56.9181884,118.997681 57.2413768,119.363986 57.0681884,119.867609" id="Fill-7" fill="#FFFFFF" mask="url(#mask-2)"></path>
            <path d="M54.1144928,84.1585507 C54.5858696,83.7085507 55.1721014,83.4444203 55.742029,83.1538406 C57.6271739,82.1922464 59.5105072,81.235 61.3402174,80.16 C63.8311594,78.6962319 65.8221014,76.7734058 67.5257246,74.4574638 C70.2963768,70.6907971 72.5652174,66.6505797 74.3467391,62.3426087 C75.6601449,59.1650725 76.5695652,55.8476812 77.2565217,52.4828261 C77.4568841,51.5013043 77.2844203,50.4455072 77.3039855,49.4241304 C77.3699275,45.9393478 76.9155797,42.5114493 76.2083333,39.1092754 C76.1782609,38.9654348 76.2047101,38.81 76.2050725,38.6596377 C77.0557971,39.6962319 77.473913,40.9628986 77.9235507,42.1802899 C78.5485507,43.8726812 79.0076087,45.6292029 79.4706522,47.3763043 C79.6608696,48.0944203 79.7076087,48.8563768 79.7634058,49.6023913 C79.9231884,51.7382609 79.9746377,53.8777536 79.8275362,56.0168841 C79.6608696,58.4346377 79.1155797,60.777029 78.3938406,63.083913 C77.865942,64.7719565 77.1797101,66.4092754 76.3764493,67.967971 C75.4996377,69.669058 74.3967391,71.2585507 73.232971,72.7915217 C71.6724638,74.8473188 69.8003623,76.6063768 67.8155797,78.225942 C66.5398551,79.2668841 65.0971014,80.102029 63.6543478,80.9183333 C61.0105072,82.4139855 58.1637681,83.3505797 55.2347826,84.0701449 C54.8757246,84.1585507 54.4887681,84.1321014 54.1144928,84.1585507" id="Fill-8" fill="#D1D1D1" mask="url(#mask-2)"></path>
            <path d="M58.655471,95.3342754 C59.2003986,95.0549275 59.3188768,94.550942 59.3449638,94.0056522 C59.4243116,92.352029 59.0438768,90.792971 58.3808333,89.2889855 C58.063442,88.569058 57.4525725,88.1056522 56.9170652,87.5810145 C56.5141667,87.1868116 56.0543841,87.3621739 55.6703261,87.6266667 C54.9888043,88.0962319 54.3043841,88.5723188 53.6840942,89.1176087 C53.1837319,89.5574638 52.6250362,89.8212319 52.0083696,90.0194203 C51.0750362,90.3186957 50.1268478,90.5795652 49.2569203,91.0491304 C49.1576449,91.1027536 49.0475,91.1766667 48.9438768,91.1744928 C47.3902536,91.1400725 46.0456884,91.9371739 44.5833696,92.2643478 C43.6851812,92.4650725 43.3855435,92.442971 42.5090942,91.9991304 C42.0967754,92.4281159 42.1123551,93.117971 41.6373551,93.5121739 C41.7018478,92.1889855 41.8311957,91.6676087 42.3344565,90.7400725 C42.7177899,90.7715942 42.9228623,91.1567391 43.2761232,91.2484058 C43.4837319,91.3023913 43.6402536,91.269058 43.6561957,91.0121739 C43.5221377,90.8302899 43.5228623,90.6494928 43.6612681,90.4697826 C43.9924275,90.5205072 44.2728623,90.7636232 44.7406159,90.7266667 C44.2612681,90.0092754 43.7264855,89.4484058 43.0993116,88.9487681 C42.7156159,88.642971 42.7909783,88.5045652 43.3739493,88.3125362 C44.4181522,88.7331884 45.063442,89.7708696 46.1587319,90.1121739 C47.9667029,90.0636232 49.5706884,89.3531159 51.1322826,88.5382609 C51.6243116,88.2813768 52.1311957,88.0212319 52.5362681,87.6194203 C53.3188768,86.8306522 54.1975,86.2132609 55.330471,86.0487681 C55.4076449,86.0523913 55.4587319,86.0176087 55.4833696,85.9444203 C55.5746739,85.9063768 55.6569203,85.8542029 55.730471,85.7882609 C55.8681522,85.7310145 56.0011232,85.6549275 56.1442391,85.6201449 C56.6192391,85.5052899 57.0942391,85.3422464 57.5757609,85.3154348 C58.2217754,85.2792029 58.221413,85.9730435 58.5043841,86.3266667 C59.9138043,88.0882609 61.2094565,89.9234058 62.1898913,91.9766667 C62.6246739,92.8875362 62.7761232,93.8400725 62.9159783,94.7969565 C63.0431522,95.6665217 62.2927899,96.642971 61.3909783,96.9386232 C61.0725,97.0433333 60.7185145,97.0422464 60.4022101,97.1516667 C60.0927899,97.2581884 59.8475,97.5324638 59.4598188,97.528167 C59.0275725,96.8621739 58.9163406,96.0697826 58.655471,95.3342754" id="Fill-9" fill="#D1D1D1" mask="url(#mask-2)"></path>
            <path d="M42.623913,86.6950362 C42.5456522,87.1160507 42.2702899,87.4410507 42.0815217,87.808442 C41.1851449,89.5533696 40.5242754,91.3809058 40.1481884,93.3117029 C40.0728261,93.3117029 39.9815217,93.3403261 39.9300725,93.3073551 C38.884058,92.6338043 38.9094203,92.6385145 39.2032609,91.4443116 C39.3692029,90.7714855 39.657971,90.1838043 40.0731884,89.6367029 C40.7536232,88.7399638 41.4112319,87.8261957 42.0782609,86.9193116 C42.2152174,86.7352536 42.3315217,86.5008333 42.623913,86.6950362" id="Fill-10" fill="#CCCCCC" mask="url(#mask-2)"></path>
            <path d="M48.6719928,88.7612319 C48.5723551,88.9304348 48.3944565,88.9525362 48.2281522,88.9967391 C47.7230797,89.2199275 47.5227174,88.7717391 47.2219928,88.5431159 C47.1129348,88.4478261 47.0143841,88.342029 46.9241667,88.2297101 C46.8618478,88.1605072 46.8020652,88.0884058 46.740471,88.0188406 C46.7053261,87.9891304 46.6727174,87.9557971 46.6372101,87.9257246 C46.5575,87.8731884 46.4803261,87.8188406 46.3991667,87.7688406 C46.0922826,87.5978261 45.7759783,87.4431159 45.5140217,87.2018116 C45.3263406,87.026087 45.1277899,86.8481884 45.0491667,86.6007246 C44.9194565,86.1923913 45.065471,86.0434783 45.4785145,86.2123188 C45.7614855,86.2311594 46.0448188,86.25 46.3281522,86.2684783 C46.448442,86.3028986 46.566558,86.3427536 46.6748913,86.4083333 C46.7397464,86.4637681 46.798442,86.5242754 46.8535145,86.5891304 C46.9730797,86.7163043 47.1129348,86.8231884 47.2267029,86.9572464 C47.4223551,87.2184783 47.6223551,87.4746377 47.8828623,87.6764493 C48.1893841,87.9271739 48.5719928,88.0963768 48.7491667,88.4847826 C48.7723551,88.5905797 48.7437319,88.6818841 48.6719928,88.7612319" id="Fill-11" fill="#C1C1C1" mask="url(#mask-2)"></path>
            <path d="M47.5060145,89.1703623 C47.2389855,89.2497101 47.0208696,89.4294203 46.7103623,89.1348551 C46.1201449,88.5747101 45.4552899,88.093913 44.8212319,87.5801449 C44.7277536,87.5243478 44.6498551,87.4471739 44.56,87.3863043 L44.5560145,87.3844928 C44.2002174,87.2247101 43.8176087,87.0989855 43.6705072,86.6776087 C43.6397101,86.3569565 43.5813768,86.018913 44.077029,86.0276087 C44.7161594,86.1348551 45.0136232,86.7163768 45.4907971,87.0478986 C45.769058,87.3957246 46.152029,87.6196377 46.494058,87.8921014 C46.8165217,88.1073188 47.0273913,88.4526087 47.3734058,88.6421014 C47.5002174,88.7971739 47.6292029,88.9526087 47.5060145,89.1703623" id="Fill-12" fill="#BBBBBB" mask="url(#mask-2)"></path>
            <path d="M48.6719928,88.7612319 C48.6607609,88.6981884 48.6556884,88.6344203 48.6567754,88.5702899 C48.5803261,88.1192029 48.1651087,87.9702899 47.8821377,87.7028986 C47.5122101,87.4119565 47.2730797,87.0072464 46.973442,86.6547101 C46.9325,86.4916667 46.940471,86.3460145 47.1136594,86.2586957 C48.2937319,86.5634058 48.8531522,87.5742754 49.6277899,88.3536232 C49.316558,88.6565217 49.0488043,88.848913 48.6719928,88.7612319" id="Fill-13" fill="#B8B8B8" mask="url(#mask-2)"></path>
            <path d="M55.3305797,86.0486232 C54.4128261,86.5968116 53.566087,87.2707246 52.5363768,87.6192754 C52.5483333,87.1917391 52.2805797,87.2877536 52.030942,87.3489855 C51.8313043,86.8899275 52.1860145,86.7826812 52.4838406,86.6558696 C52.815,86.5145652 53.1968841,86.4971739 53.4805797,86.2515217 C53.4573913,86.1094928 53.9512319,86.3102174 53.6592029,85.9812319 C54.2302174,85.6623913 54.7813043,85.8276087 55.3305797,86.0486232" id="Fill-14" fill="#161616" mask="url(#mask-2)"></path>
            <path d="M46.1588043,90.1122464 C45.7421377,90.3354348 45.4316304,90.0745652 45.1229348,89.8676812 C44.4696739,89.43 43.908442,88.8850725 43.3740217,88.3122464 C43.4689493,88.2260145 43.5642391,88.1394203 43.659529,88.0531884 C44.2446739,87.8245652 44.4646014,88.3973913 44.8548188,88.5963043 C45.2348913,89.0531884 45.9312681,89.1796377 46.1370652,89.8194928 C46.1443116,89.9173188 46.151558,90.0147826 46.1588043,90.1122464" id="Fill-15" fill="#181818" mask="url(#mask-2)"></path>
            <path d="M51.1078261,87.8023188 C50.3288406,88.1961594 50.3331884,88.1921739 49.761087,87.5653623 C49.5846377,87.3718841 49.3676087,87.216087 49.1897101,87.024058 C49.0444203,86.8668116 48.8023913,86.7845652 48.7748551,86.5164493 C49.5263043,86.2845652 49.9172464,86.9512319 50.4744928,87.1950725 C50.8813768,87.1928986 51.2433333,87.2381884 51.1078261,87.8023188" id="Fill-16" fill="#B5B5B5" mask="url(#mask-2)"></path>
            <path d="M53.7494203,86.2688406 C53.3468841,86.6076087 52.9211594,86.9018116 52.3794928,86.9648551 C52.1468841,86.992029 52.0892754,87.1684783 52.030942,87.3492754 L51.9323913,87.3557971 L51.8342029,87.3471014 C51.6197101,87.1927536 51.5186232,86.9971014 51.6113768,86.7315217 C52.0135507,86.3050725 52.4881884,86.0804348 53.0874638,86.2021739 C53.3178986,86.1253623 53.5447101,86.0873188 53.7494203,86.2688406" id="Fill-17" fill="#A7A7A7" mask="url(#mask-2)"></path>
            <path d="M51.6111957,86.7315942 C51.7082971,86.9286957 51.8655435,87.1036957 51.8340217,87.3471739 L51.8582971,87.4116667 C51.1872826,87.6134783 50.8564855,87.1156522 50.468442,86.735942 C50.2803986,86.5344928 50.403587,86.3855797 50.5880072,86.3355797 C51.0108333,86.2214493 51.3767754,86.3247101 51.6111957,86.7315942" id="Fill-18" fill="#B4B4B4" mask="url(#mask-2)"></path>
            <path d="M44.7796739,88.7462681 C44.4064855,88.5151087 44.0329348,88.2843116 43.6597464,88.0531522 C43.3380072,87.8096739 43.3438043,87.4839493 43.4293116,87.1382971 C44.001413,86.9632971 44.0637319,87.5524275 44.3746014,87.7687319 L44.4050362,87.7973551 C44.4293116,87.9009783 44.4876449,87.9777899 44.5851087,88.0230797 C44.7332971,88.1810507 44.8818478,88.3390217 45.0303986,88.4969928 C45.085471,88.7194565 45.0097464,88.8103986 44.7796739,88.7462681" id="Fill-19" fill="#C0C0C0" mask="url(#mask-2)"></path>
            <path d="M45.4334783,87.1654348 C44.8476087,86.9458696 44.5881884,86.3364493 44.0769565,86.0277536 C44.5476087,86.0614493 45.0537681,85.8288406 45.4784058,86.2125362 C45.315,86.2915217 44.7769565,86.1415217 45.2211594,86.5944203 C45.399058,86.7755797 45.6733333,86.8603623 45.7805797,87.1230435 C45.6776812,87.2422464 45.5621014,87.2563768 45.4334783,87.1654348" id="Fill-20" fill="#1E1E1E" mask="url(#mask-2)"></path>
            <path d="M44.7796739,88.7462681 C44.8633696,88.6632971 44.9467029,88.5799638 45.0303986,88.4969928 C45.386558,88.7444565 45.7481522,88.9850362 46.0974275,89.2422826 C46.3227899,89.408587 46.2575725,89.6176449 46.1372826,89.8194565 C45.6282246,89.5332246 45.1561232,89.2002536 44.7796739,88.7462681" id="Fill-21" fill="#9F9F9F" mask="url(#mask-2)"></path>
            <path d="M50.4683333,86.7358696 C50.9998551,86.8210145 51.2998551,87.3822464 51.8581884,87.4119565 C51.6636232,87.6485507 51.3802899,87.7155797 51.1078261,87.8021739 C51.0092754,87.4822464 50.6643478,87.4195652 50.4744928,87.1949275 C50.4723188,87.042029 50.4705072,86.8887681 50.4683333,86.7358696" id="Fill-22" fill="#212121" mask="url(#mask-2)"></path>
            <path d="M44.374529,87.7686594 C43.956413,87.7128623 43.8339493,87.2139493 43.4292391,87.1382246 C43.5096739,86.9846014 43.5901087,86.8309783 43.6705435,86.6777174 C44.0035145,86.8657609 44.3625725,87.0211957 44.5560507,87.3846014 C44.3908333,87.4628623 44.3890217,87.6186594 44.374529,87.7686594" id="Fill-23" fill="#3C3C3C" mask="url(#mask-2)"></path>
            <path d="M43.6612319,90.4698188 C43.6597826,90.6506159 43.657971,90.831413 43.6565217,91.0122101 C43.351087,90.6520652 43.0460145,90.2919203 42.740942,89.931413 C42.6775362,89.8401087 42.6815217,89.7491667 42.7434783,89.6589493 C43.1710145,89.791558 43.3898551,90.1603986 43.6612319,90.4698188" id="Fill-24" fill="#7E7E7E" mask="url(#mask-2)"></path>
            <path d="M42.623913,86.6950362 C42.442029,86.7696739 42.2601449,86.8446739 42.0782609,86.9193116 C42.1431159,86.4566304 42.5286232,86.2178623 42.784058,85.7888768 C43.0539855,86.2283696 42.8456522,86.4631522 42.623913,86.6950362" id="Fill-25" fill="#939393" mask="url(#mask-2)"></path>
            <path d="M47.5060145,89.1703623 C47.4342754,89.0417391 47.3625362,88.9134783 47.2911594,88.7848551 C47.1639855,88.6261594 47.1549275,88.4663768 47.2853623,88.3047826 C47.6828261,88.4218116 47.7125362,89.0406522 48.2281159,88.9968116 C48.0277536,89.2221739 47.7763043,89.235942 47.5060145,89.1703623" id="Fill-26" fill="#606060" mask="url(#mask-2)"></path>
            <path d="M57.0319928,92.9008333 C56.8243841,92.6526449 56.8551812,92.3417754 56.8251087,92.0522826 C56.8048188,91.8606159 56.8801812,91.6432246 57.1142391,91.6794565 C57.334529,91.7138768 57.3251087,91.9461232 57.3258333,92.1319928 C57.0062681,92.3037319 57.1569928,92.6548188 57.0319928,92.9008333" id="Fill-27" fill="#2B2B2B" mask="url(#mask-2)"></path>
            <path d="M47.1134783,86.2586594 C47.0337681,86.4064855 47.010942,86.5611957 47.0555072,86.7242391 C47.1580435,86.8307609 47.1511594,86.9296739 47.0348551,87.0209783 C46.8848551,86.9336594 46.7142029,86.8673551 46.6786957,86.6651812 C46.693913,86.5666304 46.6511594,86.5043116 46.5580435,86.4738768 C46.427971,86.4651812 46.3631159,86.3840217 46.327971,86.2688043 C46.5899275,86.2651812 46.8515217,86.2619203 47.1134783,86.2586594" id="Fill-28" fill="#212121" mask="url(#mask-2)"></path>
            <path d="M53.7494203,86.2688406 C53.5291304,86.2467391 53.3084783,86.2242754 53.0878261,86.2021739 C53.2780435,86.1286232 53.4686232,86.0547101 53.6592029,85.9811594 C53.79,86.0105072 54.0302174,86.032971 54.0323913,86.0699275 C54.0428986,86.2358696 53.8834783,86.2525362 53.7494203,86.2688406" id="Fill-29" fill="#A3A3A3" mask="url(#mask-2)"></path>
            <path d="M44.5850362,88.0232609 C44.4748913,87.9877536 44.4093116,87.9171014 44.4049638,87.7975362 C44.533587,87.8178261 44.5875725,87.8982609 44.5850362,88.0232609" id="Fill-30" fill="#3C3C3C" mask="url(#mask-2)"></path>
            <path d="M42.7435507,89.6588043 C42.7428261,89.7497464 42.7417391,89.8403261 42.7410145,89.9312681 C42.6497101,89.8888768 42.5312319,89.8562681 42.5663768,89.725471 C42.5757971,89.6899638 42.6819565,89.6801812 42.7435507,89.6588043" id="Fill-31" fill="#B3B3B3" mask="url(#mask-2)"></path>
            <path d="M44.5598551,87.3861957 C44.7044203,87.3735145 44.787029,87.4441667 44.8214493,87.5803986 C44.695,87.568442 44.6102174,87.5003261 44.5598551,87.3861957" id="Fill-32" fill="#3C3C3C" mask="url(#mask-2)"></path>
            <path d="M55.7303986,85.7881159 C55.6803986,85.8913768 55.6025,85.9504348 55.4832971,85.9442754 C55.5235145,85.8257971 55.6072101,85.7757971 55.7303986,85.7881159" id="Fill-33" fill="#161616" mask="url(#mask-2)"></path>
            <path d="M52.7260507,33.3543478 C51.4948913,33.6655797 50.7169928,34.457971 49.851413,35.0963768 C48.603587,36.0166667 47.518442,37.1155797 46.4880072,38.2713768 C45.3590217,39.5380435 44.0568478,39.4576087 42.9959783,38.0905797 C42.078587,36.9076087 41.3651812,35.5699275 40.2543116,34.5318841 C39.8727899,34.1757246 39.8630072,33.6971014 40.1941667,33.3105072 C40.5394565,32.907971 40.9738768,33.1376812 41.328587,33.3387681 C41.5843841,33.4836957 41.8068478,33.7126812 41.9974275,33.9427536 C42.7894565,34.9003623 43.7090217,35.7514493 44.3872826,36.8036232 C44.6303986,37.1807971 44.8256884,37.2778986 45.2688043,36.934058 C46.1296739,36.2663043 46.8032246,35.3971014 47.7369203,34.8072464 C49.1300362,33.9268116 50.3825725,32.8166667 51.9746014,32.267029 C52.1155435,32.2184783 52.2463406,32.142029 52.386558,32.090942 C53.4698913,31.6952899 53.6369203,31.7916667 53.6180797,32.9771739 C53.5803986,35.3612319 53.9206159,37.7072464 54.2452536,40.0568841 C54.2967029,40.4297101 54.3198913,40.8086957 54.3198913,41.1851449 C54.3198913,41.425 54.1851087,41.6271739 53.9322101,41.676087 C53.6470652,41.7311594 53.3916304,41.6384058 53.2807609,41.3543478 C53.1999638,41.1474638 53.1688043,40.9166667 53.1419928,40.6934783 C52.9985145,39.4931159 52.8177174,38.2945652 52.7383696,37.0894928 C52.6590217,35.8873188 52.5738768,34.6797101 52.7260507,33.3543478" id="Fill-34" fill="#010101" mask="url(#mask-2)"></path>
            <path d="M37.490471,36.023913 C37.416558,37.6297101 37.7107609,39.4065217 38.166558,41.1641304 C38.2419203,41.4550725 38.2618478,41.7605072 38.3020652,42.0601449 C38.3393841,42.340942 38.3140217,42.6293478 37.9890217,42.6938406 C37.6709058,42.7565217 37.3969928,42.6282609 37.2741667,42.2876812 C36.9190942,41.3025362 36.5589493,40.3293478 36.4607609,39.2641304 C36.2911957,37.4268116 36.2082246,35.601087 36.5730797,33.7778986 C36.6274275,33.5076087 36.6502536,33.2188406 37.0100362,33.2434783 C37.3940942,33.2702899 37.5321377,33.5735507 37.4730797,33.8902174 C37.3531522,34.5351449 37.4937319,35.1681159 37.490471,36.023913" id="Fill-35" fill="#050505" mask="url(#mask-2)"></path>
            <path d="M47.0348551,87.020942 C47.0417391,86.922029 47.0486232,86.8231159 47.0555072,86.7242029 C47.4337681,86.9412319 47.7366667,87.2408696 48.0015217,87.5825362 C48.0453623,87.8028261 47.9783333,87.9111594 47.7373913,87.8444928 C47.4312319,87.6314493 47.0844928,87.4531884 47.0348551,87.020942" id="Fill-36" fill="#333333" mask="url(#mask-2)"></path>
            <path d="M45.4334783,87.1654348 C45.549058,87.1513043 45.665,87.1371739 45.7805797,87.1230435 C46.0236957,87.292971 46.2668116,87.4628986 46.5099275,87.6324638 C46.6465217,87.6556522 46.7135507,87.736087 46.7121014,87.8744928 C46.6526812,88.0650725 46.5631884,88.1991304 46.3360145,88.0773913 C45.9392754,87.8683333 45.697971,87.5052899 45.4334783,87.1654348" id="Fill-37" fill="#2C2C2C" mask="url(#mask-2)"></path>
            <path d="M47.7375725,87.8443116 C47.8683696,87.8001087 47.9571377,87.7138768 48.0017029,87.5827174 C48.2357609,87.7953986 48.4759783,88.0022826 48.7017029,88.2236594 C48.8230797,88.3428623 48.7966304,88.4703986 48.6567754,88.5700362 C48.3502536,88.3283696 48.0440942,88.0863406 47.7375725,87.8443116" id="Fill-38" fill="#6F6F6F" mask="url(#mask-2)"></path>
            <path d="M46.3359058,88.0772464 C46.4282971,87.9957246 46.5206884,87.9142029 46.613442,87.8326812 C46.6967754,87.7536957 46.7681522,87.7634783 46.8275725,87.862029 L46.8094565,87.8424638 C46.921413,87.893913 46.9942391,87.9855797 47.0594565,88.0848551 C47.1348188,88.1580435 47.2101812,88.2315942 47.2855435,88.3047826 C47.2873551,88.4649275 47.2891667,88.6247101 47.2909783,88.7848551 C46.8960507,88.6526087 46.6569203,88.3098551 46.3359058,88.0772464" id="Fill-39" fill="#2F2F2F" mask="url(#mask-2)"></path>
            <path d="M47.0593116,88.0849638 C46.9223551,88.0596014 46.8455435,87.9719203 46.8096739,87.8425725 C46.9390217,87.8755435 47.0216304,87.9570652 47.0593116,88.0849638" id="Fill-40" fill="#BBBBBB" mask="url(#mask-2)"></path>
            <path d="M46.8277174,87.8619203 C46.7567029,87.8481522 46.6853261,87.8383696 46.6132246,87.8325725 C46.5762681,87.7673551 46.5418478,87.7006884 46.5103261,87.6325725 C46.6639493,87.6427174 46.7722826,87.7159058 46.8277174,87.8619203" id="Fill-41" fill="#BBBBBB" mask="url(#mask-2)"></path>
            <path d="M46.5580797,86.4738043 C46.6501087,86.5049638 46.7562681,86.5274275 46.6787319,86.665471 C46.6385145,86.6013406 46.5982971,86.5375725 46.5580797,86.4738043" id="Fill-42" fill="#000000" mask="url(#mask-2)"></path>
            <path d="M37.2544928,59.9244928 C37.2544928,60.4128986 37.2715217,60.902029 37.2505072,61.3893478 C37.2175362,62.1560145 36.6834783,62.6864493 35.9798551,62.6835625 C35.4461594,62.6813768 35.0298551,62.2462319 34.9863768,61.5263043 C34.9414493,60.7799275 34.6363768,60.0694203 34.7316667,59.3042029 C34.7827536,58.894058 34.7957971,58.4893478 34.988913,58.1052899 C35.3432609,57.3998551 35.5997826,57.2415217 36.2939855,57.369058 C36.9581159,57.4911594 37.1019565,57.6618116 37.1791304,58.4596377 C37.2044928,58.7208696 37.2012319,58.985 37.205942,59.2480435 C37.2099275,59.4734058 37.2066667,59.6991304 37.2066667,59.9244928 C37.2226087,59.9244928 37.2385507,59.9244928 37.2544928,59.9244928" id="Fill-43" fill="#030303" mask="url(#mask-2)"></path>
            <path d="M58.0100362,58.8057971 C57.9853986,59.6815217 57.940471,60.5721014 57.6180072,61.4347826 C57.440471,61.9101449 57.0933696,62.0246377 56.6618478,62.0630435 C56.2118478,62.1036232 55.9122101,61.832971 55.7882971,61.4782609 C55.3151087,60.125 55.2940942,58.7601449 55.8299638,57.4072464 C56.0491667,56.8536232 56.5756159,56.7717391 57.0325,56.7235507 C57.4520652,56.6793478 57.6132971,57.1351449 57.8056884,57.4543478 C58.0549638,57.8684783 57.8821377,58.3460145 58.0100362,58.8057971" id="Fill-44" fill="#030303" mask="url(#mask-2)"></path>
            <path d="M47.5931159,72.4427899 C47.2402174,72.7268478 46.6496377,72.6935145 46.4021739,72.2801087 C46.1561594,71.8692391 46.1405797,71.1699638 46.5452899,70.8525725 C46.9347826,70.5471377 47.4434783,70.921413 47.6405797,71.2848188 C47.8673913,71.7029348 47.8362319,72.1989493 47.4931159,72.5351812 C47.2949275,72.7297464 47.4141304,72.998587 47.6416667,73.0891667 C47.9217391,73.2007609 48.2528986,73.0692391 48.4539855,72.8717754 C49.101087,72.2369928 49.1018116,71.1811957 48.4960145,70.5138043 C47.7652174,69.7094565 46.475,69.7181522 45.6811594,70.4203261 C44.9612319,71.0572826 44.8141304,72.3272101 45.5539855,73.0225 C46.2887681,73.7130797 47.6152174,73.5587319 48.3543478,72.9641667 C48.9608696,72.4761232 48.0384058,72.0844565 47.5931159,72.4427899" id="Fill-45" fill="#030303" mask="url(#mask-2)"></path>
            <path d="M37.4927899,86.4598551 C37.4927899,86.4598551 37.4927899,86.4594928 37.4931522,86.4594928 C37.4927899,86.4594928 37.4924275,86.4598551 37.4924275,86.4598551 C37.5598188,86.3801449 37.6272101,86.3000725 37.6946014,86.2203623 C37.6946014,86.2221739 37.6938768,86.2236232 37.6938768,86.2254348 L37.6938768,86.2254348 L37.6938768,86.2254348 L37.6938768,86.2254348 C37.6938768,86.2250725 37.6942391,86.2250725 37.6946014,86.2250725 C37.6500362,86.3225362 37.5710507,86.3910145 37.4927899,86.4598551 M47.4837319,84.2015217 C47.4605435,84.1062319 47.4293841,84.0149275 47.3855435,83.9272464 C47.2435145,83.6953623 47.0935145,83.4696377 47.0087319,83.2091304 C46.9757609,83.1272464 46.938442,83.0478986 46.8906159,82.9728986 C46.8431522,82.9007971 46.7938768,82.8308696 46.7380797,82.7645652 C46.7119928,82.7308696 46.6891667,82.6957246 46.6630797,82.6623913 C46.6177899,82.5917391 46.573587,82.5207246 46.5261232,82.4518841 C46.4819203,82.3808696 46.4333696,82.3134783 46.3761232,82.2522464 C46.2913406,82.1623913 46.2069203,82.0725362 46.1225,81.9819565 C46.0706884,81.918913 46.0181522,81.8562319 45.9609058,81.7971739 C45.9047464,81.7377536 45.8456884,81.6823188 45.7797464,81.6334058 C45.7138043,81.5873913 45.646413,81.5457246 45.573587,81.510942 C45.5051087,81.4736232 45.4388043,81.4344928 45.3703261,81.3975362 C45.338442,81.3761594 45.3087319,81.3522464 45.2772101,81.3305072 C45.2188768,81.2815942 45.1601812,81.2326812 45.0982246,81.1877536 C45.0362681,81.1421014 44.9717754,81.1004348 44.9022101,81.0671014 C44.7982246,81.0142029 44.6949638,80.9598551 44.5902536,80.9091304 C44.5196014,80.8747101 44.4467754,80.8442754 44.3710507,80.8221739 C44.2170652,80.7754348 44.0710507,80.7116667 43.938442,80.621087 C43.9043841,80.5982609 43.8710507,80.5721739 43.8373551,80.5489855 C43.7681522,80.4989855 43.6942391,80.4536957 43.6167029,80.4174638 C43.5344565,80.3837681 43.4493116,80.3569565 43.3612681,80.3410145 C43.1333696,80.3062319 42.9094565,80.2489855 42.6837319,80.2051449 C42.588442,80.1968116 42.4931522,80.1993478 42.398587,80.2156522 C42.0703261,80.2910145 41.7333696,80.2953623 41.4003986,80.3402899 C41.3087319,80.3580435 41.2192391,80.3808696 41.1319203,80.4152899 C40.9717754,80.479058 40.8119928,80.5395652 40.648587,80.5921014 C40.5710507,80.6181884 40.4960507,80.6486232 40.4243116,80.6895652 C40.3580072,80.7330435 40.2946014,80.777971 40.2351812,80.8301449 C40.1743116,80.8765217 40.1127174,80.9207246 40.0529348,80.9674638 C39.9551087,81.0261594 39.8525725,81.0750725 39.7543841,81.1319565 C39.6898913,81.1750725 39.6319203,81.2261594 39.5840942,81.2877536 C39.5409783,81.3558696 39.5239493,81.4301449 39.5297464,81.5102174 C39.5163406,81.993913 38.9326449,82.2852174 39.0859058,82.8254348 C39.0163406,82.9065942 39.005471,82.9942754 39.0511232,83.0892029 C39.1482246,83.1301449 39.1601812,83.1942754 39.0942391,83.2801449 C39.038442,83.337029 39.0308333,83.3997101 39.0721377,83.4678261 C38.9014855,83.6794203 39.0670652,83.985942 38.8677899,84.1892029 L38.8047464,84.2373913 L38.8279348,84.3134783 C38.7619928,84.5000725 38.7898913,84.7239855 38.6094565,84.8649275 L38.6199638,84.8482609 C38.5732246,84.9504348 38.4830072,85.0181884 38.4159783,85.104058 C38.413442,85.1065942 38.4112681,85.1091304 38.4083696,85.1113043 C38.2833696,85.1257971 38.2069203,85.1834058 38.2221377,85.3221739 C38.1449638,85.3402899 38.1192391,85.3866667 38.1453261,85.4616667 C38.0116304,85.5257971 37.9598188,85.6341304 37.9753986,85.7783333 C37.9040217,85.8022464 37.8844565,85.8478986 37.9174275,85.9156522 C37.7808333,85.9685507 37.7094565,86.0685507 37.696413,86.2105797 C37.5779348,86.2515217 37.5109058,86.335942 37.4906159,86.4602174 C37.3543841,86.4808696 37.2848188,86.5580435 37.2906159,86.6989855 L37.2797464,86.7192754 C37.1311957,86.8091304 37.0199638,86.9257971 36.9938768,87.1044203 C36.8717754,87.1497101 36.8326449,87.2435507 36.848587,87.3692754 C36.8971377,87.285942 36.9456884,87.2026087 36.9942391,87.1196377 C36.9978623,87.1185507 36.9996739,87.1167391 37.0032971,87.1156522 C36.9924275,87.2239855 36.8967754,87.2826812 36.848587,87.3692754 C36.7764855,87.4004348 36.755471,87.4518841 36.7855435,87.5243478 C36.5775725,87.6261594 36.5594565,87.8228986 36.5337319,88.0152899 C36.4127174,88.0602174 36.3583696,88.1475362 36.3746739,88.2812319 C36.4290217,88.1971739 36.4833696,88.1134783 36.5373551,88.0294203 C36.5413406,88.0283333 36.5442391,88.0265217 36.5478623,88.0250725 C36.5330072,88.1381159 36.4398913,88.2004348 36.3746739,88.2812319 L36.3105435,88.321087 L36.3272101,88.3946377 C36.148587,88.5471739 36.1311957,88.7464493 36.1623551,88.9602174 C36.0725,89.1417391 36.014529,89.3265217 36.1123551,89.5247101 C35.8543841,90.0388406 35.8753986,90.5526087 36.1130797,91.0663768 L36.1130797,91.0663768 C36.0685145,91.2826812 36.0652536,91.4953623 36.1706884,91.6978986 C36.1417029,91.8852174 36.2072826,92.0297826 36.3659783,92.1330435 L36.3703261,92.143913 C36.3594565,92.3352174 36.4388043,92.4823188 36.5902536,92.5946377 C36.5927899,92.5975362 36.5935145,92.6011594 36.5960507,92.604058 C36.5946014,92.602971 36.5938768,92.6015217 36.5924275,92.6007971 C36.5822826,92.8076812 36.5761232,93.0131159 36.7840942,93.1431884 L36.7840942,93.1431884 L36.7616304,93.2261594 L36.823587,93.285942 C36.8967754,93.3649275 36.9840942,93.4344928 37.0018478,93.5497101 C37.1475,93.5931884 37.2225,93.695 37.2369928,93.8471739 C37.2170652,93.6997101 37.1417029,93.5986232 37.0022101,93.5504348 C37.0022101,93.5500725 37.0018478,93.5497101 37.0018478,93.5497101 C36.9989493,93.5486232 36.9967754,93.5471739 36.9938768,93.5464493 C36.9369928,93.4594928 36.880471,93.3728986 36.823587,93.285942 C36.7953261,93.4315942 36.8605435,93.5156522 36.9898913,93.5576812 C37.0228623,93.695 37.1029348,93.7935507 37.2369928,93.8475362 L37.2369928,93.8475362 L37.2362681,93.9315942 L37.3105435,93.9714493 C37.2989493,94.1116667 37.3696014,94.171087 37.5036594,94.1678261 L37.5272101,94.1837681 C37.5453261,94.2877536 37.6018478,94.3475362 37.7127174,94.343913 C37.7127174,94.343913 37.7127174,94.343913 37.7127174,94.343913 C37.7753986,94.3757971 37.8377174,94.4080435 37.9000362,94.4402899 C37.9000362,94.4402899 37.9000362,94.4402899 37.9000362,94.4402899 C38.0177899,94.612029 38.1913406,94.6649275 38.3862681,94.6728986 C38.4946014,94.8573188 38.6667029,94.8696377 38.8540217,94.8424638 C39.0322826,94.9392029 39.2174275,94.9587681 39.4105435,94.8921014 C39.5456884,94.8457246 39.8942391,95.0047826 40.0667029,94.9913768 C40.2811957,94.9747101 40.4297464,94.8703623 40.6282971,94.8283333 C41.5181522,94.6388406 42.1580072,94.6935507 42.8561957,94.060942 C43.4036594,93.5645652 43.8913406,92.962029 44.280471,92.3337681 C44.5927899,91.8294203 44.6322826,91.2696377 44.989529,90.7754348 C45.0406159,90.7051449 45.0880797,90.6312319 45.1257609,90.5526087 C45.1601812,90.4696377 45.1880797,90.3841304 45.2040217,90.295 C45.2348188,90.1167391 45.2681522,89.9388406 45.3264855,89.7667391 C45.3594565,89.6819565 45.3920652,89.5968116 45.4174275,89.5087681 C45.4728623,89.337029 45.5311957,89.1667391 45.5898913,88.9957246 C45.6174275,88.910942 45.6409783,88.8254348 45.6551087,88.737029 C45.6833696,88.5696377 45.7094565,88.402971 45.7772101,88.246087 C45.7956884,88.2091304 45.8174275,88.1739855 45.8366304,88.137029 C45.8833696,88.068913 45.9311957,88.0018841 45.9753986,87.9319565 C46.0210507,87.8634783 46.0652536,87.7942754 46.1029348,87.7207246 C46.1449638,87.6511594 46.189529,87.5834058 46.231558,87.5138406 C46.255471,87.4812319 46.2819203,87.4507971 46.3058333,87.4181884 C46.3594565,87.3576812 46.4138043,87.2971739 46.4638043,87.2334058 C46.5449638,87.1399275 46.6221377,87.0424638 46.6880797,86.9373913 C46.7772101,86.7935507 46.8692391,86.6511594 46.9685145,86.5149275 C47.0503986,86.4098551 47.130471,86.302971 47.198587,86.1884783 C47.2960507,86.0261594 47.389529,85.8613043 47.4514855,85.6815942 C47.4801087,85.5881159 47.5029348,85.4924638 47.5130797,85.3946377 C47.5442391,84.9964493 47.5500362,84.5982609 47.4837319,84.2015217" id="Fill-46" fill="#060401" mask="url(#mask-2)"></path>
            <path d="M39.053587,83.0961232 C39.0525,83.093587 39.0521377,83.091413 39.0510507,83.0892391 C39.0467029,83.0874275 39.044529,83.0848913 39.0398188,83.0830797 L39.053587,83.0961232 Z" id="Fill-47" fill="#060401" mask="url(#mask-2)"></path>
            <path d="M45.918442,85.0985507 C45.8582971,85.1387681 45.8459783,85.1898551 45.8818478,85.2528986 C45.8553986,85.3699275 45.7771377,85.4576087 45.7093841,85.5507246 C45.6412681,85.5764493 45.6224275,85.6221014 45.6521377,85.6884058 C45.6336594,85.823913 45.5448913,85.917029 45.4579348,86.0115942 L45.4550362,86.0148551 C45.3717029,86.0833333 45.2992391,86.1634058 45.2180797,86.2336957 L45.2224275,86.2300725 C45.1517754,86.3014493 45.0876449,86.3782609 45.0300362,86.4608696 C44.9630072,86.4942029 44.9438043,86.5456522 44.9717029,86.6152174 C44.9463406,86.734058 44.8677174,86.8224638 44.7974275,86.9152174 C44.7314855,86.9423913 44.7126449,86.9887681 44.7409058,87.0547101 C44.7173551,87.1978261 44.6343841,87.2956522 44.5064855,87.359058 L44.5191667,87.3402174 C44.4249638,87.4902174 44.4485145,87.6858696 44.3303986,87.8264493 C44.2778623,87.8818841 44.2677174,87.9445652 44.3006884,88.0134058 C44.1278623,88.225 44.2775,88.5257246 44.1003261,88.7362319 C44.0456159,88.7869565 44.035471,88.8452899 44.0691667,88.9115942 C43.9688043,89.0681159 43.9999638,89.2775362 43.8640942,89.4195652 C43.8010507,89.4554348 43.7905435,89.5028986 43.8329348,89.5619565 C43.7622826,89.7405797 43.7593841,89.9427536 43.6405435,90.1043478 L43.6376449,90.109058 C43.4119203,90.2782609 43.6213406,90.6112319 43.3861957,90.7771739 L43.3952536,90.7615942 C43.3340217,90.8373188 43.2807609,90.9181159 43.235471,91.0043478 C43.1608333,91.05 43.1369203,91.1141304 43.1640942,91.1971014 C43.0557609,91.3460145 43.086558,91.5565217 42.9459783,91.6916667 L42.9477899,91.6865942 C42.8177174,91.8137681 42.8539493,92.0206522 42.726413,92.148913 L42.7253261,92.1507246 C42.6470652,92.2188406 42.5800362,92.2967391 42.5249638,92.3847826 L42.5061232,92.4014493 C42.4246014,92.4474638 42.3619203,92.5119565 42.3217029,92.5971014 C42.2496014,92.6231884 42.2231522,92.6735507 42.2430797,92.7474638 C42.2032246,92.9086957 42.103587,93.0043478 41.9376449,93.0282609 C41.8858333,93.0344203 41.8358333,93.0278986 41.7872826,93.0094203 C39.4767754,91.9648551 38.7235145,89.4960145 40.0582971,87.442029 C40.9651812,86.0467391 42.0796739,84.8195652 43.1260507,83.5369565 C43.4608333,83.1268116 43.8611957,82.7637681 44.4717029,82.8630435 C44.5836594,82.8963768 44.6887319,82.9445652 44.7872826,83.0072464 L44.8151812,83.0365942 C44.8782246,83.2137681 45.1496014,83.140942 45.1876449,83.3474638 L45.1568478,83.3192029 C45.2590217,83.3507246 45.3028623,83.4173913 45.2800362,83.523913 C45.1880072,83.898913 45.3477899,84.1460145 45.6800362,84.3054348 C45.7746014,84.3311594 45.8441667,84.3876812 45.8894565,84.4735507 C45.853587,84.5384058 45.8630072,84.5963768 45.9169928,84.6467391 C46.0358333,84.7971014 46.035471,84.9474638 45.918442,85.0985507" id="Fill-48" fill="#D1D1D1" mask="url(#mask-2)"></path>
            <path d="M44.6197464,83.0308696 C44.011413,82.9616667 43.6266304,83.3308696 43.295471,83.7489855 C42.1777174,85.1616667 40.9867754,86.5145652 39.9882246,88.0243478 C39.4164855,88.8888406 39.4211957,89.6747101 39.8788043,90.5547826 C40.3668478,91.4942754 41.0023551,92.3069565 41.7875,93.0094928 L41.8280797,93.1015217 C41.7356884,93.1442754 41.6588768,93.2062319 41.6005435,93.2902899 L41.5911232,93.2946377 C41.4201087,93.4065942 41.2175725,93.4236232 41.0288043,93.4823188 L40.9559783,93.4533333 L40.9056159,93.5131159 C40.3780797,93.6978986 39.8476449,93.6613043 39.3164855,93.5319565 L39.2255435,93.4801449 L39.1226449,93.5000725 C39.0418478,93.4410145 38.9567029,93.3888406 38.8664855,93.3442754 C38.8498188,93.2634783 38.8016304,93.2334058 38.721558,93.2536957 C38.5773551,93.229058 38.4788043,93.1493478 38.4280797,93.0116667 L38.4498188,93.0305072 C38.3313406,92.9975362 38.2574275,92.9080435 38.1820652,92.82 L38.1889493,92.8250725 C38.1001812,92.7515217 38.0139493,92.6761594 37.970471,92.5649275 L37.9856884,92.5884783 C37.8027174,92.4663768 37.836413,92.2435507 37.7480072,92.0776087 C37.7806159,92.004058 37.7606884,91.9507971 37.6875,91.9171014 C37.6230072,91.8181884 37.5396739,91.7286957 37.5262681,91.6033333 L37.5516304,91.5232609 L37.4903986,91.4656522 C37.3016304,91.2587681 37.4585145,90.952971 37.2827899,90.7421014 C37.2849638,90.3964493 37.2867754,90.0511594 37.2889493,89.7055072 C37.4414855,89.4826812 37.321558,89.1931884 37.4686594,88.968913 C37.5418478,88.9435507 37.5606884,88.8964493 37.5255435,88.8276087 C37.6027174,88.6515217 37.5679348,88.4218116 37.7730072,88.3062319 L37.7523551,88.329058 C37.7802536,88.212029 37.8730072,88.1402899 37.9451087,88.054058 L37.946558,88.0493478 C38.0922101,87.9352174 38.0476449,87.7236232 38.1759058,87.6004348 L38.1766304,87.5997101 C38.2505435,87.5381159 38.3088768,87.4642029 38.3538043,87.379058 C38.4313406,87.3685507 38.4596014,87.3254348 38.438587,87.2500725 C38.5436594,87.0283333 38.7371377,86.8837681 38.9019928,86.7142029 L38.8842391,86.7337681 C38.9226449,86.6171014 39.0096014,86.5417391 39.1038043,86.4721739 L39.0976449,86.4815942 C39.2193841,86.3504348 39.1726449,86.1247101 39.3538043,86.0276087 L39.3414855,86.0475362 C39.4418478,85.8910145 39.395471,85.6337681 39.6577899,85.5888406 C39.7708333,85.5605797 39.8201087,85.493913 39.7867754,85.3765217 C39.8791667,84.896087 40.3092391,84.4674638 40.0088768,83.9265217 C40.0577899,83.8536957 40.0480072,83.7895652 39.979529,83.7341304 C39.8697464,83.5815942 39.8679348,83.4308696 39.9878623,83.2823188 L40.0516304,83.2308696 L40.0277174,83.1526087 C40.1121377,82.8536957 40.2490942,82.5892029 40.511413,82.4055072 L40.4932971,82.4268841 C40.5414855,82.1660145 40.7041667,82.0171014 40.9541667,81.9533333 L40.9320652,81.97 C41.0139493,81.7685507 41.2552536,81.8283333 41.3798913,81.6964493 C41.8150362,81.6989855 42.2501812,81.7015217 42.6856884,81.704058 C42.8317029,81.8149275 43.036413,81.7812319 43.1777174,81.9033333 C43.2262681,81.962029 43.2838768,81.9732609 43.3509058,81.9373913 C43.4585145,81.9736232 43.5393116,82.0522464 43.6306159,82.1142029 L43.6751812,82.185942 L43.7592391,82.1772464 C44.029529,82.1855797 44.1519928,82.4152899 44.3313406,82.5598551 L44.3516304,82.5848551 C44.4494565,82.7283333 44.6469203,82.812029 44.6197464,83.0308696" id="Fill-49" fill="#FEFEFE" mask="url(#mask-2)"></path>
        </g>
    </g>
</svg>