<svg xmlns="http://www.w3.org/2000/svg" xmlns:xlink="http://www.w3.org/1999/xlink" width="100" height="100" xmlns:v="https://vecta.io/nano"><defs><path d="M0 50c0 27.615 22.386 50 50 50h0c27.614 0 50-22.385 50-50h0c0-27.614-22.386-50-50-50h0C22.386 0 0 22.386 0 50h0z" id="A"/><path id="B" d="M0 0h68.774v103.884H0z"/></defs><g fill="none" fill-rule="evenodd"><mask id="C" fill="#fff"><use xlink:href="#A"/></mask><path fill="#f69767" mask="url(#C)" d="M-43.478 142.029h201.449V-9.42H-43.478z"/><g mask="url(#C)"><g transform="translate(16 19)"><mask id="D" fill="#fff"><use xlink:href="#B"/></mask><path d="M25.78 68.634c-1.84-1.159-3.884-1.698-5.868-2.372-.921-.313-1.728-.796-2.488-1.366-.311-.234-.693-.204-.992-.388-1.393-.86-2.812-1.692-3.845-3.011-.127-.162-.266-.4-.45-.345-.763.228-1.073-.37-1.487-.765-2.273-2.166-4.102-4.684-5.758-7.333-.482-.772-.882-1.599-1.279-2.42-1.091-2.26-2.056-4.575-2.634-7.023C.316 40.803.012 37.95 0 35.061c-.01-2.528.198-5.046.756-7.497.717-3.15 1.746-6.205 3.335-9.059 1.645-2.957 3.59-5.685 5.969-8.076 1.309-1.314 2.774-2.463 4.29-3.567 2.314-1.685 4.777-3.021 7.413-4.072 1.482-.591 2.989-1.116 4.558-1.439.511-.106 1.012-.221 1.437-.561.255-.204.572-.249.9-.285 2.461-.276 4.905-.629 7.408-.461 2.436.163 4.822.515 7.187 1.105 1.706.425 3.388.951 4.939 1.745 2.219 1.136 4.482 2.204 6.441 3.823.918.759 1.892 1.455 2.744 2.294 1.556 1.534 3.075 3.081 4.392 4.856a37.98 37.98 0 0 1 3.22 5.165c1.218 2.346 2.053 4.827 2.735 7.378.983 3.677 1.212 7.42.949 11.176-.161 2.298-.587 4.579-1.211 6.829-.655 2.361-1.52 4.63-2.664 6.767-1.415 2.641-2.991 5.201-5.106 7.375-1.588 1.633-3.198 3.24-5.064 4.567-.283.2-.476.529-.707.8-1.08 1.266-2.627 1.749-4.166 2.492.981 1.008 1.522 2.225 1.688 3.602.166 1.384.266 2.776.076 4.159a16.4 16.4 0 0 0-.14 2.637c.04 1.727-.102 3.437-.531 5.117-.059.232-.175.473-.154.7.111 1.182-.572 2.236-.524 3.405.012.294-.094.606-.341.737-1.359.716-.992 1.998-.683 2.929.524 1.578.955 3.213 1.829 4.679.429.719.244 1.648.366 2.477.205 1.385.355 2.778.526 4.168.055.456.118.864.73.916.354.03.429.371.281.644-.169.313-.405.787-.8.644-1.145-.418-2.158-.045-3.246.252-1.71.466-3.5.479-5.249.284-1.043-.117-.969-.027-.886-1.143.13-1.755-.01-3.499-.019-5.249-.008-1.577-.466-3.083-.711-4.623-.066-.413-.269-.526-.653-.493-.989.085-1.968.323-2.975.106-.407-.087-.41.285-.433.559-.097 1.197-.282 2.397-.254 3.592.041 1.787-.171 3.588.389 5.362.345 1.092-.137 1.693-1.332 1.725-2.273.059-4.569.321-6.797-.423-.439-.146-.874.044-1.311.057-.319.01-.682.031-.787-.37-.086-.328.157-.584.419-.644.94-.213.878-.855.903-1.618.057-1.757-.135-3.533.337-5.268.209-.767.448-1.525.479-2.343.026-.666.45-1.376.306-1.971-.145-.603-.745-1.112-1.194-1.619-.572-.645-.791-1.663-1.904-1.759-.293-.026-.301-.429-.407-.686-1.147-2.774-1.539-5.686-1.701-8.661l-.371-5.768c-.132-1.39-.038-2.823 1.099-3.895" fill="#000" mask="url(#D)"/><g fill="#fff"><path d="M41.264 67.203c-.647.407-1.404.243-2.103.386-1.892.387-3.821.397-5.748.398-.426 0-.776-.19-1.142-.315-1.522-.52-3.16-.417-4.681-.94-1.875-.643-3.758-1.245-5.511-2.201-.87-.475-1.863-.675-2.742-1.171l-5.346-2.888c-1.142-.662-2.065-1.63-2.992-2.566-1.607-1.624-2.974-3.459-4.172-5.379-.68-1.09-1.402-2.207-1.825-3.473-.376-1.127-.975-2.175-1.337-3.318-.819-2.589-1.506-5.191-1.696-7.929-.22-3.178.068-6.312.522-9.437.17-1.172.537-2.327.919-3.455 1.49-4.385 3.641-8.395 6.693-11.922 2.754-3.182 5.994-5.744 9.655-7.752 2.269-1.244 4.71-2.142 7.225-2.798.078-.02.161-.083.228-.067 1.372.311 2.662-.247 3.991-.38 1.357-.136 2.719-.166 4.074-.13 3.693.097 7.264.785 10.756 2.055 2.652.965 5.077 2.318 7.374 3.885 2.99 2.04 5.507 4.612 7.617 7.564.857 1.199 1.726 2.396 2.226 3.806.634 2.779 1.185 5.57 1.244 8.434.033 1.602-.065 3.203.2 4.804.216 1.3-.297 2.542-.585 3.784-2.127 9.169-6.348 17.284-12.405 24.464-.684.812-1.608 1.329-2.459 1.922-2.11 1.472-4.34 2.745-6.675 3.826-.496.162-.98.346-1.305.793M32.348 85.79c-1.352.978-2.87 1.031-4.552.846.246-.61.066-1.124-.091-1.654-.319-1.072-.437-2.184-.611-3.286-.124-.784-.196-1.593-.454-2.334-.375-1.076-.505-2.183-.56-3.29-.066-1.316-.02-2.642.054-3.96.054-.966.578-1.707 1.39-2.237.69-.191 1.363-.233 1.977.229.426.562 1.059.696 1.699.812.938.442 1.952.638 2.94.922 2.874.462 5.536-.199 8.077-1.513l2.781-2.868c.342-.329.791-.708 1.34-.252.049.04.157.028.232.012 1.226-.253 1.894.473 2.455 1.391.341 1.53-.12 3.035-.217 4.541l-.672 10.083c-.053.56-.163 1.112-.271 1.663-.122.627-.435.934-1.099.685-1.078.031-1.996-.531-2.989-.815-.345-.099-.459-.336-.403-.738l.368-3.456.463-7.765c0-.338.068-.71-.381-1.135l-.397 2.499c-.362 3.412-.917 6.796-1.399 10.191-.087.613-.303 1.298.441 1.715.151.062.343.14.36.293.211 1.943 1.851 2.191 3.233 2.731.441.172.966.188 1.103.776.015.231-.126.398-.238.576a3.48 3.48 0 0 1-.232.378c-.051.074-.18.082-.201.15-.046.152-.054-.033.094.032.071.066.124.144.16.233.071.229.103.468.187.694.036.094.063.189.086.286.055.305.133.602.234.896a2.15 2.15 0 0 1 .07.328c.028.414.107.817.223 1.215.27 1.439.506 2.884.887 4.299.137.507.198 1.01-.019 1.512-1.199 1.246-2.795.941-4.267 1.031-.52.032-.316-.514-.279-.849.213-1.762-.135-3.509-.209-5.26-.058-1.37-.6-2.712-1.078-4.023-.115-.314-.337-.471-.749-.416-1.418.192-2.842.267-4.26-.033-.779-.164-.548.621-.843.913-2.1 1.062-2.334 3.047-2.48 5.06-.095 1.31-.274 2.621-.136 3.939a.94.94 0 0 1-.325.853l-3.206.244c-.466.049-.595-.182-.556-.538.242-2.245.522-4.481 1.15-6.663.271-.944.717-1.849.717-2.869-.001-.44.478-.741.426-1.217-.043-.653.558-.49.871-.693l.999-.285c1.157-.234 1.949-.931 2.475-1.961.041-.104.092-.202.15-.297s.136-.175.215-.254a3.01 3.01 0 0 1 .248-.219c.824-.937.328-1.932.112-2.904-.075-.341-.305-.637-.441-.965-.675-1.72-1.458-3.399-1.95-5.187-.067-.552-.185-1.093-.304-1.638-.203-.927-.663-1.493-1.653-1.531-.389-.641-.349-1.576-1.385-1.889-.182 1.37.066 2.664.437 3.942.099.343.25.67.275 1.033.309 1.676.493 3.382.944 5.023.349 1.271.234 2.263-.966 2.968"/></g><path d="M42.233 66.259c2.69-1.345 5.279-2.849 7.76-4.563 1.369-.946 2.229-2.274 3.244-3.494 3.127-3.762 5.372-8.059 7.437-12.453 1.074-2.287 1.795-4.713 2.47-7.144.406-1.463.695-2.957 1.086-4.424.224-.837.258-1.657.039-2.487-.147-.555-.103-1.12-.078-1.676.143-3.141-.295-6.221-.92-9.284-.105-.514-.091-1.037-.022-1.558.456.32.599.856.8 1.313a42.78 42.78 0 0 1 2.334 6.778c.955 3.774.891 7.581.61 11.394-.125 1.701-.541 3.382-1 5.039-.631 2.274-1.506 4.467-2.563 6.558-.916 1.809-2.1 3.489-3.333 5.115-1.654 2.181-3.64 4.044-5.742 5.766-1.478 1.21-3.156 2.163-4.812 3.126-.483.281-.994.494-1.346.975-.287.394-.732.395-1.199.345-1.496-.161-2.855.207-4.047 1.144-.335-.011-.739.084-.718-.47" fill="#d0d0d0"/><path d="M46.766 85.579c.377-.08.737-.06.804-.654l.475-5.961c.01-1.353.237-2.704.32-4.059.129-2.11.23-4.22.66-6.298.391 1.2.645 2.377.544 3.695-.174 2.275-.015 4.573-.105 6.857l-.214 5.877c.016.64-.245.893-.854.795-.543-.087-1.128.096-1.63-.252" fill="#c6c6c6"/><path d="M29.444 70.365c-.53-.594-1.251-.441-1.92-.491 1.59-.511 3.093-.488 4.45.656.352.296.68.668 1.236.638.811-.043 1.061-.31.916-1.116-.034-.195-.13-.377-.008-.631 2.403-.264 4.92.265 7.292-.807.212.566-.077 1.052.107 1.499-.216.576-.726.695-1.243.776-1.689.266-3.384.493-4.977 1.178-.398.171-.85.181-1.271-.016-1.001-.204-2.039-.299-2.889-.959-.519-.348-1.2-.317-1.693-.727" fill="#c5c5c5"/><path d="M35.233 77.831l1.804 4.6c.099.204.1.456.146.686.505 1.378.625 2.755.001 4.133l-.002-.005a.99.99 0 0 0-.247.24l.003.002c-1.081.059-1.548-.705-2-1.49 1.087-.518.989-1.404.709-2.331l-2.329-8.247c.77-.306 1.067.282 1.34.775.279.504.439 1.071.575 1.637" fill="#c6c6c6"/><path d="M34.027 72.051a2.63 2.63 0 0 0 1.656-.486c.822-.558 1.906-.458 2.852-.736.984-.289 2.089-.063 2.982-.715l.701.211c-.374.829-1.159 1.038-1.929 1.206-.349.077-.705.137-1.027.28-1.561.691-3.202.473-4.825.448-.138-.002-.273-.136-.41-.208" fill="#d0d0d0"/><path d="M32.348 85.79c.022-.116.003-.294.072-.338 1.008-.658.791-1.544.571-2.507-.385-1.689-.765-3.389-.621-5.146.465.894.618 1.89.912 2.839l1.121 3.673c.132.395.067.599-.286.765-.576.272-1.119.625-1.769.714" fill="#c2c2c2"/><path d="M35.233 77.831l-.717-1.357c-.251-.532-.574-.958-1.198-1.055-.21-.189-.274-.435-.274-.706 1.133-.397 1.425-.263 1.722.808.211.759.581 1.486.467 2.31" fill="#d1d1d1"/><path d="M42.233 66.259c.138.311.57.173.718.47-.14.347-.35.577-.773.525-.302-.037-.609-.035-.914-.051-.115-.763.517-.762.969-.944" fill="#e0e0e0"/><g fill="#010101"><path d="M39.418 10.665c-.602.171-.828.671-1.145 1.07-1.663 2.087-3.49 4.025-5.403 5.879-1.11 1.076-2.677 1.068-3.88.067-1.95-1.624-3.376-3.646-4.492-5.907-.111-.225-.152-.451-.154-.693-.002-.271-.114-.613.21-.744.346-.14.673-.085.948.265l2.339 2.798c.755.746 1.309 1.688 2.307 2.222.576.308.9.303 1.315-.179 1.572-1.826 3.342-3.435 5.311-4.83l2.646-2.024c.365-.288.773-.459 1.218-.433.495.028.917.548.886 1.103-.148 2.6-.024 5.198-.008 7.797.001.119-.023.239-.029.359-.061 1.159-.412 1.716-1.083 1.716-.546 0-1.065-1.069-.975-1.971.212-2.109.119-4.225.125-6.338 0-.028-.046-.056-.136-.157m12.46 20.182c.418-.001.893-.22 1.183.304.007.012.183-.069.28-.106l-.026.024 3.012-.042c.731.017.77.169.351.951-.386.35-.824.585-1.358.604l-7.106.037c-3.656-.065-7.3.189-10.947.273-.532.158-1.106.175-1.603.459-.198.103-.396.208-.559.364-1.007 1.253-.262 2.427.164 3.612.317.334.631.67.772 1.124.33 1.391 1.363 2.452 1.785 3.8-.03.917.23 1.826.085 2.747-.284 1.293-.841 2.498-1.167 3.785-.392 1.551-1.528 1.677-2.776.401-.273-.489-.219-1.029-.14-1.53.472-3.019-.07-5.992-.445-8.959-.126-.995-.828-1.905-.643-2.997l-.002-1.199c.007-.595-.008-1.194.287-1.741.122-.231.245-.461.4-.673.464-.604 1.114-.051 1.643-.262l6.527-.638c2.201-.186 4.409-.215 6.618-.15.181-.102.392-.136.573-.083.219.063.762-.275.565.393.133.004.344.239.361-.109.014-.281.211-.275.407-.293.585-.054 1.182.105 1.759-.096M20.285 57.82l3.111-3.321c.167-.177.356-.372.615-.182.223.163.192.424.161.666-.054.428-.484.632-.612 1.016.029.026.055.061.089.076.767.335 1.559.973 2.295.914.742-.06 1.435-.802 2.137-1.265l2.78-1.888c.362-.263.69-.363 1.11-.211.64.23 1.328.363 1.922.677.735.388 1.361.346 1.998-.137 1.122-.85 2.546-.931 3.785-1.485.2-.089.395-.069.576.032 1.692.938 3.636 1.217 5.366 2.05.717.344 1.378.809 2.178.965.195.038.385.107.581.124.295.025.59-.087.756-.301.212-.274-.042-.535-.21-.735-.517-.62-.62-1.482-1.229-2.046-.107-.099-.211-.275-.071-.419.18-.183.372-.08.527.058.149.132.286.281.415.434 1.111 1.315 2.063 2.768 3.38 3.905.161.138.29.328.162.515-.138.203-.359.11-.533.002l-1.218-.767c-.434-.223-.959-.234-1.091.313-.171.708-.528.566-.964.372L43.443 55.1c-1.152-.614-2.482-.608-3.684-1.052-.227-.083-.386.041-.477.242-.293.646-.902.874-1.484 1.145-.4.185-.833.338-1.175.603-1.04.81-2.115.64-3.159.113-1.412-.711-2.696-.559-3.954.34-.842.602-1.902.857-2.636 1.638-.289.307-.582.101-.882-.008l-2.387-.821c-.686-.2-1.385-.361-2.007.249-.184.181-.508.22-.768.324-.189.064-.375.088-.545-.053m3.607-30.857l-.692-.771c-.033-.218.105-.291.28-.334a5.1 5.1 0 0 1 1.25.181c.143.113.139-.178.094-.024-.01.033-.041.012-.111-.03-.313-.185-.57-.412-.64-.792.055-.188.143-.312.361-.195l.914.53c1.524.945 3.048 1.885 4.83 2.3 1.107.258 1.404 1.493 2.317 1.999.914.477 1.234 1.181.823 2.163a1.58 1.58 0 0 1-.116.328c-.078.158-.172.307-.265.457l-.508 1.189c-.332.722-.803 1.045-1.585.663-1.538-.272-3.031.041-4.522.347-3.848.792-7.724 1.411-11.612 1.951-.491.007-.964.139-1.443.219-.834.211-1.658.721-2.525.11-.093.019-.186.041-.274.075-.212.108-.374.306-.62.353-.148-.002-.296-.001-.389-.148-.113-.501-.01-.866.568-.975.352-.067.692-.19 1.042-.261.539-.11 1.034-.208 1.49-.624.467-.426 1.187-.418 1.815-.499l5.823-.724 5.926-.845c1.146-.133 2.309-.085 3.444-.369.842-.211.854-.158.834-1.057l-.007-.599c-.107-.303-.43-.573-.389-.866.22-1.541-1.18-1.69-1.908-1.708-1.747-.045-2.824-1.159-4.113-1.967-.135-.085.031.026-.092-.077"/></g><path d="M32.599 39.01l-3.608 3.474c-.915.888-1.711 1.884-2.471 2.903-.444.597-1.065.96-1.629 1.391-.439.336-1.149-.085-1.23-.638-.131-.904.378-1.502.964-2.067.098-.398.299-.768.308-1.189-.005-.105.004-.209.021-.313.099-.382.373-.62.682-.829l.257-.176.129-.088c.086-.062.177-.113.271-.16l.146-.06c.733-.276 1.145-.871 1.504-1.518l.075-.139.083-.135c.059-.088.125-.169.195-.249l.106-.117.218-.232.111-.116c.073-.082.151-.157.231-.231 1.037-.745 1.733-1.83 2.668-2.674.336-.304.578-.779 1.145-.731.24.189.152.457.171.7-.361 1.039.328 2.191-.347 3.194" fill="#d0d0d0"/><path d="M55.539 32.29l1.139-.312c-.186.323-.139.752-.455 1.017-.189.261-.276.574-.436.848-.037.094-.084.183-.136.27l-.096.113a.92.92 0 0 1-.264.109c-.128.051-.235.133-.323.239-.141.129-.163.292-.13.472-.112.311-.383.396-.658.474a.4.4 0 0 0-.269.266c-.097.235-.261.391-.512.447-.182.023-.365.043-.526.146l-.226.16-.343.243-.581.373a1.01 1.01 0 0 1-.245.071c-.117.023-.226.066-.31.159l-.134.2c-.068.104-.147.199-.232.289a1.75 1.75 0 0 1-.182.173 1.25 1.25 0 0 1-.207.139l-.316.186-.186.164-.283.26c-.068.057-.142.106-.219.151a2.34 2.34 0 0 0-.435.319l-.598.594c-.062.066-.131.128-.2.187s-.137.114-.21.164l-.119.052c-.08.001-.111.015-.092.043.024.035.046.053.07.052.065.039.088.081.069.126s-.037.067-.057.067l-1.612 1.04c-1.345.878-2.416.818-3.691-.243-.354-.294-.628-.507-.933.054-.126.232-.393.246-.638.109-.764-.427-1.6-.753-2.106-1.533.095-.758-.462-1.235-.799-1.799-.27-.452-.481-.847.097-1.209.817-.107 1.309.505 1.881.893 1.085.737 2.081 1.603 3.247 2.224.458.245.922.472 1.432.582.526.114.999.047 1.078-.592.094-.759.665-1.032 1.223-1.341.091-.065.187-.122.283-.178 1.107-.647 2.109-1.427 3.011-2.337l2.626-1.942 1.053-.713c.63-.288.855-1.068 1.55-1.276" fill="#cfcfcf"/><path d="M39.053 24.052c.261-.147.43-.44.76-.478.465-.156.938-.395 1.341.125.286.616-.219 1.039-.377 1.548-.257.834-.993 1.301-1.511 1.929l-3.057 3.419c-.179.121-.382.093-.58.097-.53.011-1.142.374-1.53-.275-.347-.58-.228-1.244.116-1.716 1.333-1.83 2.634-3.717 4.838-4.649" fill="#010101"/><path d="M39.053 24.052C37.55 25.233 36.287 26.66 34.937 28c-.574.57-.706 1.235-.765 1.951-.039.471.214.748.725.717l1.312-.073c-.302.458-.913.14-1.257.508-.283.303-.448.564.116.72-.433.47-1.086-.005-1.543.36-.113.246-.285.192-.466.09.004-.115-.025-.244.017-.343.362-.854.119-1.463-.721-1.842.187-.831.059-1.631-.229-2.417.585.063 1.124-.502 1.812-.025-.55-.772-.346-1.366.197-1.848.483-.43.703-1.061 1.253-1.445 1.178-.822 2.371-1.08 3.665-.301" fill="#cfcfcf"/><path d="M34.279 49.146c.483.103.56.651.992.9.455-.136.526-.784 1.045-.887.106-.021.249-.251.243-.378-.06-1.374.747-2.487 1.099-3.734.268-.456.392-1 .829-1.351.466-.355.631-.962 1.098-1.316l.356.035c1.259.136 1.589.875.865 1.95-.418.621-.945 1.17-1.227 1.879-.142.837-.854 1.308-1.261 1.976-.169.216-.411.33-.646.453l-1.679 1.842c-.616.759-1.466.995-2.39 1.29-.119-1.268-.025-2.451-.021-3.632.645.332.171.951.364 1.345.018-.159.161-.277.333-.372" fill="#5c5c5c"/><path d="M39.128 59.486c-.407.514-.809 1.03-1.467 1.258-.207.072-.228.295-.275.482-.36-.026-.489.308-.731.466-.587-.445-1.405-.289-1.639.333-.077.207-.007.466-.214.634-.464-.33-.275-.86-.378-1.251-.262.853.264 1.862-.421 2.694-.336-.376-.201-.837-.187-1.256.019-.606-.107-.902-.819-.986-1.093-.13-1.231-.482-.919-1.64 1.256-1.641 2.976-2.162 4.942-1.952.841.09 1.784.162 2.108 1.218" fill="#b5b5b5"/><path d="M34.279 49.146l-.352.752c-.348-.562.164-1.249-.345-1.725-.207-1.139-.338-2.286-.413-3.443l-.57-5.72c-.034-1.131-.159-2.268.232-3.37l.073-.088.111.028.05 1.199c.011.198-.029.493.081.577.952.722.717 1.844.807 2.759.123 1.265.394 2.538.3 3.815-.062.839.295 1.632.129 2.487l-.244 1.142c-.163.526-.29 1.094.141 1.587" fill="#2e2e2e"/><path d="M48.673 21.278c-.112-.104-.188-.204-.288-.264-1.099-.653-1.121-.665-.374-1.756.278-.404.221-.645-.168-.862-.776-.434-1.07-.948-.585-1.848.259-.479.067-1.096-.193-1.618-.1-.2-.367-.344-.226-.66.201-.186.361-.006.451.14.465.755.887 1.535.559 2.465-.103.29-.127.479.135.731 1.179 1.132 1.167 1.145.386 2.448.071.08.135.179.224.246 1.028.772 1.099 1.116.233 2.108-.592.678-.729 1.412-.525 2.229.212.851.688.983 1.337.414.89-.78.905-.819.375-1.996-.122-.27-.093-.467.149-.607.214-.123.369.009.502.178.454.576.63 1.191.309 1.895-.203.447-.554.763-.878 1.118-1.08 1.187-2.175.339-2.46-.667-.309-1.089-.265-2.147.617-3.012.173-.169.336-.345.42-.682" fill="#090909"/><path d="M20.917 12.236c-.204-.599.113-1.135.065-1.696-.033-.379.052-.748.543-.767.538-.021.526.429.546.76l.189 4.176.347 3.692c.014.078.054.157.05.234-.021.46.141 1.124-.42 1.233-.647.126-.636-.611-.752-1.023-.459-1.626-.506-3.311-.555-4.984-.017-.55-.272-1.105-.013-1.625" fill="#040404"/><path d="M25.097 42.577l.017.273c-.024.49-.329.766-.735.966-.763.635-1.711.753-2.634.932-.192.037-.411.073-.589.018-1.009-.311-2.036-.595-2.813-1.381l.021-.144c.171-.213.386-.234.621-.143a.21.21 0 0 1 .133.061c-.014-.005-.009-.067-.009-.067l-.075-.013c-.216-.134-.45-.17-.679-.223-.812-.481-1.754-.794-2.234-1.71.025-.196.146-.306.326-.363 1.326.24 2.35 1.168 3.598 1.584.358.198.711.424 1.143.19.875-.239 1.671-.758 2.617-.74a.48.48 0 0 1 .187.245l.033.452c.331.508.736-.271 1.072.063" fill="#cfcfcf"/><path d="M32.126 27.671c.822.846.946 1.518.228 2.418-.434-.225-.804-.573-1.026-.968-.415-.736-1.032-1.021-1.805-1.2-1.623-.376-2.993-1.23-4.175-2.393l3.117 1.156c.715.245 1.456.415 2.212.478.533.045.996.255 1.449.509" fill="#5d5d5d"/><path d="M23.892 26.963c.877.29 1.603.866 2.416 1.271.484.241.87.575 1.606.43.665-.13 1.473.461 2.215.744.112.043.172.158.122.29-.248.651.237 1.245.143 1.883-2.352-.968-4.196-2.709-6.259-4.117-.173-.117-.29-.272-.243-.501" fill="#2f2f2f"/><path d="M35.763 38.462c-.165-.363-.44-.641-.712-.92-.379-.971-.193-1.886.269-2.775 1.218-.183 1.617.843 2.249 1.526.074.784.07 1.556-.401 2.244-.387.242-.157.636-.237.954-.789.112-.698-.778-1.168-1.029" fill="#cacaca"/><path d="M49.934 40.438c-.127.294-.441.372-.655.565l-.13-.031c-.079-.044-.141-.106-.187-.184l-.028-.131c-.335-.356-.76.219-1.098-.105-.019-.035-.041-.069-.065-.101-.056-.084-.055-.163.014-.239l-.017.018.262-.263-.021.02c.324-.2.6-.457.86-.733.19-.179.398-.336.608-.491l-.021.019c.21-.123.378-.289.5-.502l-.022.017c.143-.14.372-.105.509-.255l-.02.018c.161-.123.364-.186.498-.349.217-.31.478-.544.888-.528.365.144.835-.111 1.133.294a.45.45 0 0 1-.024.302c-.09.275-.379.34-.554.526l.008-.008c-.421.206-.694.629-1.148.789-.302.205-.509.52-.818.717-.239.151-.604.208-.472.635" fill="#cfcfcf"/><path d="M52.852 37.627c-.083-.153-.206-.177-.363-.125-.275.092-.503.032-.661-.225-.043-.092-.035-.179.024-.261a1.15 1.15 0 0 1 .319-.253c.122-.038.234-.094.308-.206.037-.074.082-.142.137-.205l-.012.023c.199-.152.391-.317.668-.285.246-.046.427-.183.55-.399.005-.175.1-.264.269-.281l.689-.471c-.009-.161.17-.325-.007-.483.101-.203.137-.529.489-.258.082.078.162.072.241-.005l-.005.009.103-.139.045-.074c-.001 0-.084.027-.084.027l-.068-.054c.024-.487.33-.763.729-.967l-.004.237c.126.137.336.098.468.222-.363.457-.404 1.121-.942 1.466-.219.088-.428.18-.255.477l.252.004c.145.222-.038.343-.149.487-.104.098-.245.143-.348.242l.017-.011c-.211.146-.441.266-.614.462-.104.114-.256.166-.364.276l.02-.021a2.75 2.75 0 0 0-.265.264l.024-.022c-.169.118-.372.183-.511.345-.2.184-.406.344-.7.204" fill="#efefef"/><path d="M39.128 59.486c-2.118-1.534-4.856-1.236-6.547.717-.173.2-.323.379-.503.017.529-1.692 1.984-2.062 3.447-2.31 1.237-.209 2.467-.053 3.547.687.227.155.436.347.617.554.138.156.176.421.026.55-.259.222-.396-.119-.587-.215" fill="#0e0e0e"/><path d="M55.496 37.809c-1.748 1.894-3.605 3.665-5.779 5.075-.092.094-.178.09-.26-.013.2-.854.926-1.302 1.508-1.814l4.53-3.74c.154.164.133.328.001.492" fill="#d5d5d5"/><path d="M35.763 38.462c.584.122.691.786 1.168 1.029.746 1.091 1.647 2.039 2.654 2.889-.101.633-.399 1.134-.97 1.453-.186-.644-.544-1.185-.993-1.673-.711-1.187-1.564-2.302-1.859-3.698" fill="#303030"/><path d="M16.513 40.9l-.317.266c-.207.152-.403.05-.601-.024-.196-.09-.375-.208-.554-.328l-1.757-1.186c-.36-.324-.795-.527-1.22-.747-.386-.244-.829-.372-1.225-.591-.011-.118-.037-.115-.072-.004-.002.095-.04.172-.106.236-.676.007-.843-.608-1.202-.987l.466.026c.775-.521 1.662-.27 2.283.07 1.394.763 2.763 1.609 3.983 2.654.186.16.328.351.322.615" fill="#c1c1c1"/><path d="M37.168 38.536c-.021-.746.128-1.473.253-2.202.228-.066.371.051.485.225.022.085.068.158.143.211.068.063.103.142.107.234-.076.282-.288.508.008.852.404.47.694 1.042 1.014 1.58.208.349.029.506-.322.543-.123-.206-.273-.381-.507-.466-.392-.328-.896-.521-1.181-.977" fill="#c2c2c2"/><path d="M15.488 41.889l-2.06-1.365c-.333-.203-.411-.454-.365-.796.079-.081.175-.112.286-.101.647.268 1.129.777 1.698 1.159.163.138.35.238.536.339.946.49 1.754 1.207 2.729 1.646.139.079.113.253.203.361l-.173.252c-1.131-.157-1.939-.93-2.855-1.496l.001.001z" fill="#c8c8c8"/><path d="M37.672 48.673c.075-.234.212-.421.423-.55.565-.226.875-.747 1.303-1.131.458-.41.914-.635 1.379-.011-.551 1.691-1.535 2.227-3.105 1.692" fill="#d3d3d3"/><path d="M24.19 25.255l1.264.998c-.706-.04-1.41.125-2.024-.266-.318-.089-.611-.225-.859-.449-.279-.491-1.235-.442-1.046-1.307.374-.034.7.141.963.344.409.315.493-.092.702-.234.309.33.728.542 1 .914" fill="#4e4e4e"/><path d="M34.003 64.102l.006-2.492c.018-.459.136-1.233.469-1.199.611.062.25.76.306 1.184.046.349.015.709.018 1.064-.153.519.013 1.085-.244 1.593-.089.174-.143.397-.383.247-.101-.062-.117-.26-.172-.397" fill="#0b0b0b"/><path d="M36.655 61.692l.039-.343c.03-.227.055-.505.333-.503.12 0 .239.246.358.381l.511 1.958c.038.155.036.343-.133.41-.215.085-.402-.03-.483-.232l-.625-1.671" fill="#111"/><path d="M41.058 23.763c-.37-.363-.831-.121-1.246-.189.644-.591 1.23-1.276 2.17-1.402.186-.024.421-.062.495.199.062.216-.033.384-.232.489-.418.272-.522.956-1.187.903" fill="#626262"/><path d="M41.058 23.763c.395-.302.558-.909 1.187-.903.04.72-.12 1.316-.834 1.69-.261.137-.426.459-.635.697l.282-1.484" fill="#1a1a1a"/><path d="M40.777 46.981c-.45-.285-.812-.346-1.192.183-.351.488-.768.993-1.49.959.366-.728.924-1.304 1.484-1.879.173.263.449.238.709.247.321.011.48.173.489.49" fill="#f0f0f0"/><path d="M51.878 30.847c-.566.496-1.296.025-1.903.313.165.264.547.018.781.38h-.908c-.279-.003-.58.053-.832-.033-.278-.095.503-.262.029-.41-.259-.08-.554-.045-.832-.062 1.208-.321 2.44-.199 3.665-.188" fill="#1a1a1a"/><path d="M21.526 24.23c.146.652.978.662 1.18 1.261.115.113.107.217-.024.311l-.221-.118a1.16 1.16 0 0 1-.262-.163l-1.946-1.433c.033-.144.177-.159.271-.231.405-.066.762-.004 1.002.373" fill="#393939"/><path d="M55.496 37.809l-.001-.492c.546-.717 1.155-1.366 2.135-2.024-.576 1.202-1.318 1.891-2.134 2.516" fill="#e8e8e8"/><path d="M13.301 39.725l-.119-.013-.118.016c-.381-.276-.877-.358-1.21-.715-.037-.231.006-.375.286-.267l1.196.64c.112.126.1.239-.035.339" fill="#313131"/><path d="M12.14 38.746l-.286.267c-.416-.118-.737-.468-1.193-.491l-.013-.473c.505.216 1.068.309 1.492.697" fill="#414141"/><path d="M24.19 25.255c-.437-.192-.963-.286-1-.914.577-.09.846.406 1.244.657l-.244.257" fill="#3d3d3d"/><path d="M24.379 43.816l.735-.965c.2.131.242.303.099.494l-.587.728-.247-.257" fill="#eaeaea"/><path d="M48.736 41.415c-.166.375-.436.647-.92.885.09-.528.276-.885.634-1.159l.136.036a.88.88 0 0 0 .15.238" fill="#d4d4d4"/><path d="M55.495 35.839l.247-.439.715-.513.129-.075.114.096c-.267.541-.73.879-1.226 1.181-.059-.089-.052-.172.021-.25" fill="#bbb"/><path d="M51.155 39.028c.373-.299.649-.759 1.217-.731-.147.507-.573.71-.999.913a.66.66 0 0 0-.184-.086l-.034-.096" fill="#868686"/><path d="M49.934 40.438c-.194-.003-.416-.004-.251-.291s.436-.401.759-.407l.064.129-.118.082-.454.487" fill="#575757"/><path d="M56.71 34.686c.169-.295.434-.407.841-.416a.96.96 0 0 1-.633.628.63.63 0 0 1-.208-.212" fill="#d9d9d9"/><path d="M50.443 39.74c.033-.442.425-.525.713-.712l.007.097c.058.038.079.077.063.119s-.035.064-.053.064c-.091.234-.282.367-.487.487-.104.037-.193.017-.264-.069l.021.014z" fill="#636363"/><path d="M22.682 25.802l.024-.31c.266.13.549.233.724.495l-.229.205c-.265-.009-.393-.197-.519-.39" fill="#282828"/><path d="M55.49 35.397c-.134-.027-.376-.002-.301-.204s.19-.558.555-.273l-.254.477" fill="#e0e0e0"/><path d="M49.457 42.871l.26.013c-.07.093-.128.2-.212.276-.117.106-.313.219-.387.027-.105-.269.153-.284.339-.316" fill="#e7e7e7"/><path d="M49.279 41.003c-.123.132-.27.207-.455.182-.099.083-.201.091-.305.011l-.069-.054.484-.485.078.072.197.197.07.077z" fill="#cfcfcf"/><path d="M52.365 38.304c.014-.29.24-.404.446-.533l.12.034a1.02 1.02 0 0 0 .117.218c-.151.28-.393.339-.683.281" fill="#8b8b8b"/><path d="M52.852 37.627l.672-.306.131.027c-.003.091-.031.174-.088.246-.082.205-.238.258-.441.215-.071.075-.152.089-.244.041l-.071-.078c.033-.043.046-.091.041-.145" fill="#8f8f8f"/><path d="M54.505 36.568c.175-.28.42-.441.757-.45-.061.254-.2.433-.469.485-.112.116-.208.104-.288-.035" fill="#ababab"/><path d="M38.349 39.513c.328-.018.5.135.508.466-.23-.089-.395-.249-.508-.466" fill="#cfcfcf"/><g fill="#555"><path d="M20.284 57.82l.545.053c-.13.251-.349.227-.557.15-.105-.038-.14-.143.012-.203m33.24-20.499c.165-.113.296-.302.539-.243.009.142-.04.241-.194.262l-.121.002c-.074-.019-.148-.026-.224-.021"/></g><path d="M54.505 36.568l.288.035c-.087.25-.277.294-.509.254-.048-.19.091-.236.221-.289" fill="#666"/><path d="M56.687 33.454c-.195.008-.368-.03-.468-.222.193-.003.375.016.468.222" fill="#d3d3d3"/><path d="M20.524 23.857l-.27.231c-.123-.036-.21-.136-.138-.235.113-.157.271-.062.408.004" fill="#151515"/><path d="M22.198 25.521c.121 0 .213.047.262.163-.13.014-.204-.062-.262-.163" fill="#4e4e4e"/><path d="M55.495 35.839l-.021.25-.11.049-.119-.008c.022-.15.111-.241.25-.291" fill="#888"/><path d="M56.71 34.686c.118.023.192.089.208.212l-.108.019-.11-.009c-.047-.04-.07-.094-.056-.15s.03-.087.048-.087l.018.015z" fill="#9e9e9e"/><path d="M56.692 34.67l.021.247-.256-.03.235-.217" fill="#efefef"/><path d="M50.421 39.726l.264.069c-.065.116-.16.175-.297.155l.033-.224" fill="#cfcfcf"/><path d="M51.172 39.308l-.01-.183c.107-.062.163.001.211.085-.053.061-.12.094-.201.098" fill="#5e5e5e"/><path d="M48.519 41.195l.304-.01-.087.23c-.121-.026-.204-.088-.217-.22" fill="#9a9a9a"/><path d="M54.039 37.1c-.012-.189.07-.283.265-.264.009.186-.096.257-.265.264" fill="#565656"/><path d="M52.882 37.85l.244-.041c.007.083-.02.155-.078.215-.086-.029-.185-.045-.166-.174" fill="#383838"/><path d="M53.747 37.341c.041.019.081.019.121-.002-.033.165-.148.232-.301.255l.18-.253" fill="#3e3e3e"/><path d="M29.444 70.365c.63.091 1.309.064 1.693.727-.679.025-1.344.017-1.693-.727" fill="#d5d5d5"/><path d="M55.539 32.29c-.397.562-.765 1.153-1.42 1.465-.688.093-1.35.265-1.953.624-1.629.971-2.937 2.346-4.413 3.509-.41.324-.788.681-1.296.85l-.648.216c-.17.047-.343.064-.518.053-1.476-.694-2.776-1.637-3.924-2.794-.326-.548-.908-.72-1.423-1.01-1.141-.641-2.388-1.171-3.014-2.452.461-.467 1.098-.309 1.595-.28 1.325.079 2.619-.145 3.927-.191l4.082-.006 9.005.016" fill="#2d2d2d"/><path d="M32.587 35.152c-1.178 1.223-2.168 2.631-3.569 3.634-.115.057-.21.137-.279.247l.012-.011a.74.74 0 0 0-.252.252l.011-.011a.71.71 0 0 0-.251.254l.013-.007c-.129.098-.249.21-.389.294-.103.041-.21.063-.32.07-.461-.044-.793.208-1.14.461-.268.196-.57.452-.891.052-.003-.164.018-.341.136-.444 1.705-1.488 2.745-3.544 4.365-5.101.303-.292.586-.685 1.105-.402.329.197.62.316.836-.17l.868-1.752c.138.024.24-.103.376-.088.124.075.231.155.102.312-.384.522-.133 1.141-.261 1.703-.169.228-.117.603-.472.707" fill="#575757"/><path d="M36.93 32.752c1.175.933 2.285 1.957 3.742 2.473.402.143.827.347.849.892-1.516-.255-2.843-.942-4.03-1.881-.552-.437-1.136-.712-1.816-.822a.52.52 0 0 1-.244-.243c.428-.395.946-.471 1.499-.419" fill="#515151"/><path d="M35.499 34.7l-.385 1.702c-.113.385-.178.752-.063 1.14-.54-.892-.747-1.882-.749-2.902-.001-.479.235-.918.684-1.186.319.24.424.614.595.948a.34.34 0 0 1-.082.298" fill="#2c2c2c"/><path d="M37.623 42.159c.162.101.312.232.487.298.708.268.774.756.506 1.375-.311.411-.472.941-.958 1.214-.042-.621.097-1.254-.186-1.86-.164-.351.2-.668.151-1.027" fill="#282828"/><path d="M47.313 31.808c-.822.403-1.659.203-2.682.113.53-.555 1.037-.356 1.497-.359.357.264.842-.086 1.185.246" fill="#2c2c2c"/><path d="M35.465 34.458c-.408-.216-.486-.59-.479-1.004.105-.162.263-.242.445-.283l.066.071c.305.414.344.82-.032 1.216" fill="#515151"/><path d="M47.313 31.808c-.39-.107-.853.138-1.185-.246h1.588c-.004.276-.266.169-.403.246" fill="#6f6f6f"/><path d="M35.714 43.786c-.033.163.036.424-.272.407-.124-.007-.166-.151-.166-.273.001-.172.073-.321.243-.366.159-.043.182.094.195.232" fill="#111"/><path d="M32.587 35.152c.107-.269.212-.54.472-.707l-.043 1.134-.185.06c-.044-.18-.006-.403-.244-.487" fill="#8e8e8e"/><path d="M33.628 34.133c.067.079.138.124.143.175.014.142.064.306-.117.394-.032-.069-.088-.138-.089-.207 0-.11.036-.221.063-.362" fill="#1b1b1b"/><path d="M33.32 32.742l-.238-.25c-.066-.053-.089-.107-.067-.161s.043-.081.065-.081l-.021.023.466-.09c.02.219.009.426-.205.559" fill="#010101"/><path d="M53.315 31.069c.15.057.027-.163.08-.011.026.076.001.099-.072.065-.146-.067.061.076.017-.079.001 0-.025.025-.025.025" fill="#fff"/><path d="M31.137 34.44c-.569.01-.782.472-1.078.837-.597.733-1.623 1.151-1.658 2.306-.005.137-.277.259-.415.398-.812.811-1.703 1.547-2.389 2.479-.308.831-.939 1.226-1.789 1.326-.434.035-.859.1-1.297-.057-2.604-.933-5.078-2.121-7.315-3.761-.421-.309-.988-.619-.729-1.336l7.071-1.12 6.805-1.26c.907-.137 1.894-.307 2.794.188" fill="#2d2d2d"/><path d="M14.468 36.632c.306 1.029 1.249 1.444 2.039 1.901 1.78 1.029 3.598 2.005 5.532 2.74.606.23 1.199.418 1.852.344.215-.057.477-.145.501.189.019.264-.195.372-.452.361-.091-.068-.209-.211-.268-.19l-2.423.904c-.31.094-.533-.148-.802-.21-2.519-1.233-4.825-2.815-7.146-4.371-.947-.636-.962-.749-.202-1.439.463-.036.891-.283 1.369-.229" fill="#959595"/><path d="M13.098 36.861l-.559.587 4.024 2.703c1.304.909 2.815 1.467 4.068 2.455-.193.172-.398.165-.611.041-1.25-.42-2.338-1.165-3.508-1.747-.74-.679-1.59-1.207-2.425-1.755-.369-.242-.828-.388-1.12-.697-.857-.907-1.906-1.013-3.043-.887.097-.22.234-.4.472-.482l.006-.003c.13-.166.341-.309.492-.161.641.624 1.24.439 1.864-.009.082-.059.225-.032.34-.045" fill="#0e0e0e"/><path d="M31.846 32.002c-.007.232-.198.414-.342.308-.215-.158-.137-.399.125-.525l.217.217" fill="#494949"/><path d="M33.08 32.25l.001.242c-.067.131-.138.218-.24.026l.239-.268" fill="#868686"/><path d="M31.846 32.002c-.149.004-.196-.094-.217-.217.172-.027.212.077.217.217" fill="#989898"/><path d="M23.939 42.166c.339-.214.513-.414-.048-.55.705-.184 1.132-.777 1.705-1.156.448.008.701-.315.954-.599.396-.445.802-.387 1.24-.097-.138.872-.794 1.274-1.49 1.638l.008-.001a.73.73 0 0 1-.256.25l.013-.013c-.062.111-.157.189-.259.258l-.709.681c-.294.047-.426.307-.632.471-.18.143-.408.254-.635.107-.298-.193-.169-.469-.095-.725.026-.115.09-.201.195-.256l.009-.008z" fill="#5c5c5c"/><path d="M26.3 41.402c.322-.705 1.135-.963 1.49-1.638.122-.166.278-.159.447-.055-.212.729-.792 1.177-1.289 1.69-.228.234-.432.097-.648.003" fill="#c6c6c6"/><g fill="#5c5c5c"><path d="M28.237 39.709l-.46.057c.089-.232.281-.265.495-.255l-.035.198"/><path d="M28.258 39.517l.251-.255c-.031.137-.113.223-.251.255"/><path d="M28.498 39.274l.252-.252-.252.252"/></g><g fill="#c6c6c6"><path d="M25.806 41.896c.034-.138.121-.223.259-.257a.34.34 0 0 1-.259.257"/><path d="M26.052 41.652c.034-.136.122-.217.256-.25-.037.132-.122.216-.256.25"/></g><g fill="#5c5c5c"><path d="M28.739 39.033a.36.36 0 0 1 .278-.246c-.05.129-.14.215-.278.246m6.726-4.575l.032-1.216c.77-.071 1.408.052 2.038.65.729.692 1.609 1.273 2.641 1.5.522.114.896.485 1.345.725l3.435 2.547c.121.088.299.098.45.145.151.034.339.253.415-.083a.6.6 0 0 1 .508-.186c.298.213.744-.147.993.257-.12.227-.334.356-.556.429-.477.156-.684.42-.704.958-.029.761-.404 1.008-1.191.848-1.031-.209-1.94-.707-2.783-1.323-1.285-.938-2.53-1.935-3.932-2.704-.032-.117-.107-.181-.227-.192l-.006-.005c-.121-.206-.277-.377-.502-.473-.682-.497-1.149-1.246-1.922-1.635l-.034-.242"/></g><path d="M47.322 38.796c-.22.015-.444.007-.658.051-.281.059-.297-.126-.335-.307 1.038-.476 1.748-1.376 2.635-2.047l2.605-2.098c.173-.115.349-.188.552-.202.403-.214.754-.223.982.249-.82.718-1.685 1.376-2.616 1.946-1.084.768-2.224 1.463-3.172 2.41l.007-.002z" fill="#4d4d4d"/><path d="M47.314 38.798c.016-.118-.013-.287.054-.345.955-.814 1.862-1.705 3.118-2.065-.934.965-1.934 1.844-3.172 2.41" fill="#5c5c5c"/><path d="M53.103 34.442c-.305-.169-.624-.287-.982-.249.592-.485 1.211-.847 1.998-.438-.229.391-.646.505-1.016.687" fill="#424242"/><path d="M48.978 39.226c-.229.374-.445.762-.968.761.173-.477.57-.725.979-.96.07.048.092.093.066.137s-.052.062-.077.062" fill="#4a4a4a"/><path d="M51.871 37.079a.73.73 0 0 1-.044.197l-.915.532-.1-.108.098-.11.007-.234c.115-.156.178-.394.458-.298l.283.024c.069-.102.14-.098.213-.003" fill="#989898"/><path d="M51.871 37.079l-.107-.01-.106.013c.076-.402.431-.385.714-.474l.037.139-.136.047-.402.285" fill="#525252"/><path d="M53.272 36.09c-.219.104-.365.377-.668.285.154-.256.231-.693.668-.285" fill="#707070"/><path d="M51.375 37.059l-.458.297c.03-.288.041-.605.458-.297" fill="#eaeaea"/><path d="M54.772 34.456c.395.155.187.319.007.482-.336-.155-.004-.321-.007-.482" fill="#858585"/><path d="M54.091 35.41l-.27.281c-.206-.07-.191-.179-.06-.316s.239-.16.33.035" fill="#797979"/><path d="M49.956 38.28c.064.398-.126.541-.5.502.009-.324.226-.441.5-.502" fill="#444"/><path d="M48.978 39.226c.012-.066.016-.133.011-.199.078-.246.258-.303.489-.264-.034.298-.178.477-.5.463" fill="#3b3b3b"/><path d="M50.912 37.808a.69.69 0 0 1-.489.252c-.055-.156.028-.233.16-.284l.103-.043.073.086c.052.016.103.013.153-.011" fill="#4e4e4e"/><path d="M50.444 38.041c-.059.305-.299.25-.509.255.138-.149.264-.32.509-.255" fill="#3d3d3d"/><path d="M55.503 34.193c-.078.157-.157.217-.241.004l.241-.004" fill="#b9b9b9"/><path d="M55.726 33.953l-.228.248-.005-.24c.08-.009.159-.009.239-.002l-.006-.006z" fill="#bfbfbf"/><path d="M52.615 36.352l-.017.244c-.081.079-.16.08-.235-.007l.01.019c-.005-.166.079-.249.242-.256" fill="#2e2e2e"/><path d="M48.031 39.967c.009.184-.087.263-.262.263-.007-.182.082-.268.262-.263" fill="#3f3f3f"/><path d="M47.785 40.211l-.014.239c-.1-.018-.187-.06-.146-.177.013-.035.105-.042.16-.062" fill="#606060"/><path d="M50.759 37.819a1.16 1.16 0 0 0-.176-.043c.065-.14.179-.193.328-.185l-.152.228" fill="#4c4c4c"/><path d="M18.325 42.902c-1.084-.357-2.018-.966-2.873-1.71.02-.147.155-.166.253-.227l.491.2c.749.577 1.56 1.055 2.381 1.518.037.212-.029.306-.252.219" fill="#272727"/><path d="M18.325 42.902l.252-.219c.297.073.567.197.782.423l-.041.104-.211.075-.591-.152-.191-.231" fill="#515151"/><path d="M20.021 42.647l.611-.041c.259-.028.409.188.617.274-.008.185-.091.316-.285.233-.322-.138-.629-.309-.943-.466" fill="#2e2e2e"/><path d="M19.359 43.106c.19.062.262.191.142.355-.048.065-.147.005-.174-.092-.06-.062-.092-.137-.099-.222.04-.027.083-.04.131-.041" fill="#777"/><path d="M19.228 43.147l.099.222a.29.29 0 0 1-.22-.083c.027-.058.068-.104.121-.139" fill="#3a3a3a"/><path d="M23.93 42.174l-.196.256c-.008-.141.065-.221.196-.256" fill="#959595"/><path d="M49.209 40.926c-.127-.004-.195-.068-.197-.197.131.001.2.062.197.197" fill="#7d7d7d"/><g fill="#cfcfcf"><path d="M55.732 33.959c.017-.034.039-.1.051-.098.078.012.058.049-.057.092m-3.363 2.636c.078.027.156.03.235.007-.059.146-.166.215-.324.199.008-.078.038-.147.089-.206"/></g><path d="M13.301 39.725l.035-.339c.716.32 1.327.796 1.918 1.301-.031.14-.12.219-.26.242-.596-.357-1.173-.741-1.693-1.204" fill="#2d2d2d"/><path d="M14.994 40.93l.26-.242.451.278-.253.227c-.181-.038-.347-.103-.458-.263" fill="#131313"/><path d="M10.377 37.919c.044-.012.091-.039.107-.027.061.045.166.133.155.153-.074.141.056-.007-.102-.036-.054-.009-.102-.056-.16-.09" fill="#fff"/><path d="M37.929 36.813l-.113.109.107-.114" fill="#cfcfcf"/><path d="M15.488 41.889l.1-.109c-.006.021-.004.051-.017.064-.023.02-.056.03-.084.044" fill="#888"/><path d="M45.821 38.725c.07.075.171.175.033.244-.182.091-.343.016-.448-.161l.415-.083" fill="gray"/><path d="M10.403 37.076l.224.147c-.027.022-.056.064-.08.061-.116-.015-.155-.096-.15-.205" fill="#9f9f9f"/></g></g></g></svg>