<svg xmlns="http://www.w3.org/2000/svg" xmlns:xlink="http://www.w3.org/1999/xlink" width="100" height="100" xmlns:v="https://vecta.io/nano"><defs><path d="M0 50c0 27.615 22.386 50 50 50h0c27.614 0 50-22.385 50-50h0c0-27.614-22.386-50-50-50h0C22.386 0 0 22.386 0 50h0z" id="A"/><path id="B" d="M0 0h67.144v104.522H0z"/></defs><g fill="none" fill-rule="evenodd"><mask id="C" fill="#fff"><use xlink:href="#A"/></mask><path fill="#7bedbb" mask="url(#C)" d="M-43.478 142.029h201.449V-9.42H-43.478z"/><g mask="url(#C)"><g transform="translate(16 19)"><mask id="D" fill="#fff"><use xlink:href="#B"/></mask><path d="M25.836 67.528c-2.525-.918-5.076-1.746-7.478-3.002-4.058-2.123-7.627-4.793-10.495-8.404-2-2.518-3.689-5.192-4.99-8.139C1.235 44.272.363 40.42.089 36.374c-.151-2.234-.123-4.463.178-6.638.573-4.138 1.771-8.106 3.85-11.801 1.585-2.817 3.437-5.408 5.689-7.703 1.272-1.295 2.676-2.446 4.185-3.494 1.698-1.18 3.425-2.258 5.295-3.145a33.22 33.22 0 0 1 6.494-2.278c.454-.109.92-.185 1.296-.51.278-.24.631-.27.986-.314 2.402-.293 4.794-.61 7.231-.447 2.338.156 4.633.502 6.906 1.071 1.702.425 3.384.943 4.927 1.742 2.16 1.118 4.322 2.227 6.287 3.734 1.68 1.289 3.232 2.696 4.665 4.21 1.892 1.999 3.54 4.212 4.821 6.68 1.095 2.111 2.111 4.248 2.775 6.541.839 2.9 1.342 5.845 1.449 8.872.115 3.301-.253 6.541-1.015 9.736-.535 2.242-1.364 4.39-2.365 6.468-1.069 2.219-2.41 4.279-3.857 6.26-.895 1.224-2.012 2.268-3.105 3.33s-2.226 2.076-3.457 2.974c-1.799 1.314-3.677 2.492-5.702 3.437-.888.415-1.816.689-2.743.98l-2.213.708c1.302.751 2.34 1.393 3.689 1.419 3.144.058 6.22-.329 9.273-1.067.901-.217 1.824-.672 2.829-.109.601.337 1.033.735 1.112 1.383.222 1.824.113 3.596-1.13 5.104-.715.868-1.387 1.778-2.168 2.581-.528.542-1.332.497-2.014.387-.968-.156-1.936-.247-2.91-.314-1.678-.115-3.102-.955-4.595-1.594-.666-.285-1.275-.707-2.013-.844-.229 1.362.335 2.581.493 3.852l.394 3.488c.241 1.861.347 3.713.26 5.581-.017.362.102.616.509.638a1.21 1.21 0 0 1 .974.581c.58.923 1.296 1.772 1.689 2.799.235.614.414 1.254.37 1.943-.036.579-.094 1.171.144 1.742.106.253.132.558-.191.709-.286.134-.525.015-.737-.197l-1.142-1.109c-.121.113-.21.156-.221.213-.282 1.448-1.241 2.33-2.398 3.15-1.285.911-3.112.712-4.216-.529-1.407-1.583-2.187-3.487-2.914-5.505-1.154.101-2.342.233-3.498.217-.429 3.655.387 7.212.321 10.798-.05 2.683-.238 2.116-2.116 2.165-2.305.06-4.603.325-6.912.235-.446-.018-.992.148-1.125-.53-.113-.572.15-.896.705-1.005.423-.083.398-.403.399-.722.007-1.995.131-3.979.497-5.945.272-1.458.528-2.915 1.026-4.32.084-.237.246-.499.077-.773-.284-.177-.532.05-.794.055-.68.014-1.335.003-1.663-.777-.182-.432-.66-.646-.858-1.1-.35-.799-.521-1.572-.456-2.482.149-2.067.118-4.146.161-6.221.008-.351.069-.687.159-1.034.386-1.495.478-3.062 1.141-4.492.108-.234.07-.535.1-.806.236-.461-.217-.909-.031-1.37.305-1.355.909-2.577 1.671-3.727.056-.092.12-.18.185-.266.062-.445.762-1.055-.322-1.191-.226-.025-.432-.09-.584-.27" fill="#000" mask="url(#D)"/><path d="M25.132 72.951c-.074.467.176.983-.214 1.401-.088-.118-.041-.509-.32-.265-1.29 1.127-2.825 1.826-4.38 2.447-1.318.526-2.599 1.231-4.084 1.254-.974.015-1.926-.026-2.759-.618.105-.199.259-.409-.182-.29-.189.052-.38-.038-.52-.195-1.45-2.029-1.825-4.28-1.173-6.649.207-.753.802-1.402 1.237-2.088.199-.313.544-.241.85-.255 1.191-.053 2.286.432 3.432.634l1.491.223c2.206.111 4.414.299 6.612-.104.435-.191.824-.494 1.317-.539.166.031.37-.131.501.094-.053-.263-.316-.054-.426-.19-.057-.093-.055-.184.005-.273.813.058.793.054.666.899-.038.254.136.542-.154.745-.378-.348-.544.158-.825.208-1.083.507-2.229.606-3.404.588-1.587-.025-3.175.002-4.761-.009-1.159-.106-2.293-.357-3.395-.717-.861-.281-1.34-.026-1.526.839-.32 1.057-.2 2.08.234 3.079l.812 1.686c.722 1.58.912 1.703 2.574 1.355 2.464-.515 4.757-1.466 6.904-2.781.448-.275.872-.697 1.488-.479" fill="#020202"/><g fill="#fff"><path d="M38.782 65.865c-2.816.667-5.668.623-8.518.36-1.24-.114-2.478-.344-3.693-.622-2.169-.497-4.262-1.237-6.288-2.167-1.229-.564-2.413-1.231-3.574-1.904-1.341-.777-2.596-1.762-3.723-2.832l-2.659-2.614c-1.131-1.245-2.14-2.579-3.075-3.959-2.405-3.551-3.921-7.483-4.793-11.677-.625-3.008-.741-6.025-.448-9.081.277-2.879.809-5.675 1.86-8.391a41.72 41.72 0 0 1 2.354-5.055c.965-1.76 2.094-3.387 3.374-4.913 2.711-3.228 5.955-5.832 9.644-7.847 2.254-1.231 4.656-2.171 7.163-2.752.794-.184 1.655-.056 2.495-.196 5.14-.857 10.191-.356 15.119 1.259 2.363.774 4.573 1.905 6.708 3.213 2.725 1.67 5.062 3.772 7.166 6.127 1.429 1.598 2.636 3.392 3.676 5.28.149.27.215.585.319.88a30.12 30.12 0 0 1 1.215 7.634c.049 1.604-.06 3.209.2 4.811.206 1.271-.291 2.483-.572 3.697-2.078 8.957-6.204 16.881-12.117 23.897-.594.705-1.381 1.162-2.12 1.667-3.046 2.082-6.216 3.943-9.713 5.185m3.312 1.892c.921.628 1.752 1.384 2.96 1.508 2.396.245 4.786.354 7.182.049l3.005-.386c.33-.125.655-.192 1.04.107-.843 1.021-1.333 2.212-1.921 3.349-.415.803-1.027 1.086-1.93.968l-8.901-1.599-.765-1.575c-.093-.2-.224-.314-.445-.296-.23.018-.325.199-.4.379-.145.348-.081.69.065 1.023l.468 1.073c.723 1.395 1.214 2.842 1.406 4.425l.832 7.57c.025 1.054.035 2.113-.221 3.141-.297 1.189-1.095 1.845-2.3 1.975-.295.031-.749-.073-.738.333.011.419.492.238.77.313l.112.034c.529.228.48.754.619 1.186.422 1.319 1.536 1.632 2.597.738.565-.476 1.192-.838 1.927-.987.276.337.385.75.527 1.148.061.258-.064.333-.297.302-.569-.151-.869.185-1.122.615-.435.744-.983 1.387-1.634 1.961-1.118.984-3.003 1.132-4.122-.564-.291-.44-.647-.82-1.066-1.184-.697-.608-1.155-1.503-1.157-2.464 0-.56-.229-.679-.652-.73-.232-.027-.492-.092-.697-.019-1.103.391-2.246.107-3.362.237-1.114.168-2.016-.461-2.998-.793-.637-.216-1.403-.889-1.922-.23-.49.621.327 1.231.729 1.663.997 1.073 1.069 2.364 1.168 3.685.179 2.396-.23 4.747-.497 7.111-.128 1.133-1.052.794-1.697.981-1.592.091-1.555.091-1.589-1.484-.05-2.357.248-4.675.581-7l.473-2.876c.095-.435.101-.804-.472-.837-.216-.012-.38-.065-.471-.266-.293-.655-.84-1.121-1.246-1.691-.362-.507-.568-1.061-.562-1.736.016-2.103-.264-4.212-.076-6.308.166-1.855.277-3.732.815-5.539.243-.965.711-1.52 1.807-1.056.243.103.553.068.81-.015 2.81-.913 5.798-1.286 8.467-2.598 1.458-.717 2.749-1.761 3.817-3.034.276-.329.448-.897 1.083-.607"/></g><g fill="#d0d0d0"><path d="M38.782 65.865c.712-.565 1.562-.881 2.363-1.281 2.698-1.349 5.301-2.843 7.789-4.561 1.338-.924 2.183-2.215 3.174-3.407 3.08-3.704 5.292-7.936 7.315-12.267 1.027-2.198 1.724-4.531 2.365-6.87.392-1.429.679-2.888 1.063-4.32.218-.818.233-1.613.048-2.431-.202-.89-.119-1.799-.079-2.694.117-2.641-.42-5.206-.843-7.783-.07-.43-.136-.846-.088-1.277.836.825 1.118 1.972 1.516 2.991.762 1.952 1.433 3.981 1.785 6.039.351 2.048.484 4.154.441 6.26-.075 3.698-.718 7.257-1.97 10.755s-3.059 6.637-5.364 9.51c-2.664 3.322-5.887 5.978-9.629 8.023-2.616 1.43-5.386 2.411-8.271 3.115-.538.131-1.066.216-1.615.198m4.747 5.888c.309-.208.633-.263 1.002-.166 2.669.704 5.397 1.078 8.12 1.487.649.098 1.057-.06 1.336-.625l1.192-2.416c.188-.381.351-.782.816-.96-.237-.217-.525-.033-.754-.144l2.58-.663c.338-.087.433.136.407.386-.121 1.15-.048 2.34-.941 3.297-.829.888-1.341 2.009-1.984 3.031-.227.361-.421.4-.734.308-1.097-.32-2.237-.314-3.356-.467-2.15-.294-4.136-1.106-6.041-2.092-.556-.288-1.319-.285-1.643-.976"/></g><path d="M25.132 72.951c-.589.137-1.017.557-1.514.856-2.322 1.393-4.812 2.347-7.473 2.852-.459.087-.899.179-1.346-.125-.42-.285-.561-.637-.692-1.121-.179-.66-.607-1.25-.917-1.876-.552-1.112-.759-2.261-.334-3.468.491.297.551.833.706 1.308l.46 1.458c.82 1.945 1.367 2.163 3.264 1.374l3.475-1.449c1.145-.472 1.87-1.351 2.531-2.498-1.488-.149-2.849-.022-4.202-.089-.458-.022-1.056.197-1.262-.502l5.69-.033a8.17 8.17 0 0 0 3.029-.693c.253-.055.351.041.286.295-.671 1.189-1.266 2.414-1.701 3.711" fill="#cfcfcf"/><path d="M42.094 67.757c-.242.042-.428.145-.559.373-.872 1.518-2.462 2.238-3.715 3.333-.34.297-.777.362-1.178.503-.884.311-1.796.545-2.628.994-.137.074-.289.172-.433.172-1.563.002-2.963.652-4.415 1.093-.811.246-1.597.222-2.3-.223-.421.295-.256.908-.756 1.065-.055-.28.08-.529.121-.793.073-.464.448-.71.662-1.068.37-.619.747.273 1.135-.077.074-.328-.205-.587-.307-.897l-.021.018.915.266c.228.052.387.032.275-.267-.311-.38-.602-.771-.968-1.109-.423-.391-.25-.647.261-.751.871.533 1.643 1.221 2.596 1.623 1.835-.105 3.496-.777 5.074-1.649l4.723-2.786c.58-.352 1.079-.444 1.518.18" fill="#cecece"/><path d="M32.9 70.804c-.295.161-.61.236-.947.21-.065-.067-.1-.148-.11-.239-.017-.246-.16-.416-.345-.56-.654-.475-1.284-.973-1.687-1.694-.131-.118-.37-.168-.332-.399.035-.215.237-.148.37-.131.403.054.845-.086 1.197.23.587.226.854.797 1.286 1.19.246.271.574.458.798.755.058.092.087.193.091.301-.055.162-.179.258-.321.337" fill="#b3b3b3"/><path d="M32.9 70.804l.249-.473.008.008c-.352-.191-.696-.392-.962-.7.131-.48-.371-.579-.538-.881-.131-.237-.495-.418-.113-.728 1.344.177 1.864 1.356 2.717 2.154-.387.461-.877.533-1.361.62" fill="#aaa"/><path d="M31.949 70.853a.72.72 0 0 0 .003.161c-.496.517-.708-.237-1.087-.244-.711-.078-1.019-.701-1.492-1.1-.071-.066-.137-.138-.202-.21l-.094-.105a2.18 2.18 0 0 1-.173-.211l-.065-.116c-.051-.121-.11-.236-.245-.286-.461-.131-.408-.49-.389-.851.769-.221.869.658 1.391.819.165.087.326.176.443.327.104.099.215.19.332.274.393.336.781.676 1.23.937.133.192.561.215.348.605" fill="#bfbfbf"/><path d="M30.778 72.012c-1.17.225-1.716-.683-2.404-1.329-.083-.078-.129-.195-.191-.294l-.004-.422c.823-.179 1.161.572 1.721.895.26.273.482.596.886.685l-.008.465" fill="#161616"/><path d="M37.136 68.707c-.823.684-.551.719-1.371.208-.378-.184-1.267-.093-.483-.9.22.044.447.069.659.137.191.061.637-.01.874-.105.164-.066.369-.029.557-.037.197.325-.585.32-.236.697" fill="#a0a0a0"/><path d="M29.373 69.371c.373.599 1.129.79 1.493 1.399l-.314.265c-.233.154-.411.023-.587-.115-.525-.573-1.497-.738-1.575-1.721l.268-.251c.083-.081.156-.073.218.025l-.008-.008c.109.043.179.137.266.208l.003.001c.065.081.144.147.236.197" fill="#1f1f1f"/><path d="M34.147 68.423l.34.083c.439.062.714.375 1.008.658.056.19.371.363.056.58-.262.181-.55.335-.828.042l-.911-1.037c-.036-.26.033-.413.335-.326" fill="silver"/><path d="M28.39 69.199c.483.622 1.135 1.068 1.688 1.617.035.235-.039.352-.295.27l-1.603-1.12c-.175-.159-.329-.331-.254-.593.074-.256.276-.203.464-.174" fill="#9e9e9e"/><path d="M31.467 70.365c-.501-.239-.895-.618-1.296-.988-.165-.024-.263-.121-.303-.28l-.271-.387.214-.189c.708.45 1.272 1.069 1.905 1.608l-.026.091a.38.38 0 0 1-.129.135c0 .001-.094.01-.094.01" fill="#303030"/><path d="M37.136 68.707c-.306-.362.069-.494.236-.697.481-.083.948-.266 1.609-.215-.661.427-1.148.867-1.845.912" fill="#b9b9b9"/><path d="M31.544 68.03c-.084.686.619.802.891 1.23.198.311.072.399-.239.379-.41-.451-.849-.879-1.15-1.418l.498-.191" fill="#212121"/><path d="M35.495 69.164c-.469-.015-.739-.334-1.007-.657.278-.143.372-.582.795-.492-.221.206-.328.404.017.598.161.091.311.2.466.301l-.271.25" fill="#161616"/><path d="M29.783 71.086l.295-.27.474.218c.117.153.279.286.234.513-.523.257-.7-.238-1.003-.461" fill="#9c9c9c"/><path d="M28.89 72.249c.249.011.402.238.302.372-.174.232-.412.101-.577-.105l.275-.267" fill="#383838"/><path d="M34.147 68.423l-.335.326c-.201-.095-.532-.224-.372-.443.155-.213.495-.106.707.117" fill="#a0a0a0"/><path d="M26.833 69.24l-.286-.295c.076-.132.17-.267.339-.222.261.071.12.297.145.459-.061.037-.127.057-.198.058" fill="#919191"/><path d="M27.72 72.232c-.111.004-.195-.032-.202-.155-.001-.021.06-.069.079-.063.117.038.134.129.103.236l.02-.018" fill="#9f9f9f"/><path d="M28.876 68.973l-.218-.025a.74.74 0 0 1-.064-.205c.146.013.235.096.282.23" fill="#9e9e9e"/><path d="M17.828 69.671c.317.33.732.22 1.109.223l4.9.005c-.786 1.53-1.691 2.74-3.339 3.306-1.322.455-2.591 1.067-3.869 1.642-1.072.483-1.412.403-2.132-.557-.524-.699-.856-1.483-1.1-2.311l-.541-1.911c.341-1.57.343-1.548 1.907-1.104 1.007.286 2.042.475 3.065.707" fill="#fff"/><path d="M29.205 17.289c1.215-.669 1.971-1.812 3.092-2.532 1.437-.924 2.746-2.055 4.385-2.644l.546-.203c.992-.332 1.105-.267 1.122.725.04 2.306.259 4.594.603 6.873.093.617.117 1.247.132 1.871.006.234-.114.462-.409.487-.247.022-.464-.027-.601-.265-.14-.244-.186-.51-.218-.786-.272-2.373-.593-4.743-.465-7.143.006-.111-.029-.224-.053-.396-1.193.319-2.015 1.168-2.942 1.847-1.3.952-2.4 2.11-3.47 3.305s-2.473 1.1-3.474-.18c-.958-1.226-1.675-2.636-2.842-3.703-.164-.15-.295-.383-.345-.6-.145-.618.348-1.046.973-.896.535.129.872.515 1.204.898l2.762 3.342" fill="#010101"/><g fill="#030303"><path d="M22.043 39.615l-.004 1.517c-.034.794-.587 1.343-1.316 1.34-.552-.003-.984-.453-1.028-1.198-.047-.773-.363-1.509-.264-2.301.053-.425.066-.844.266-1.242.367-.73.633-.894 1.351-.762.688.127.837.303.917 1.129.026.271.023.544.028.817v.7h.05m21.491-1.159c-.026.907-.072 1.829-.406 2.722-.184.492-.543.611-.99.651-.466.042-.776-.239-.904-.606-.49-1.401-.512-2.814.043-4.215.227-.573.772-.658 1.245-.708.434-.046.601.426.8.756.259.43.08.924.212 1.4"/></g><path d="M21.633 15.727c-.06 1.967.318 3.873.781 5.769.064.263.09.537.122.807.034.295-.029.582-.361.626-.271.035-.572-.063-.683-.354-.274-.722-.659-1.44-.745-2.189-.244-2.119-.551-4.251-.064-6.383.034-.151.016-.314.056-.463.065-.238.19-.441.483-.408.279.031.402.235.406.487l.005 2.108" fill="#040404"/><path d="M35.472 52.177c-1.83.998-3.724 1.031-5.664.376-.091-.124-.079-.237.035-.34 1.554-.028 3.12.147 4.655-.25.163-.091.366-.064.523-.173l.231-.016c.187.072.264.205.22.403" fill="#1d1d1d"/><path d="M35.472 52.177l-.22-.403c.034-.018.067-.042.104-.053.229-.066.537-.406.666.002.099.316-.274.405-.55.454" fill="#414141"/><path d="M29.843 52.214l-.035.339c-.205-.055-.549-.022-.423-.367.085-.232.311-.14.458.028" fill="#151515"/><path d="M35.021 51.79c-.135.178-.315.217-.523.174.132-.186.313-.223.523-.174" fill="#414141"/><path d="M31.949 70.853c-.032-.29-.406-.242-.482-.488.04-.008.076-.026.107-.054l.095-.093.046-.088c.514.446.514.446.234.723" fill="#191919"/><path d="M33.157 70.339l.073-.166c.152.143-.007.13-.081.159" fill="#494949"/><g fill="#9e9e9e"><path d="M29.134 69.173c-.137-.007-.224-.079-.266-.208l.266.208"/><path d="M29.373 69.371l-.236-.197a.25.25 0 0 1 .236.197"/></g><path d="M29.868 69.097l.302.28a.33.33 0 0 1-.302-.28" fill="#b3b3b3"/><path d="M31.669 70.218c-.014.05-.046.081-.095.093l.01-.084.085-.009z" fill="#020202"/></g></g></g></svg>