<?xml version="1.0" encoding="UTF-8"?>
<svg width="100px" height="100px" viewBox="0 0 100 100" version="1.1" xmlns="http://www.w3.org/2000/svg" xmlns:xlink="http://www.w3.org/1999/xlink">
    <title>medi-04</title>
    <defs>
        <path d="M0,49.9998195 C0,77.6145319 22.3858696,100 50,100 L50,100 C77.6141304,100 100,77.6145319 100,49.9998195 L100,49.9998195 C100,22.3858291 77.6141304,0 50,0 L50,0 C22.3858696,0 0,22.3858291 0,49.9998195 L0,49.9998195 Z" id="path-1"></path>
        <polygon id="path-3" points="0 0 70.0699986 0 70.0699986 68.836916 0 68.836916"></polygon>
    </defs>
    <g id="Page-1" stroke="none" stroke-width="1" fill="none" fill-rule="evenodd">
        <g id="Group-59">
            <mask id="mask-2" fill="white">
                <use xlink:href="#path-1"></use>
            </mask>
            <g id="Clip-2"></g>
            <polygon id="Fill-1" fill="#F5A7BE" mask="url(#mask-2)" points="-43.4782609 142.028886 157.971014 142.028886 157.971014 -9.41993148 -43.4782609 -9.41993148"></polygon>
            <g id="Group-330" mask="url(#mask-2)">
                <g transform="translate(15.000000, 19.000000)">
                    <path d="M44.5103,93.3074535 C44.5073,93.3474535 44.4923,93.3894535 44.4963,93.4284535 C44.6443,94.7624535 43.7873,95.1214535 42.7113,95.2664535 C42.7823,95.1204535 42.9103,94.9764535 42.9153,94.8284535 C42.9823,92.9964535 43.0793,91.1534535 42.8673,89.3354535 C42.6983,87.8844535 42.4593,86.4494535 42.4552795,84.9794535 C42.4523,83.9854535 42.7773,82.1394535 43.8683,83.3944535 C44.6843,84.3324535 45.2593,85.5644535 45.6023,86.7494535 C45.4113,84.2834535 46.3053,81.4914535 44.7663,79.2794535 C44.2833,78.5854535 43.8033,77.8284535 43.7813,76.9834535 C43.7703,76.5844535 43.9273,76.1154535 44.3123,76.0114535 C44.7033,75.9054535 44.8843,76.1974535 45.1823,76.3474535 C45.5343,76.5254535 45.9243,76.4044535 46.2173,76.7464535 C46.3443,76.8944535 46.4083,77.0854535 46.4623,77.2734535 C46.6183,77.8244535 46.7773,78.3534535 46.8863,78.9134535 C47.0083,79.5464535 47.1733,80.1724535 47.3843,80.7814535 C47.6513,81.5534535 48.1253,82.2764535 48.2533,83.0854535 C48.5403,84.8964535 48.6763,86.6304535 48.5713,88.4664535 C48.5523,88.7964535 48.5303,89.1294535 48.4453,89.4484535 C48.1593,90.5244535 47.4483,91.3694535 46.6223,92.0854535 C46.1263,92.5154535 45.9713,92.5294535 45.3613,92.5654535 C44.8363,92.5974535 44.5583,92.7274535 44.5103,93.3074535" id="Fill-1" fill="#D0D0D0"></path>
                    <g id="Group-5" stroke-width="1" fill="none">
                        <mask id="mask-4" fill="white">
                            <use xlink:href="#path-3"></use>
                        </mask>
                        <g id="Clip-4"></g>
                        <path d="M22.6727,68.7913535 C22.3837,68.8053535 22.1217,68.7503535 21.8467,68.6303535 C19.1167,67.4363535 16.5637,65.9713535 14.1217,64.2363535 C11.5947,62.4413535 9.4467,60.2963535 7.5957,57.8813535 C5.8697,55.6293535 4.3397,53.2293535 3.2187,50.5683535 C2.3817,48.5843535 1.5457,46.6113535 1.0467,44.5213535 C0.5547,42.4653535 0.2587,40.3783535 0.0857,38.2593535 C-0.1063,35.8913535 0.0597,33.5483535 0.2367,31.2043535 C0.3337,29.9193535 0.6187,28.6343535 0.9607,27.3883535 C1.3697,25.8973535 1.7207,24.3863535 2.3047,22.9423535 C3.3887,20.2593535 4.6907,17.7043535 6.3857,15.3493535 C7.4607,13.8553535 8.5577,12.3943535 9.8577,11.0773535 C11.3417,9.57435352 12.9607,8.26835352 14.6477,6.99635352 C17.7847,4.63135352 21.2667,3.05135352 24.9687,1.87435352 C25.6217,1.66735352 26.2967,1.52835352 26.9617,1.35935352 C27.1597,1.30935352 27.3917,1.31435352 27.5517,1.20835352 C29.0677,0.207353518 30.8377,0.414353518 32.5067,0.146353518 C34.2037,-0.126646482 35.9007,0.0523535176 37.6037,0.125353518 C40.7227,0.260353518 43.7127,0.985353518 46.6487,1.96435352 C48.0277,2.42435352 49.3277,3.07735352 50.6277,3.74935352 C51.9987,4.45735352 53.3657,5.16635352 54.6177,6.05335352 C56.5717,7.43835352 58.3587,9.01035352 60.0467,10.7353535 C62.0787,12.8103535 63.8627,15.0553535 65.2717,17.5523535 C66.9497,20.5243535 68.3107,23.6493535 69.0437,27.0343535 C69.3717,28.5513535 69.6947,30.0663535 69.8547,31.6023535 C70.1377,34.3143535 70.1587,37.0303535 69.8157,39.7523535 C69.5607,41.7783535 69.1787,43.7683535 68.6217,45.7273535 C67.8857,48.3213535 66.8247,50.7713535 65.4797,53.1143535 C64.7897,54.3173535 64.0757,55.4983535 63.2797,56.6293535 C60.9577,59.9273535 58.1027,62.6743535 54.7577,64.9313535 C53.7817,65.5903535 52.8887,66.3713535 51.7627,66.7853535 C50.6927,66.7423535 50.3977,66.3033535 50.6687,65.1643535 C50.9547,64.8073535 51.3277,64.5563535 51.7157,64.3283535 C58.0687,60.6053535 62.5967,55.2653535 65.4967,48.5493535 C67.9817,42.7933535 68.6877,36.7813535 67.8227,30.5633535 C67.2987,26.8013535 66.1657,23.2583535 64.3817,19.9153535 C63.2867,17.4583535 61.6397,15.3753535 59.9137,13.3493535 C57.3047,10.2903535 54.1657,7.87435352 50.6317,6.00535352 C46.3077,3.71835352 41.6747,2.43835352 36.7747,2.24835352 C34.1967,2.14835352 31.6477,2.42635352 29.0797,2.75635352 C23.0157,3.53635352 18.1187,6.49535352 13.6277,10.3953535 C9.6527,13.8473535 6.7237,18.0423535 4.7537,22.8823535 C2.7217,27.8753535 1.9157,33.0593535 2.3767,38.4883535 C2.9517,45.2723535 5.4307,51.2403535 9.5187,56.5873535 C11.8767,59.6703535 14.7867,62.1553535 18.1097,64.1793535 C19.6507,65.1183535 21.2867,65.8603535 22.8637,66.7233535 C23.1027,66.9163535 23.4017,67.0323535 23.5977,67.2843535 C23.7517,67.9163535 23.3887,68.3593535 23.0417,68.8093535 C22.9167,68.8513535 22.7937,68.8453535 22.6727,68.7913535" id="Fill-3" fill="#000000" mask="url(#mask-4)"></path>
                    </g>
                    <path d="M23.0194,68.7516535 C22.8534,68.1676535 23.4844,67.8526535 23.4994,67.3296535 C23.4924,67.2436535 23.5114,67.1636535 23.5574,67.0896535 C23.6094,67.0236535 23.6724,66.9676535 23.7424,66.9216535 C23.8474,66.8596535 23.9584,66.8066535 24.0644,66.7436535 C24.1294,66.6926535 24.1954,66.6456535 24.2614,66.5946535 C24.3254,66.5386535 24.3944,66.4906535 24.4654,66.4436535 C24.5434,66.3996535 24.6244,66.3666535 24.7084,66.3376535 C24.8844,66.2816535 25.0574,66.2156535 25.2304,66.1466535 C25.3254,66.1096535 25.4214,66.0846535 25.5204,66.0656535 C25.8804,66.0176535 26.2444,66.0126535 26.5994,65.9316535 C26.7014,65.9136535 26.8044,65.9106535 26.9074,65.9196535 C27.1514,65.9676535 27.3934,66.0286535 27.6394,66.0666535 C27.7344,66.0836535 27.8264,66.1126535 27.9154,66.1496535 C27.9994,66.1886535 28.0794,66.2376535 28.1544,66.2916535 C28.1904,66.3166535 28.2264,66.3446535 28.2634,66.3696535 C28.4064,66.4666535 28.5644,66.5366535 28.7314,66.5866535 C28.8124,66.6106535 28.8914,66.6436535 28.9674,66.6806535 C29.0804,66.7356535 29.1924,66.7936535 29.3044,66.8516535 C29.3794,66.8876535 29.4494,66.9326535 29.5164,66.9816535 C29.5834,67.0296535 29.6464,67.0836535 29.7104,67.1356535 C29.7444,67.1596535 29.7764,67.1846535 29.8104,67.2086535 C29.8844,67.2486535 29.9564,67.2906535 30.0304,67.3306535 C30.1094,67.3686535 30.1824,67.4136535 30.2534,67.4636535 C30.3244,67.5166535 30.3884,67.5766535 30.4494,67.6406535 C30.5104,67.7036535 30.5674,67.7716535 30.6234,67.8396535 C30.7144,67.9376535 30.8064,68.0346535 30.8974,68.1326535 C30.9594,68.1986535 31.0124,68.2716535 31.0594,68.3476535 C31.1114,68.4226535 31.1584,68.4986535 31.2074,68.5756535 C31.2354,68.6116535 31.2604,68.6496535 31.2884,68.6856535 C31.3484,68.7576535 31.4024,68.8326535 31.4534,68.9106535 C31.5054,68.9916535 31.5454,69.0776535 31.5814,69.1656535 C31.6724,69.4476535 31.8354,69.6916535 31.9884,69.9416535 C32.0354,70.0366535 32.0694,70.1356535 32.0944,70.2386535 C32.1664,70.6676535 32.1594,71.0976535 32.1264,71.5276535 C32.1154,71.6336535 32.0904,71.7366535 32.0594,71.8386535 C31.9924,72.0326535 31.8914,72.2106535 31.7864,72.3856535 C31.7124,72.5096535 31.6264,72.6246535 31.5374,72.7386535 C31.4304,72.8856535 31.3314,73.0396535 31.2344,73.1946535 C31.1634,73.3086535 31.0804,73.4136535 30.9924,73.5146535 C30.9384,73.5836535 30.8794,73.6496535 30.8214,73.7146535 C30.7954,73.7496535 30.7674,73.7826535 30.7414,73.8176535 C30.6964,73.8936535 30.6484,73.9666535 30.6024,74.0416535 C30.5614,74.1206535 30.5144,74.1956535 30.4644,74.2696535 C30.4174,74.3456535 30.3654,74.4176535 30.3144,74.4916535 C30.2934,74.5316535 30.2704,74.5696535 30.2504,74.6086535 C30.1774,74.7786535 30.1484,74.9586535 30.1184,75.1396535 C30.1034,75.2356535 30.0774,75.3276535 30.0484,75.4196535 C29.9844,75.6036535 29.9214,75.7886535 29.8614,75.9736535 C29.8344,76.0686535 29.7994,76.1606535 29.7634,76.2526535 C29.7004,76.4386535 29.6644,76.6306535 29.6314,76.8236535 C29.6134,76.9196535 29.5834,77.0116535 29.5464,77.1016535 C29.5054,77.1866535 29.4544,77.2666535 29.3994,77.3426535 C29.3734,77.3806535 29.3454,77.4166535 29.3204,77.4546535 C28.4424,78.8016535 28.4774,80.2826535 28.1874,81.8076535 C28.0744,82.4026535 27.4024,83.7016535 27.7124,84.2306535 C27.7604,84.1476535 27.7984,84.0736535 27.8254,83.9876535 C27.9114,83.7406535 27.9984,83.4996535 28.0924,83.2586535 C28.8024,81.2376535 30.4174,80.4696535 32.3674,80.3416535 C34.3124,80.2136535 35.3744,81.5386535 36.3494,83.2186535 C36.7274,82.4966535 37.1214,81.9076535 37.5774,81.3656535 C39.7734,78.7576535 43.5334,79.4066535 44.7554,82.6116535 C45.3314,84.1236535 45.8564,85.4786535 45.7504,87.1056535 C45.7414,87.2486535 45.7254,87.4046535 45.6254,87.5076535 C45.4654,87.6746535 45.1664,87.6076535 45.0124,87.4346535 C44.8584,87.2626535 44.8084,87.0236535 44.7564,86.7976535 C44.5314,85.8286535 44.1594,84.9016535 43.7884,83.9786535 C42.7774,81.4646535 39.6034,80.7876535 38.2384,83.4236535 C37.6634,84.5336535 37.4544,85.7396535 37.4084,86.9736535 C37.3434,88.7256535 37.5164,90.4856535 37.2034,92.2306535 C37.0594,93.0356535 37.4254,93.4766535 38.2734,93.4816535 C38.6404,93.4846535 39.0124,93.5146535 39.3624,93.6296535 C39.7714,93.7636535 40.3684,93.7876535 40.3214,94.3796535 C40.2724,94.9886535 39.7044,95.0606535 39.2044,95.1086535 C38.7164,95.1556535 38.2214,95.1036535 37.7364,95.1726535 C37.3844,95.2226535 36.9984,95.2006535 36.6454,95.6036535 C38.7144,95.7976535 40.6684,95.7766535 42.5594,95.0226535 C43.4764,94.8416535 44.1594,94.4626535 44.2064,93.3746535 C44.2254,92.9166535 44.5114,92.5626535 44.9784,92.3546535 C46.8384,91.5276535 47.9994,89.3626535 47.7274,87.2706535 C47.6164,86.4176535 47.7164,85.5786535 47.5664,84.6986535 C47.4174,83.8196535 47.3044,83.3416535 47.0244,82.4976535 C46.7304,81.6086535 46.5804,80.6276535 46.3494,79.7196535 C46.3494,79.3526535 46.1814,78.9656535 46.1564,78.5946535 C46.1374,78.3166535 46.0734,78.0466535 46.0114,77.7756535 C45.9734,77.6076535 45.7604,77.0556535 45.8544,76.9026535 C46.0954,76.5156535 46.6254,77.2356535 46.7944,77.3636535 C47.5814,77.9586535 48.7034,78.1236535 49.6614,78.0146535 C50.4294,77.9266535 51.0784,77.6426535 51.6344,77.1236535 C52.1404,76.6496535 52.2564,76.0876535 52.0034,75.4466535 C51.9574,75.3326535 51.9144,75.2126535 51.8404,75.1166535 C50.3834,73.2346535 49.8484,71.0626535 49.7424,68.7266535 C49.6854,67.4846535 48.9014,66.7506535 47.7404,66.3996535 C47.0504,66.3776535 46.3604,66.3346535 45.6754,66.4536535 C44.8324,66.6016535 44.0854,66.9156535 43.8564,67.8366535 C43.6314,68.7476535 43.7154,69.6376535 44.4584,70.3086535 C45.1064,70.8936535 45.6834,71.5196535 45.8424,72.3966535 C45.9524,73.0076535 46.1694,73.7116535 45.3354,74.0616535 C44.4284,74.0246535 43.9164,73.5636535 43.8414,72.6496535 C43.7724,71.8116535 43.1404,71.3186535 42.6874,70.7086535 C42.3564,70.2626535 42.2444,70.8446535 42.0094,70.8176535 C41.8194,70.8256535 41.6844,70.7466535 41.6094,70.5706535 C41.5974,69.8976535 41.7944,69.2266535 41.6194,68.5506535 C41.7064,68.1966535 41.8164,67.8516535 41.8974,67.4956535 C42.3714,65.4286535 43.4414,64.5866535 45.9984,64.2476535 C47.2414,64.2956535 48.5124,64.0496535 49.7064,64.6056535 C50.1054,64.7906535 50.5554,64.8966535 50.7854,65.3326535 C50.7424,66.1016535 50.9714,66.4426535 51.7624,66.7856535 C51.4094,67.0766535 51.4914,67.4596535 51.6024,67.8026535 C51.8334,68.5146535 51.8914,69.2576535 51.8664,69.9776535 C51.8304,71.0136535 52.1014,71.9146535 52.7124,72.7166535 C53.2154,73.3786535 53.5334,74.1356535 53.8074,74.8946535 C54.1984,75.9756535 54.1424,77.0396535 53.4034,78.0186535 C52.7324,78.9076535 51.7744,79.5486535 50.6984,79.8326535 C50.1364,79.9806535 49.5604,80.0866535 48.9854,79.9526535 C48.5704,79.8546535 47.2474,79.3356535 47.1954,78.8416535 C47.2864,79.7136535 47.6984,80.4846535 47.9844,81.2946535 C48.1834,81.8546535 48.3714,82.4016535 48.5614,82.9646535 C49.0114,84.2906535 49.2724,85.6956535 49.3194,87.0946535 C49.3394,87.6666535 49.1604,88.1456535 49.0904,88.6846535 C49.0064,89.3316535 49.0564,89.8816535 48.7794,90.5076535 C48.1984,91.8166535 47.6794,93.3486535 45.9934,93.7756535 C45.7464,93.8386535 45.6504,93.9556535 45.6474,94.1856535 C45.6444,94.4716535 45.6464,94.7576535 45.6464,95.0436535 C45.6484,95.5156535 45.3964,95.8616535 44.9744,95.9626535 C43.4304,96.3346535 42.0184,97.1256535 40.4124,97.3136535 C38.7024,97.5146535 37.0434,97.4806535 35.3384,97.1056535 C33.9274,96.7946535 32.4334,96.8636535 30.9764,96.7526535 C29.4744,96.6376535 27.9554,96.9066535 26.4634,96.5236535 C26.0964,96.4296535 25.7564,96.3446535 25.4994,96.0496535 C25.0384,95.5216535 25.1604,94.7016535 25.7694,94.3686535 C26.1044,94.1856535 26.7034,94.2966535 26.7324,93.7966535 C26.7614,93.2926535 26.8064,92.7526535 26.5054,92.2516535 C26.1674,91.6906535 26.0104,91.0496535 26.0034,90.3846535 C25.8204,89.3866535 25.8284,88.3946535 26.0124,87.3916535 C26.1084,86.8706535 25.8434,86.3686535 25.9174,85.8626535 C25.9794,85.4336535 26.2464,84.9786535 26.3364,84.5366535 C26.3944,84.2486535 26.4574,81.3106535 26.4034,81.3356535 C25.8454,81.5906535 25.2714,81.5976535 24.6864,81.7226535 C24.4714,81.7676535 24.3114,81.8806535 24.0794,81.8986535 C23.8934,81.9126535 23.5164,81.7416535 23.3704,81.7916535 C23.1614,81.8636535 22.9614,81.8416535 22.7684,81.7376535 C22.6154,81.6266535 22.4124,81.6516535 22.2574,81.5466535 L22.2734,81.5556535 C22.1464,81.3626535 21.9044,81.4136535 21.7374,81.3026535 C21.6704,81.2686535 21.6034,81.2336535 21.5354,81.1986535 C21.4444,81.1696535 21.3774,81.1116535 21.3354,81.0256535 L21.3094,81.0086535 C21.2224,80.9546535 21.1534,80.8836535 21.1004,80.7966535 L21.0204,80.7536535 L21.0214,80.6626535 C21.0054,80.4906535 20.9204,80.3766535 20.7494,80.3336535 L20.7714,80.3566535 C20.7594,80.2216535 20.6574,80.1446535 20.5744,80.0556535 L20.5074,79.9906535 L20.5324,79.9016535 C20.4544,79.7086535 20.4734,79.4826535 20.3244,79.3146535 L20.3224,79.3086535 C20.1734,79.1796535 20.2184,78.9576535 20.0854,78.8216535 L20.0804,78.8096535 C19.9254,78.6906535 19.9754,78.4796535 19.8694,78.3396535 C19.7554,78.1206535 19.7584,77.8906535 19.8064,77.6566535 C19.6314,77.1016535 19.6764,76.5466535 19.8064,75.9906535 C19.7004,75.7766535 19.7624,75.5776535 19.8604,75.3806535 C19.9674,75.1906535 19.9864,74.9756535 20.0384,74.7696535 L20.0204,74.6906535 L20.0894,74.6476535 C20.1644,74.5546535 20.2754,74.4866535 20.2814,74.3506535 L20.2584,74.3786535 C20.5014,74.2706535 20.4394,74.0116535 20.5334,73.8296535 C20.5014,73.7516535 20.5234,73.6956535 20.6014,73.6616535 C20.6564,73.5626535 20.7734,73.4996535 20.7734,73.3686535 L20.7534,73.3946535 C20.9654,73.3266535 20.9044,73.0616535 21.0674,72.9596535 L21.0794,72.9376535 C21.1474,72.8466535 21.2204,72.7606535 21.2954,72.6816535 C21.3864,72.6006535 21.4844,72.5246535 21.5294,72.4046535 L21.5144,72.4256535 C21.6504,72.3536535 21.7414,72.2496535 21.7564,72.0906535 C21.7214,72.0176535 21.7424,71.9686535 21.8194,71.9426535 C21.9044,71.8416535 21.9954,71.7426535 22.0034,71.6006535 C21.9744,71.5196535 22.0024,71.4686535 22.0864,71.4496535 C22.1404,71.3616535 22.2074,71.2856535 22.2884,71.2216535 L22.2954,71.2136535 C22.3684,71.1206535 22.4654,71.0476535 22.5154,70.9376535 L22.5044,70.9556535 C22.6994,70.8026535 22.6694,70.5616535 22.7404,70.3596535 L22.7154,70.2776535 L22.7834,70.2256535 C22.9994,70.0056535 22.8204,69.6746535 23.0044,69.4456535 C22.9604,69.3716535 22.9684,69.3046535 23.0284,69.2426535 C23.1034,69.1456535 23.0884,69.0736535 22.9694,69.0296535 L22.9844,69.0436535 C22.9304,68.9386535 22.9424,68.8416535 23.0194,68.7516535" id="Fill-6" fill="#060401"></path>
                    <path d="M19.8061,75.9911535 C19.8061,76.5461535 19.8061,77.1021535 19.8071,77.6571535 C19.5501,77.1021535 19.5271,76.5461535 19.8061,75.9911535" id="Fill-8" fill="#060401"></path>
                    <path d="M23.0045,69.4458535 C23.0105,69.7278535 23.0735,70.0268535 22.7835,70.2248535 C22.7775,69.9428535 22.7635,69.6578535 23.0045,69.4458535" id="Fill-10" fill="#060401"></path>
                    <path d="M20.5333,73.8295535 C20.5503,74.0665535 20.5313,74.2865535 20.2583,74.3785535 C20.2883,74.1645535 20.3023,73.9425535 20.5333,73.8295535" id="Fill-12" fill="#060401"></path>
                    <path d="M22.7404,70.3595535 C22.7624,70.5985535 22.7564,70.8255535 22.5044,70.9555535 C22.5234,70.7335535 22.5364,70.5085535 22.7404,70.3595535" id="Fill-14" fill="#060401"></path>
                    <path d="M19.869,78.3395535 C20.038,78.4515535 20.071,78.6255535 20.08,78.8095535 C19.909,78.6985535 19.838,78.5415535 19.869,78.3395535" id="Fill-16" fill="#060401"></path>
                    <path d="M20.0383,74.7698535 C20.0613,74.9978535 20.0693,75.2208535 19.8603,75.3808535 C19.8263,75.1498535 19.8453,74.9348535 20.0383,74.7698535" id="Fill-18" fill="#060401"></path>
                    <path d="M20.3248,79.3150535 C20.5448,79.4570535 20.5538,79.6730535 20.5318,79.9010535 C20.3068,79.7610535 20.3138,79.5390535 20.3248,79.3150535" id="Fill-20" fill="#060401"></path>
                    <path d="M20.0849,78.8215535 C20.2719,78.9315535 20.3149,79.1115535 20.3219,79.3085535 C20.1589,79.1875535 20.0729,79.0285535 20.0849,78.8215535" id="Fill-22" fill="#060401"></path>
                    <path d="M21.0677,72.9593535 C21.0447,73.1633535 20.9847,73.3403535 20.7537,73.3943535 C20.7757,73.1903535 20.9017,73.0603535 21.0677,72.9593535" id="Fill-24" fill="#060401"></path>
                    <path d="M21.7379,81.3030535 C21.9619,81.2920535 22.1679,81.3160535 22.2739,81.5550535 C22.0589,81.5480535 21.8669,81.4920535 21.7379,81.3030535" id="Fill-26" fill="#060401"></path>
                    <path d="M21.1006,80.7962535 C21.1706,80.8672535 21.2396,80.9382535 21.3096,81.0082535 C21.1646,81.0122535 21.0886,80.9482535 21.1006,80.7962535" id="Fill-30" fill="#060401"></path>
                    <path d="M21.3349,81.0259535 C21.4019,81.0839535 21.4689,81.1409535 21.5359,81.1989535 C21.4159,81.2029535 21.3549,81.1379535 21.3349,81.0259535" id="Fill-32" fill="#060401"></path>
                    <path d="M20.7491,80.3331535 C20.9131,80.3821535 20.9991,80.4961535 21.0211,80.6621535 C20.8711,80.6021535 20.7821,80.4911535 20.7491,80.3331535" id="Fill-34" fill="#060401"></path>
                    <path d="M20.5745,80.0557535 C20.6405,80.1557535 20.7055,80.2567535 20.7715,80.3567535 C20.6185,80.3137535 20.5425,80.2197535 20.5745,80.0557535" id="Fill-36" fill="#060401"></path>
                    <path d="M23.0194,68.7516535 C23.0074,68.8486535 22.9964,68.9466535 22.9844,69.0436535 C22.8364,69.0146535 22.7284,68.9356535 22.6724,68.7916535 C22.7884,68.7776535 22.9034,68.7646535 23.0194,68.7516535" id="Fill-38" fill="#060401"></path>
                    <path d="M22.9697,69.0298535 C23.1457,69.0578535 23.2047,69.1178535 23.0287,69.2428535 C22.9777,69.1808535 22.9577,69.1098535 22.9697,69.0298535" id="Fill-40" fill="#060401"></path>
                    <path d="M20.7729,73.3681535 C20.7159,73.4661535 20.6589,73.5641535 20.6019,73.6621535 C20.5839,73.5201535 20.6279,73.4141535 20.7729,73.3681535" id="Fill-42" fill="#060401"></path>
                    <path d="M20.2813,74.3506535 C20.2173,74.4496535 20.1533,74.5486535 20.0893,74.6476535 C20.0703,74.4946535 20.1343,74.3956535 20.2813,74.3506535" id="Fill-44" fill="#060401"></path>
                    <path d="M22.5158,70.9372535 C22.4428,71.0292535 22.3688,71.1212535 22.2958,71.2142535 C22.3128,71.0772535 22.3848,70.9832535 22.5158,70.9372535" id="Fill-46" fill="#060401"></path>
                    <path d="M22.2881,71.2216535 C22.2211,71.2976535 22.1531,71.3736535 22.0861,71.4496535 C22.0701,71.2996535 22.1521,71.2366535 22.2881,71.2216535" id="Fill-48" fill="#060401"></path>
                    <path d="M22.0031,71.6004535 C21.9981,71.7444535 21.9401,71.8604535 21.8191,71.9424535 C21.8021,71.7864535 21.8581,71.6694535 22.0031,71.6004535" id="Fill-50" fill="#060401"></path>
                    <path d="M21.7566,72.0909535 C21.7396,72.2489535 21.6616,72.3619535 21.5146,72.4259535 C21.5246,72.2629535 21.6036,72.1499535 21.7566,72.0909535" id="Fill-52" fill="#060401"></path>
                    <path d="M21.5291,72.4046535 C21.4511,72.4966535 21.3731,72.5896535 21.2951,72.6816535 C21.3171,72.5416535 21.3921,72.4476535 21.5291,72.4046535" id="Fill-54" fill="#060401"></path>
                    <path d="M21.298,72.6786535 C21.225,72.7646535 21.152,72.8506535 21.079,72.9376535 C21.073,72.7836535 21.149,72.7006535 21.298,72.6786535" id="Fill-56" fill="#060401"></path>
                    <path d="M30.9177,68.4023535 L30.9137,68.3053535 L30.8277,68.2613535 C30.6637,68.1163535 30.5247,67.9483535 30.3857,67.7813535 L30.3807,67.7743535 C30.3157,67.6893535 30.2377,67.6173535 30.1487,67.5583535 L30.1027,67.4803535 L30.0117,67.4873535 C29.8427,67.4643535 29.7247,67.3843535 29.7027,67.2013535 L29.7267,67.2233535 C29.5707,67.2233535 29.4927,67.1173535 29.4247,67.0003535 L29.4407,67.0093535 C29.2807,66.9023535 29.0627,66.9283535 28.9197,66.7813535 L28.9237,66.7833535 C28.7407,66.5473535 28.3577,66.7953535 28.2057,66.4853535 L28.2317,66.5063535 C28.1027,66.4893535 28.0307,66.3843535 27.9357,66.3153535 L27.8977,66.2473535 L27.8217,66.2623535 C27.5437,66.1513535 27.2297,66.2163535 26.9557,66.0853535 C26.8717,66.0793535 26.7877,66.0733535 26.7037,66.0673535 C26.2227,66.3173535 25.6717,66.0263535 25.1887,66.2633535 L25.2127,66.2493535 C25.0397,66.5393535 24.6747,66.3153535 24.4727,66.5273535 L24.4847,66.5203535 C24.4057,66.6263535 24.3307,66.7373535 24.1747,66.7283535 L24.1957,66.7073535 C24.1677,66.9433535 23.8687,66.8633535 23.7987,67.0483535 L23.7707,67.0763535 C23.4347,67.1473535 23.0947,67.2713535 22.7877,66.9943535 C21.6937,66.4903535 20.5647,66.0093535 19.5427,65.4103535 C17.2427,64.0633535 14.9237,62.7073535 13.0507,60.7343535 C12.3277,59.9723535 11.5167,59.2933535 10.7827,58.5313535 C9.5617,57.2653535 8.5377,55.8483535 7.5617,54.4083535 C5.0507,50.7033535 3.4707,46.5993535 2.5547,42.2223535 C1.8887,39.0413535 1.8207,35.8543535 2.0847,32.6213535 C2.3517,29.3533535 3.1147,26.2133535 4.2627,23.1723535 C4.8907,21.5093535 5.7607,19.9393535 6.6477,18.3813535 C7.6427,16.6343535 8.8047,15.0263535 10.0867,13.4943535 C12.8897,10.1493535 16.2547,7.47635352 20.0657,5.38935352 C22.4167,4.10135352 24.9247,3.12335352 27.5417,2.51335352 C28.3717,2.32035352 29.2687,2.45635352 30.1467,2.30935352 C35.5107,1.41135352 40.7837,1.93535352 45.9277,3.62035352 C48.3937,4.42835352 50.7007,5.60835352 52.9287,6.97435352 C55.7727,8.71735352 58.2127,10.9103535 60.4087,13.3683535 C61.8997,15.0373535 63.1587,16.9093535 64.2447,18.8793535 C64.4007,19.1613535 64.4697,19.4903535 64.5787,19.7973535 C65.3537,22.3923535 65.7687,25.0473535 65.8527,27.7513535 C65.9047,29.4223535 65.7577,31.0993535 66.0647,32.7633535 C66.1687,33.3253535 66.0727,33.9003535 65.9597,34.4663535 C64.3817,42.3833535 61.3237,49.6823535 56.8097,56.3693535 C55.5737,58.1993535 54.2827,60.0213535 52.7447,61.5823535 C51.1027,63.2483535 49.2977,64.9163535 46.5847,64.4553535 C46.3517,64.4163535 46.0947,64.4123535 45.8657,64.5343535 C45.6677,64.5643535 45.4687,64.5843535 45.2737,64.6283535 C43.3557,65.0573535 42.4577,65.7553535 42.1367,67.8653535 C42.0767,68.2623535 41.9607,68.5293535 41.6377,68.7273535 C40.1447,69.4763535 38.5017,69.4273535 36.9037,69.5803535 C35.9767,69.6683535 35.0357,69.5923535 34.1017,69.6003535 C33.5707,69.6043535 33.0347,69.5973535 32.6507,70.0633535 C32.5577,70.1643535 32.4477,70.2423535 32.3247,70.3003535 C32.0787,70.3353535 31.9807,70.1463535 31.8607,69.9903535 L31.8587,69.9833535 C31.6137,69.6893535 31.5367,69.3163535 31.3877,68.9763535 L31.3947,68.9883535 C31.2907,68.9153535 31.1967,68.8333535 31.1557,68.7063535 L31.1777,68.7283535 C31.0277,68.6703535 30.9397,68.5623535 30.9177,68.4023535" id="Fill-58" fill="#FFFFFF"></path>
                    <path d="M45.8655,64.5340535 C46.4185,64.1430535 47.0505,64.3330535 47.6425,64.3330535 C48.2835,64.3330535 48.8375,64.1960535 49.3575,63.8170535 C50.2145,63.1920535 51.1435,62.6580535 51.9535,61.9800535 C52.9565,61.1380535 53.6155,59.9790535 54.4475,58.9770535 C57.5805,55.2040535 59.8195,50.8940535 61.9015,46.4960535 C63.0225,44.1310535 63.7725,41.6220535 64.4735,39.1060535 C64.8885,37.6170535 65.1825,36.0940535 65.5815,34.5990535 C65.8095,33.7460535 65.8255,32.9160535 65.6325,32.0630535 C65.4225,31.1340535 65.5085,30.1850535 65.5495,29.2520535 C65.6715,26.4960535 65.1105,23.8200535 64.6705,21.1300535 C64.5975,20.6810535 64.5305,20.2480535 64.5785,19.7980535 C65.4515,20.6590535 65.7455,21.8580535 66.1615,22.9210535 C66.9565,24.9590535 67.6565,27.0780535 68.0255,29.2270535 C68.3925,31.3670535 68.5295,33.5660535 68.4845,35.7650535 C68.4045,39.6270535 67.7245,43.3410535 66.4235,46.9950535 C65.1355,50.6130535 63.2705,53.8600535 60.8915,56.8260535 C58.2465,60.1230535 55.1305,62.8930535 51.3795,64.9030535 C51.1655,65.0170535 50.9825,65.1880535 50.7855,65.3320535 C49.2295,64.5500535 47.5565,64.4880535 45.8655,64.5340535" id="Fill-60" fill="#D0D0D0"></path>
                    <path d="M22.7877,66.9942535 C23.1157,67.0212535 23.4317,67.1832535 23.7707,67.0762535 C23.6807,67.1602535 23.5897,67.2452535 23.4997,67.3302535 C23.2407,67.2632535 22.9227,67.3232535 22.7877,66.9942535" id="Fill-62" fill="#060401"></path>
                    <path d="M45.823,85.7793535 C45.172,84.2703535 44.631,82.0603535 43.302,80.9973535 C41.63,79.6583535 39.35,79.8603535 37.872,81.4553535 C37.215,82.1643535 36.777,82.9523535 36.452,83.9013535 C35.963,83.6243535 35.945,83.0823535 35.696,82.7073535 C34.917,81.5333535 34.017,80.5403535 32.491,80.6153535 C31.446,80.6663535 30.393,80.9603535 29.572,81.6313535 C28.88,82.1973535 28.367,83.1173535 28.077,83.9503535 C27.976,84.2383535 27.824,84.5073535 27.629,84.7413535 C27.615,84.7583535 27.6,84.7753535 27.58,84.7833535 C27.544,84.7973535 27.503,84.7793535 27.48,84.7483535 C27.457,84.7183535 27.451,84.6793535 27.449,84.6413535 C27.441,84.4863535 27.503,84.3373535 27.551,84.1893535 C27.767,83.5303535 27.672,82.7993535 27.769,82.1173535 C27.884,81.3053535 28.093,80.5523535 28.36,79.7763535 C28.494,79.3883535 28.628,78.3813535 28.921,78.0963535 C29.034,77.9433535 29.102,77.7603535 29.233,77.6183535 C30.551,76.9463535 31.965,76.4763535 33.399,76.2513535 C35.164,75.9733535 36.735,75.1873535 38.413,74.6973535 C39.175,74.4743535 39.77,73.9633535 40.38,73.4803535 C41.005,72.9853535 41.582,72.9333535 41.954,73.7643535 C42.63,75.2723535 43.669,76.6413535 43.523,78.4543535 C43.424,79.6773535 45.581,80.4413535 45.925,81.5203535 L45.923,81.5143535 C46.177,82.9683535 45.952,84.3653535 45.836,85.8093535 C45.832,85.7993535 45.827,85.7893535 45.823,85.7793535" id="Fill-64" fill="#FFFFFF"></path>
                    <path d="M45.9247,81.5204535 C45.6287,81.1884535 45.3287,80.8594535 45.0367,80.5224535 C44.4227,79.8144535 43.0647,78.9994535 43.1657,78.0524535 C43.2627,77.1524535 43.0067,76.3634535 42.5147,75.6264535 C42.0407,74.9144535 41.8817,74.0394535 41.3597,73.3514535 C41.0827,73.2864535 40.8567,73.4274535 40.7047,73.5954535 C39.8157,74.5794535 38.6377,75.0084535 37.4197,75.3774535 C36.7957,75.5664535 36.1777,75.7744535 35.5997,76.0894535 C35.3887,76.2044535 35.1467,76.3274535 34.9157,76.3344535 C32.8777,76.3994535 31.0777,77.3654535 29.1497,77.8394535 C29.0397,77.6614535 28.9997,77.4974535 29.2337,77.3834535 L29.2057,77.4144535 C29.2167,77.2794535 29.3177,77.1994535 29.3987,77.1074535 C29.4667,77.0624535 29.4787,77.0054535 29.4347,76.9364535 C29.5937,76.6874535 29.4577,76.3624535 29.6477,76.1214535 L29.6507,76.1164535 C29.8897,75.9254535 29.6857,75.5924535 29.8847,75.3884535 C29.9397,75.3184535 29.9477,75.2434535 29.9077,75.1634535 C30.1427,74.9814535 29.8697,74.5704535 30.2317,74.4454535 L30.2017,74.4774535 C30.1907,74.3314535 30.2997,74.2534535 30.3807,74.1594535 C30.4447,74.1174535 30.4577,74.0644535 30.4207,73.9974535 C30.4547,73.8524535 30.5417,73.7504535 30.6707,73.6804535 L30.6557,73.7034535 C30.7107,73.6134535 30.7917,73.5584535 30.8967,73.5404535 C31.1117,73.5214535 31.2947,73.6144535 31.4797,73.7054535 C31.6637,73.8004535 31.8317,73.9184535 31.9757,74.0684535 C32.1107,74.2304535 32.2157,74.4024535 32.1727,74.6264535 C32.0827,74.7504535 31.9547,74.8014535 31.8107,74.8124535 C31.7327,74.8174535 31.6517,74.8094535 31.5777,74.7934535 C31.5827,74.7974535 31.4857,74.7894535 31.4857,74.7894535 C31.4857,74.7894535 31.3877,74.7944535 31.3947,74.7964535 C31.3667,74.8524535 31.3687,74.9034535 31.4147,74.9534535 C31.4707,74.9954535 31.5267,75.0264535 31.5947,75.0444535 C31.6017,75.0414535 31.7057,75.0614535 31.7107,75.0574535 C31.9467,75.0514535 32.1547,74.9464535 32.3777,74.8964535 C34.7477,74.5444535 36.8237,73.4944535 38.8047,72.2164535 C39.8717,71.7684535 40.7227,70.8664535 41.9337,70.7154535 C42.3107,70.5564535 42.0767,70.1064535 42.3907,69.8404535 C42.7917,70.3314535 43.1977,70.8264535 43.6007,71.3234535 C43.9127,71.7094535 44.1587,72.1154535 44.1187,72.6484535 C44.0647,73.3734535 44.4677,73.7524535 45.1347,73.9064535 C45.6827,74.7294535 46.2057,75.5574535 45.6317,76.5884535 C44.4987,76.6274535 44.5537,76.6264535 44.5717,77.7544535 C44.5917,79.0214535 45.7877,80.2674535 45.9247,81.5204535" id="Fill-70" fill="#D0D0D0"></path>
                    <path d="M45.6318,76.5882535 C45.7848,75.6352535 45.1518,74.8282535 45.1348,73.9062535 C45.3938,73.8732535 45.5768,73.7942535 45.5888,73.4682535 C45.6298,72.3992535 45.4318,71.4392535 44.4808,70.7892535 C43.6638,70.2302535 43.3847986,69.4132535 43.3847986,68.4782535 C43.3838,67.3112535 43.9268,66.6032535 45.0628,66.2602535 C45.9698,65.9862535 46.8968,65.9482535 47.8328,66.0782535 C48.3188,66.2892535 48.2748,66.7082535 48.2278,67.1172535 C48.1068,68.1462535 48.3598,69.0862535 48.6498,70.0832535 C49.0988,71.6242535 49.0908,73.2842535 49.6788,74.8182535 C49.8468,75.2552535 49.5278,75.5962535 49.1468,75.8072535 C48.1058,76.3812535 47.0078,76.7502535 45.7958,76.6602535 C45.7248,76.6722535 45.6708,76.6482535 45.6318,76.5882535" id="Fill-74" fill="#FFFFFF"></path>
                    <path d="M30.403,71.2079535 C30.338,71.2509535 30.325,71.3069535 30.363,71.3749535 C30.335,71.5009535 30.25,71.5959535 30.177,71.6969535 C30.104,71.7239535 30.083,71.7739535 30.115,71.8449535 C30.095,71.9919535 29.999,72.0919535 29.906,72.1949535 L29.902,72.1979535 C29.812,72.2719535 29.734,72.3589535 29.646,72.4349535 L29.651,72.4309535 C29.575,72.5079535 29.505,72.5909535 29.443,72.6799535 C29.371,72.7159535 29.35,72.7719535 29.38,72.8469535 C29.352,72.9749535 29.268,73.0709535 29.192,73.1709535 C29.12,73.2009535 29.1,73.2509535 29.131,73.3219535 C29.105,73.4769535 29.015,73.5819535 28.877,73.6509535 L28.891,73.6309535 C28.789,73.7929535 28.815,74.0039535 28.687,74.1559535 C28.63,74.2159535 28.619,74.2829535 28.655,74.3579535 C28.468,74.5869535 28.63,74.9119535 28.438,75.1389535 C28.379,75.1939535 28.368,75.2569535 28.404,75.3289535 C28.296,75.4979535 28.33,75.7239535 28.183,75.8779535 C28.115,75.9159535 28.104,75.9669535 28.149,76.0309535 C28.073,76.2239535 28.07,76.4429535 27.941,76.6169535 L27.938,76.6229535 C27.694,76.8059535 27.92,77.1649535 27.667,77.3449535 L27.676,77.3279535 C27.61,77.4099535 27.552,77.4969535 27.503,77.5899535 C27.423,77.6389535 27.397,77.7089535 27.426,77.7979535 C27.309,77.9589535 27.343,78.1869535 27.191,78.3329535 L27.193,78.3269535 C27.052,78.4649535 27.091,78.6879535 26.954,78.8269535 L26.953,78.8289535 C26.868,78.9029535 26.796,78.9869535 26.736,79.0819535 L26.715,79.0999535 C26.627,79.1499535 26.56,79.2189535 26.516,79.3109535 C26.438,79.3389535 26.41,79.3939535 26.431,79.4739535 C26.388,79.6479535 26.28,79.7519535 26.101,79.7769535 C26.045,79.7839535 25.991,79.7769535 25.939,79.7569535 C23.442,78.6279535 22.628,75.9599535 24.07,73.7409535 C25.05,72.2329535 26.255,70.9069535 27.385,69.5209535 C27.747,69.0769535 28.18,68.6849535 28.84,68.7919535 C28.96,68.8279535 29.074,68.8799535 29.181,68.9479535 L29.211,68.9799535 C29.279,69.1709535 29.572,69.0919535 29.613,69.3159535 L29.58,69.2849535 C29.69,69.3189535 29.738,69.3909535 29.713,69.5059535 C29.614,69.9119535 29.786,70.1789535 30.145,70.3509535 C30.247,70.3789535 30.323,70.4399535 30.372,70.5329535 C30.333,70.6029535 30.343,70.6649535 30.402,70.7199535 C30.53,70.8819535 30.53,71.0449535 30.403,71.2079535" id="Fill-76" fill="#D0D0D0"></path>
                    <path d="M28.9995,68.9734535 C28.3425,68.8984535 27.9265,69.2974535 27.5685,69.7494535 C26.3605,71.2764535 25.0735,72.7384535 23.9945,74.3694535 C23.3765,75.3034535 23.3815,76.1534535 23.8765,77.1044535 C24.4035,78.1194535 25.0905,78.9974535 25.9385,79.7564535 L25.9825,79.8564535 C25.8825,79.9024535 25.7995,79.9694535 25.7365,80.0604535 L25.7265,80.0654535 C25.5415,80.1854535 25.3225,80.2044535 25.1185,80.2674535 L25.0405,80.2364535 L24.9855,80.3004535 C24.4155,80.5004535 23.8425,80.4614535 23.2685,80.3214535 L23.1705,80.2654535 L23.0595,80.2874535 C22.9715,80.2234535 22.8795,80.1664535 22.7825,80.1184535 C22.7645,80.0314535 22.7125,79.9984535 22.6255,80.0204535 C22.4695,79.9944535 22.3635,79.9084535 22.3085,79.7594535 L22.3315,79.7794535 C22.2035,79.7434535 22.1245,79.6474535 22.0425,79.5524535 L22.0495,79.5574535 C21.9545,79.4784535 21.8605,79.3964535 21.8135,79.2764535 L21.8305,79.3014535 C21.6325,79.1694535 21.6695,78.9294535 21.5735,78.7494535 C21.6085,78.6704535 21.5875,78.6124535 21.5085,78.5764535 C21.4385,78.4694535 21.3485,78.3724535 21.3335,78.2374535 L21.3615,78.1504535 L21.2955,78.0884535 C21.0915,77.8644535 21.2605,77.5344535 21.0705,77.3064535 C21.0735,76.9334535 21.0755,76.5594535 21.0775,76.1864535 C21.2425,75.9454535 21.1125,75.6324535 21.2715,75.3904535 C21.3505,75.3634535 21.3715,75.3124535 21.3335,75.2374535 C21.4165,75.0474535 21.3785,74.7994535 21.6005,74.6744535 L21.5785,74.6984535 C21.6085,74.5724535 21.7085,74.4944535 21.7865,74.4014535 L21.7885,74.3964535 C21.9455,74.2734535 21.8975,74.0444535 22.0355,73.9114535 L22.0365,73.9104535 C22.1165,73.8444535 22.1795,73.7644535 22.2285,73.6724535 C22.3125,73.6604535 22.3425,73.6144535 22.3195,73.5324535 C22.4335,73.2934535 22.6425,73.1374535 22.8205,72.9534535 L22.8015,72.9754535 C22.8425,72.8494535 22.9365,72.7674535 23.0385,72.6924535 L23.0315,72.7024535 C23.1635,72.5604535 23.1135,72.3164535 23.3095,72.2114535 L23.2955,72.2334535 C23.4035,72.0644535 23.3535,71.7864535 23.6375,71.7374535 C23.7595,71.7074535 23.8125,71.6354535 23.7765,71.5084535 C23.8765,70.9894535 24.3415,70.5254535 24.0165,69.9414535 C24.0695,69.8624535 24.0585,69.7934535 23.9845,69.7334535 C23.8665,69.5684535 23.8645,69.4054535 23.9935,69.2454535 L24.0625,69.1894535 L24.0375,69.1044535 C24.1285,68.7824535 24.2765,68.4964535 24.5595,68.2974535 L24.5405,68.3204535 C24.5925,68.0384535 24.7675,67.8774535 25.0385,67.8094535 L25.0145,67.8264535 C25.1035,67.6094535 25.3635,67.6734535 25.4985,67.5314535 C25.9685,67.5344535 26.4385,67.5364535 26.9095,67.5394535 C27.0675,67.6594535 27.2885,67.6234535 27.4415,67.7544535 C27.4935,67.8184535 27.5555,67.8304535 27.6285,67.7914535 C27.7445,67.8314535 27.8315,67.9154535 27.9305,67.9824535 L27.9785,68.0604535 L28.0695,68.0504535 C28.3615,68.0594535 28.4945,68.3084535 28.6885,68.4644535 L28.7095,68.4914535 C28.8155,68.6464535 29.0285,68.7374535 28.9995,68.9734535" id="Fill-78" fill="#FDFDFD"></path>
                    <path d="M45.7956,76.6606535 C46.7296,76.0556535 47.9056,76.1846535 48.8686,75.6266535 C49.3806,75.3306535 49.5936,75.0676535 49.3076,74.4916535 C48.7366,73.3426535 48.4866,72.1196535 48.5796,70.8326535 C48.5976,70.5836535 48.5506,70.3346535 48.3996,70.1346535 C47.6066,69.0896535 47.7216,67.9316535 47.9866,66.7646535 C48.0506,66.4866535 47.9396,66.2936535 47.8326,66.0776535 C48.8206,66.2846535 49.9996,67.4006535 50.0746,68.2996535 C50.1416,69.1076535 50.3246,69.9046535 50.2746,70.7276535 C50.2246,71.5586535 50.4516,72.3056535 50.9846,72.9966535 C51.4776,73.6366535 51.8456,74.3776535 52.2366,75.0906535 C52.7656,76.0526535 52.6186,76.7466535 51.7816,77.4566535 C50.0796,78.9006535 47.5336,78.6966535 46.1286,77.0066535 C46.0266,76.8836535 45.9066,76.7756535 45.7956,76.6606535" id="Fill-80" fill="#D0D0D0"></path>
                    <path d="M38.9851,72.3946535 C36.9431,73.9006535 34.6941,74.8976535 32.1521,75.1756535 C31.8891,75.2756535 31.6291,75.3236535 31.3821,75.1336535 L31.3791,75.1326535 C31.2871,75.0606535 31.2211,74.9596535 31.1131,74.9076535 L31.1121,74.9066535 C31.0941,74.4646535 31.3011,74.4776535 31.5971,74.6656535 L31.6071,74.6756535 C31.7851,74.7806535 31.9531,74.8236535 32.0851,74.6076535 C32.0091,74.4626535 31.9331,74.3166535 31.8571,74.1716535 C31.7621,73.9586535 31.8921,73.8566535 32.0531,73.7706535 C32.7051,73.7096535 33.3641,74.1166535 34.0111,73.7386535 C34.1161,73.6966535 34.2231,73.6626535 34.3311,73.6296535 C35.2621,73.4206535 35.3931,73.0496535 34.5901,72.4476535 C34.0561,72.0466535 33.6671,71.4376535 32.9371,71.3246535 C32.7661,71.3286535 32.5941,71.3316535 32.4251,71.2936535 C32.3171,71.2386535 32.2381,71.1566535 32.1851,71.0476535 C32.0921,70.7426535 32.1271,70.4616535 32.3411,70.2146535 C32.3641,69.9306535 32.3871,69.6456535 32.4131,69.3216535 C33.0441,69.1506535 33.6981,69.2776535 34.3381,69.2796535 C36.4241,69.2866535 38.4971,69.1976535 40.5441,68.7626535 C40.9041,68.6866535 41.2691,68.6236535 41.6371,68.7276535 C41.8231,68.7756535 42.1481,68.8136535 42.0671,69.0196535 C41.8811,69.4946535 42.1321,70.0756535 41.6921,70.4726535 C41.3151,71.0056535 40.6981,70.7096535 40.2221,70.9016535 C39.9661,70.9756535 39.7131,71.0586535 39.4611,71.1446535 C39.3041,71.1956535 39.1451,71.2306535 38.9851,71.2646535 C38.3041,71.8786535 37.6001,71.6776535 36.8941,71.3256535 C36.5721,71.2826535 36.3591,71.5426535 36.0821,71.6236535 C35.9491,71.6566535 35.8141,71.6606535 35.6861,71.6376535 C35.5341,71.6026535 35.7441,71.5426535 35.5991,71.6186535 C35.5681,71.6346535 35.5561,71.6646535 35.5661,71.7076535 C35.5761,71.7536535 35.5991,71.7776535 35.6431,71.7816535 C36.0701,71.8716535 36.2141,73.0786535 36.8931,72.0876535 C36.9811,71.9296535 37.1131,71.8356535 37.2901,71.8026535 C37.7391,71.8026535 38.1891,71.9966535 38.6391,71.7946535 C38.9751,71.8676535 39.2431,71.9796535 38.9851,72.3946535" id="Fill-82" fill="#020202"></path>
                    <path d="M34.3224,73.8857535 L34.2264,73.9387535 L34.1164,73.9347535 C33.8834,74.0627535 33.7064,73.9117535 33.5184,73.8167535 C33.3044,73.6507535 33.1154,73.4557535 32.8944,73.2977535 C32.4654,72.9107535 31.7664,72.7297535 31.8554,71.9447535 C31.9004,71.8837535 31.9094,71.8187535 31.8824,71.7477535 C32.0094,71.5727535 31.9654,71.3417535 32.0754,71.1597535 C32.1804,71.1077535 32.2684,71.1307535 32.3424,71.2187535 L32.3994,71.1827535 C32.9954,71.4397535 33.2834,72.0217535 33.7304,72.4357535 C33.9874,72.7197535 34.3284,72.9147535 34.5624,73.2237535 C34.6234,73.3187535 34.6534,73.4237535 34.6584,73.5367535 C34.6024,73.7067535 34.4744,73.8087535 34.3224,73.8857535" id="Fill-86" fill="#BCBCBC"></path>
                    <path d="M40.2115,70.6530535 C40.6665,70.2780535 41.2255,70.7580535 41.6925,70.4730535 C41.7725,70.5540535 41.8525,70.6350535 41.9335,70.7150535 C40.9755,71.3190535 40.0785,72.0290535 38.9855,72.3950535 C38.9655,72.1020535 38.8015,71.9610535 38.5155,71.9500535 C38.4045,71.7570535 38.5165,71.6430535 38.6565,71.5360535 C39.0275,71.3110535 39.4665,71.2370535 39.8355,71.0050535 C39.9525,70.9720535 40.0765,70.9550535 40.1865,70.9040535 C40.2755,70.8630535 40.4055,70.9090535 40.4535,70.7820535 C40.3205,70.8380535 40.2345,70.8030535 40.2115,70.6530535" id="Fill-88" fill="#131313"></path>
                    <path d="M31.8559,71.9449535 C32.1259,72.4989535 32.7179,72.7309535 33.0909,73.1809535 C33.0719,73.2319535 33.0539,73.2829535 33.0359,73.3349535 C32.9659,73.4209535 32.8779,73.4789535 32.7719,73.5119535 C32.7189,73.5119535 32.6639,73.5109535 32.6109,73.5119535 C32.1619,73.4239535 31.8609,73.1349535 31.6139,72.7729535 C31.5649,72.6809535 31.5199,72.5869535 31.4789,72.4909535 C31.5839,72.2949535 31.6489,72.0709535 31.8559,71.9449535" id="Fill-90" fill="#303030"></path>
                    <path d="M30.1663,70.4669535 C29.3163,70.3549535 29.2833,70.2969535 29.6243,69.4999535 C29.7453,69.3809535 29.8283,69.4039535 29.8713,69.5689535 C29.8523,69.6519535 29.8823,69.7099535 29.9603,69.7419535 C29.9923,69.8239535 30.0123,69.9079535 30.0213,69.9949535 C30.0363,70.0809535 30.0633,70.1629535 30.1033,70.2409535 L30.1943,70.2139535 C30.2283,70.3029535 30.2193,70.3869535 30.1663,70.4669535" id="Fill-92" fill="#E9E9E8"></path>
                    <path d="M32.1163,71.2115535 C32.0343,71.3885535 32.0863,71.6235535 31.8823,71.7485535 C31.8753,71.1625535 31.8683,70.5765535 31.8613,69.9905535 C31.9383,70.0745535 32.0153,70.1585535 32.0933,70.2425535 C32.3103,70.5605535 32.2763,70.8845535 32.1163,71.2115535" id="Fill-94" fill="#060401"></path>
                    <path d="M24.0168,69.9415535 C24.4718,70.5455535 24.0338,71.0135535 23.7768,71.5085535 C23.6738,70.9575535 24.0698,70.4845535 24.0168,69.9415535" id="Fill-96" fill="#060401"></path>
                    <path d="M23.2684,80.3214535 C23.8404,80.3144535 24.4134,80.3074535 24.9854,80.3004535 C24.4184,80.6954535 23.8454,80.6674535 23.2684,80.3214535" id="Fill-98" fill="#060401"></path>
                    <path d="M25.1883,66.2628535 C25.6593,65.9358535 26.1943,66.0968535 26.7043,66.0668535 C26.2433,66.4798535 25.6993,66.2428535 25.1883,66.2628535" id="Fill-100" fill="#060401"></path>
                    <path d="M31.3881,68.9764535 C31.6741,69.2514535 31.8211,69.5924535 31.8591,69.9834535 C31.4121,69.7834535 31.3441,69.4064535 31.3881,68.9764535" id="Fill-102" fill="#060401"></path>
                    <path d="M24.5597,68.2975535 C24.4607,68.6155535 24.2707,68.8745535 24.0367,69.1045535 C23.9947,68.6955535 24.1137,68.3905535 24.5597,68.2975535" id="Fill-104" fill="#060401"></path>
                    <path d="M28.2057,66.4856535 C28.4527,66.5676535 28.7597,66.5016535 28.9237,66.7836535 C28.6477,66.7726535 28.3377,66.8436535 28.2057,66.4856535" id="Fill-106" fill="#060401"></path>
                    <path d="M22.8207,72.9537535 C22.7787,73.2547535 22.5927,73.4307535 22.3197,73.5327535 C22.3447,73.2167535 22.5167,73.0277535 22.8207,72.9537535" id="Fill-108" fill="#060401"></path>
                    <path d="M25.0385,67.8090535 C24.9285,68.0340535 24.7745,68.2160535 24.5405,68.3210535 C24.4965,67.9460535 24.6625,67.7750535 25.0385,67.8090535" id="Fill-110" fill="#060401"></path>
                    <path d="M30.3859,67.7809535 C30.5879,67.8909535 30.7569,68.0309535 30.8269,68.2609535 C30.5259,68.2429535 30.3959,68.0669535 30.3859,67.7809535" id="Fill-112" fill="#060401"></path>
                    <path d="M28.688,68.4642535 C28.482,68.3262535 28.276,68.1882535 28.07,68.0512535 C28.397,68.0062535 28.629,68.1062535 28.688,68.4642535" id="Fill-114" fill="#060401"></path>
                    <path d="M28.9995,68.9734535 C28.9025,68.8124535 28.8065,68.6524535 28.7095,68.4914535 C28.9865,68.5194535 29.1495,68.6654535 29.1805,68.9474535 L29.0885,68.9474535 L28.9995,68.9734535 Z" id="Fill-116" fill="#060401"></path>
                    <path d="M27.0099,81.0623535 C26.9179,81.3383535 27.8479,81.6133535 27.7559,81.8893535 C27.7529,81.5823535 26.6189,81.2383535 27.0099,81.0623535" id="Fill-118" fill="#060401"></path>
                    <path d="M27.6667,77.3446535 C27.6977,77.0816535 27.6567,76.7916535 27.9387,76.6226535 C27.9247,76.8916535 27.9797,77.1876535 27.6667,77.3446535" id="Fill-120" fill="#060401"></path>
                    <path d="M29.6475,76.1214535 C29.5665,76.3904535 29.6595,76.7054535 29.4345,76.9364535 C29.4195,76.6424535 29.3495,76.3334535 29.6475,76.1214535" id="Fill-122" fill="#060401"></path>
                    <path d="M29.8851,75.3887535 C29.9321,75.6717535 29.9211,75.9357535 29.6501,76.1167535 C29.6631,75.8527535 29.6101,75.5677535 29.8851,75.3887535" id="Fill-124" fill="#060401"></path>
                    <path d="M21.2717,75.3903535 C21.2557,75.6673535 21.3317,75.9673535 21.0777,76.1863535 C21.0657,75.9023535 20.9977,75.6043535 21.2717,75.3903535" id="Fill-126" fill="#060401"></path>
                    <path d="M21.071,77.3065535 C21.29,77.5255535 21.305,77.8035535 21.295,78.0885535 C21.001,77.8905535 21.065,77.5905535 21.071,77.3065535" id="Fill-128" fill="#060401"></path>
                    <path d="M30.2312,74.4450535 C30.1232,74.6850535 30.0162,74.9240535 29.9082,75.1640535 C29.9202,74.8810535 29.8292,74.5520535 30.2312,74.4450535" id="Fill-130" fill="#060401"></path>
                    <path d="M26.9556,66.0852535 C27.2546,66.0922535 27.5726,66.0062535 27.8216,66.2622535 C27.5176,66.2772535 27.1996,66.3632535 26.9556,66.0852535" id="Fill-132" fill="#060401"></path>
                    <path d="M24.4726,66.5271535 C24.6486,66.2461535 24.9426,66.2801535 25.2126,66.2491535 C25.0626,66.6001535 24.7536,66.5271535 24.4726,66.5271535" id="Fill-134" fill="#060401"></path>
                    <path d="M28.4381,75.1388535 C28.3761,74.8408535 28.3981,74.5668535 28.6551,74.3578535 C28.6621,74.6398535 28.7251,74.9378535 28.4381,75.1388535" id="Fill-136" fill="#060401"></path>
                    <path d="M29.2337,77.3832535 C29.2057,77.5352535 29.1777,77.6872535 29.1497,77.8392535 C29.0737,77.9252535 28.9977,78.0112535 28.9217,78.0962535 C28.9337,77.8182535 28.8557,77.5012535 29.2337,77.3832535" id="Fill-138" fill="#060401"></path>
                    <path d="M25.1188,80.2679535 C25.2808,80.0779535 25.5048,80.0739535 25.7268,80.0649535 C25.5758,80.2879535 25.3518,80.2909535 25.1188,80.2679535" id="Fill-140" fill="#060401"></path>
                    <path d="M28.9227,78.0914535 C28.9467,78.3154535 28.8967,78.5084535 28.6927,78.6364535 C28.6787,78.4164535 28.6997,78.2114535 28.9227,78.0914535" id="Fill-142" fill="#060401"></path>
                    <path d="M28.1831,75.8774535 C28.1501,75.6514535 28.2031,75.4604535 28.4041,75.3284535 C28.4191,75.5474535 28.4001,75.7524535 28.1831,75.8774535" id="Fill-144" fill="#060401"></path>
                    <path d="M28.6868,74.1558535 C28.6418,73.9368535 28.6708,73.7468535 28.8908,73.6308535 C28.9118,73.8398535 28.8848,74.0308535 28.6868,74.1558535" id="Fill-146" fill="#060401"></path>
                    <path d="M27.9413,76.6173535 C27.9553,76.4023535 27.9443,76.1783535 28.1493,76.0313535 C28.1723,76.2593535 28.1623,76.4763535 27.9413,76.6173535" id="Fill-148" fill="#060401"></path>
                    <path d="M27.1909,78.3326535 C27.1819,78.1166535 27.2419,77.9296535 27.4259,77.7986535 C27.4369,78.0156535 27.4129,78.2176535 27.1909,78.3326535" id="Fill-150" fill="#060401"></path>
                    <path d="M30.4029,71.2079535 C30.4029,71.0449535 30.4019,70.8819535 30.4019,70.7199535 C30.6429,70.8819535 30.6449,71.0439535 30.4029,71.2079535" id="Fill-152" fill="#060401"></path>
                    <path d="M22.036,73.9117535 C22.029,74.1117535 21.947,74.2737535 21.788,74.3967535 C21.796,74.1967535 21.84,74.0157535 22.036,73.9117535" id="Fill-154" fill="#060401"></path>
                    <path d="M23.6373,71.7375535 C23.5453,71.9185535 23.4943,72.1265535 23.2953,72.2335535 C23.2843,71.9815535 23.3443,71.7795535 23.6373,71.7375535" id="Fill-156" fill="#060401"></path>
                    <path d="M28.2364,79.5934535 C28.1984,79.7874535 28.1344,79.9644535 27.9304,80.0464535 C27.9444,79.8364535 27.9984,79.6524535 28.2364,79.5934535" id="Fill-158" fill="#060401"></path>
                    <path d="M23.309,72.2117535 C23.297,72.4207535 23.253,72.6117535 23.032,72.7027535 C23.03,72.4857535 23.066,72.2897535 23.309,72.2117535" id="Fill-160" fill="#060401"></path>
                    <path d="M21.6006,74.6742535 C21.5556,74.8832535 21.5386,75.1052535 21.3336,75.2382535 C21.3136,74.9982535 21.3266,74.7742535 21.6006,74.6742535" id="Fill-162" fill="#060401"></path>
                    <path d="M26.9535,78.8270535 C26.9595,78.6250535 27.0205,78.4490535 27.1925,78.3270535 C27.1925,78.5320535 27.1525,78.7170535 26.9535,78.8270535" id="Fill-164" fill="#060401"></path>
                    <path d="M31.0977,73.1491535 C31.1287,72.9571535 31.1817,72.7771535 31.3517,72.6571535 C31.3887,72.7021535 31.4267,72.7481535 31.4637,72.7931535 C31.4997,72.9851535 31.4477,73.1351535 31.2587,73.2191535 C31.2047,73.1961535 31.1517,73.1721535 31.0977,73.1491535" id="Fill-166" fill="#060401"></path>
                    <path d="M21.5737,78.7496535 C21.7887,78.8736535 21.8187,79.0836535 21.8307,79.3016535 C21.5757,79.1966535 21.5567,78.9816535 21.5737,78.7496535" id="Fill-168" fill="#060401"></path>
                    <path d="M28.6302,78.8309535 C28.6532,79.0309535 28.6002,79.1989535 28.4242,79.3149535 C28.4272,79.1249535 28.4572,78.9479535 28.6302,78.8309535" id="Fill-170" fill="#060401"></path>
                    <path d="M25.4982,67.5314535 C25.3622,67.6704535 25.2222,67.8044535 25.0142,67.8264535 C25.0802,67.5714535 25.2782,67.5344535 25.4982,67.5314535" id="Fill-172" fill="#060401"></path>
                    <path d="M27.4414,67.7549535 C27.2144,67.8049535 27.0394,67.7269535 26.9094,67.5399535 C27.1204,67.5289535 27.3154,67.5569535 27.4414,67.7549535" id="Fill-174" fill="#060401"></path>
                    <path d="M28.9195,66.7810535 C29.1205,66.7960535 29.3295,66.7920535 29.4415,67.0100535 C29.2265,67.0260535 29.0345,66.9920535 28.9195,66.7810535" id="Fill-176" fill="#060401"></path>
                    <path d="M23.7982,67.0487535 C23.8592,66.8517535 24.0062,66.7557535 24.1952,66.7077535 C24.1752,66.9527535 24.0022,67.0177535 23.7982,67.0487535" id="Fill-178" fill="#060401"></path>
                    <path d="M27.6336,80.5457535 C27.5986,80.7847535 27.4026,80.8007535 27.2246,80.8417535 C27.2726,80.6217535 27.4356,80.5597535 27.6336,80.5457535" id="Fill-182" fill="#060401"></path>
                    <path d="M23.994,69.2450535 C23.991,69.4080535 23.988,69.5710535 23.985,69.7330535 C23.748,69.5660535 23.752,69.4030535 23.994,69.2450535" id="Fill-184" fill="#060401"></path>
                    <path d="M29.6134,69.3156535 C29.4224,69.2716535 29.2724,69.1776535 29.2104,68.9796535 C29.4114,69.0116535 29.5844,69.0776535 29.6134,69.3156535" id="Fill-186" fill="#060401"></path>
                    <path d="M21.334,78.2374535 C21.475,78.3074535 21.525,78.4254535 21.508,78.5764535 C21.45,78.4634535 21.392,78.3504535 21.334,78.2374535" id="Fill-188" fill="#060401"></path>
                    <path d="M29.3987,77.1075535 C29.4307,77.2705535 29.3557,77.3655535 29.2057,77.4145535 C29.2107,77.2755535 29.2767,77.1735535 29.3987,77.1075535" id="Fill-190" fill="#060401"></path>
                    <path d="M27.5034,77.5901535 C27.4844,77.4521535 27.5564,77.3741535 27.6764,77.3281535 C27.6184,77.4151535 27.5614,77.5031535 27.5034,77.5901535" id="Fill-192" fill="#060401"></path>
                    <path d="M27.2475,80.8213535 C27.2145,80.9643535 27.1315,81.0593535 26.9835,81.0913535 C27.0135,80.9443535 27.1015,80.8543535 27.2475,80.8213535" id="Fill-194" fill="#060401"></path>
                    <path d="M27.9269,80.0518535 C27.9219,80.2028535 27.8639,80.3218535 27.7189,80.3858535 C27.7329,80.2398535 27.8009,80.1278535 27.9269,80.0518535" id="Fill-196" fill="#060401"></path>
                    <path d="M22.7823,80.1188535 C22.9123,80.1128535 23.0023,80.1738535 23.0593,80.2868535 C22.9673,80.2308535 22.8743,80.1748535 22.7823,80.1188535" id="Fill-198" fill="#060401"></path>
                    <path d="M25.7367,80.0603535 C25.7797,79.9453535 25.8547,79.8683535 25.9827,79.8563535 C25.9007,79.9243535 25.8187,79.9923535 25.7367,80.0603535" id="Fill-200" fill="#060401"></path>
                    <path d="M22.3086,79.7590535 C22.4656,79.7840535 22.5716,79.8710535 22.6256,80.0210535 C22.4666,79.9980535 22.3586,79.9140535 22.3086,79.7590535" id="Fill-202" fill="#060401"></path>
                    <path d="M26.101,79.7771535 C26.211,79.6761535 26.321,79.5751535 26.431,79.4741535 C26.387,79.6471535 26.275,79.7461535 26.101,79.7771535" id="Fill-204" fill="#060401"></path>
                    <path d="M22.0428,79.5521535 C22.1888,79.5641535 22.2938,79.6291535 22.3318,79.7791535 C22.1938,79.7571535 22.0978,79.6811535 22.0428,79.5521535" id="Fill-206" fill="#060401"></path>
                    <path d="M28.4233,79.3166535 C28.4383,79.4756535 28.3673,79.5736535 28.2153,79.6166535 C28.2303,79.4786535 28.3003,79.3796535 28.4233,79.3166535" id="Fill-208" fill="#060401"></path>
                    <path d="M21.8139,79.2764535 C21.9499,79.3214535 22.0159,79.4264535 22.0499,79.5574535 C21.9209,79.5064535 21.8419,79.4124535 21.8139,79.2764535" id="Fill-210" fill="#060401"></path>
                    <path d="M26.5161,79.3111535 C26.5031,79.1661535 26.5861,79.1101535 26.7151,79.1001535 C26.6491,79.1701535 26.5821,79.2411535 26.5161,79.3111535" id="Fill-212" fill="#060401"></path>
                    <path d="M26.7358,79.0818535 C26.7568,78.9538535 26.8298,78.8698535 26.9528,78.8288535 C26.8798,78.9128535 26.8078,78.9978535 26.7358,79.0818535" id="Fill-214" fill="#060401"></path>
                    <path d="M29.4244,66.9999535 C29.5804,66.9999535 29.6824,67.0719535 29.7264,67.2229535 C29.5754,67.2169535 29.4754,67.1409535 29.4244,66.9999535" id="Fill-216" fill="#060401"></path>
                    <path d="M29.7028,67.2012535 C29.8608,67.2372535 29.9588,67.3382535 30.0118,67.4872535 C29.8438,67.4622535 29.7358,67.3722535 29.7028,67.2012535" id="Fill-218" fill="#060401"></path>
                    <path d="M30.1487,67.5581535 C30.3027,67.5481535 30.3737,67.6271535 30.3807,67.7741535 C30.3037,67.7021535 30.2257,67.6301535 30.1487,67.5581535" id="Fill-220" fill="#060401"></path>
                    <path d="M27.9308,67.9826535 C27.7808,67.9966535 27.6858,67.9246535 27.6288,67.7916535 C27.7288,67.8556535 27.8298,67.9186535 27.9308,67.9826535" id="Fill-222" fill="#060401"></path>
                    <path d="M30.9177,68.4023535 C31.0667,68.4613535 31.1457,68.5763535 31.1777,68.7283535 C31.0217,68.6753535 30.9377,68.5643535 30.9177,68.4023535" id="Fill-224" fill="#060401"></path>
                    <path d="M31.156,68.7064535 C31.309,68.7384535 31.393,68.8284535 31.395,68.9884535 C31.263,68.9394535 31.182,68.8454535 31.156,68.7064535" id="Fill-226" fill="#060401"></path>
                    <path d="M29.8716,69.5688535 C29.7886,69.5458535 29.7066,69.5228535 29.6236,69.4998535 C29.6076,69.4288535 29.5926,69.3568535 29.5796,69.2848535 C29.7416,69.3128535 29.8366,69.4098535 29.8716,69.5688535" id="Fill-228" fill="#060401"></path>
                    <path d="M29.9338,69.9116535 C29.9358,69.8536535 29.9448,69.7976535 29.9608,69.7416535 C30.0198,69.8286535 30.0788,69.9146535 30.1378,70.0006535 C30.0358,70.0496535 29.9678,70.0206535 29.9338,69.9116535" id="Fill-230" fill="#060401"></path>
                    <path d="M27.9362,66.3149535 C28.0862,66.2989535 28.1862,66.3599535 28.2322,66.5059535 C28.1332,66.4429535 28.0352,66.3789535 27.9362,66.3149535" id="Fill-232" fill="#060401"></path>
                    <path d="M24.1746,66.7278535 C24.2236,66.5778535 24.3336,66.5178535 24.4846,66.5198535 C24.4266,66.6568535 24.3236,66.7268535 24.1746,66.7278535" id="Fill-234" fill="#060401"></path>
                    <path d="M23.0387,72.6924535 C23.0317,72.8474535 22.9487,72.9384535 22.8017,72.9754535 C22.8277,72.8364535 22.9077,72.7424535 23.0387,72.6924535" id="Fill-236" fill="#060401"></path>
                    <path d="M29.1917,73.1712535 C29.1767,73.0182535 29.2417,72.9112535 29.3797,72.8462535 C29.3177,72.9552535 29.2547,73.0632535 29.1917,73.1712535" id="Fill-238" fill="#060401"></path>
                    <path d="M30.8515,73.3963535 C30.9335,73.3143535 31.0155,73.2313535 31.0975,73.1493535 C31.0975,73.1493535 31.1225,73.1713535 31.1225,73.1713535 C31.1635,73.2973535 31.1285,73.3963535 31.0175,73.4683535 C30.9615,73.4443535 30.9065,73.4203535 30.8515,73.3963535" id="Fill-240" fill="#060401"></path>
                    <path d="M28.8773,73.6508535 C28.8923,73.4878535 28.9833,73.3828535 29.1303,73.3218535 C29.1113,73.4808535 29.0293,73.5928535 28.8773,73.6508535" id="Fill-242" fill="#060401"></path>
                    <path d="M30.8497,73.6462535 C30.7877,73.6752535 30.7227,73.6942535 30.6557,73.7032535 C30.7207,73.6012535 30.7857,73.4982535 30.8517,73.3962535 C30.8517,73.3962535 30.8747,73.4142535 30.8747,73.4142535 C30.9527,73.4742535 30.9747,73.5292535 30.9407,73.5782535 C30.9097,73.6232535 30.8797,73.6462535 30.8497,73.6462535" id="Fill-244" fill="#060401"></path>
                    <path d="M22.2283,73.6724535 C22.2403,73.8124535 22.1583,73.8774535 22.0363,73.9104535 C22.1003,73.8314535 22.1643,73.7514535 22.2283,73.6724535" id="Fill-246" fill="#060401"></path>
                    <path d="M30.6711,73.6801535 C30.6561,73.8401535 30.5671,73.9411535 30.4211,73.9981535 C30.4431,73.8441535 30.5251,73.7361535 30.6711,73.6801535" id="Fill-248" fill="#060401"></path>
                    <path d="M30.3809,74.1591535 C30.4159,74.3181535 30.3529,74.4221535 30.2019,74.4771535 C30.1959,74.3341535 30.2569,74.2291535 30.3809,74.1591535" id="Fill-250" fill="#060401"></path>
                    <path d="M21.7866,74.4015535 C21.8086,74.5645535 21.7286,74.6565535 21.5786,74.6985535 C21.6476,74.5995535 21.7176,74.5005535 21.7866,74.4015535" id="Fill-252" fill="#060401"></path>
                    <path d="M29.9338,69.9116535 C30.0038,69.9376535 30.0718,69.9676535 30.1378,70.0006535 C30.1338,70.0816535 30.1218,70.1616535 30.1028,70.2416535 C29.9818,70.1646535 29.9208,70.0576535 29.9338,69.9116535" id="Fill-254" fill="#D0D0D0"></path>
                    <path d="M30.1663,70.4669535 C30.1753,70.3829535 30.1843,70.2979535 30.1943,70.2139535 C30.2533,70.3199535 30.3123,70.4269535 30.3713,70.5329535 C30.3063,70.5019535 30.2373,70.4799535 30.1663,70.4669535" id="Fill-256" fill="#060401"></path>
                    <path d="M30.177,71.6965535 C30.165,71.5465535 30.227,71.4385535 30.363,71.3745535 C30.301,71.4815535 30.239,71.5895535 30.177,71.6965535" id="Fill-258" fill="#060401"></path>
                    <path d="M29.9055,72.1945535 C29.9265,72.0485535 29.9795,71.9225535 30.1155,71.8455535 C30.1045,71.9975535 30.0375,72.1155535 29.9055,72.1945535" id="Fill-260" fill="#060401"></path>
                    <path d="M29.646,72.4346535 C29.679,72.2986535 29.771,72.2276535 29.902,72.1986535 C29.817,72.2766535 29.731,72.3556535 29.646,72.4346535" id="Fill-262" fill="#060401"></path>
                    <path d="M29.443,72.6799535 C29.429,72.5269535 29.502,72.4469535 29.651,72.4309535 C29.582,72.5139535 29.512,72.5969535 29.443,72.6799535" id="Fill-264" fill="#060401"></path>
                    <path d="M31.352,72.6573535 C31.381,72.5903535 31.424,72.5343535 31.48,72.4903535 C31.536,72.4973535 31.588,72.4833535 31.634,72.4473535 C31.694,72.6833535 31.596,72.7493535 31.378,72.6873535 L31.352,72.6573535 Z" id="Fill-266" fill="#060401"></path>
                    <path d="M35.4903,65.7477535 C32.4893,65.8527535 29.8373,65.0797535 27.2743,63.9977535 C25.5953,63.2897535 24.4093,61.9897535 23.6933,60.3257535 C22.8203,58.2977535 24.1163,55.4767535 26.1923,54.7827535 C26.8293,54.5697535 27.5033,54.6207535 28.1303,54.7987535 C29.7823,55.2677535 31.5053,55.3457535 33.1613,55.7767535 C33.2773,55.8067535 33.4173,55.8787535 33.5093,55.8407535 C34.6763,55.3577535 35.9223,55.4787535 37.1333,55.3807535 C38.2603,55.2897535 38.9703,54.5937535 39.6903,53.8717535 C40.5063,53.0537535 41.3633,52.3277535 42.5813,52.1797535 C44.4233,51.9557535 46.1333,52.1067535 47.5133,53.5627535 C47.8743,53.9437535 48.1133,54.3577535 48.1473,54.8397535 C48.3563,57.7567535 47.6353,60.2497535 45.1973,62.1767535 C43.4693,63.5437535 41.5693,64.5237535 39.5323,65.1947535 C38.2023,65.6327535 36.7773,65.9827535 35.4903,65.7477535" id="Fill-268" fill="#060401"></path>
                    <path d="M26.8729,44.9580535 C25.6589,44.3680535 24.6269,43.8140535 23.5529,43.3600535 C22.5319,42.9290535 21.6009,42.3560535 20.6579,41.7910535 C20.2979,41.5760535 19.8209,41.4080535 20.0919,40.9060535 C20.3879,40.3590535 20.8739,40.6380535 21.2639,40.8510535 C22.2629,41.3980535 23.2419,41.9910535 24.3089,42.3950535 C25.9859,43.0280535 27.5739,43.8540535 29.2179,44.5570535 C29.5959,44.7190535 29.8579,44.8990535 29.8549255,45.3300535 C29.8529,45.7280535 29.7239,46.1190535 29.2979,46.1680535 C27.7369,46.3450535 26.7769,47.5680535 25.5479,48.3060535 C24.5429,48.9090535 23.6149,49.6370535 22.5239,50.1040535 C22.1939,50.2460535 21.8939,50.4310535 21.6809,50.7700535 C20.9659,51.9110535 19.8869,52.3690535 18.5679,52.3330535 C18.1189,52.3210535 17.6669,52.3510535 17.2209,52.3090535 C15.5529,52.1540535 14.6449,50.0970535 15.6309,48.7210535 C15.7229,48.5930535 15.8499,48.4250535 15.9829,48.4010535 C17.2409,48.1690535 18.3689,47.3530535 19.7359,47.5980535 C20.2729,47.6940535 20.7499,47.8950535 21.1939,48.1870535 C21.5059,48.3920535 21.7749,48.3960535 22.0909,48.1780535 C23.6199,47.1230535 25.2499,46.2150535 26.8729,44.9580535" id="Fill-270" fill="#060502"></path>
                    <path d="M30.4657,18.0356535 C31.7377,17.3476535 32.5207,16.1506535 33.6877,15.4006535 C35.1877,14.4366535 36.5567,13.2646535 38.2617,12.6416535 C38.4897,12.5576535 38.7107,12.4536535 38.9427,12.3816535 C39.8697,12.0926535 39.9957,12.1776535 40.0127,13.1696535 C40.0557,15.5736535 40.2787,17.9606535 40.6397,20.3376535 C40.7377,20.9806535 40.7557,21.6386535 40.7697,22.2916535 C40.7747,22.5316535 40.6597,22.7856535 40.3497,22.8046535 C40.1007,22.8206535 39.8687,22.7766535 39.7227,22.5236535 C39.5527,22.2286535 39.5267,21.9066535 39.4867,21.5806535 C39.1807,19.1066535 38.8767,16.6326535 39.0197,14.1296535 C39.0237,14.0596535 38.9667,13.9846535 38.9157,13.8526535 C37.7177,14.2096535 36.8447,15.0676535 35.8797,15.7816535 C34.5277,16.7806535 33.3797,17.9866535 32.2617,19.2316535 C31.1407,20.4796535 29.6797,20.3756535 28.6387,19.0396535 C27.6417,17.7596535 26.8907,16.2916535 25.6747,15.1766535 C25.5037,15.0196535 25.3677,14.7776535 25.3147,14.5516535 C25.1617,13.9056535 25.6737,13.4596535 26.3257,13.6136535 C26.8847,13.7456535 27.2367,14.1486535 27.5827,14.5476535 C28.5677,15.6866535 29.5987,16.7876535 30.4657,18.0356535" id="Fill-272" fill="#010101"></path>
                    <path d="M41.3522,44.0429535 C43.1712,44.8619535 44.8192,45.5579535 46.4082,46.3809535 C46.6632,46.5129535 47.0392,46.7269535 47.3312,46.2149535 C48.0792,44.9029535 49.3352,44.8279535 50.6452,45.0279535 C51.1252,45.1009535 51.5912,45.2719535 52.0632,45.3979535 C52.8462,45.6069535 53.1612,46.1959535 53.2662,46.9259535 C53.3712,47.6619535 53.0692,48.2119535 52.3872,48.5099535 C50.6442,49.2709535 48.9112,49.7119535 47.2572,48.2799535 C47.1142,48.1559535 46.8822,48.1419535 46.6992,48.0589535 C44.6302,47.1179535 42.5362,46.2309535 40.5162,45.1839535 C40.2662,45.0549535 39.9822,44.9909535 39.7112,44.9049535 C39.3632,44.7949535 39.1562,44.5499535 39.1052,44.2049535 C39.0512,43.8399535 39.2542,43.5999535 39.5702,43.4279535 C41.3232,42.4709535 43.0312,41.4379535 44.6742,40.3019535 C45.3422,39.8399535 46.0382,39.4369535 46.7672,39.0829535 C46.9862,38.9769535 47.1982,38.8439535 47.4292,38.7729535 C47.6462,38.7069535 47.9322,38.5579535 48.0872,38.8379535 C48.2452,39.1229535 48.1322,39.3639535 47.8502,39.5589535 C47.0782,40.0939535 46.2892,40.6129535 45.5682,41.2119535 C44.3182,42.2489535 42.8492,42.9599535 41.3522,44.0429535" id="Fill-274" fill="#070502"></path>
                    <path d="M21.9853,22.3388535 C21.4293,20.6628535 21.3283,18.9218535 21.3233,17.1788535 C21.3223,16.3348535 21.3333,15.4738535 21.5693,14.6448535 C21.5803,14.6058535 21.5783,14.5638535 21.5813,14.5228535 C21.6113,14.1568535 21.5973,13.7028535 22.1023,13.7128535 C22.6203,13.7228535 22.5613,14.1778535 22.5673,14.5428535 C22.5833,15.4818535 22.6473,16.4218535 22.6053,17.3578535 C22.5393,18.8038535 22.9593,20.1738535 23.1673,21.5768535 C23.2033,21.8178535 23.2403,22.0588535 23.2763,22.2998535 C22.8833,22.9348535 22.7423,22.9398535 21.9853,22.3388535" id="Fill-276" fill="#050505"></path>
                    <path d="M21.9853,22.3388535 C22.4193,22.4458535 22.8603,22.7918535 23.2763,22.2998535 C23.3213,22.3668535 23.3943,22.4288535 23.4063,22.5008535 C23.4733,22.8888535 23.6633,23.3668535 23.1563,23.5538535 C22.6053,23.7578535 22.3553,23.3798535 22.2313,22.8838535 C22.1833,22.6938535 22.0693,22.5198535 21.9853,22.3388535" id="Fill-278" fill="#272727"></path>
                    <path d="M32.1163,71.2115535 C32.1083,70.8885535 32.1013,70.5655535 32.0933,70.2425535 C32.1753,70.2335535 32.2583,70.2245535 32.3413,70.2155535 C32.3413,70.5495535 32.3423,70.8835535 32.3423,71.2185535 C32.2673,71.2155535 32.1913,71.2135535 32.1163,71.2115535" id="Fill-280" fill="#8F8F8F"></path>
                    <path d="M31.3783,72.6872535 C31.4633,72.6072535 31.5483,72.5272535 31.6343,72.4472535 C31.9553,72.8722535 32.3743,73.1772535 32.8383,73.4262535 C33.1303,73.4002535 33.3473,73.6212535 33.6183,73.6622535 C33.7843,73.7532535 33.9503,73.8442535 34.1163,73.9342535 C33.4563,74.2722535 32.8033,74.4432535 32.1853,73.8482535 C31.9123,73.8272535 31.6303,73.6972535 31.3753,73.9122535 C31.2003,73.8232535 31.0253,73.7352535 30.8493,73.6462535 C30.8413,73.5672535 30.8503,73.4892535 30.8753,73.4142535 C31.0093,73.3852535 31.0953,73.3082535 31.1223,73.1712535 C31.2943,73.0552535 31.3673,72.8882535 31.3783,72.6872535" id="Fill-282" fill="#ABABAA"></path>
                    <path d="M31.3753,73.9117535 C31.4043,73.7177535 31.3673,73.4577535 31.6373,73.4317535 C31.9163,73.4057535 32.0453,73.6517535 32.1853,73.8487535 C32.0763,73.9557535 31.9663,74.0637535 31.8573,74.1717535 C31.6963,74.0847535 31.5363,73.9987535 31.3753,73.9117535" id="Fill-284" fill="#2C2C2B"></path>
                    <path d="M31.5968,74.6659535 C31.3988,74.6729535 31.2178,74.7139535 31.1128,74.9069535 C30.8988,74.7659535 30.9298,74.5819535 31.0928,74.4559535 C31.3478,74.2579535 31.4858,74.4559535 31.5968,74.6659535" id="Fill-286" fill="#3E3E3E"></path>
                    <path d="M31.3822,75.1339535 C31.6432,75.0739535 31.9012,75.0659535 32.1522,75.1759535 C31.8842,75.3659535 31.6262,75.3889535 31.3822,75.1339535" id="Fill-288" fill="#3E3E3E"></path>
                    <path d="M32.0851,74.6078535 C31.9701,74.9438535 31.8201,75.0318535 31.6071,74.6758535 C31.7671,74.6528535 31.9261,74.6308535 32.0851,74.6078535" id="Fill-290" fill="#3E3E3E"></path>
                    <path d="M31.1127,74.9072535 C31.2507,74.9242535 31.3317,75.0082535 31.3787,75.1322535 C31.2207,75.1402535 31.1137,75.0862535 31.1127,74.9072535" id="Fill-292" fill="#3E3E3E"></path>
                    <path d="M34.3224,73.8857535 C34.4084,73.7247535 34.4944,73.5637535 34.5804,73.4027535 L34.5864,73.4087535 C34.2244,73.2047535 33.8614,73.0027535 33.5864,72.6797535 C33.7314,72.1747535 33.2004,72.0737535 33.0274,71.7567535 C32.8924,71.5097535 32.5074,71.3207535 32.9114,70.9967535 C34.3104,71.1847535 34.8544,72.4107535 35.7404,73.2437535 C35.3374,73.7217535 34.8284,73.8007535 34.3224,73.8857535" id="Fill-294" fill="#AAAAAA"></path>
                    <path d="M38.748,71.6838535 C38.634,71.7408535 38.518,71.7958535 38.516,71.9498535 C38.104,72.4088535 37.708,72.2608535 37.318,71.9168535 C36.915,71.7308535 35.987,71.8288535 36.813,70.9798535 C37.043,71.0278535 37.28,71.0528535 37.5,71.1288535 C37.736,71.2108535 38.115,71.1478535 38.413,71.0148535 C38.578,70.9418535 38.797,70.9888535 38.992,70.9808535 C39.192,71.3128535 38.4,71.2998535 38.748,71.6838535" id="Fill-296" fill="#A0A0A0"></path>
                    <path d="M37.0319,72.1784535 C37.0879,72.3774535 37.4169,72.5574535 37.0889,72.7834535 C36.8149,72.9724535 36.5159,73.1314535 36.2269,72.8244535 C35.8979,72.4754535 35.5919,72.1064535 35.2759,71.7454535 C35.2379,71.4744535 35.3099,71.3164535 35.6239,71.4064535 C35.7419,71.4354535 35.8589,71.4644535 35.9769,71.4934535 C36.4379,71.5544535 36.7239,71.8834535 37.0319,72.1784535" id="Fill-298" fill="#C0C0C0"></path>
                    <path d="M32.9111,70.9970535 C32.8211,71.7130535 33.5571,71.8340535 33.8401,72.2810535 C34.0501,72.6110535 33.9011,72.6930535 33.5871,72.6800535 C33.1591,72.2060535 32.6811,71.7730535 32.4001,71.1830535 C32.5701,71.1210535 32.7411,71.0590535 32.9111,70.9970535" id="Fill-300" fill="#222222"></path>
                    <path d="M37.0319,72.1784535 C36.5429,72.1614535 36.2579,71.8304535 35.9769,71.4934535 C36.2709,71.3474535 36.3729,70.8884535 36.8129,70.9804535 C36.5799,71.1944535 36.4669,71.4004535 36.8289,71.6034535 C36.9969,71.6984535 37.1549,71.8124535 37.3179,71.9174535 C37.2229,72.0044535 37.1269,72.0914535 37.0319,72.1784535" id="Fill-302" fill="#161616"></path>
                    <path d="M38.748,71.6838535 C38.416,71.3058535 38.839,71.1898535 38.992,70.9808535 C39.14,70.9598535 39.288,70.9388535 39.437,70.9178535 C39.677,70.8728535 39.979,70.7088535 39.952,71.1838535 C39.548,71.3438535 39.245,71.7478535 38.748,71.6838535" id="Fill-304" fill="#C5C5C5"></path>
                    <path d="M39.9524,71.1834535 C39.8504,70.9584535 39.6114,71.0004535 39.4364,70.9174535 C39.6464,70.6884535 39.9594,70.7584535 40.2114,70.6534535 C40.3454,70.7084535 40.4804,70.7634535 40.6144,70.8184535 C40.4994,70.9054535 40.3904,71.0034535 40.2664,71.0744535 C40.1724,71.1284535 40.0574,71.1484535 39.9524,71.1834535" id="Fill-306" fill="#828282"></path>
                    <path d="M35.6236,71.4064535 C35.5076,71.5194535 35.3916,71.6324535 35.2766,71.7454535 C35.0686,71.6454535 34.7236,71.5114535 34.8886,71.2854535 C35.0496,71.0654535 35.4036,71.1754535 35.6236,71.4064535" id="Fill-308" fill="#A0A0A0"></path>
                    <path d="M33.6185,73.6624535 C33.2305,74.0074535 33.0925,73.5244535 32.8385,73.4264535 L32.9405,73.3764535 C32.9735,73.3434535 33.0065,73.3114535 33.0395,73.2794535 L33.0905,73.1814535 C33.2665,73.3414535 33.4425,73.5024535 33.6185,73.6624535" id="Fill-310" fill="#191919"></path>
                    <path d="M33.0399,73.2789535 C33.0249,73.3309535 32.9919,73.3629535 32.9399,73.3759535 C32.9399,73.3759535 32.9509,73.2889535 32.9509,73.2889535 L33.0399,73.2789535 Z" id="Fill-312" fill="#010101"></path>
                    <path d="M30.6328,56.7261535 C31.0008,56.7271535 31.3708,56.7031535 31.7358,56.7331535 C32.6458,56.8091535 32.8218,56.9691535 33.0978,57.8871535 C33.8838,60.4951535 36.8658,61.1901535 38.7878,59.2241535 C39.5048,58.4901535 39.5868,57.5341535 39.6478,56.6181535 C39.6788,56.1461535 39.8248,55.8691535 40.1418,55.5941535 C40.4188,55.3531535 40.6868,55.0991535 40.9368,54.8311535 C42.1208,53.5591535 43.5998,53.5031535 45.1268,53.8951535 C46.4118,54.2251535 46.8078,54.9311535 46.7438,56.2631535 C46.6528,58.1891535 45.7248,59.6821535 44.3348,60.9081535 C42.3358,62.6731535 39.9848,63.8111535 37.3618,64.2021535 C35.0428,64.5471535 32.7308,64.3111535 30.4528,63.6341535 C28.9428,63.1851535 27.6668,62.3771535 26.4798,61.4201535 C25.6118,60.7211535 25.4158,59.2331535 25.8828,58.1611535 C26.3508,57.0871535 27.3938,56.4311535 28.6118,56.5041535 C29.0418,56.5301535 29.5188,56.3381535 29.9018,56.7011535 C30.1388,56.9061535 30.3838,56.8871535 30.6328,56.7261535" id="Fill-314" fill="#D0D0D0"></path>
                    <path d="M38.0322,56.7271535 C37.9702,57.4751535 38.3462,58.1811535 37.6212,58.6241535 C36.8142,59.1181535 35.9262,59.2221535 35.0512,58.8081535 C34.5882,58.5891535 34.5222,58.2141535 34.6622,57.6781535 C34.7852,57.2081535 34.8842,56.9701535 35.4142,56.9901535 C36.2312,57.0201535 37.0432,56.9031535 38.0322,56.7271535" id="Fill-316" fill="#F9F9F8"></path>
                    <path d="M30.6328,56.7261535 C30.3778,57.0581535 30.1348,57.0231535 29.9018,56.7011535 C30.1458,56.7091535 30.3888,56.7181535 30.6328,56.7261535" id="Fill-318" fill="#F3F3F2"></path>
                    <path d="M24.6669,57.2631535 C24.6409,57.2691535 24.6019,57.2881535 24.5909,57.2781535 C24.5699,57.2581535 24.5499,57.2181535 24.5569,57.1931535 C24.5809,57.0981535 24.6329,57.0881535 24.6819,57.1681535 C24.6939,57.1891535 24.6729,57.2311535 24.6669,57.2631535" id="Fill-320" fill="#252321"></path>
                    <path d="M20.1778,48.9379535 C20.3198,49.4659535 19.8368,49.9319535 20.2258,50.4089535 C20.3938,50.6149535 20.1608,50.7559535 19.9838,50.8629535 C18.9518,51.4879535 17.8638,51.3779535 16.7948,51.0349535 C16.2828,50.8709535 16.2928,50.3539535 16.3128,49.8869535 C16.3338,49.4059535 16.4418,49.0479535 16.9858,48.8679535 C18.0818,48.5049535 19.1318,48.6529535 20.1778,48.9379535" id="Fill-322" fill="#F9F9F9"></path>
                    <path d="M49.6414,48.1422535 C49.3594,48.1232535 49.0714,48.1352535 48.7974,48.0782535 C48.3014,47.9762535 48.0114,47.6722535 48.0324,47.1372535 C48.0504,46.6692535 48.1394,46.2622535 48.6854,46.1032535 C49.8584,45.7612535 50.9304,46.1992535 51.9954,46.5472535 C52.4304,46.6902535 52.3324,47.3372535 51.8774,47.6192535 C51.4334,47.8952535 50.6094,48.0752535 49.6414,48.1422535" id="Fill-324" fill="#F9F9F9"></path>
                    <path d="M34.5863,73.4085535 C34.6133,73.3495535 34.6393,73.2915535 34.6663,73.2325535 C34.8243,73.3845535 34.6563,73.3705535 34.5803,73.4035535 C34.5803,73.4035535 34.5863,73.4085535 34.5863,73.4085535" id="Fill-326" fill="#494949"></path>
                    <path d="M31.6516,57.1343535 C31.5376,57.2573535 31.3946,57.3383535 31.2306,57.3103535 C31.1046,57.2893535 30.9896,57.1343535 31.0846,57.0593535 C31.1916,56.9753535 31.3856,56.9893535 31.5436,56.9853535 C31.6476,56.9833535 31.6846,57.0543535 31.6516,57.1343535" id="Fill-328" fill="#F3F3F3"></path>
                </g>
            </g>
        </g>
    </g>
</svg>